%TF.GenerationSoftware,KiCad,Pcbnew,9.0.6*%
%TF.CreationDate,2026-03-15T00:02:25+05:30*%
%TF.ProjectId,PCB,5043422e-6b69-4636-9164-5f7063625858,rev?*%
%TF.SameCoordinates,Original*%
%TF.FileFunction,Legend,Bot*%
%TF.FilePolarity,Positive*%
%FSLAX46Y46*%
G04 Gerber Fmt 4.6, Leading zero omitted, Abs format (unit mm)*
G04 Created by KiCad (PCBNEW 9.0.6) date 2026-03-15 00:02:25*
%MOMM*%
%LPD*%
G01*
G04 APERTURE LIST*
%ADD10C,0.150000*%
%ADD11C,0.120000*%
G04 APERTURE END LIST*
D10*
X121654819Y-129686964D02*
X120654819Y-129686964D01*
X120654819Y-129686964D02*
X120654819Y-129925059D01*
X120654819Y-129925059D02*
X120702438Y-130067916D01*
X120702438Y-130067916D02*
X120797676Y-130163154D01*
X120797676Y-130163154D02*
X120892914Y-130210773D01*
X120892914Y-130210773D02*
X121083390Y-130258392D01*
X121083390Y-130258392D02*
X121226247Y-130258392D01*
X121226247Y-130258392D02*
X121416723Y-130210773D01*
X121416723Y-130210773D02*
X121511961Y-130163154D01*
X121511961Y-130163154D02*
X121607200Y-130067916D01*
X121607200Y-130067916D02*
X121654819Y-129925059D01*
X121654819Y-129925059D02*
X121654819Y-129686964D01*
X120654819Y-130591726D02*
X120654819Y-131210773D01*
X120654819Y-131210773D02*
X121035771Y-130877440D01*
X121035771Y-130877440D02*
X121035771Y-131020297D01*
X121035771Y-131020297D02*
X121083390Y-131115535D01*
X121083390Y-131115535D02*
X121131009Y-131163154D01*
X121131009Y-131163154D02*
X121226247Y-131210773D01*
X121226247Y-131210773D02*
X121464342Y-131210773D01*
X121464342Y-131210773D02*
X121559580Y-131163154D01*
X121559580Y-131163154D02*
X121607200Y-131115535D01*
X121607200Y-131115535D02*
X121654819Y-131020297D01*
X121654819Y-131020297D02*
X121654819Y-130734583D01*
X121654819Y-130734583D02*
X121607200Y-130639345D01*
X121607200Y-130639345D02*
X121559580Y-130591726D01*
X120654819Y-131829821D02*
X120654819Y-131925059D01*
X120654819Y-131925059D02*
X120702438Y-132020297D01*
X120702438Y-132020297D02*
X120750057Y-132067916D01*
X120750057Y-132067916D02*
X120845295Y-132115535D01*
X120845295Y-132115535D02*
X121035771Y-132163154D01*
X121035771Y-132163154D02*
X121273866Y-132163154D01*
X121273866Y-132163154D02*
X121464342Y-132115535D01*
X121464342Y-132115535D02*
X121559580Y-132067916D01*
X121559580Y-132067916D02*
X121607200Y-132020297D01*
X121607200Y-132020297D02*
X121654819Y-131925059D01*
X121654819Y-131925059D02*
X121654819Y-131829821D01*
X121654819Y-131829821D02*
X121607200Y-131734583D01*
X121607200Y-131734583D02*
X121559580Y-131686964D01*
X121559580Y-131686964D02*
X121464342Y-131639345D01*
X121464342Y-131639345D02*
X121273866Y-131591726D01*
X121273866Y-131591726D02*
X121035771Y-131591726D01*
X121035771Y-131591726D02*
X120845295Y-131639345D01*
X120845295Y-131639345D02*
X120750057Y-131686964D01*
X120750057Y-131686964D02*
X120702438Y-131734583D01*
X120702438Y-131734583D02*
X120654819Y-131829821D01*
X121334819Y-134449345D02*
X120334819Y-134449345D01*
X121334819Y-135020773D02*
X120763390Y-134592202D01*
X120334819Y-135020773D02*
X120906247Y-134449345D01*
X202617319Y-92063155D02*
X201617319Y-92063155D01*
X201617319Y-92063155D02*
X201617319Y-92301250D01*
X201617319Y-92301250D02*
X201664938Y-92444107D01*
X201664938Y-92444107D02*
X201760176Y-92539345D01*
X201760176Y-92539345D02*
X201855414Y-92586964D01*
X201855414Y-92586964D02*
X202045890Y-92634583D01*
X202045890Y-92634583D02*
X202188747Y-92634583D01*
X202188747Y-92634583D02*
X202379223Y-92586964D01*
X202379223Y-92586964D02*
X202474461Y-92539345D01*
X202474461Y-92539345D02*
X202569700Y-92444107D01*
X202569700Y-92444107D02*
X202617319Y-92301250D01*
X202617319Y-92301250D02*
X202617319Y-92063155D01*
X202045890Y-93206012D02*
X201998271Y-93110774D01*
X201998271Y-93110774D02*
X201950652Y-93063155D01*
X201950652Y-93063155D02*
X201855414Y-93015536D01*
X201855414Y-93015536D02*
X201807795Y-93015536D01*
X201807795Y-93015536D02*
X201712557Y-93063155D01*
X201712557Y-93063155D02*
X201664938Y-93110774D01*
X201664938Y-93110774D02*
X201617319Y-93206012D01*
X201617319Y-93206012D02*
X201617319Y-93396488D01*
X201617319Y-93396488D02*
X201664938Y-93491726D01*
X201664938Y-93491726D02*
X201712557Y-93539345D01*
X201712557Y-93539345D02*
X201807795Y-93586964D01*
X201807795Y-93586964D02*
X201855414Y-93586964D01*
X201855414Y-93586964D02*
X201950652Y-93539345D01*
X201950652Y-93539345D02*
X201998271Y-93491726D01*
X201998271Y-93491726D02*
X202045890Y-93396488D01*
X202045890Y-93396488D02*
X202045890Y-93206012D01*
X202045890Y-93206012D02*
X202093509Y-93110774D01*
X202093509Y-93110774D02*
X202141128Y-93063155D01*
X202141128Y-93063155D02*
X202236366Y-93015536D01*
X202236366Y-93015536D02*
X202426842Y-93015536D01*
X202426842Y-93015536D02*
X202522080Y-93063155D01*
X202522080Y-93063155D02*
X202569700Y-93110774D01*
X202569700Y-93110774D02*
X202617319Y-93206012D01*
X202617319Y-93206012D02*
X202617319Y-93396488D01*
X202617319Y-93396488D02*
X202569700Y-93491726D01*
X202569700Y-93491726D02*
X202522080Y-93539345D01*
X202522080Y-93539345D02*
X202426842Y-93586964D01*
X202426842Y-93586964D02*
X202236366Y-93586964D01*
X202236366Y-93586964D02*
X202141128Y-93539345D01*
X202141128Y-93539345D02*
X202093509Y-93491726D01*
X202093509Y-93491726D02*
X202045890Y-93396488D01*
X202297319Y-96349345D02*
X201297319Y-96349345D01*
X202297319Y-96920773D02*
X201725890Y-96492202D01*
X201297319Y-96920773D02*
X201868747Y-96349345D01*
X269292319Y-110636964D02*
X268292319Y-110636964D01*
X268292319Y-110636964D02*
X268292319Y-110875059D01*
X268292319Y-110875059D02*
X268339938Y-111017916D01*
X268339938Y-111017916D02*
X268435176Y-111113154D01*
X268435176Y-111113154D02*
X268530414Y-111160773D01*
X268530414Y-111160773D02*
X268720890Y-111208392D01*
X268720890Y-111208392D02*
X268863747Y-111208392D01*
X268863747Y-111208392D02*
X269054223Y-111160773D01*
X269054223Y-111160773D02*
X269149461Y-111113154D01*
X269149461Y-111113154D02*
X269244700Y-111017916D01*
X269244700Y-111017916D02*
X269292319Y-110875059D01*
X269292319Y-110875059D02*
X269292319Y-110636964D01*
X268387557Y-111589345D02*
X268339938Y-111636964D01*
X268339938Y-111636964D02*
X268292319Y-111732202D01*
X268292319Y-111732202D02*
X268292319Y-111970297D01*
X268292319Y-111970297D02*
X268339938Y-112065535D01*
X268339938Y-112065535D02*
X268387557Y-112113154D01*
X268387557Y-112113154D02*
X268482795Y-112160773D01*
X268482795Y-112160773D02*
X268578033Y-112160773D01*
X268578033Y-112160773D02*
X268720890Y-112113154D01*
X268720890Y-112113154D02*
X269292319Y-111541726D01*
X269292319Y-111541726D02*
X269292319Y-112160773D01*
X268625652Y-113017916D02*
X269292319Y-113017916D01*
X268244700Y-112779821D02*
X268958985Y-112541726D01*
X268958985Y-112541726D02*
X268958985Y-113160773D01*
X268972319Y-115399345D02*
X267972319Y-115399345D01*
X268972319Y-115970773D02*
X268400890Y-115542202D01*
X267972319Y-115970773D02*
X268543747Y-115399345D01*
X288342319Y-110636964D02*
X287342319Y-110636964D01*
X287342319Y-110636964D02*
X287342319Y-110875059D01*
X287342319Y-110875059D02*
X287389938Y-111017916D01*
X287389938Y-111017916D02*
X287485176Y-111113154D01*
X287485176Y-111113154D02*
X287580414Y-111160773D01*
X287580414Y-111160773D02*
X287770890Y-111208392D01*
X287770890Y-111208392D02*
X287913747Y-111208392D01*
X287913747Y-111208392D02*
X288104223Y-111160773D01*
X288104223Y-111160773D02*
X288199461Y-111113154D01*
X288199461Y-111113154D02*
X288294700Y-111017916D01*
X288294700Y-111017916D02*
X288342319Y-110875059D01*
X288342319Y-110875059D02*
X288342319Y-110636964D01*
X287437557Y-111589345D02*
X287389938Y-111636964D01*
X287389938Y-111636964D02*
X287342319Y-111732202D01*
X287342319Y-111732202D02*
X287342319Y-111970297D01*
X287342319Y-111970297D02*
X287389938Y-112065535D01*
X287389938Y-112065535D02*
X287437557Y-112113154D01*
X287437557Y-112113154D02*
X287532795Y-112160773D01*
X287532795Y-112160773D02*
X287628033Y-112160773D01*
X287628033Y-112160773D02*
X287770890Y-112113154D01*
X287770890Y-112113154D02*
X288342319Y-111541726D01*
X288342319Y-111541726D02*
X288342319Y-112160773D01*
X287342319Y-113065535D02*
X287342319Y-112589345D01*
X287342319Y-112589345D02*
X287818509Y-112541726D01*
X287818509Y-112541726D02*
X287770890Y-112589345D01*
X287770890Y-112589345D02*
X287723271Y-112684583D01*
X287723271Y-112684583D02*
X287723271Y-112922678D01*
X287723271Y-112922678D02*
X287770890Y-113017916D01*
X287770890Y-113017916D02*
X287818509Y-113065535D01*
X287818509Y-113065535D02*
X287913747Y-113113154D01*
X287913747Y-113113154D02*
X288151842Y-113113154D01*
X288151842Y-113113154D02*
X288247080Y-113065535D01*
X288247080Y-113065535D02*
X288294700Y-113017916D01*
X288294700Y-113017916D02*
X288342319Y-112922678D01*
X288342319Y-112922678D02*
X288342319Y-112684583D01*
X288342319Y-112684583D02*
X288294700Y-112589345D01*
X288294700Y-112589345D02*
X288247080Y-112541726D01*
X288022319Y-115399345D02*
X287022319Y-115399345D01*
X288022319Y-115970773D02*
X287450890Y-115542202D01*
X287022319Y-115970773D02*
X287593747Y-115399345D01*
X343111069Y-129686964D02*
X342111069Y-129686964D01*
X342111069Y-129686964D02*
X342111069Y-129925059D01*
X342111069Y-129925059D02*
X342158688Y-130067916D01*
X342158688Y-130067916D02*
X342253926Y-130163154D01*
X342253926Y-130163154D02*
X342349164Y-130210773D01*
X342349164Y-130210773D02*
X342539640Y-130258392D01*
X342539640Y-130258392D02*
X342682497Y-130258392D01*
X342682497Y-130258392D02*
X342872973Y-130210773D01*
X342872973Y-130210773D02*
X342968211Y-130163154D01*
X342968211Y-130163154D02*
X343063450Y-130067916D01*
X343063450Y-130067916D02*
X343111069Y-129925059D01*
X343111069Y-129925059D02*
X343111069Y-129686964D01*
X342444402Y-131115535D02*
X343111069Y-131115535D01*
X342063450Y-130877440D02*
X342777735Y-130639345D01*
X342777735Y-130639345D02*
X342777735Y-131258392D01*
X343111069Y-132163154D02*
X343111069Y-131591726D01*
X343111069Y-131877440D02*
X342111069Y-131877440D01*
X342111069Y-131877440D02*
X342253926Y-131782202D01*
X342253926Y-131782202D02*
X342349164Y-131686964D01*
X342349164Y-131686964D02*
X342396783Y-131591726D01*
X342791069Y-134449345D02*
X341791069Y-134449345D01*
X342791069Y-135020773D02*
X342219640Y-134592202D01*
X341791069Y-135020773D02*
X342362497Y-134449345D01*
X278817319Y-91586964D02*
X277817319Y-91586964D01*
X277817319Y-91586964D02*
X277817319Y-91825059D01*
X277817319Y-91825059D02*
X277864938Y-91967916D01*
X277864938Y-91967916D02*
X277960176Y-92063154D01*
X277960176Y-92063154D02*
X278055414Y-92110773D01*
X278055414Y-92110773D02*
X278245890Y-92158392D01*
X278245890Y-92158392D02*
X278388747Y-92158392D01*
X278388747Y-92158392D02*
X278579223Y-92110773D01*
X278579223Y-92110773D02*
X278674461Y-92063154D01*
X278674461Y-92063154D02*
X278769700Y-91967916D01*
X278769700Y-91967916D02*
X278817319Y-91825059D01*
X278817319Y-91825059D02*
X278817319Y-91586964D01*
X278817319Y-93110773D02*
X278817319Y-92539345D01*
X278817319Y-92825059D02*
X277817319Y-92825059D01*
X277817319Y-92825059D02*
X277960176Y-92729821D01*
X277960176Y-92729821D02*
X278055414Y-92634583D01*
X278055414Y-92634583D02*
X278103033Y-92539345D01*
X277912557Y-93491726D02*
X277864938Y-93539345D01*
X277864938Y-93539345D02*
X277817319Y-93634583D01*
X277817319Y-93634583D02*
X277817319Y-93872678D01*
X277817319Y-93872678D02*
X277864938Y-93967916D01*
X277864938Y-93967916D02*
X277912557Y-94015535D01*
X277912557Y-94015535D02*
X278007795Y-94063154D01*
X278007795Y-94063154D02*
X278103033Y-94063154D01*
X278103033Y-94063154D02*
X278245890Y-94015535D01*
X278245890Y-94015535D02*
X278817319Y-93444107D01*
X278817319Y-93444107D02*
X278817319Y-94063154D01*
X278497319Y-96349345D02*
X277497319Y-96349345D01*
X278497319Y-96920773D02*
X277925890Y-96492202D01*
X277497319Y-96920773D02*
X278068747Y-96349345D01*
X140704819Y-129686964D02*
X139704819Y-129686964D01*
X139704819Y-129686964D02*
X139704819Y-129925059D01*
X139704819Y-129925059D02*
X139752438Y-130067916D01*
X139752438Y-130067916D02*
X139847676Y-130163154D01*
X139847676Y-130163154D02*
X139942914Y-130210773D01*
X139942914Y-130210773D02*
X140133390Y-130258392D01*
X140133390Y-130258392D02*
X140276247Y-130258392D01*
X140276247Y-130258392D02*
X140466723Y-130210773D01*
X140466723Y-130210773D02*
X140561961Y-130163154D01*
X140561961Y-130163154D02*
X140657200Y-130067916D01*
X140657200Y-130067916D02*
X140704819Y-129925059D01*
X140704819Y-129925059D02*
X140704819Y-129686964D01*
X139704819Y-130591726D02*
X139704819Y-131210773D01*
X139704819Y-131210773D02*
X140085771Y-130877440D01*
X140085771Y-130877440D02*
X140085771Y-131020297D01*
X140085771Y-131020297D02*
X140133390Y-131115535D01*
X140133390Y-131115535D02*
X140181009Y-131163154D01*
X140181009Y-131163154D02*
X140276247Y-131210773D01*
X140276247Y-131210773D02*
X140514342Y-131210773D01*
X140514342Y-131210773D02*
X140609580Y-131163154D01*
X140609580Y-131163154D02*
X140657200Y-131115535D01*
X140657200Y-131115535D02*
X140704819Y-131020297D01*
X140704819Y-131020297D02*
X140704819Y-130734583D01*
X140704819Y-130734583D02*
X140657200Y-130639345D01*
X140657200Y-130639345D02*
X140609580Y-130591726D01*
X140704819Y-132163154D02*
X140704819Y-131591726D01*
X140704819Y-131877440D02*
X139704819Y-131877440D01*
X139704819Y-131877440D02*
X139847676Y-131782202D01*
X139847676Y-131782202D02*
X139942914Y-131686964D01*
X139942914Y-131686964D02*
X139990533Y-131591726D01*
X140384819Y-134449345D02*
X139384819Y-134449345D01*
X140384819Y-135020773D02*
X139813390Y-134592202D01*
X139384819Y-135020773D02*
X139956247Y-134449345D01*
X352636069Y-167786964D02*
X351636069Y-167786964D01*
X351636069Y-167786964D02*
X351636069Y-168025059D01*
X351636069Y-168025059D02*
X351683688Y-168167916D01*
X351683688Y-168167916D02*
X351778926Y-168263154D01*
X351778926Y-168263154D02*
X351874164Y-168310773D01*
X351874164Y-168310773D02*
X352064640Y-168358392D01*
X352064640Y-168358392D02*
X352207497Y-168358392D01*
X352207497Y-168358392D02*
X352397973Y-168310773D01*
X352397973Y-168310773D02*
X352493211Y-168263154D01*
X352493211Y-168263154D02*
X352588450Y-168167916D01*
X352588450Y-168167916D02*
X352636069Y-168025059D01*
X352636069Y-168025059D02*
X352636069Y-167786964D01*
X351636069Y-169215535D02*
X351636069Y-169025059D01*
X351636069Y-169025059D02*
X351683688Y-168929821D01*
X351683688Y-168929821D02*
X351731307Y-168882202D01*
X351731307Y-168882202D02*
X351874164Y-168786964D01*
X351874164Y-168786964D02*
X352064640Y-168739345D01*
X352064640Y-168739345D02*
X352445592Y-168739345D01*
X352445592Y-168739345D02*
X352540830Y-168786964D01*
X352540830Y-168786964D02*
X352588450Y-168834583D01*
X352588450Y-168834583D02*
X352636069Y-168929821D01*
X352636069Y-168929821D02*
X352636069Y-169120297D01*
X352636069Y-169120297D02*
X352588450Y-169215535D01*
X352588450Y-169215535D02*
X352540830Y-169263154D01*
X352540830Y-169263154D02*
X352445592Y-169310773D01*
X352445592Y-169310773D02*
X352207497Y-169310773D01*
X352207497Y-169310773D02*
X352112259Y-169263154D01*
X352112259Y-169263154D02*
X352064640Y-169215535D01*
X352064640Y-169215535D02*
X352017021Y-169120297D01*
X352017021Y-169120297D02*
X352017021Y-168929821D01*
X352017021Y-168929821D02*
X352064640Y-168834583D01*
X352064640Y-168834583D02*
X352112259Y-168786964D01*
X352112259Y-168786964D02*
X352207497Y-168739345D01*
X352636069Y-170263154D02*
X352636069Y-169691726D01*
X352636069Y-169977440D02*
X351636069Y-169977440D01*
X351636069Y-169977440D02*
X351778926Y-169882202D01*
X351778926Y-169882202D02*
X351874164Y-169786964D01*
X351874164Y-169786964D02*
X351921783Y-169691726D01*
X352316069Y-172549345D02*
X351316069Y-172549345D01*
X352316069Y-173120773D02*
X351744640Y-172692202D01*
X351316069Y-173120773D02*
X351887497Y-172549345D01*
X159754819Y-129686964D02*
X158754819Y-129686964D01*
X158754819Y-129686964D02*
X158754819Y-129925059D01*
X158754819Y-129925059D02*
X158802438Y-130067916D01*
X158802438Y-130067916D02*
X158897676Y-130163154D01*
X158897676Y-130163154D02*
X158992914Y-130210773D01*
X158992914Y-130210773D02*
X159183390Y-130258392D01*
X159183390Y-130258392D02*
X159326247Y-130258392D01*
X159326247Y-130258392D02*
X159516723Y-130210773D01*
X159516723Y-130210773D02*
X159611961Y-130163154D01*
X159611961Y-130163154D02*
X159707200Y-130067916D01*
X159707200Y-130067916D02*
X159754819Y-129925059D01*
X159754819Y-129925059D02*
X159754819Y-129686964D01*
X158754819Y-130591726D02*
X158754819Y-131210773D01*
X158754819Y-131210773D02*
X159135771Y-130877440D01*
X159135771Y-130877440D02*
X159135771Y-131020297D01*
X159135771Y-131020297D02*
X159183390Y-131115535D01*
X159183390Y-131115535D02*
X159231009Y-131163154D01*
X159231009Y-131163154D02*
X159326247Y-131210773D01*
X159326247Y-131210773D02*
X159564342Y-131210773D01*
X159564342Y-131210773D02*
X159659580Y-131163154D01*
X159659580Y-131163154D02*
X159707200Y-131115535D01*
X159707200Y-131115535D02*
X159754819Y-131020297D01*
X159754819Y-131020297D02*
X159754819Y-130734583D01*
X159754819Y-130734583D02*
X159707200Y-130639345D01*
X159707200Y-130639345D02*
X159659580Y-130591726D01*
X158850057Y-131591726D02*
X158802438Y-131639345D01*
X158802438Y-131639345D02*
X158754819Y-131734583D01*
X158754819Y-131734583D02*
X158754819Y-131972678D01*
X158754819Y-131972678D02*
X158802438Y-132067916D01*
X158802438Y-132067916D02*
X158850057Y-132115535D01*
X158850057Y-132115535D02*
X158945295Y-132163154D01*
X158945295Y-132163154D02*
X159040533Y-132163154D01*
X159040533Y-132163154D02*
X159183390Y-132115535D01*
X159183390Y-132115535D02*
X159754819Y-131544107D01*
X159754819Y-131544107D02*
X159754819Y-132163154D01*
X159434819Y-134449345D02*
X158434819Y-134449345D01*
X159434819Y-135020773D02*
X158863390Y-134592202D01*
X158434819Y-135020773D02*
X159006247Y-134449345D01*
X338348569Y-148736964D02*
X337348569Y-148736964D01*
X337348569Y-148736964D02*
X337348569Y-148975059D01*
X337348569Y-148975059D02*
X337396188Y-149117916D01*
X337396188Y-149117916D02*
X337491426Y-149213154D01*
X337491426Y-149213154D02*
X337586664Y-149260773D01*
X337586664Y-149260773D02*
X337777140Y-149308392D01*
X337777140Y-149308392D02*
X337919997Y-149308392D01*
X337919997Y-149308392D02*
X338110473Y-149260773D01*
X338110473Y-149260773D02*
X338205711Y-149213154D01*
X338205711Y-149213154D02*
X338300950Y-149117916D01*
X338300950Y-149117916D02*
X338348569Y-148975059D01*
X338348569Y-148975059D02*
X338348569Y-148736964D01*
X337348569Y-150213154D02*
X337348569Y-149736964D01*
X337348569Y-149736964D02*
X337824759Y-149689345D01*
X337824759Y-149689345D02*
X337777140Y-149736964D01*
X337777140Y-149736964D02*
X337729521Y-149832202D01*
X337729521Y-149832202D02*
X337729521Y-150070297D01*
X337729521Y-150070297D02*
X337777140Y-150165535D01*
X337777140Y-150165535D02*
X337824759Y-150213154D01*
X337824759Y-150213154D02*
X337919997Y-150260773D01*
X337919997Y-150260773D02*
X338158092Y-150260773D01*
X338158092Y-150260773D02*
X338253330Y-150213154D01*
X338253330Y-150213154D02*
X338300950Y-150165535D01*
X338300950Y-150165535D02*
X338348569Y-150070297D01*
X338348569Y-150070297D02*
X338348569Y-149832202D01*
X338348569Y-149832202D02*
X338300950Y-149736964D01*
X338300950Y-149736964D02*
X338253330Y-149689345D01*
X337348569Y-150594107D02*
X337348569Y-151213154D01*
X337348569Y-151213154D02*
X337729521Y-150879821D01*
X337729521Y-150879821D02*
X337729521Y-151022678D01*
X337729521Y-151022678D02*
X337777140Y-151117916D01*
X337777140Y-151117916D02*
X337824759Y-151165535D01*
X337824759Y-151165535D02*
X337919997Y-151213154D01*
X337919997Y-151213154D02*
X338158092Y-151213154D01*
X338158092Y-151213154D02*
X338253330Y-151165535D01*
X338253330Y-151165535D02*
X338300950Y-151117916D01*
X338300950Y-151117916D02*
X338348569Y-151022678D01*
X338348569Y-151022678D02*
X338348569Y-150736964D01*
X338348569Y-150736964D02*
X338300950Y-150641726D01*
X338300950Y-150641726D02*
X338253330Y-150594107D01*
X338028569Y-153499345D02*
X337028569Y-153499345D01*
X338028569Y-154070773D02*
X337457140Y-153642202D01*
X337028569Y-154070773D02*
X337599997Y-153499345D01*
X316917319Y-91586964D02*
X315917319Y-91586964D01*
X315917319Y-91586964D02*
X315917319Y-91825059D01*
X315917319Y-91825059D02*
X315964938Y-91967916D01*
X315964938Y-91967916D02*
X316060176Y-92063154D01*
X316060176Y-92063154D02*
X316155414Y-92110773D01*
X316155414Y-92110773D02*
X316345890Y-92158392D01*
X316345890Y-92158392D02*
X316488747Y-92158392D01*
X316488747Y-92158392D02*
X316679223Y-92110773D01*
X316679223Y-92110773D02*
X316774461Y-92063154D01*
X316774461Y-92063154D02*
X316869700Y-91967916D01*
X316869700Y-91967916D02*
X316917319Y-91825059D01*
X316917319Y-91825059D02*
X316917319Y-91586964D01*
X316917319Y-93110773D02*
X316917319Y-92539345D01*
X316917319Y-92825059D02*
X315917319Y-92825059D01*
X315917319Y-92825059D02*
X316060176Y-92729821D01*
X316060176Y-92729821D02*
X316155414Y-92634583D01*
X316155414Y-92634583D02*
X316203033Y-92539345D01*
X316250652Y-93967916D02*
X316917319Y-93967916D01*
X315869700Y-93729821D02*
X316583985Y-93491726D01*
X316583985Y-93491726D02*
X316583985Y-94110773D01*
X316597319Y-96349345D02*
X315597319Y-96349345D01*
X316597319Y-96920773D02*
X316025890Y-96492202D01*
X315597319Y-96920773D02*
X316168747Y-96349345D01*
X274054819Y-129686964D02*
X273054819Y-129686964D01*
X273054819Y-129686964D02*
X273054819Y-129925059D01*
X273054819Y-129925059D02*
X273102438Y-130067916D01*
X273102438Y-130067916D02*
X273197676Y-130163154D01*
X273197676Y-130163154D02*
X273292914Y-130210773D01*
X273292914Y-130210773D02*
X273483390Y-130258392D01*
X273483390Y-130258392D02*
X273626247Y-130258392D01*
X273626247Y-130258392D02*
X273816723Y-130210773D01*
X273816723Y-130210773D02*
X273911961Y-130163154D01*
X273911961Y-130163154D02*
X274007200Y-130067916D01*
X274007200Y-130067916D02*
X274054819Y-129925059D01*
X274054819Y-129925059D02*
X274054819Y-129686964D01*
X273054819Y-130591726D02*
X273054819Y-131210773D01*
X273054819Y-131210773D02*
X273435771Y-130877440D01*
X273435771Y-130877440D02*
X273435771Y-131020297D01*
X273435771Y-131020297D02*
X273483390Y-131115535D01*
X273483390Y-131115535D02*
X273531009Y-131163154D01*
X273531009Y-131163154D02*
X273626247Y-131210773D01*
X273626247Y-131210773D02*
X273864342Y-131210773D01*
X273864342Y-131210773D02*
X273959580Y-131163154D01*
X273959580Y-131163154D02*
X274007200Y-131115535D01*
X274007200Y-131115535D02*
X274054819Y-131020297D01*
X274054819Y-131020297D02*
X274054819Y-130734583D01*
X274054819Y-130734583D02*
X274007200Y-130639345D01*
X274007200Y-130639345D02*
X273959580Y-130591726D01*
X273483390Y-131782202D02*
X273435771Y-131686964D01*
X273435771Y-131686964D02*
X273388152Y-131639345D01*
X273388152Y-131639345D02*
X273292914Y-131591726D01*
X273292914Y-131591726D02*
X273245295Y-131591726D01*
X273245295Y-131591726D02*
X273150057Y-131639345D01*
X273150057Y-131639345D02*
X273102438Y-131686964D01*
X273102438Y-131686964D02*
X273054819Y-131782202D01*
X273054819Y-131782202D02*
X273054819Y-131972678D01*
X273054819Y-131972678D02*
X273102438Y-132067916D01*
X273102438Y-132067916D02*
X273150057Y-132115535D01*
X273150057Y-132115535D02*
X273245295Y-132163154D01*
X273245295Y-132163154D02*
X273292914Y-132163154D01*
X273292914Y-132163154D02*
X273388152Y-132115535D01*
X273388152Y-132115535D02*
X273435771Y-132067916D01*
X273435771Y-132067916D02*
X273483390Y-131972678D01*
X273483390Y-131972678D02*
X273483390Y-131782202D01*
X273483390Y-131782202D02*
X273531009Y-131686964D01*
X273531009Y-131686964D02*
X273578628Y-131639345D01*
X273578628Y-131639345D02*
X273673866Y-131591726D01*
X273673866Y-131591726D02*
X273864342Y-131591726D01*
X273864342Y-131591726D02*
X273959580Y-131639345D01*
X273959580Y-131639345D02*
X274007200Y-131686964D01*
X274007200Y-131686964D02*
X274054819Y-131782202D01*
X274054819Y-131782202D02*
X274054819Y-131972678D01*
X274054819Y-131972678D02*
X274007200Y-132067916D01*
X274007200Y-132067916D02*
X273959580Y-132115535D01*
X273959580Y-132115535D02*
X273864342Y-132163154D01*
X273864342Y-132163154D02*
X273673866Y-132163154D01*
X273673866Y-132163154D02*
X273578628Y-132115535D01*
X273578628Y-132115535D02*
X273531009Y-132067916D01*
X273531009Y-132067916D02*
X273483390Y-131972678D01*
X273734819Y-134449345D02*
X272734819Y-134449345D01*
X273734819Y-135020773D02*
X273163390Y-134592202D01*
X272734819Y-135020773D02*
X273306247Y-134449345D01*
X207379819Y-148736964D02*
X206379819Y-148736964D01*
X206379819Y-148736964D02*
X206379819Y-148975059D01*
X206379819Y-148975059D02*
X206427438Y-149117916D01*
X206427438Y-149117916D02*
X206522676Y-149213154D01*
X206522676Y-149213154D02*
X206617914Y-149260773D01*
X206617914Y-149260773D02*
X206808390Y-149308392D01*
X206808390Y-149308392D02*
X206951247Y-149308392D01*
X206951247Y-149308392D02*
X207141723Y-149260773D01*
X207141723Y-149260773D02*
X207236961Y-149213154D01*
X207236961Y-149213154D02*
X207332200Y-149117916D01*
X207332200Y-149117916D02*
X207379819Y-148975059D01*
X207379819Y-148975059D02*
X207379819Y-148736964D01*
X206713152Y-150165535D02*
X207379819Y-150165535D01*
X206332200Y-149927440D02*
X207046485Y-149689345D01*
X207046485Y-149689345D02*
X207046485Y-150308392D01*
X206379819Y-150594107D02*
X206379819Y-151260773D01*
X206379819Y-151260773D02*
X207379819Y-150832202D01*
X207059819Y-153499345D02*
X206059819Y-153499345D01*
X207059819Y-154070773D02*
X206488390Y-153642202D01*
X206059819Y-154070773D02*
X206631247Y-153499345D01*
X209761069Y-167786964D02*
X208761069Y-167786964D01*
X208761069Y-167786964D02*
X208761069Y-168025059D01*
X208761069Y-168025059D02*
X208808688Y-168167916D01*
X208808688Y-168167916D02*
X208903926Y-168263154D01*
X208903926Y-168263154D02*
X208999164Y-168310773D01*
X208999164Y-168310773D02*
X209189640Y-168358392D01*
X209189640Y-168358392D02*
X209332497Y-168358392D01*
X209332497Y-168358392D02*
X209522973Y-168310773D01*
X209522973Y-168310773D02*
X209618211Y-168263154D01*
X209618211Y-168263154D02*
X209713450Y-168167916D01*
X209713450Y-168167916D02*
X209761069Y-168025059D01*
X209761069Y-168025059D02*
X209761069Y-167786964D01*
X208761069Y-169263154D02*
X208761069Y-168786964D01*
X208761069Y-168786964D02*
X209237259Y-168739345D01*
X209237259Y-168739345D02*
X209189640Y-168786964D01*
X209189640Y-168786964D02*
X209142021Y-168882202D01*
X209142021Y-168882202D02*
X209142021Y-169120297D01*
X209142021Y-169120297D02*
X209189640Y-169215535D01*
X209189640Y-169215535D02*
X209237259Y-169263154D01*
X209237259Y-169263154D02*
X209332497Y-169310773D01*
X209332497Y-169310773D02*
X209570592Y-169310773D01*
X209570592Y-169310773D02*
X209665830Y-169263154D01*
X209665830Y-169263154D02*
X209713450Y-169215535D01*
X209713450Y-169215535D02*
X209761069Y-169120297D01*
X209761069Y-169120297D02*
X209761069Y-168882202D01*
X209761069Y-168882202D02*
X209713450Y-168786964D01*
X209713450Y-168786964D02*
X209665830Y-168739345D01*
X208761069Y-169644107D02*
X208761069Y-170310773D01*
X208761069Y-170310773D02*
X209761069Y-169882202D01*
X209441069Y-172549345D02*
X208441069Y-172549345D01*
X209441069Y-173120773D02*
X208869640Y-172692202D01*
X208441069Y-173120773D02*
X209012497Y-172549345D01*
X305011069Y-167786964D02*
X304011069Y-167786964D01*
X304011069Y-167786964D02*
X304011069Y-168025059D01*
X304011069Y-168025059D02*
X304058688Y-168167916D01*
X304058688Y-168167916D02*
X304153926Y-168263154D01*
X304153926Y-168263154D02*
X304249164Y-168310773D01*
X304249164Y-168310773D02*
X304439640Y-168358392D01*
X304439640Y-168358392D02*
X304582497Y-168358392D01*
X304582497Y-168358392D02*
X304772973Y-168310773D01*
X304772973Y-168310773D02*
X304868211Y-168263154D01*
X304868211Y-168263154D02*
X304963450Y-168167916D01*
X304963450Y-168167916D02*
X305011069Y-168025059D01*
X305011069Y-168025059D02*
X305011069Y-167786964D01*
X304011069Y-169263154D02*
X304011069Y-168786964D01*
X304011069Y-168786964D02*
X304487259Y-168739345D01*
X304487259Y-168739345D02*
X304439640Y-168786964D01*
X304439640Y-168786964D02*
X304392021Y-168882202D01*
X304392021Y-168882202D02*
X304392021Y-169120297D01*
X304392021Y-169120297D02*
X304439640Y-169215535D01*
X304439640Y-169215535D02*
X304487259Y-169263154D01*
X304487259Y-169263154D02*
X304582497Y-169310773D01*
X304582497Y-169310773D02*
X304820592Y-169310773D01*
X304820592Y-169310773D02*
X304915830Y-169263154D01*
X304915830Y-169263154D02*
X304963450Y-169215535D01*
X304963450Y-169215535D02*
X305011069Y-169120297D01*
X305011069Y-169120297D02*
X305011069Y-168882202D01*
X305011069Y-168882202D02*
X304963450Y-168786964D01*
X304963450Y-168786964D02*
X304915830Y-168739345D01*
X305011069Y-169786964D02*
X305011069Y-169977440D01*
X305011069Y-169977440D02*
X304963450Y-170072678D01*
X304963450Y-170072678D02*
X304915830Y-170120297D01*
X304915830Y-170120297D02*
X304772973Y-170215535D01*
X304772973Y-170215535D02*
X304582497Y-170263154D01*
X304582497Y-170263154D02*
X304201545Y-170263154D01*
X304201545Y-170263154D02*
X304106307Y-170215535D01*
X304106307Y-170215535D02*
X304058688Y-170167916D01*
X304058688Y-170167916D02*
X304011069Y-170072678D01*
X304011069Y-170072678D02*
X304011069Y-169882202D01*
X304011069Y-169882202D02*
X304058688Y-169786964D01*
X304058688Y-169786964D02*
X304106307Y-169739345D01*
X304106307Y-169739345D02*
X304201545Y-169691726D01*
X304201545Y-169691726D02*
X304439640Y-169691726D01*
X304439640Y-169691726D02*
X304534878Y-169739345D01*
X304534878Y-169739345D02*
X304582497Y-169786964D01*
X304582497Y-169786964D02*
X304630116Y-169882202D01*
X304630116Y-169882202D02*
X304630116Y-170072678D01*
X304630116Y-170072678D02*
X304582497Y-170167916D01*
X304582497Y-170167916D02*
X304534878Y-170215535D01*
X304534878Y-170215535D02*
X304439640Y-170263154D01*
X304691069Y-172549345D02*
X303691069Y-172549345D01*
X304691069Y-173120773D02*
X304119640Y-172692202D01*
X303691069Y-173120773D02*
X304262497Y-172549345D01*
X116892319Y-110636964D02*
X115892319Y-110636964D01*
X115892319Y-110636964D02*
X115892319Y-110875059D01*
X115892319Y-110875059D02*
X115939938Y-111017916D01*
X115939938Y-111017916D02*
X116035176Y-111113154D01*
X116035176Y-111113154D02*
X116130414Y-111160773D01*
X116130414Y-111160773D02*
X116320890Y-111208392D01*
X116320890Y-111208392D02*
X116463747Y-111208392D01*
X116463747Y-111208392D02*
X116654223Y-111160773D01*
X116654223Y-111160773D02*
X116749461Y-111113154D01*
X116749461Y-111113154D02*
X116844700Y-111017916D01*
X116844700Y-111017916D02*
X116892319Y-110875059D01*
X116892319Y-110875059D02*
X116892319Y-110636964D01*
X116892319Y-112160773D02*
X116892319Y-111589345D01*
X116892319Y-111875059D02*
X115892319Y-111875059D01*
X115892319Y-111875059D02*
X116035176Y-111779821D01*
X116035176Y-111779821D02*
X116130414Y-111684583D01*
X116130414Y-111684583D02*
X116178033Y-111589345D01*
X115892319Y-113017916D02*
X115892319Y-112827440D01*
X115892319Y-112827440D02*
X115939938Y-112732202D01*
X115939938Y-112732202D02*
X115987557Y-112684583D01*
X115987557Y-112684583D02*
X116130414Y-112589345D01*
X116130414Y-112589345D02*
X116320890Y-112541726D01*
X116320890Y-112541726D02*
X116701842Y-112541726D01*
X116701842Y-112541726D02*
X116797080Y-112589345D01*
X116797080Y-112589345D02*
X116844700Y-112636964D01*
X116844700Y-112636964D02*
X116892319Y-112732202D01*
X116892319Y-112732202D02*
X116892319Y-112922678D01*
X116892319Y-112922678D02*
X116844700Y-113017916D01*
X116844700Y-113017916D02*
X116797080Y-113065535D01*
X116797080Y-113065535D02*
X116701842Y-113113154D01*
X116701842Y-113113154D02*
X116463747Y-113113154D01*
X116463747Y-113113154D02*
X116368509Y-113065535D01*
X116368509Y-113065535D02*
X116320890Y-113017916D01*
X116320890Y-113017916D02*
X116273271Y-112922678D01*
X116273271Y-112922678D02*
X116273271Y-112732202D01*
X116273271Y-112732202D02*
X116320890Y-112636964D01*
X116320890Y-112636964D02*
X116368509Y-112589345D01*
X116368509Y-112589345D02*
X116463747Y-112541726D01*
X116572319Y-115399345D02*
X115572319Y-115399345D01*
X116572319Y-115970773D02*
X116000890Y-115542202D01*
X115572319Y-115970773D02*
X116143747Y-115399345D01*
X231192319Y-110636964D02*
X230192319Y-110636964D01*
X230192319Y-110636964D02*
X230192319Y-110875059D01*
X230192319Y-110875059D02*
X230239938Y-111017916D01*
X230239938Y-111017916D02*
X230335176Y-111113154D01*
X230335176Y-111113154D02*
X230430414Y-111160773D01*
X230430414Y-111160773D02*
X230620890Y-111208392D01*
X230620890Y-111208392D02*
X230763747Y-111208392D01*
X230763747Y-111208392D02*
X230954223Y-111160773D01*
X230954223Y-111160773D02*
X231049461Y-111113154D01*
X231049461Y-111113154D02*
X231144700Y-111017916D01*
X231144700Y-111017916D02*
X231192319Y-110875059D01*
X231192319Y-110875059D02*
X231192319Y-110636964D01*
X230287557Y-111589345D02*
X230239938Y-111636964D01*
X230239938Y-111636964D02*
X230192319Y-111732202D01*
X230192319Y-111732202D02*
X230192319Y-111970297D01*
X230192319Y-111970297D02*
X230239938Y-112065535D01*
X230239938Y-112065535D02*
X230287557Y-112113154D01*
X230287557Y-112113154D02*
X230382795Y-112160773D01*
X230382795Y-112160773D02*
X230478033Y-112160773D01*
X230478033Y-112160773D02*
X230620890Y-112113154D01*
X230620890Y-112113154D02*
X231192319Y-111541726D01*
X231192319Y-111541726D02*
X231192319Y-112160773D01*
X230287557Y-112541726D02*
X230239938Y-112589345D01*
X230239938Y-112589345D02*
X230192319Y-112684583D01*
X230192319Y-112684583D02*
X230192319Y-112922678D01*
X230192319Y-112922678D02*
X230239938Y-113017916D01*
X230239938Y-113017916D02*
X230287557Y-113065535D01*
X230287557Y-113065535D02*
X230382795Y-113113154D01*
X230382795Y-113113154D02*
X230478033Y-113113154D01*
X230478033Y-113113154D02*
X230620890Y-113065535D01*
X230620890Y-113065535D02*
X231192319Y-112494107D01*
X231192319Y-112494107D02*
X231192319Y-113113154D01*
X230872319Y-115399345D02*
X229872319Y-115399345D01*
X230872319Y-115970773D02*
X230300890Y-115542202D01*
X229872319Y-115970773D02*
X230443747Y-115399345D01*
X240717319Y-91586964D02*
X239717319Y-91586964D01*
X239717319Y-91586964D02*
X239717319Y-91825059D01*
X239717319Y-91825059D02*
X239764938Y-91967916D01*
X239764938Y-91967916D02*
X239860176Y-92063154D01*
X239860176Y-92063154D02*
X239955414Y-92110773D01*
X239955414Y-92110773D02*
X240145890Y-92158392D01*
X240145890Y-92158392D02*
X240288747Y-92158392D01*
X240288747Y-92158392D02*
X240479223Y-92110773D01*
X240479223Y-92110773D02*
X240574461Y-92063154D01*
X240574461Y-92063154D02*
X240669700Y-91967916D01*
X240669700Y-91967916D02*
X240717319Y-91825059D01*
X240717319Y-91825059D02*
X240717319Y-91586964D01*
X240717319Y-93110773D02*
X240717319Y-92539345D01*
X240717319Y-92825059D02*
X239717319Y-92825059D01*
X239717319Y-92825059D02*
X239860176Y-92729821D01*
X239860176Y-92729821D02*
X239955414Y-92634583D01*
X239955414Y-92634583D02*
X240003033Y-92539345D01*
X239717319Y-93729821D02*
X239717319Y-93825059D01*
X239717319Y-93825059D02*
X239764938Y-93920297D01*
X239764938Y-93920297D02*
X239812557Y-93967916D01*
X239812557Y-93967916D02*
X239907795Y-94015535D01*
X239907795Y-94015535D02*
X240098271Y-94063154D01*
X240098271Y-94063154D02*
X240336366Y-94063154D01*
X240336366Y-94063154D02*
X240526842Y-94015535D01*
X240526842Y-94015535D02*
X240622080Y-93967916D01*
X240622080Y-93967916D02*
X240669700Y-93920297D01*
X240669700Y-93920297D02*
X240717319Y-93825059D01*
X240717319Y-93825059D02*
X240717319Y-93729821D01*
X240717319Y-93729821D02*
X240669700Y-93634583D01*
X240669700Y-93634583D02*
X240622080Y-93586964D01*
X240622080Y-93586964D02*
X240526842Y-93539345D01*
X240526842Y-93539345D02*
X240336366Y-93491726D01*
X240336366Y-93491726D02*
X240098271Y-93491726D01*
X240098271Y-93491726D02*
X239907795Y-93539345D01*
X239907795Y-93539345D02*
X239812557Y-93586964D01*
X239812557Y-93586964D02*
X239764938Y-93634583D01*
X239764938Y-93634583D02*
X239717319Y-93729821D01*
X240397319Y-96349345D02*
X239397319Y-96349345D01*
X240397319Y-96920773D02*
X239825890Y-96492202D01*
X239397319Y-96920773D02*
X239968747Y-96349345D01*
X297867319Y-91586964D02*
X296867319Y-91586964D01*
X296867319Y-91586964D02*
X296867319Y-91825059D01*
X296867319Y-91825059D02*
X296914938Y-91967916D01*
X296914938Y-91967916D02*
X297010176Y-92063154D01*
X297010176Y-92063154D02*
X297105414Y-92110773D01*
X297105414Y-92110773D02*
X297295890Y-92158392D01*
X297295890Y-92158392D02*
X297438747Y-92158392D01*
X297438747Y-92158392D02*
X297629223Y-92110773D01*
X297629223Y-92110773D02*
X297724461Y-92063154D01*
X297724461Y-92063154D02*
X297819700Y-91967916D01*
X297819700Y-91967916D02*
X297867319Y-91825059D01*
X297867319Y-91825059D02*
X297867319Y-91586964D01*
X297867319Y-93110773D02*
X297867319Y-92539345D01*
X297867319Y-92825059D02*
X296867319Y-92825059D01*
X296867319Y-92825059D02*
X297010176Y-92729821D01*
X297010176Y-92729821D02*
X297105414Y-92634583D01*
X297105414Y-92634583D02*
X297153033Y-92539345D01*
X296867319Y-93444107D02*
X296867319Y-94063154D01*
X296867319Y-94063154D02*
X297248271Y-93729821D01*
X297248271Y-93729821D02*
X297248271Y-93872678D01*
X297248271Y-93872678D02*
X297295890Y-93967916D01*
X297295890Y-93967916D02*
X297343509Y-94015535D01*
X297343509Y-94015535D02*
X297438747Y-94063154D01*
X297438747Y-94063154D02*
X297676842Y-94063154D01*
X297676842Y-94063154D02*
X297772080Y-94015535D01*
X297772080Y-94015535D02*
X297819700Y-93967916D01*
X297819700Y-93967916D02*
X297867319Y-93872678D01*
X297867319Y-93872678D02*
X297867319Y-93586964D01*
X297867319Y-93586964D02*
X297819700Y-93491726D01*
X297819700Y-93491726D02*
X297772080Y-93444107D01*
X297547319Y-96349345D02*
X296547319Y-96349345D01*
X297547319Y-96920773D02*
X296975890Y-96492202D01*
X296547319Y-96920773D02*
X297118747Y-96349345D01*
X250242319Y-110636964D02*
X249242319Y-110636964D01*
X249242319Y-110636964D02*
X249242319Y-110875059D01*
X249242319Y-110875059D02*
X249289938Y-111017916D01*
X249289938Y-111017916D02*
X249385176Y-111113154D01*
X249385176Y-111113154D02*
X249480414Y-111160773D01*
X249480414Y-111160773D02*
X249670890Y-111208392D01*
X249670890Y-111208392D02*
X249813747Y-111208392D01*
X249813747Y-111208392D02*
X250004223Y-111160773D01*
X250004223Y-111160773D02*
X250099461Y-111113154D01*
X250099461Y-111113154D02*
X250194700Y-111017916D01*
X250194700Y-111017916D02*
X250242319Y-110875059D01*
X250242319Y-110875059D02*
X250242319Y-110636964D01*
X249337557Y-111589345D02*
X249289938Y-111636964D01*
X249289938Y-111636964D02*
X249242319Y-111732202D01*
X249242319Y-111732202D02*
X249242319Y-111970297D01*
X249242319Y-111970297D02*
X249289938Y-112065535D01*
X249289938Y-112065535D02*
X249337557Y-112113154D01*
X249337557Y-112113154D02*
X249432795Y-112160773D01*
X249432795Y-112160773D02*
X249528033Y-112160773D01*
X249528033Y-112160773D02*
X249670890Y-112113154D01*
X249670890Y-112113154D02*
X250242319Y-111541726D01*
X250242319Y-111541726D02*
X250242319Y-112160773D01*
X249242319Y-112494107D02*
X249242319Y-113113154D01*
X249242319Y-113113154D02*
X249623271Y-112779821D01*
X249623271Y-112779821D02*
X249623271Y-112922678D01*
X249623271Y-112922678D02*
X249670890Y-113017916D01*
X249670890Y-113017916D02*
X249718509Y-113065535D01*
X249718509Y-113065535D02*
X249813747Y-113113154D01*
X249813747Y-113113154D02*
X250051842Y-113113154D01*
X250051842Y-113113154D02*
X250147080Y-113065535D01*
X250147080Y-113065535D02*
X250194700Y-113017916D01*
X250194700Y-113017916D02*
X250242319Y-112922678D01*
X250242319Y-112922678D02*
X250242319Y-112636964D01*
X250242319Y-112636964D02*
X250194700Y-112541726D01*
X250194700Y-112541726D02*
X250147080Y-112494107D01*
X249922319Y-115399345D02*
X248922319Y-115399345D01*
X249922319Y-115970773D02*
X249350890Y-115542202D01*
X248922319Y-115970773D02*
X249493747Y-115399345D01*
X197854819Y-129686964D02*
X196854819Y-129686964D01*
X196854819Y-129686964D02*
X196854819Y-129925059D01*
X196854819Y-129925059D02*
X196902438Y-130067916D01*
X196902438Y-130067916D02*
X196997676Y-130163154D01*
X196997676Y-130163154D02*
X197092914Y-130210773D01*
X197092914Y-130210773D02*
X197283390Y-130258392D01*
X197283390Y-130258392D02*
X197426247Y-130258392D01*
X197426247Y-130258392D02*
X197616723Y-130210773D01*
X197616723Y-130210773D02*
X197711961Y-130163154D01*
X197711961Y-130163154D02*
X197807200Y-130067916D01*
X197807200Y-130067916D02*
X197854819Y-129925059D01*
X197854819Y-129925059D02*
X197854819Y-129686964D01*
X196854819Y-130591726D02*
X196854819Y-131210773D01*
X196854819Y-131210773D02*
X197235771Y-130877440D01*
X197235771Y-130877440D02*
X197235771Y-131020297D01*
X197235771Y-131020297D02*
X197283390Y-131115535D01*
X197283390Y-131115535D02*
X197331009Y-131163154D01*
X197331009Y-131163154D02*
X197426247Y-131210773D01*
X197426247Y-131210773D02*
X197664342Y-131210773D01*
X197664342Y-131210773D02*
X197759580Y-131163154D01*
X197759580Y-131163154D02*
X197807200Y-131115535D01*
X197807200Y-131115535D02*
X197854819Y-131020297D01*
X197854819Y-131020297D02*
X197854819Y-130734583D01*
X197854819Y-130734583D02*
X197807200Y-130639345D01*
X197807200Y-130639345D02*
X197759580Y-130591726D01*
X197188152Y-132067916D02*
X197854819Y-132067916D01*
X196807200Y-131829821D02*
X197521485Y-131591726D01*
X197521485Y-131591726D02*
X197521485Y-132210773D01*
X197534819Y-134449345D02*
X196534819Y-134449345D01*
X197534819Y-135020773D02*
X196963390Y-134592202D01*
X196534819Y-135020773D02*
X197106247Y-134449345D01*
X255004819Y-129686964D02*
X254004819Y-129686964D01*
X254004819Y-129686964D02*
X254004819Y-129925059D01*
X254004819Y-129925059D02*
X254052438Y-130067916D01*
X254052438Y-130067916D02*
X254147676Y-130163154D01*
X254147676Y-130163154D02*
X254242914Y-130210773D01*
X254242914Y-130210773D02*
X254433390Y-130258392D01*
X254433390Y-130258392D02*
X254576247Y-130258392D01*
X254576247Y-130258392D02*
X254766723Y-130210773D01*
X254766723Y-130210773D02*
X254861961Y-130163154D01*
X254861961Y-130163154D02*
X254957200Y-130067916D01*
X254957200Y-130067916D02*
X255004819Y-129925059D01*
X255004819Y-129925059D02*
X255004819Y-129686964D01*
X254004819Y-130591726D02*
X254004819Y-131210773D01*
X254004819Y-131210773D02*
X254385771Y-130877440D01*
X254385771Y-130877440D02*
X254385771Y-131020297D01*
X254385771Y-131020297D02*
X254433390Y-131115535D01*
X254433390Y-131115535D02*
X254481009Y-131163154D01*
X254481009Y-131163154D02*
X254576247Y-131210773D01*
X254576247Y-131210773D02*
X254814342Y-131210773D01*
X254814342Y-131210773D02*
X254909580Y-131163154D01*
X254909580Y-131163154D02*
X254957200Y-131115535D01*
X254957200Y-131115535D02*
X255004819Y-131020297D01*
X255004819Y-131020297D02*
X255004819Y-130734583D01*
X255004819Y-130734583D02*
X254957200Y-130639345D01*
X254957200Y-130639345D02*
X254909580Y-130591726D01*
X254004819Y-131544107D02*
X254004819Y-132210773D01*
X254004819Y-132210773D02*
X255004819Y-131782202D01*
X254684819Y-134449345D02*
X253684819Y-134449345D01*
X254684819Y-135020773D02*
X254113390Y-134592202D01*
X253684819Y-135020773D02*
X254256247Y-134449345D01*
X126417319Y-92063155D02*
X125417319Y-92063155D01*
X125417319Y-92063155D02*
X125417319Y-92301250D01*
X125417319Y-92301250D02*
X125464938Y-92444107D01*
X125464938Y-92444107D02*
X125560176Y-92539345D01*
X125560176Y-92539345D02*
X125655414Y-92586964D01*
X125655414Y-92586964D02*
X125845890Y-92634583D01*
X125845890Y-92634583D02*
X125988747Y-92634583D01*
X125988747Y-92634583D02*
X126179223Y-92586964D01*
X126179223Y-92586964D02*
X126274461Y-92539345D01*
X126274461Y-92539345D02*
X126369700Y-92444107D01*
X126369700Y-92444107D02*
X126417319Y-92301250D01*
X126417319Y-92301250D02*
X126417319Y-92063155D01*
X125417319Y-92967917D02*
X125417319Y-93586964D01*
X125417319Y-93586964D02*
X125798271Y-93253631D01*
X125798271Y-93253631D02*
X125798271Y-93396488D01*
X125798271Y-93396488D02*
X125845890Y-93491726D01*
X125845890Y-93491726D02*
X125893509Y-93539345D01*
X125893509Y-93539345D02*
X125988747Y-93586964D01*
X125988747Y-93586964D02*
X126226842Y-93586964D01*
X126226842Y-93586964D02*
X126322080Y-93539345D01*
X126322080Y-93539345D02*
X126369700Y-93491726D01*
X126369700Y-93491726D02*
X126417319Y-93396488D01*
X126417319Y-93396488D02*
X126417319Y-93110774D01*
X126417319Y-93110774D02*
X126369700Y-93015536D01*
X126369700Y-93015536D02*
X126322080Y-92967917D01*
X126097319Y-96349345D02*
X125097319Y-96349345D01*
X126097319Y-96920773D02*
X125525890Y-96492202D01*
X125097319Y-96920773D02*
X125668747Y-96349345D01*
X221667319Y-92063155D02*
X220667319Y-92063155D01*
X220667319Y-92063155D02*
X220667319Y-92301250D01*
X220667319Y-92301250D02*
X220714938Y-92444107D01*
X220714938Y-92444107D02*
X220810176Y-92539345D01*
X220810176Y-92539345D02*
X220905414Y-92586964D01*
X220905414Y-92586964D02*
X221095890Y-92634583D01*
X221095890Y-92634583D02*
X221238747Y-92634583D01*
X221238747Y-92634583D02*
X221429223Y-92586964D01*
X221429223Y-92586964D02*
X221524461Y-92539345D01*
X221524461Y-92539345D02*
X221619700Y-92444107D01*
X221619700Y-92444107D02*
X221667319Y-92301250D01*
X221667319Y-92301250D02*
X221667319Y-92063155D01*
X221667319Y-93110774D02*
X221667319Y-93301250D01*
X221667319Y-93301250D02*
X221619700Y-93396488D01*
X221619700Y-93396488D02*
X221572080Y-93444107D01*
X221572080Y-93444107D02*
X221429223Y-93539345D01*
X221429223Y-93539345D02*
X221238747Y-93586964D01*
X221238747Y-93586964D02*
X220857795Y-93586964D01*
X220857795Y-93586964D02*
X220762557Y-93539345D01*
X220762557Y-93539345D02*
X220714938Y-93491726D01*
X220714938Y-93491726D02*
X220667319Y-93396488D01*
X220667319Y-93396488D02*
X220667319Y-93206012D01*
X220667319Y-93206012D02*
X220714938Y-93110774D01*
X220714938Y-93110774D02*
X220762557Y-93063155D01*
X220762557Y-93063155D02*
X220857795Y-93015536D01*
X220857795Y-93015536D02*
X221095890Y-93015536D01*
X221095890Y-93015536D02*
X221191128Y-93063155D01*
X221191128Y-93063155D02*
X221238747Y-93110774D01*
X221238747Y-93110774D02*
X221286366Y-93206012D01*
X221286366Y-93206012D02*
X221286366Y-93396488D01*
X221286366Y-93396488D02*
X221238747Y-93491726D01*
X221238747Y-93491726D02*
X221191128Y-93539345D01*
X221191128Y-93539345D02*
X221095890Y-93586964D01*
X221347319Y-96349345D02*
X220347319Y-96349345D01*
X221347319Y-96920773D02*
X220775890Y-96492202D01*
X220347319Y-96920773D02*
X220918747Y-96349345D01*
X183567319Y-92063155D02*
X182567319Y-92063155D01*
X182567319Y-92063155D02*
X182567319Y-92301250D01*
X182567319Y-92301250D02*
X182614938Y-92444107D01*
X182614938Y-92444107D02*
X182710176Y-92539345D01*
X182710176Y-92539345D02*
X182805414Y-92586964D01*
X182805414Y-92586964D02*
X182995890Y-92634583D01*
X182995890Y-92634583D02*
X183138747Y-92634583D01*
X183138747Y-92634583D02*
X183329223Y-92586964D01*
X183329223Y-92586964D02*
X183424461Y-92539345D01*
X183424461Y-92539345D02*
X183519700Y-92444107D01*
X183519700Y-92444107D02*
X183567319Y-92301250D01*
X183567319Y-92301250D02*
X183567319Y-92063155D01*
X182567319Y-92967917D02*
X182567319Y-93634583D01*
X182567319Y-93634583D02*
X183567319Y-93206012D01*
X183247319Y-96349345D02*
X182247319Y-96349345D01*
X183247319Y-96920773D02*
X182675890Y-96492202D01*
X182247319Y-96920773D02*
X182818747Y-96349345D01*
X138323569Y-167786964D02*
X137323569Y-167786964D01*
X137323569Y-167786964D02*
X137323569Y-168025059D01*
X137323569Y-168025059D02*
X137371188Y-168167916D01*
X137371188Y-168167916D02*
X137466426Y-168263154D01*
X137466426Y-168263154D02*
X137561664Y-168310773D01*
X137561664Y-168310773D02*
X137752140Y-168358392D01*
X137752140Y-168358392D02*
X137894997Y-168358392D01*
X137894997Y-168358392D02*
X138085473Y-168310773D01*
X138085473Y-168310773D02*
X138180711Y-168263154D01*
X138180711Y-168263154D02*
X138275950Y-168167916D01*
X138275950Y-168167916D02*
X138323569Y-168025059D01*
X138323569Y-168025059D02*
X138323569Y-167786964D01*
X137323569Y-169263154D02*
X137323569Y-168786964D01*
X137323569Y-168786964D02*
X137799759Y-168739345D01*
X137799759Y-168739345D02*
X137752140Y-168786964D01*
X137752140Y-168786964D02*
X137704521Y-168882202D01*
X137704521Y-168882202D02*
X137704521Y-169120297D01*
X137704521Y-169120297D02*
X137752140Y-169215535D01*
X137752140Y-169215535D02*
X137799759Y-169263154D01*
X137799759Y-169263154D02*
X137894997Y-169310773D01*
X137894997Y-169310773D02*
X138133092Y-169310773D01*
X138133092Y-169310773D02*
X138228330Y-169263154D01*
X138228330Y-169263154D02*
X138275950Y-169215535D01*
X138275950Y-169215535D02*
X138323569Y-169120297D01*
X138323569Y-169120297D02*
X138323569Y-168882202D01*
X138323569Y-168882202D02*
X138275950Y-168786964D01*
X138275950Y-168786964D02*
X138228330Y-168739345D01*
X137323569Y-170167916D02*
X137323569Y-169977440D01*
X137323569Y-169977440D02*
X137371188Y-169882202D01*
X137371188Y-169882202D02*
X137418807Y-169834583D01*
X137418807Y-169834583D02*
X137561664Y-169739345D01*
X137561664Y-169739345D02*
X137752140Y-169691726D01*
X137752140Y-169691726D02*
X138133092Y-169691726D01*
X138133092Y-169691726D02*
X138228330Y-169739345D01*
X138228330Y-169739345D02*
X138275950Y-169786964D01*
X138275950Y-169786964D02*
X138323569Y-169882202D01*
X138323569Y-169882202D02*
X138323569Y-170072678D01*
X138323569Y-170072678D02*
X138275950Y-170167916D01*
X138275950Y-170167916D02*
X138228330Y-170215535D01*
X138228330Y-170215535D02*
X138133092Y-170263154D01*
X138133092Y-170263154D02*
X137894997Y-170263154D01*
X137894997Y-170263154D02*
X137799759Y-170215535D01*
X137799759Y-170215535D02*
X137752140Y-170167916D01*
X137752140Y-170167916D02*
X137704521Y-170072678D01*
X137704521Y-170072678D02*
X137704521Y-169882202D01*
X137704521Y-169882202D02*
X137752140Y-169786964D01*
X137752140Y-169786964D02*
X137799759Y-169739345D01*
X137799759Y-169739345D02*
X137894997Y-169691726D01*
X138003569Y-172549345D02*
X137003569Y-172549345D01*
X138003569Y-173120773D02*
X137432140Y-172692202D01*
X137003569Y-173120773D02*
X137574997Y-172549345D01*
X264529819Y-148736964D02*
X263529819Y-148736964D01*
X263529819Y-148736964D02*
X263529819Y-148975059D01*
X263529819Y-148975059D02*
X263577438Y-149117916D01*
X263577438Y-149117916D02*
X263672676Y-149213154D01*
X263672676Y-149213154D02*
X263767914Y-149260773D01*
X263767914Y-149260773D02*
X263958390Y-149308392D01*
X263958390Y-149308392D02*
X264101247Y-149308392D01*
X264101247Y-149308392D02*
X264291723Y-149260773D01*
X264291723Y-149260773D02*
X264386961Y-149213154D01*
X264386961Y-149213154D02*
X264482200Y-149117916D01*
X264482200Y-149117916D02*
X264529819Y-148975059D01*
X264529819Y-148975059D02*
X264529819Y-148736964D01*
X263529819Y-150213154D02*
X263529819Y-149736964D01*
X263529819Y-149736964D02*
X264006009Y-149689345D01*
X264006009Y-149689345D02*
X263958390Y-149736964D01*
X263958390Y-149736964D02*
X263910771Y-149832202D01*
X263910771Y-149832202D02*
X263910771Y-150070297D01*
X263910771Y-150070297D02*
X263958390Y-150165535D01*
X263958390Y-150165535D02*
X264006009Y-150213154D01*
X264006009Y-150213154D02*
X264101247Y-150260773D01*
X264101247Y-150260773D02*
X264339342Y-150260773D01*
X264339342Y-150260773D02*
X264434580Y-150213154D01*
X264434580Y-150213154D02*
X264482200Y-150165535D01*
X264482200Y-150165535D02*
X264529819Y-150070297D01*
X264529819Y-150070297D02*
X264529819Y-149832202D01*
X264529819Y-149832202D02*
X264482200Y-149736964D01*
X264482200Y-149736964D02*
X264434580Y-149689345D01*
X263529819Y-150879821D02*
X263529819Y-150975059D01*
X263529819Y-150975059D02*
X263577438Y-151070297D01*
X263577438Y-151070297D02*
X263625057Y-151117916D01*
X263625057Y-151117916D02*
X263720295Y-151165535D01*
X263720295Y-151165535D02*
X263910771Y-151213154D01*
X263910771Y-151213154D02*
X264148866Y-151213154D01*
X264148866Y-151213154D02*
X264339342Y-151165535D01*
X264339342Y-151165535D02*
X264434580Y-151117916D01*
X264434580Y-151117916D02*
X264482200Y-151070297D01*
X264482200Y-151070297D02*
X264529819Y-150975059D01*
X264529819Y-150975059D02*
X264529819Y-150879821D01*
X264529819Y-150879821D02*
X264482200Y-150784583D01*
X264482200Y-150784583D02*
X264434580Y-150736964D01*
X264434580Y-150736964D02*
X264339342Y-150689345D01*
X264339342Y-150689345D02*
X264148866Y-150641726D01*
X264148866Y-150641726D02*
X263910771Y-150641726D01*
X263910771Y-150641726D02*
X263720295Y-150689345D01*
X263720295Y-150689345D02*
X263625057Y-150736964D01*
X263625057Y-150736964D02*
X263577438Y-150784583D01*
X263577438Y-150784583D02*
X263529819Y-150879821D01*
X264209819Y-153499345D02*
X263209819Y-153499345D01*
X264209819Y-154070773D02*
X263638390Y-153642202D01*
X263209819Y-154070773D02*
X263781247Y-153499345D01*
X88317319Y-92063155D02*
X87317319Y-92063155D01*
X87317319Y-92063155D02*
X87317319Y-92301250D01*
X87317319Y-92301250D02*
X87364938Y-92444107D01*
X87364938Y-92444107D02*
X87460176Y-92539345D01*
X87460176Y-92539345D02*
X87555414Y-92586964D01*
X87555414Y-92586964D02*
X87745890Y-92634583D01*
X87745890Y-92634583D02*
X87888747Y-92634583D01*
X87888747Y-92634583D02*
X88079223Y-92586964D01*
X88079223Y-92586964D02*
X88174461Y-92539345D01*
X88174461Y-92539345D02*
X88269700Y-92444107D01*
X88269700Y-92444107D02*
X88317319Y-92301250D01*
X88317319Y-92301250D02*
X88317319Y-92063155D01*
X88317319Y-93586964D02*
X88317319Y-93015536D01*
X88317319Y-93301250D02*
X87317319Y-93301250D01*
X87317319Y-93301250D02*
X87460176Y-93206012D01*
X87460176Y-93206012D02*
X87555414Y-93110774D01*
X87555414Y-93110774D02*
X87603033Y-93015536D01*
X87997319Y-96349345D02*
X86997319Y-96349345D01*
X87997319Y-96920773D02*
X87425890Y-96492202D01*
X86997319Y-96920773D02*
X87568747Y-96349345D01*
X235954819Y-129686964D02*
X234954819Y-129686964D01*
X234954819Y-129686964D02*
X234954819Y-129925059D01*
X234954819Y-129925059D02*
X235002438Y-130067916D01*
X235002438Y-130067916D02*
X235097676Y-130163154D01*
X235097676Y-130163154D02*
X235192914Y-130210773D01*
X235192914Y-130210773D02*
X235383390Y-130258392D01*
X235383390Y-130258392D02*
X235526247Y-130258392D01*
X235526247Y-130258392D02*
X235716723Y-130210773D01*
X235716723Y-130210773D02*
X235811961Y-130163154D01*
X235811961Y-130163154D02*
X235907200Y-130067916D01*
X235907200Y-130067916D02*
X235954819Y-129925059D01*
X235954819Y-129925059D02*
X235954819Y-129686964D01*
X234954819Y-130591726D02*
X234954819Y-131210773D01*
X234954819Y-131210773D02*
X235335771Y-130877440D01*
X235335771Y-130877440D02*
X235335771Y-131020297D01*
X235335771Y-131020297D02*
X235383390Y-131115535D01*
X235383390Y-131115535D02*
X235431009Y-131163154D01*
X235431009Y-131163154D02*
X235526247Y-131210773D01*
X235526247Y-131210773D02*
X235764342Y-131210773D01*
X235764342Y-131210773D02*
X235859580Y-131163154D01*
X235859580Y-131163154D02*
X235907200Y-131115535D01*
X235907200Y-131115535D02*
X235954819Y-131020297D01*
X235954819Y-131020297D02*
X235954819Y-130734583D01*
X235954819Y-130734583D02*
X235907200Y-130639345D01*
X235907200Y-130639345D02*
X235859580Y-130591726D01*
X234954819Y-132067916D02*
X234954819Y-131877440D01*
X234954819Y-131877440D02*
X235002438Y-131782202D01*
X235002438Y-131782202D02*
X235050057Y-131734583D01*
X235050057Y-131734583D02*
X235192914Y-131639345D01*
X235192914Y-131639345D02*
X235383390Y-131591726D01*
X235383390Y-131591726D02*
X235764342Y-131591726D01*
X235764342Y-131591726D02*
X235859580Y-131639345D01*
X235859580Y-131639345D02*
X235907200Y-131686964D01*
X235907200Y-131686964D02*
X235954819Y-131782202D01*
X235954819Y-131782202D02*
X235954819Y-131972678D01*
X235954819Y-131972678D02*
X235907200Y-132067916D01*
X235907200Y-132067916D02*
X235859580Y-132115535D01*
X235859580Y-132115535D02*
X235764342Y-132163154D01*
X235764342Y-132163154D02*
X235526247Y-132163154D01*
X235526247Y-132163154D02*
X235431009Y-132115535D01*
X235431009Y-132115535D02*
X235383390Y-132067916D01*
X235383390Y-132067916D02*
X235335771Y-131972678D01*
X235335771Y-131972678D02*
X235335771Y-131782202D01*
X235335771Y-131782202D02*
X235383390Y-131686964D01*
X235383390Y-131686964D02*
X235431009Y-131639345D01*
X235431009Y-131639345D02*
X235526247Y-131591726D01*
X235634819Y-134449345D02*
X234634819Y-134449345D01*
X235634819Y-135020773D02*
X235063390Y-134592202D01*
X234634819Y-135020773D02*
X235206247Y-134449345D01*
X154992319Y-110636964D02*
X153992319Y-110636964D01*
X153992319Y-110636964D02*
X153992319Y-110875059D01*
X153992319Y-110875059D02*
X154039938Y-111017916D01*
X154039938Y-111017916D02*
X154135176Y-111113154D01*
X154135176Y-111113154D02*
X154230414Y-111160773D01*
X154230414Y-111160773D02*
X154420890Y-111208392D01*
X154420890Y-111208392D02*
X154563747Y-111208392D01*
X154563747Y-111208392D02*
X154754223Y-111160773D01*
X154754223Y-111160773D02*
X154849461Y-111113154D01*
X154849461Y-111113154D02*
X154944700Y-111017916D01*
X154944700Y-111017916D02*
X154992319Y-110875059D01*
X154992319Y-110875059D02*
X154992319Y-110636964D01*
X154992319Y-112160773D02*
X154992319Y-111589345D01*
X154992319Y-111875059D02*
X153992319Y-111875059D01*
X153992319Y-111875059D02*
X154135176Y-111779821D01*
X154135176Y-111779821D02*
X154230414Y-111684583D01*
X154230414Y-111684583D02*
X154278033Y-111589345D01*
X154420890Y-112732202D02*
X154373271Y-112636964D01*
X154373271Y-112636964D02*
X154325652Y-112589345D01*
X154325652Y-112589345D02*
X154230414Y-112541726D01*
X154230414Y-112541726D02*
X154182795Y-112541726D01*
X154182795Y-112541726D02*
X154087557Y-112589345D01*
X154087557Y-112589345D02*
X154039938Y-112636964D01*
X154039938Y-112636964D02*
X153992319Y-112732202D01*
X153992319Y-112732202D02*
X153992319Y-112922678D01*
X153992319Y-112922678D02*
X154039938Y-113017916D01*
X154039938Y-113017916D02*
X154087557Y-113065535D01*
X154087557Y-113065535D02*
X154182795Y-113113154D01*
X154182795Y-113113154D02*
X154230414Y-113113154D01*
X154230414Y-113113154D02*
X154325652Y-113065535D01*
X154325652Y-113065535D02*
X154373271Y-113017916D01*
X154373271Y-113017916D02*
X154420890Y-112922678D01*
X154420890Y-112922678D02*
X154420890Y-112732202D01*
X154420890Y-112732202D02*
X154468509Y-112636964D01*
X154468509Y-112636964D02*
X154516128Y-112589345D01*
X154516128Y-112589345D02*
X154611366Y-112541726D01*
X154611366Y-112541726D02*
X154801842Y-112541726D01*
X154801842Y-112541726D02*
X154897080Y-112589345D01*
X154897080Y-112589345D02*
X154944700Y-112636964D01*
X154944700Y-112636964D02*
X154992319Y-112732202D01*
X154992319Y-112732202D02*
X154992319Y-112922678D01*
X154992319Y-112922678D02*
X154944700Y-113017916D01*
X154944700Y-113017916D02*
X154897080Y-113065535D01*
X154897080Y-113065535D02*
X154801842Y-113113154D01*
X154801842Y-113113154D02*
X154611366Y-113113154D01*
X154611366Y-113113154D02*
X154516128Y-113065535D01*
X154516128Y-113065535D02*
X154468509Y-113017916D01*
X154468509Y-113017916D02*
X154420890Y-112922678D01*
X154672319Y-115399345D02*
X153672319Y-115399345D01*
X154672319Y-115970773D02*
X154100890Y-115542202D01*
X153672319Y-115970773D02*
X154243747Y-115399345D01*
X145467319Y-92063155D02*
X144467319Y-92063155D01*
X144467319Y-92063155D02*
X144467319Y-92301250D01*
X144467319Y-92301250D02*
X144514938Y-92444107D01*
X144514938Y-92444107D02*
X144610176Y-92539345D01*
X144610176Y-92539345D02*
X144705414Y-92586964D01*
X144705414Y-92586964D02*
X144895890Y-92634583D01*
X144895890Y-92634583D02*
X145038747Y-92634583D01*
X145038747Y-92634583D02*
X145229223Y-92586964D01*
X145229223Y-92586964D02*
X145324461Y-92539345D01*
X145324461Y-92539345D02*
X145419700Y-92444107D01*
X145419700Y-92444107D02*
X145467319Y-92301250D01*
X145467319Y-92301250D02*
X145467319Y-92063155D01*
X144800652Y-93491726D02*
X145467319Y-93491726D01*
X144419700Y-93253631D02*
X145133985Y-93015536D01*
X145133985Y-93015536D02*
X145133985Y-93634583D01*
X145147319Y-96349345D02*
X144147319Y-96349345D01*
X145147319Y-96920773D02*
X144575890Y-96492202D01*
X144147319Y-96920773D02*
X144718747Y-96349345D01*
X312154819Y-129686964D02*
X311154819Y-129686964D01*
X311154819Y-129686964D02*
X311154819Y-129925059D01*
X311154819Y-129925059D02*
X311202438Y-130067916D01*
X311202438Y-130067916D02*
X311297676Y-130163154D01*
X311297676Y-130163154D02*
X311392914Y-130210773D01*
X311392914Y-130210773D02*
X311583390Y-130258392D01*
X311583390Y-130258392D02*
X311726247Y-130258392D01*
X311726247Y-130258392D02*
X311916723Y-130210773D01*
X311916723Y-130210773D02*
X312011961Y-130163154D01*
X312011961Y-130163154D02*
X312107200Y-130067916D01*
X312107200Y-130067916D02*
X312154819Y-129925059D01*
X312154819Y-129925059D02*
X312154819Y-129686964D01*
X311488152Y-131115535D02*
X312154819Y-131115535D01*
X311107200Y-130877440D02*
X311821485Y-130639345D01*
X311821485Y-130639345D02*
X311821485Y-131258392D01*
X311154819Y-131829821D02*
X311154819Y-131925059D01*
X311154819Y-131925059D02*
X311202438Y-132020297D01*
X311202438Y-132020297D02*
X311250057Y-132067916D01*
X311250057Y-132067916D02*
X311345295Y-132115535D01*
X311345295Y-132115535D02*
X311535771Y-132163154D01*
X311535771Y-132163154D02*
X311773866Y-132163154D01*
X311773866Y-132163154D02*
X311964342Y-132115535D01*
X311964342Y-132115535D02*
X312059580Y-132067916D01*
X312059580Y-132067916D02*
X312107200Y-132020297D01*
X312107200Y-132020297D02*
X312154819Y-131925059D01*
X312154819Y-131925059D02*
X312154819Y-131829821D01*
X312154819Y-131829821D02*
X312107200Y-131734583D01*
X312107200Y-131734583D02*
X312059580Y-131686964D01*
X312059580Y-131686964D02*
X311964342Y-131639345D01*
X311964342Y-131639345D02*
X311773866Y-131591726D01*
X311773866Y-131591726D02*
X311535771Y-131591726D01*
X311535771Y-131591726D02*
X311345295Y-131639345D01*
X311345295Y-131639345D02*
X311250057Y-131686964D01*
X311250057Y-131686964D02*
X311202438Y-131734583D01*
X311202438Y-131734583D02*
X311154819Y-131829821D01*
X311834819Y-134449345D02*
X310834819Y-134449345D01*
X311834819Y-135020773D02*
X311263390Y-134592202D01*
X310834819Y-135020773D02*
X311406247Y-134449345D01*
X150229819Y-148736964D02*
X149229819Y-148736964D01*
X149229819Y-148736964D02*
X149229819Y-148975059D01*
X149229819Y-148975059D02*
X149277438Y-149117916D01*
X149277438Y-149117916D02*
X149372676Y-149213154D01*
X149372676Y-149213154D02*
X149467914Y-149260773D01*
X149467914Y-149260773D02*
X149658390Y-149308392D01*
X149658390Y-149308392D02*
X149801247Y-149308392D01*
X149801247Y-149308392D02*
X149991723Y-149260773D01*
X149991723Y-149260773D02*
X150086961Y-149213154D01*
X150086961Y-149213154D02*
X150182200Y-149117916D01*
X150182200Y-149117916D02*
X150229819Y-148975059D01*
X150229819Y-148975059D02*
X150229819Y-148736964D01*
X149563152Y-150165535D02*
X150229819Y-150165535D01*
X149182200Y-149927440D02*
X149896485Y-149689345D01*
X149896485Y-149689345D02*
X149896485Y-150308392D01*
X149563152Y-151117916D02*
X150229819Y-151117916D01*
X149182200Y-150879821D02*
X149896485Y-150641726D01*
X149896485Y-150641726D02*
X149896485Y-151260773D01*
X149909819Y-153499345D02*
X148909819Y-153499345D01*
X149909819Y-154070773D02*
X149338390Y-153642202D01*
X148909819Y-154070773D02*
X149481247Y-153499345D01*
X245479819Y-148736964D02*
X244479819Y-148736964D01*
X244479819Y-148736964D02*
X244479819Y-148975059D01*
X244479819Y-148975059D02*
X244527438Y-149117916D01*
X244527438Y-149117916D02*
X244622676Y-149213154D01*
X244622676Y-149213154D02*
X244717914Y-149260773D01*
X244717914Y-149260773D02*
X244908390Y-149308392D01*
X244908390Y-149308392D02*
X245051247Y-149308392D01*
X245051247Y-149308392D02*
X245241723Y-149260773D01*
X245241723Y-149260773D02*
X245336961Y-149213154D01*
X245336961Y-149213154D02*
X245432200Y-149117916D01*
X245432200Y-149117916D02*
X245479819Y-148975059D01*
X245479819Y-148975059D02*
X245479819Y-148736964D01*
X244813152Y-150165535D02*
X245479819Y-150165535D01*
X244432200Y-149927440D02*
X245146485Y-149689345D01*
X245146485Y-149689345D02*
X245146485Y-150308392D01*
X245479819Y-150736964D02*
X245479819Y-150927440D01*
X245479819Y-150927440D02*
X245432200Y-151022678D01*
X245432200Y-151022678D02*
X245384580Y-151070297D01*
X245384580Y-151070297D02*
X245241723Y-151165535D01*
X245241723Y-151165535D02*
X245051247Y-151213154D01*
X245051247Y-151213154D02*
X244670295Y-151213154D01*
X244670295Y-151213154D02*
X244575057Y-151165535D01*
X244575057Y-151165535D02*
X244527438Y-151117916D01*
X244527438Y-151117916D02*
X244479819Y-151022678D01*
X244479819Y-151022678D02*
X244479819Y-150832202D01*
X244479819Y-150832202D02*
X244527438Y-150736964D01*
X244527438Y-150736964D02*
X244575057Y-150689345D01*
X244575057Y-150689345D02*
X244670295Y-150641726D01*
X244670295Y-150641726D02*
X244908390Y-150641726D01*
X244908390Y-150641726D02*
X245003628Y-150689345D01*
X245003628Y-150689345D02*
X245051247Y-150736964D01*
X245051247Y-150736964D02*
X245098866Y-150832202D01*
X245098866Y-150832202D02*
X245098866Y-151022678D01*
X245098866Y-151022678D02*
X245051247Y-151117916D01*
X245051247Y-151117916D02*
X245003628Y-151165535D01*
X245003628Y-151165535D02*
X244908390Y-151213154D01*
X245159819Y-153499345D02*
X244159819Y-153499345D01*
X245159819Y-154070773D02*
X244588390Y-153642202D01*
X244159819Y-154070773D02*
X244731247Y-153499345D01*
X212142319Y-110636964D02*
X211142319Y-110636964D01*
X211142319Y-110636964D02*
X211142319Y-110875059D01*
X211142319Y-110875059D02*
X211189938Y-111017916D01*
X211189938Y-111017916D02*
X211285176Y-111113154D01*
X211285176Y-111113154D02*
X211380414Y-111160773D01*
X211380414Y-111160773D02*
X211570890Y-111208392D01*
X211570890Y-111208392D02*
X211713747Y-111208392D01*
X211713747Y-111208392D02*
X211904223Y-111160773D01*
X211904223Y-111160773D02*
X211999461Y-111113154D01*
X211999461Y-111113154D02*
X212094700Y-111017916D01*
X212094700Y-111017916D02*
X212142319Y-110875059D01*
X212142319Y-110875059D02*
X212142319Y-110636964D01*
X211237557Y-111589345D02*
X211189938Y-111636964D01*
X211189938Y-111636964D02*
X211142319Y-111732202D01*
X211142319Y-111732202D02*
X211142319Y-111970297D01*
X211142319Y-111970297D02*
X211189938Y-112065535D01*
X211189938Y-112065535D02*
X211237557Y-112113154D01*
X211237557Y-112113154D02*
X211332795Y-112160773D01*
X211332795Y-112160773D02*
X211428033Y-112160773D01*
X211428033Y-112160773D02*
X211570890Y-112113154D01*
X211570890Y-112113154D02*
X212142319Y-111541726D01*
X212142319Y-111541726D02*
X212142319Y-112160773D01*
X212142319Y-113113154D02*
X212142319Y-112541726D01*
X212142319Y-112827440D02*
X211142319Y-112827440D01*
X211142319Y-112827440D02*
X211285176Y-112732202D01*
X211285176Y-112732202D02*
X211380414Y-112636964D01*
X211380414Y-112636964D02*
X211428033Y-112541726D01*
X211822319Y-115399345D02*
X210822319Y-115399345D01*
X211822319Y-115970773D02*
X211250890Y-115542202D01*
X210822319Y-115970773D02*
X211393747Y-115399345D01*
X328823569Y-167786964D02*
X327823569Y-167786964D01*
X327823569Y-167786964D02*
X327823569Y-168025059D01*
X327823569Y-168025059D02*
X327871188Y-168167916D01*
X327871188Y-168167916D02*
X327966426Y-168263154D01*
X327966426Y-168263154D02*
X328061664Y-168310773D01*
X328061664Y-168310773D02*
X328252140Y-168358392D01*
X328252140Y-168358392D02*
X328394997Y-168358392D01*
X328394997Y-168358392D02*
X328585473Y-168310773D01*
X328585473Y-168310773D02*
X328680711Y-168263154D01*
X328680711Y-168263154D02*
X328775950Y-168167916D01*
X328775950Y-168167916D02*
X328823569Y-168025059D01*
X328823569Y-168025059D02*
X328823569Y-167786964D01*
X327823569Y-169215535D02*
X327823569Y-169025059D01*
X327823569Y-169025059D02*
X327871188Y-168929821D01*
X327871188Y-168929821D02*
X327918807Y-168882202D01*
X327918807Y-168882202D02*
X328061664Y-168786964D01*
X328061664Y-168786964D02*
X328252140Y-168739345D01*
X328252140Y-168739345D02*
X328633092Y-168739345D01*
X328633092Y-168739345D02*
X328728330Y-168786964D01*
X328728330Y-168786964D02*
X328775950Y-168834583D01*
X328775950Y-168834583D02*
X328823569Y-168929821D01*
X328823569Y-168929821D02*
X328823569Y-169120297D01*
X328823569Y-169120297D02*
X328775950Y-169215535D01*
X328775950Y-169215535D02*
X328728330Y-169263154D01*
X328728330Y-169263154D02*
X328633092Y-169310773D01*
X328633092Y-169310773D02*
X328394997Y-169310773D01*
X328394997Y-169310773D02*
X328299759Y-169263154D01*
X328299759Y-169263154D02*
X328252140Y-169215535D01*
X328252140Y-169215535D02*
X328204521Y-169120297D01*
X328204521Y-169120297D02*
X328204521Y-168929821D01*
X328204521Y-168929821D02*
X328252140Y-168834583D01*
X328252140Y-168834583D02*
X328299759Y-168786964D01*
X328299759Y-168786964D02*
X328394997Y-168739345D01*
X327823569Y-169929821D02*
X327823569Y-170025059D01*
X327823569Y-170025059D02*
X327871188Y-170120297D01*
X327871188Y-170120297D02*
X327918807Y-170167916D01*
X327918807Y-170167916D02*
X328014045Y-170215535D01*
X328014045Y-170215535D02*
X328204521Y-170263154D01*
X328204521Y-170263154D02*
X328442616Y-170263154D01*
X328442616Y-170263154D02*
X328633092Y-170215535D01*
X328633092Y-170215535D02*
X328728330Y-170167916D01*
X328728330Y-170167916D02*
X328775950Y-170120297D01*
X328775950Y-170120297D02*
X328823569Y-170025059D01*
X328823569Y-170025059D02*
X328823569Y-169929821D01*
X328823569Y-169929821D02*
X328775950Y-169834583D01*
X328775950Y-169834583D02*
X328728330Y-169786964D01*
X328728330Y-169786964D02*
X328633092Y-169739345D01*
X328633092Y-169739345D02*
X328442616Y-169691726D01*
X328442616Y-169691726D02*
X328204521Y-169691726D01*
X328204521Y-169691726D02*
X328014045Y-169739345D01*
X328014045Y-169739345D02*
X327918807Y-169786964D01*
X327918807Y-169786964D02*
X327871188Y-169834583D01*
X327871188Y-169834583D02*
X327823569Y-169929821D01*
X328503569Y-172549345D02*
X327503569Y-172549345D01*
X328503569Y-173120773D02*
X327932140Y-172692202D01*
X327503569Y-173120773D02*
X328074997Y-172549345D01*
X95461069Y-129686964D02*
X94461069Y-129686964D01*
X94461069Y-129686964D02*
X94461069Y-129925059D01*
X94461069Y-129925059D02*
X94508688Y-130067916D01*
X94508688Y-130067916D02*
X94603926Y-130163154D01*
X94603926Y-130163154D02*
X94699164Y-130210773D01*
X94699164Y-130210773D02*
X94889640Y-130258392D01*
X94889640Y-130258392D02*
X95032497Y-130258392D01*
X95032497Y-130258392D02*
X95222973Y-130210773D01*
X95222973Y-130210773D02*
X95318211Y-130163154D01*
X95318211Y-130163154D02*
X95413450Y-130067916D01*
X95413450Y-130067916D02*
X95461069Y-129925059D01*
X95461069Y-129925059D02*
X95461069Y-129686964D01*
X94556307Y-130639345D02*
X94508688Y-130686964D01*
X94508688Y-130686964D02*
X94461069Y-130782202D01*
X94461069Y-130782202D02*
X94461069Y-131020297D01*
X94461069Y-131020297D02*
X94508688Y-131115535D01*
X94508688Y-131115535D02*
X94556307Y-131163154D01*
X94556307Y-131163154D02*
X94651545Y-131210773D01*
X94651545Y-131210773D02*
X94746783Y-131210773D01*
X94746783Y-131210773D02*
X94889640Y-131163154D01*
X94889640Y-131163154D02*
X95461069Y-130591726D01*
X95461069Y-130591726D02*
X95461069Y-131210773D01*
X95461069Y-131686964D02*
X95461069Y-131877440D01*
X95461069Y-131877440D02*
X95413450Y-131972678D01*
X95413450Y-131972678D02*
X95365830Y-132020297D01*
X95365830Y-132020297D02*
X95222973Y-132115535D01*
X95222973Y-132115535D02*
X95032497Y-132163154D01*
X95032497Y-132163154D02*
X94651545Y-132163154D01*
X94651545Y-132163154D02*
X94556307Y-132115535D01*
X94556307Y-132115535D02*
X94508688Y-132067916D01*
X94508688Y-132067916D02*
X94461069Y-131972678D01*
X94461069Y-131972678D02*
X94461069Y-131782202D01*
X94461069Y-131782202D02*
X94508688Y-131686964D01*
X94508688Y-131686964D02*
X94556307Y-131639345D01*
X94556307Y-131639345D02*
X94651545Y-131591726D01*
X94651545Y-131591726D02*
X94889640Y-131591726D01*
X94889640Y-131591726D02*
X94984878Y-131639345D01*
X94984878Y-131639345D02*
X95032497Y-131686964D01*
X95032497Y-131686964D02*
X95080116Y-131782202D01*
X95080116Y-131782202D02*
X95080116Y-131972678D01*
X95080116Y-131972678D02*
X95032497Y-132067916D01*
X95032497Y-132067916D02*
X94984878Y-132115535D01*
X94984878Y-132115535D02*
X94889640Y-132163154D01*
X95141069Y-134449345D02*
X94141069Y-134449345D01*
X95141069Y-135020773D02*
X94569640Y-134592202D01*
X94141069Y-135020773D02*
X94712497Y-134449345D01*
X174042319Y-110636964D02*
X173042319Y-110636964D01*
X173042319Y-110636964D02*
X173042319Y-110875059D01*
X173042319Y-110875059D02*
X173089938Y-111017916D01*
X173089938Y-111017916D02*
X173185176Y-111113154D01*
X173185176Y-111113154D02*
X173280414Y-111160773D01*
X173280414Y-111160773D02*
X173470890Y-111208392D01*
X173470890Y-111208392D02*
X173613747Y-111208392D01*
X173613747Y-111208392D02*
X173804223Y-111160773D01*
X173804223Y-111160773D02*
X173899461Y-111113154D01*
X173899461Y-111113154D02*
X173994700Y-111017916D01*
X173994700Y-111017916D02*
X174042319Y-110875059D01*
X174042319Y-110875059D02*
X174042319Y-110636964D01*
X174042319Y-112160773D02*
X174042319Y-111589345D01*
X174042319Y-111875059D02*
X173042319Y-111875059D01*
X173042319Y-111875059D02*
X173185176Y-111779821D01*
X173185176Y-111779821D02*
X173280414Y-111684583D01*
X173280414Y-111684583D02*
X173328033Y-111589345D01*
X174042319Y-112636964D02*
X174042319Y-112827440D01*
X174042319Y-112827440D02*
X173994700Y-112922678D01*
X173994700Y-112922678D02*
X173947080Y-112970297D01*
X173947080Y-112970297D02*
X173804223Y-113065535D01*
X173804223Y-113065535D02*
X173613747Y-113113154D01*
X173613747Y-113113154D02*
X173232795Y-113113154D01*
X173232795Y-113113154D02*
X173137557Y-113065535D01*
X173137557Y-113065535D02*
X173089938Y-113017916D01*
X173089938Y-113017916D02*
X173042319Y-112922678D01*
X173042319Y-112922678D02*
X173042319Y-112732202D01*
X173042319Y-112732202D02*
X173089938Y-112636964D01*
X173089938Y-112636964D02*
X173137557Y-112589345D01*
X173137557Y-112589345D02*
X173232795Y-112541726D01*
X173232795Y-112541726D02*
X173470890Y-112541726D01*
X173470890Y-112541726D02*
X173566128Y-112589345D01*
X173566128Y-112589345D02*
X173613747Y-112636964D01*
X173613747Y-112636964D02*
X173661366Y-112732202D01*
X173661366Y-112732202D02*
X173661366Y-112922678D01*
X173661366Y-112922678D02*
X173613747Y-113017916D01*
X173613747Y-113017916D02*
X173566128Y-113065535D01*
X173566128Y-113065535D02*
X173470890Y-113113154D01*
X173722319Y-115399345D02*
X172722319Y-115399345D01*
X173722319Y-115970773D02*
X173150890Y-115542202D01*
X172722319Y-115970773D02*
X173293747Y-115399345D01*
X350254819Y-110636964D02*
X349254819Y-110636964D01*
X349254819Y-110636964D02*
X349254819Y-110875059D01*
X349254819Y-110875059D02*
X349302438Y-111017916D01*
X349302438Y-111017916D02*
X349397676Y-111113154D01*
X349397676Y-111113154D02*
X349492914Y-111160773D01*
X349492914Y-111160773D02*
X349683390Y-111208392D01*
X349683390Y-111208392D02*
X349826247Y-111208392D01*
X349826247Y-111208392D02*
X350016723Y-111160773D01*
X350016723Y-111160773D02*
X350111961Y-111113154D01*
X350111961Y-111113154D02*
X350207200Y-111017916D01*
X350207200Y-111017916D02*
X350254819Y-110875059D01*
X350254819Y-110875059D02*
X350254819Y-110636964D01*
X349350057Y-111589345D02*
X349302438Y-111636964D01*
X349302438Y-111636964D02*
X349254819Y-111732202D01*
X349254819Y-111732202D02*
X349254819Y-111970297D01*
X349254819Y-111970297D02*
X349302438Y-112065535D01*
X349302438Y-112065535D02*
X349350057Y-112113154D01*
X349350057Y-112113154D02*
X349445295Y-112160773D01*
X349445295Y-112160773D02*
X349540533Y-112160773D01*
X349540533Y-112160773D02*
X349683390Y-112113154D01*
X349683390Y-112113154D02*
X350254819Y-111541726D01*
X350254819Y-111541726D02*
X350254819Y-112160773D01*
X349683390Y-112732202D02*
X349635771Y-112636964D01*
X349635771Y-112636964D02*
X349588152Y-112589345D01*
X349588152Y-112589345D02*
X349492914Y-112541726D01*
X349492914Y-112541726D02*
X349445295Y-112541726D01*
X349445295Y-112541726D02*
X349350057Y-112589345D01*
X349350057Y-112589345D02*
X349302438Y-112636964D01*
X349302438Y-112636964D02*
X349254819Y-112732202D01*
X349254819Y-112732202D02*
X349254819Y-112922678D01*
X349254819Y-112922678D02*
X349302438Y-113017916D01*
X349302438Y-113017916D02*
X349350057Y-113065535D01*
X349350057Y-113065535D02*
X349445295Y-113113154D01*
X349445295Y-113113154D02*
X349492914Y-113113154D01*
X349492914Y-113113154D02*
X349588152Y-113065535D01*
X349588152Y-113065535D02*
X349635771Y-113017916D01*
X349635771Y-113017916D02*
X349683390Y-112922678D01*
X349683390Y-112922678D02*
X349683390Y-112732202D01*
X349683390Y-112732202D02*
X349731009Y-112636964D01*
X349731009Y-112636964D02*
X349778628Y-112589345D01*
X349778628Y-112589345D02*
X349873866Y-112541726D01*
X349873866Y-112541726D02*
X350064342Y-112541726D01*
X350064342Y-112541726D02*
X350159580Y-112589345D01*
X350159580Y-112589345D02*
X350207200Y-112636964D01*
X350207200Y-112636964D02*
X350254819Y-112732202D01*
X350254819Y-112732202D02*
X350254819Y-112922678D01*
X350254819Y-112922678D02*
X350207200Y-113017916D01*
X350207200Y-113017916D02*
X350159580Y-113065535D01*
X350159580Y-113065535D02*
X350064342Y-113113154D01*
X350064342Y-113113154D02*
X349873866Y-113113154D01*
X349873866Y-113113154D02*
X349778628Y-113065535D01*
X349778628Y-113065535D02*
X349731009Y-113017916D01*
X349731009Y-113017916D02*
X349683390Y-112922678D01*
X349934819Y-115399345D02*
X348934819Y-115399345D01*
X349934819Y-115970773D02*
X349363390Y-115542202D01*
X348934819Y-115970773D02*
X349506247Y-115399345D01*
X101537319Y-153866964D02*
X100537319Y-153866964D01*
X100537319Y-153866964D02*
X100537319Y-154105059D01*
X100537319Y-154105059D02*
X100584938Y-154247916D01*
X100584938Y-154247916D02*
X100680176Y-154343154D01*
X100680176Y-154343154D02*
X100775414Y-154390773D01*
X100775414Y-154390773D02*
X100965890Y-154438392D01*
X100965890Y-154438392D02*
X101108747Y-154438392D01*
X101108747Y-154438392D02*
X101299223Y-154390773D01*
X101299223Y-154390773D02*
X101394461Y-154343154D01*
X101394461Y-154343154D02*
X101489700Y-154247916D01*
X101489700Y-154247916D02*
X101537319Y-154105059D01*
X101537319Y-154105059D02*
X101537319Y-153866964D01*
X100870652Y-155295535D02*
X101537319Y-155295535D01*
X100489700Y-155057440D02*
X101203985Y-154819345D01*
X101203985Y-154819345D02*
X101203985Y-155438392D01*
X100632557Y-155771726D02*
X100584938Y-155819345D01*
X100584938Y-155819345D02*
X100537319Y-155914583D01*
X100537319Y-155914583D02*
X100537319Y-156152678D01*
X100537319Y-156152678D02*
X100584938Y-156247916D01*
X100584938Y-156247916D02*
X100632557Y-156295535D01*
X100632557Y-156295535D02*
X100727795Y-156343154D01*
X100727795Y-156343154D02*
X100823033Y-156343154D01*
X100823033Y-156343154D02*
X100965890Y-156295535D01*
X100965890Y-156295535D02*
X101537319Y-155724107D01*
X101537319Y-155724107D02*
X101537319Y-156343154D01*
X101217319Y-158629345D02*
X100217319Y-158629345D01*
X101217319Y-159200773D02*
X100645890Y-158772202D01*
X100217319Y-159200773D02*
X100788747Y-158629345D01*
X302629819Y-148736964D02*
X301629819Y-148736964D01*
X301629819Y-148736964D02*
X301629819Y-148975059D01*
X301629819Y-148975059D02*
X301677438Y-149117916D01*
X301677438Y-149117916D02*
X301772676Y-149213154D01*
X301772676Y-149213154D02*
X301867914Y-149260773D01*
X301867914Y-149260773D02*
X302058390Y-149308392D01*
X302058390Y-149308392D02*
X302201247Y-149308392D01*
X302201247Y-149308392D02*
X302391723Y-149260773D01*
X302391723Y-149260773D02*
X302486961Y-149213154D01*
X302486961Y-149213154D02*
X302582200Y-149117916D01*
X302582200Y-149117916D02*
X302629819Y-148975059D01*
X302629819Y-148975059D02*
X302629819Y-148736964D01*
X301629819Y-150213154D02*
X301629819Y-149736964D01*
X301629819Y-149736964D02*
X302106009Y-149689345D01*
X302106009Y-149689345D02*
X302058390Y-149736964D01*
X302058390Y-149736964D02*
X302010771Y-149832202D01*
X302010771Y-149832202D02*
X302010771Y-150070297D01*
X302010771Y-150070297D02*
X302058390Y-150165535D01*
X302058390Y-150165535D02*
X302106009Y-150213154D01*
X302106009Y-150213154D02*
X302201247Y-150260773D01*
X302201247Y-150260773D02*
X302439342Y-150260773D01*
X302439342Y-150260773D02*
X302534580Y-150213154D01*
X302534580Y-150213154D02*
X302582200Y-150165535D01*
X302582200Y-150165535D02*
X302629819Y-150070297D01*
X302629819Y-150070297D02*
X302629819Y-149832202D01*
X302629819Y-149832202D02*
X302582200Y-149736964D01*
X302582200Y-149736964D02*
X302534580Y-149689345D01*
X301725057Y-150641726D02*
X301677438Y-150689345D01*
X301677438Y-150689345D02*
X301629819Y-150784583D01*
X301629819Y-150784583D02*
X301629819Y-151022678D01*
X301629819Y-151022678D02*
X301677438Y-151117916D01*
X301677438Y-151117916D02*
X301725057Y-151165535D01*
X301725057Y-151165535D02*
X301820295Y-151213154D01*
X301820295Y-151213154D02*
X301915533Y-151213154D01*
X301915533Y-151213154D02*
X302058390Y-151165535D01*
X302058390Y-151165535D02*
X302629819Y-150594107D01*
X302629819Y-150594107D02*
X302629819Y-151213154D01*
X302309819Y-153499345D02*
X301309819Y-153499345D01*
X302309819Y-154070773D02*
X301738390Y-153642202D01*
X301309819Y-154070773D02*
X301881247Y-153499345D01*
X307392319Y-110636964D02*
X306392319Y-110636964D01*
X306392319Y-110636964D02*
X306392319Y-110875059D01*
X306392319Y-110875059D02*
X306439938Y-111017916D01*
X306439938Y-111017916D02*
X306535176Y-111113154D01*
X306535176Y-111113154D02*
X306630414Y-111160773D01*
X306630414Y-111160773D02*
X306820890Y-111208392D01*
X306820890Y-111208392D02*
X306963747Y-111208392D01*
X306963747Y-111208392D02*
X307154223Y-111160773D01*
X307154223Y-111160773D02*
X307249461Y-111113154D01*
X307249461Y-111113154D02*
X307344700Y-111017916D01*
X307344700Y-111017916D02*
X307392319Y-110875059D01*
X307392319Y-110875059D02*
X307392319Y-110636964D01*
X306487557Y-111589345D02*
X306439938Y-111636964D01*
X306439938Y-111636964D02*
X306392319Y-111732202D01*
X306392319Y-111732202D02*
X306392319Y-111970297D01*
X306392319Y-111970297D02*
X306439938Y-112065535D01*
X306439938Y-112065535D02*
X306487557Y-112113154D01*
X306487557Y-112113154D02*
X306582795Y-112160773D01*
X306582795Y-112160773D02*
X306678033Y-112160773D01*
X306678033Y-112160773D02*
X306820890Y-112113154D01*
X306820890Y-112113154D02*
X307392319Y-111541726D01*
X307392319Y-111541726D02*
X307392319Y-112160773D01*
X306392319Y-113017916D02*
X306392319Y-112827440D01*
X306392319Y-112827440D02*
X306439938Y-112732202D01*
X306439938Y-112732202D02*
X306487557Y-112684583D01*
X306487557Y-112684583D02*
X306630414Y-112589345D01*
X306630414Y-112589345D02*
X306820890Y-112541726D01*
X306820890Y-112541726D02*
X307201842Y-112541726D01*
X307201842Y-112541726D02*
X307297080Y-112589345D01*
X307297080Y-112589345D02*
X307344700Y-112636964D01*
X307344700Y-112636964D02*
X307392319Y-112732202D01*
X307392319Y-112732202D02*
X307392319Y-112922678D01*
X307392319Y-112922678D02*
X307344700Y-113017916D01*
X307344700Y-113017916D02*
X307297080Y-113065535D01*
X307297080Y-113065535D02*
X307201842Y-113113154D01*
X307201842Y-113113154D02*
X306963747Y-113113154D01*
X306963747Y-113113154D02*
X306868509Y-113065535D01*
X306868509Y-113065535D02*
X306820890Y-113017916D01*
X306820890Y-113017916D02*
X306773271Y-112922678D01*
X306773271Y-112922678D02*
X306773271Y-112732202D01*
X306773271Y-112732202D02*
X306820890Y-112636964D01*
X306820890Y-112636964D02*
X306868509Y-112589345D01*
X306868509Y-112589345D02*
X306963747Y-112541726D01*
X307072319Y-115399345D02*
X306072319Y-115399345D01*
X307072319Y-115970773D02*
X306500890Y-115542202D01*
X306072319Y-115970773D02*
X306643747Y-115399345D01*
X90698569Y-167786964D02*
X89698569Y-167786964D01*
X89698569Y-167786964D02*
X89698569Y-168025059D01*
X89698569Y-168025059D02*
X89746188Y-168167916D01*
X89746188Y-168167916D02*
X89841426Y-168263154D01*
X89841426Y-168263154D02*
X89936664Y-168310773D01*
X89936664Y-168310773D02*
X90127140Y-168358392D01*
X90127140Y-168358392D02*
X90269997Y-168358392D01*
X90269997Y-168358392D02*
X90460473Y-168310773D01*
X90460473Y-168310773D02*
X90555711Y-168263154D01*
X90555711Y-168263154D02*
X90650950Y-168167916D01*
X90650950Y-168167916D02*
X90698569Y-168025059D01*
X90698569Y-168025059D02*
X90698569Y-167786964D01*
X89698569Y-169263154D02*
X89698569Y-168786964D01*
X89698569Y-168786964D02*
X90174759Y-168739345D01*
X90174759Y-168739345D02*
X90127140Y-168786964D01*
X90127140Y-168786964D02*
X90079521Y-168882202D01*
X90079521Y-168882202D02*
X90079521Y-169120297D01*
X90079521Y-169120297D02*
X90127140Y-169215535D01*
X90127140Y-169215535D02*
X90174759Y-169263154D01*
X90174759Y-169263154D02*
X90269997Y-169310773D01*
X90269997Y-169310773D02*
X90508092Y-169310773D01*
X90508092Y-169310773D02*
X90603330Y-169263154D01*
X90603330Y-169263154D02*
X90650950Y-169215535D01*
X90650950Y-169215535D02*
X90698569Y-169120297D01*
X90698569Y-169120297D02*
X90698569Y-168882202D01*
X90698569Y-168882202D02*
X90650950Y-168786964D01*
X90650950Y-168786964D02*
X90603330Y-168739345D01*
X90031902Y-170167916D02*
X90698569Y-170167916D01*
X89650950Y-169929821D02*
X90365235Y-169691726D01*
X90365235Y-169691726D02*
X90365235Y-170310773D01*
X90378569Y-172549345D02*
X89378569Y-172549345D01*
X90378569Y-173120773D02*
X89807140Y-172692202D01*
X89378569Y-173120773D02*
X89949997Y-172549345D01*
X293104819Y-129686964D02*
X292104819Y-129686964D01*
X292104819Y-129686964D02*
X292104819Y-129925059D01*
X292104819Y-129925059D02*
X292152438Y-130067916D01*
X292152438Y-130067916D02*
X292247676Y-130163154D01*
X292247676Y-130163154D02*
X292342914Y-130210773D01*
X292342914Y-130210773D02*
X292533390Y-130258392D01*
X292533390Y-130258392D02*
X292676247Y-130258392D01*
X292676247Y-130258392D02*
X292866723Y-130210773D01*
X292866723Y-130210773D02*
X292961961Y-130163154D01*
X292961961Y-130163154D02*
X293057200Y-130067916D01*
X293057200Y-130067916D02*
X293104819Y-129925059D01*
X293104819Y-129925059D02*
X293104819Y-129686964D01*
X292104819Y-130591726D02*
X292104819Y-131210773D01*
X292104819Y-131210773D02*
X292485771Y-130877440D01*
X292485771Y-130877440D02*
X292485771Y-131020297D01*
X292485771Y-131020297D02*
X292533390Y-131115535D01*
X292533390Y-131115535D02*
X292581009Y-131163154D01*
X292581009Y-131163154D02*
X292676247Y-131210773D01*
X292676247Y-131210773D02*
X292914342Y-131210773D01*
X292914342Y-131210773D02*
X293009580Y-131163154D01*
X293009580Y-131163154D02*
X293057200Y-131115535D01*
X293057200Y-131115535D02*
X293104819Y-131020297D01*
X293104819Y-131020297D02*
X293104819Y-130734583D01*
X293104819Y-130734583D02*
X293057200Y-130639345D01*
X293057200Y-130639345D02*
X293009580Y-130591726D01*
X293104819Y-131686964D02*
X293104819Y-131877440D01*
X293104819Y-131877440D02*
X293057200Y-131972678D01*
X293057200Y-131972678D02*
X293009580Y-132020297D01*
X293009580Y-132020297D02*
X292866723Y-132115535D01*
X292866723Y-132115535D02*
X292676247Y-132163154D01*
X292676247Y-132163154D02*
X292295295Y-132163154D01*
X292295295Y-132163154D02*
X292200057Y-132115535D01*
X292200057Y-132115535D02*
X292152438Y-132067916D01*
X292152438Y-132067916D02*
X292104819Y-131972678D01*
X292104819Y-131972678D02*
X292104819Y-131782202D01*
X292104819Y-131782202D02*
X292152438Y-131686964D01*
X292152438Y-131686964D02*
X292200057Y-131639345D01*
X292200057Y-131639345D02*
X292295295Y-131591726D01*
X292295295Y-131591726D02*
X292533390Y-131591726D01*
X292533390Y-131591726D02*
X292628628Y-131639345D01*
X292628628Y-131639345D02*
X292676247Y-131686964D01*
X292676247Y-131686964D02*
X292723866Y-131782202D01*
X292723866Y-131782202D02*
X292723866Y-131972678D01*
X292723866Y-131972678D02*
X292676247Y-132067916D01*
X292676247Y-132067916D02*
X292628628Y-132115535D01*
X292628628Y-132115535D02*
X292533390Y-132163154D01*
X292784819Y-134449345D02*
X291784819Y-134449345D01*
X292784819Y-135020773D02*
X292213390Y-134592202D01*
X291784819Y-135020773D02*
X292356247Y-134449345D01*
X193092319Y-110636964D02*
X192092319Y-110636964D01*
X192092319Y-110636964D02*
X192092319Y-110875059D01*
X192092319Y-110875059D02*
X192139938Y-111017916D01*
X192139938Y-111017916D02*
X192235176Y-111113154D01*
X192235176Y-111113154D02*
X192330414Y-111160773D01*
X192330414Y-111160773D02*
X192520890Y-111208392D01*
X192520890Y-111208392D02*
X192663747Y-111208392D01*
X192663747Y-111208392D02*
X192854223Y-111160773D01*
X192854223Y-111160773D02*
X192949461Y-111113154D01*
X192949461Y-111113154D02*
X193044700Y-111017916D01*
X193044700Y-111017916D02*
X193092319Y-110875059D01*
X193092319Y-110875059D02*
X193092319Y-110636964D01*
X192187557Y-111589345D02*
X192139938Y-111636964D01*
X192139938Y-111636964D02*
X192092319Y-111732202D01*
X192092319Y-111732202D02*
X192092319Y-111970297D01*
X192092319Y-111970297D02*
X192139938Y-112065535D01*
X192139938Y-112065535D02*
X192187557Y-112113154D01*
X192187557Y-112113154D02*
X192282795Y-112160773D01*
X192282795Y-112160773D02*
X192378033Y-112160773D01*
X192378033Y-112160773D02*
X192520890Y-112113154D01*
X192520890Y-112113154D02*
X193092319Y-111541726D01*
X193092319Y-111541726D02*
X193092319Y-112160773D01*
X192092319Y-112779821D02*
X192092319Y-112875059D01*
X192092319Y-112875059D02*
X192139938Y-112970297D01*
X192139938Y-112970297D02*
X192187557Y-113017916D01*
X192187557Y-113017916D02*
X192282795Y-113065535D01*
X192282795Y-113065535D02*
X192473271Y-113113154D01*
X192473271Y-113113154D02*
X192711366Y-113113154D01*
X192711366Y-113113154D02*
X192901842Y-113065535D01*
X192901842Y-113065535D02*
X192997080Y-113017916D01*
X192997080Y-113017916D02*
X193044700Y-112970297D01*
X193044700Y-112970297D02*
X193092319Y-112875059D01*
X193092319Y-112875059D02*
X193092319Y-112779821D01*
X193092319Y-112779821D02*
X193044700Y-112684583D01*
X193044700Y-112684583D02*
X192997080Y-112636964D01*
X192997080Y-112636964D02*
X192901842Y-112589345D01*
X192901842Y-112589345D02*
X192711366Y-112541726D01*
X192711366Y-112541726D02*
X192473271Y-112541726D01*
X192473271Y-112541726D02*
X192282795Y-112589345D01*
X192282795Y-112589345D02*
X192187557Y-112636964D01*
X192187557Y-112636964D02*
X192139938Y-112684583D01*
X192139938Y-112684583D02*
X192092319Y-112779821D01*
X192772319Y-115399345D02*
X191772319Y-115399345D01*
X192772319Y-115970773D02*
X192200890Y-115542202D01*
X191772319Y-115970773D02*
X192343747Y-115399345D01*
X178804819Y-129686964D02*
X177804819Y-129686964D01*
X177804819Y-129686964D02*
X177804819Y-129925059D01*
X177804819Y-129925059D02*
X177852438Y-130067916D01*
X177852438Y-130067916D02*
X177947676Y-130163154D01*
X177947676Y-130163154D02*
X178042914Y-130210773D01*
X178042914Y-130210773D02*
X178233390Y-130258392D01*
X178233390Y-130258392D02*
X178376247Y-130258392D01*
X178376247Y-130258392D02*
X178566723Y-130210773D01*
X178566723Y-130210773D02*
X178661961Y-130163154D01*
X178661961Y-130163154D02*
X178757200Y-130067916D01*
X178757200Y-130067916D02*
X178804819Y-129925059D01*
X178804819Y-129925059D02*
X178804819Y-129686964D01*
X177804819Y-130591726D02*
X177804819Y-131210773D01*
X177804819Y-131210773D02*
X178185771Y-130877440D01*
X178185771Y-130877440D02*
X178185771Y-131020297D01*
X178185771Y-131020297D02*
X178233390Y-131115535D01*
X178233390Y-131115535D02*
X178281009Y-131163154D01*
X178281009Y-131163154D02*
X178376247Y-131210773D01*
X178376247Y-131210773D02*
X178614342Y-131210773D01*
X178614342Y-131210773D02*
X178709580Y-131163154D01*
X178709580Y-131163154D02*
X178757200Y-131115535D01*
X178757200Y-131115535D02*
X178804819Y-131020297D01*
X178804819Y-131020297D02*
X178804819Y-130734583D01*
X178804819Y-130734583D02*
X178757200Y-130639345D01*
X178757200Y-130639345D02*
X178709580Y-130591726D01*
X177804819Y-131544107D02*
X177804819Y-132163154D01*
X177804819Y-132163154D02*
X178185771Y-131829821D01*
X178185771Y-131829821D02*
X178185771Y-131972678D01*
X178185771Y-131972678D02*
X178233390Y-132067916D01*
X178233390Y-132067916D02*
X178281009Y-132115535D01*
X178281009Y-132115535D02*
X178376247Y-132163154D01*
X178376247Y-132163154D02*
X178614342Y-132163154D01*
X178614342Y-132163154D02*
X178709580Y-132115535D01*
X178709580Y-132115535D02*
X178757200Y-132067916D01*
X178757200Y-132067916D02*
X178804819Y-131972678D01*
X178804819Y-131972678D02*
X178804819Y-131686964D01*
X178804819Y-131686964D02*
X178757200Y-131591726D01*
X178757200Y-131591726D02*
X178709580Y-131544107D01*
X178484819Y-134449345D02*
X177484819Y-134449345D01*
X178484819Y-135020773D02*
X177913390Y-134592202D01*
X177484819Y-135020773D02*
X178056247Y-134449345D01*
X164517319Y-92063155D02*
X163517319Y-92063155D01*
X163517319Y-92063155D02*
X163517319Y-92301250D01*
X163517319Y-92301250D02*
X163564938Y-92444107D01*
X163564938Y-92444107D02*
X163660176Y-92539345D01*
X163660176Y-92539345D02*
X163755414Y-92586964D01*
X163755414Y-92586964D02*
X163945890Y-92634583D01*
X163945890Y-92634583D02*
X164088747Y-92634583D01*
X164088747Y-92634583D02*
X164279223Y-92586964D01*
X164279223Y-92586964D02*
X164374461Y-92539345D01*
X164374461Y-92539345D02*
X164469700Y-92444107D01*
X164469700Y-92444107D02*
X164517319Y-92301250D01*
X164517319Y-92301250D02*
X164517319Y-92063155D01*
X163517319Y-93491726D02*
X163517319Y-93301250D01*
X163517319Y-93301250D02*
X163564938Y-93206012D01*
X163564938Y-93206012D02*
X163612557Y-93158393D01*
X163612557Y-93158393D02*
X163755414Y-93063155D01*
X163755414Y-93063155D02*
X163945890Y-93015536D01*
X163945890Y-93015536D02*
X164326842Y-93015536D01*
X164326842Y-93015536D02*
X164422080Y-93063155D01*
X164422080Y-93063155D02*
X164469700Y-93110774D01*
X164469700Y-93110774D02*
X164517319Y-93206012D01*
X164517319Y-93206012D02*
X164517319Y-93396488D01*
X164517319Y-93396488D02*
X164469700Y-93491726D01*
X164469700Y-93491726D02*
X164422080Y-93539345D01*
X164422080Y-93539345D02*
X164326842Y-93586964D01*
X164326842Y-93586964D02*
X164088747Y-93586964D01*
X164088747Y-93586964D02*
X163993509Y-93539345D01*
X163993509Y-93539345D02*
X163945890Y-93491726D01*
X163945890Y-93491726D02*
X163898271Y-93396488D01*
X163898271Y-93396488D02*
X163898271Y-93206012D01*
X163898271Y-93206012D02*
X163945890Y-93110774D01*
X163945890Y-93110774D02*
X163993509Y-93063155D01*
X163993509Y-93063155D02*
X164088747Y-93015536D01*
X164197319Y-96349345D02*
X163197319Y-96349345D01*
X164197319Y-96920773D02*
X163625890Y-96492202D01*
X163197319Y-96920773D02*
X163768747Y-96349345D01*
X226429819Y-148736964D02*
X225429819Y-148736964D01*
X225429819Y-148736964D02*
X225429819Y-148975059D01*
X225429819Y-148975059D02*
X225477438Y-149117916D01*
X225477438Y-149117916D02*
X225572676Y-149213154D01*
X225572676Y-149213154D02*
X225667914Y-149260773D01*
X225667914Y-149260773D02*
X225858390Y-149308392D01*
X225858390Y-149308392D02*
X226001247Y-149308392D01*
X226001247Y-149308392D02*
X226191723Y-149260773D01*
X226191723Y-149260773D02*
X226286961Y-149213154D01*
X226286961Y-149213154D02*
X226382200Y-149117916D01*
X226382200Y-149117916D02*
X226429819Y-148975059D01*
X226429819Y-148975059D02*
X226429819Y-148736964D01*
X225763152Y-150165535D02*
X226429819Y-150165535D01*
X225382200Y-149927440D02*
X226096485Y-149689345D01*
X226096485Y-149689345D02*
X226096485Y-150308392D01*
X225858390Y-150832202D02*
X225810771Y-150736964D01*
X225810771Y-150736964D02*
X225763152Y-150689345D01*
X225763152Y-150689345D02*
X225667914Y-150641726D01*
X225667914Y-150641726D02*
X225620295Y-150641726D01*
X225620295Y-150641726D02*
X225525057Y-150689345D01*
X225525057Y-150689345D02*
X225477438Y-150736964D01*
X225477438Y-150736964D02*
X225429819Y-150832202D01*
X225429819Y-150832202D02*
X225429819Y-151022678D01*
X225429819Y-151022678D02*
X225477438Y-151117916D01*
X225477438Y-151117916D02*
X225525057Y-151165535D01*
X225525057Y-151165535D02*
X225620295Y-151213154D01*
X225620295Y-151213154D02*
X225667914Y-151213154D01*
X225667914Y-151213154D02*
X225763152Y-151165535D01*
X225763152Y-151165535D02*
X225810771Y-151117916D01*
X225810771Y-151117916D02*
X225858390Y-151022678D01*
X225858390Y-151022678D02*
X225858390Y-150832202D01*
X225858390Y-150832202D02*
X225906009Y-150736964D01*
X225906009Y-150736964D02*
X225953628Y-150689345D01*
X225953628Y-150689345D02*
X226048866Y-150641726D01*
X226048866Y-150641726D02*
X226239342Y-150641726D01*
X226239342Y-150641726D02*
X226334580Y-150689345D01*
X226334580Y-150689345D02*
X226382200Y-150736964D01*
X226382200Y-150736964D02*
X226429819Y-150832202D01*
X226429819Y-150832202D02*
X226429819Y-151022678D01*
X226429819Y-151022678D02*
X226382200Y-151117916D01*
X226382200Y-151117916D02*
X226334580Y-151165535D01*
X226334580Y-151165535D02*
X226239342Y-151213154D01*
X226239342Y-151213154D02*
X226048866Y-151213154D01*
X226048866Y-151213154D02*
X225953628Y-151165535D01*
X225953628Y-151165535D02*
X225906009Y-151117916D01*
X225906009Y-151117916D02*
X225858390Y-151022678D01*
X226109819Y-153499345D02*
X225109819Y-153499345D01*
X226109819Y-154070773D02*
X225538390Y-153642202D01*
X225109819Y-154070773D02*
X225681247Y-153499345D01*
X364394819Y-91525714D02*
X363394819Y-91525714D01*
X363394819Y-91525714D02*
X363394819Y-91763809D01*
X363394819Y-91763809D02*
X363442438Y-91906666D01*
X363442438Y-91906666D02*
X363537676Y-92001904D01*
X363537676Y-92001904D02*
X363632914Y-92049523D01*
X363632914Y-92049523D02*
X363823390Y-92097142D01*
X363823390Y-92097142D02*
X363966247Y-92097142D01*
X363966247Y-92097142D02*
X364156723Y-92049523D01*
X364156723Y-92049523D02*
X364251961Y-92001904D01*
X364251961Y-92001904D02*
X364347200Y-91906666D01*
X364347200Y-91906666D02*
X364394819Y-91763809D01*
X364394819Y-91763809D02*
X364394819Y-91525714D01*
X363394819Y-92954285D02*
X363394819Y-92763809D01*
X363394819Y-92763809D02*
X363442438Y-92668571D01*
X363442438Y-92668571D02*
X363490057Y-92620952D01*
X363490057Y-92620952D02*
X363632914Y-92525714D01*
X363632914Y-92525714D02*
X363823390Y-92478095D01*
X363823390Y-92478095D02*
X364204342Y-92478095D01*
X364204342Y-92478095D02*
X364299580Y-92525714D01*
X364299580Y-92525714D02*
X364347200Y-92573333D01*
X364347200Y-92573333D02*
X364394819Y-92668571D01*
X364394819Y-92668571D02*
X364394819Y-92859047D01*
X364394819Y-92859047D02*
X364347200Y-92954285D01*
X364347200Y-92954285D02*
X364299580Y-93001904D01*
X364299580Y-93001904D02*
X364204342Y-93049523D01*
X364204342Y-93049523D02*
X363966247Y-93049523D01*
X363966247Y-93049523D02*
X363871009Y-93001904D01*
X363871009Y-93001904D02*
X363823390Y-92954285D01*
X363823390Y-92954285D02*
X363775771Y-92859047D01*
X363775771Y-92859047D02*
X363775771Y-92668571D01*
X363775771Y-92668571D02*
X363823390Y-92573333D01*
X363823390Y-92573333D02*
X363871009Y-92525714D01*
X363871009Y-92525714D02*
X363966247Y-92478095D01*
X363490057Y-93430476D02*
X363442438Y-93478095D01*
X363442438Y-93478095D02*
X363394819Y-93573333D01*
X363394819Y-93573333D02*
X363394819Y-93811428D01*
X363394819Y-93811428D02*
X363442438Y-93906666D01*
X363442438Y-93906666D02*
X363490057Y-93954285D01*
X363490057Y-93954285D02*
X363585295Y-94001904D01*
X363585295Y-94001904D02*
X363680533Y-94001904D01*
X363680533Y-94001904D02*
X363823390Y-93954285D01*
X363823390Y-93954285D02*
X364394819Y-93382857D01*
X364394819Y-93382857D02*
X364394819Y-94001904D01*
X364074819Y-96288095D02*
X363074819Y-96288095D01*
X364074819Y-96859523D02*
X363503390Y-96430952D01*
X363074819Y-96859523D02*
X363646247Y-96288095D01*
X135942319Y-110636964D02*
X134942319Y-110636964D01*
X134942319Y-110636964D02*
X134942319Y-110875059D01*
X134942319Y-110875059D02*
X134989938Y-111017916D01*
X134989938Y-111017916D02*
X135085176Y-111113154D01*
X135085176Y-111113154D02*
X135180414Y-111160773D01*
X135180414Y-111160773D02*
X135370890Y-111208392D01*
X135370890Y-111208392D02*
X135513747Y-111208392D01*
X135513747Y-111208392D02*
X135704223Y-111160773D01*
X135704223Y-111160773D02*
X135799461Y-111113154D01*
X135799461Y-111113154D02*
X135894700Y-111017916D01*
X135894700Y-111017916D02*
X135942319Y-110875059D01*
X135942319Y-110875059D02*
X135942319Y-110636964D01*
X135942319Y-112160773D02*
X135942319Y-111589345D01*
X135942319Y-111875059D02*
X134942319Y-111875059D01*
X134942319Y-111875059D02*
X135085176Y-111779821D01*
X135085176Y-111779821D02*
X135180414Y-111684583D01*
X135180414Y-111684583D02*
X135228033Y-111589345D01*
X134942319Y-112494107D02*
X134942319Y-113160773D01*
X134942319Y-113160773D02*
X135942319Y-112732202D01*
X135622319Y-115399345D02*
X134622319Y-115399345D01*
X135622319Y-115970773D02*
X135050890Y-115542202D01*
X134622319Y-115970773D02*
X135193747Y-115399345D01*
X188329819Y-148736964D02*
X187329819Y-148736964D01*
X187329819Y-148736964D02*
X187329819Y-148975059D01*
X187329819Y-148975059D02*
X187377438Y-149117916D01*
X187377438Y-149117916D02*
X187472676Y-149213154D01*
X187472676Y-149213154D02*
X187567914Y-149260773D01*
X187567914Y-149260773D02*
X187758390Y-149308392D01*
X187758390Y-149308392D02*
X187901247Y-149308392D01*
X187901247Y-149308392D02*
X188091723Y-149260773D01*
X188091723Y-149260773D02*
X188186961Y-149213154D01*
X188186961Y-149213154D02*
X188282200Y-149117916D01*
X188282200Y-149117916D02*
X188329819Y-148975059D01*
X188329819Y-148975059D02*
X188329819Y-148736964D01*
X187663152Y-150165535D02*
X188329819Y-150165535D01*
X187282200Y-149927440D02*
X187996485Y-149689345D01*
X187996485Y-149689345D02*
X187996485Y-150308392D01*
X187329819Y-151117916D02*
X187329819Y-150927440D01*
X187329819Y-150927440D02*
X187377438Y-150832202D01*
X187377438Y-150832202D02*
X187425057Y-150784583D01*
X187425057Y-150784583D02*
X187567914Y-150689345D01*
X187567914Y-150689345D02*
X187758390Y-150641726D01*
X187758390Y-150641726D02*
X188139342Y-150641726D01*
X188139342Y-150641726D02*
X188234580Y-150689345D01*
X188234580Y-150689345D02*
X188282200Y-150736964D01*
X188282200Y-150736964D02*
X188329819Y-150832202D01*
X188329819Y-150832202D02*
X188329819Y-151022678D01*
X188329819Y-151022678D02*
X188282200Y-151117916D01*
X188282200Y-151117916D02*
X188234580Y-151165535D01*
X188234580Y-151165535D02*
X188139342Y-151213154D01*
X188139342Y-151213154D02*
X187901247Y-151213154D01*
X187901247Y-151213154D02*
X187806009Y-151165535D01*
X187806009Y-151165535D02*
X187758390Y-151117916D01*
X187758390Y-151117916D02*
X187710771Y-151022678D01*
X187710771Y-151022678D02*
X187710771Y-150832202D01*
X187710771Y-150832202D02*
X187758390Y-150736964D01*
X187758390Y-150736964D02*
X187806009Y-150689345D01*
X187806009Y-150689345D02*
X187901247Y-150641726D01*
X188009819Y-153499345D02*
X187009819Y-153499345D01*
X188009819Y-154070773D02*
X187438390Y-153642202D01*
X187009819Y-154070773D02*
X187581247Y-153499345D01*
X281198569Y-167786964D02*
X280198569Y-167786964D01*
X280198569Y-167786964D02*
X280198569Y-168025059D01*
X280198569Y-168025059D02*
X280246188Y-168167916D01*
X280246188Y-168167916D02*
X280341426Y-168263154D01*
X280341426Y-168263154D02*
X280436664Y-168310773D01*
X280436664Y-168310773D02*
X280627140Y-168358392D01*
X280627140Y-168358392D02*
X280769997Y-168358392D01*
X280769997Y-168358392D02*
X280960473Y-168310773D01*
X280960473Y-168310773D02*
X281055711Y-168263154D01*
X281055711Y-168263154D02*
X281150950Y-168167916D01*
X281150950Y-168167916D02*
X281198569Y-168025059D01*
X281198569Y-168025059D02*
X281198569Y-167786964D01*
X280198569Y-169263154D02*
X280198569Y-168786964D01*
X280198569Y-168786964D02*
X280674759Y-168739345D01*
X280674759Y-168739345D02*
X280627140Y-168786964D01*
X280627140Y-168786964D02*
X280579521Y-168882202D01*
X280579521Y-168882202D02*
X280579521Y-169120297D01*
X280579521Y-169120297D02*
X280627140Y-169215535D01*
X280627140Y-169215535D02*
X280674759Y-169263154D01*
X280674759Y-169263154D02*
X280769997Y-169310773D01*
X280769997Y-169310773D02*
X281008092Y-169310773D01*
X281008092Y-169310773D02*
X281103330Y-169263154D01*
X281103330Y-169263154D02*
X281150950Y-169215535D01*
X281150950Y-169215535D02*
X281198569Y-169120297D01*
X281198569Y-169120297D02*
X281198569Y-168882202D01*
X281198569Y-168882202D02*
X281150950Y-168786964D01*
X281150950Y-168786964D02*
X281103330Y-168739345D01*
X280627140Y-169882202D02*
X280579521Y-169786964D01*
X280579521Y-169786964D02*
X280531902Y-169739345D01*
X280531902Y-169739345D02*
X280436664Y-169691726D01*
X280436664Y-169691726D02*
X280389045Y-169691726D01*
X280389045Y-169691726D02*
X280293807Y-169739345D01*
X280293807Y-169739345D02*
X280246188Y-169786964D01*
X280246188Y-169786964D02*
X280198569Y-169882202D01*
X280198569Y-169882202D02*
X280198569Y-170072678D01*
X280198569Y-170072678D02*
X280246188Y-170167916D01*
X280246188Y-170167916D02*
X280293807Y-170215535D01*
X280293807Y-170215535D02*
X280389045Y-170263154D01*
X280389045Y-170263154D02*
X280436664Y-170263154D01*
X280436664Y-170263154D02*
X280531902Y-170215535D01*
X280531902Y-170215535D02*
X280579521Y-170167916D01*
X280579521Y-170167916D02*
X280627140Y-170072678D01*
X280627140Y-170072678D02*
X280627140Y-169882202D01*
X280627140Y-169882202D02*
X280674759Y-169786964D01*
X280674759Y-169786964D02*
X280722378Y-169739345D01*
X280722378Y-169739345D02*
X280817616Y-169691726D01*
X280817616Y-169691726D02*
X281008092Y-169691726D01*
X281008092Y-169691726D02*
X281103330Y-169739345D01*
X281103330Y-169739345D02*
X281150950Y-169786964D01*
X281150950Y-169786964D02*
X281198569Y-169882202D01*
X281198569Y-169882202D02*
X281198569Y-170072678D01*
X281198569Y-170072678D02*
X281150950Y-170167916D01*
X281150950Y-170167916D02*
X281103330Y-170215535D01*
X281103330Y-170215535D02*
X281008092Y-170263154D01*
X281008092Y-170263154D02*
X280817616Y-170263154D01*
X280817616Y-170263154D02*
X280722378Y-170215535D01*
X280722378Y-170215535D02*
X280674759Y-170167916D01*
X280674759Y-170167916D02*
X280627140Y-170072678D01*
X280878569Y-172549345D02*
X279878569Y-172549345D01*
X280878569Y-173120773D02*
X280307140Y-172692202D01*
X279878569Y-173120773D02*
X280449997Y-172549345D01*
X326442319Y-110636964D02*
X325442319Y-110636964D01*
X325442319Y-110636964D02*
X325442319Y-110875059D01*
X325442319Y-110875059D02*
X325489938Y-111017916D01*
X325489938Y-111017916D02*
X325585176Y-111113154D01*
X325585176Y-111113154D02*
X325680414Y-111160773D01*
X325680414Y-111160773D02*
X325870890Y-111208392D01*
X325870890Y-111208392D02*
X326013747Y-111208392D01*
X326013747Y-111208392D02*
X326204223Y-111160773D01*
X326204223Y-111160773D02*
X326299461Y-111113154D01*
X326299461Y-111113154D02*
X326394700Y-111017916D01*
X326394700Y-111017916D02*
X326442319Y-110875059D01*
X326442319Y-110875059D02*
X326442319Y-110636964D01*
X325537557Y-111589345D02*
X325489938Y-111636964D01*
X325489938Y-111636964D02*
X325442319Y-111732202D01*
X325442319Y-111732202D02*
X325442319Y-111970297D01*
X325442319Y-111970297D02*
X325489938Y-112065535D01*
X325489938Y-112065535D02*
X325537557Y-112113154D01*
X325537557Y-112113154D02*
X325632795Y-112160773D01*
X325632795Y-112160773D02*
X325728033Y-112160773D01*
X325728033Y-112160773D02*
X325870890Y-112113154D01*
X325870890Y-112113154D02*
X326442319Y-111541726D01*
X326442319Y-111541726D02*
X326442319Y-112160773D01*
X325442319Y-112494107D02*
X325442319Y-113160773D01*
X325442319Y-113160773D02*
X326442319Y-112732202D01*
X326122319Y-115399345D02*
X325122319Y-115399345D01*
X326122319Y-115970773D02*
X325550890Y-115542202D01*
X325122319Y-115970773D02*
X325693747Y-115399345D01*
X283579819Y-148736964D02*
X282579819Y-148736964D01*
X282579819Y-148736964D02*
X282579819Y-148975059D01*
X282579819Y-148975059D02*
X282627438Y-149117916D01*
X282627438Y-149117916D02*
X282722676Y-149213154D01*
X282722676Y-149213154D02*
X282817914Y-149260773D01*
X282817914Y-149260773D02*
X283008390Y-149308392D01*
X283008390Y-149308392D02*
X283151247Y-149308392D01*
X283151247Y-149308392D02*
X283341723Y-149260773D01*
X283341723Y-149260773D02*
X283436961Y-149213154D01*
X283436961Y-149213154D02*
X283532200Y-149117916D01*
X283532200Y-149117916D02*
X283579819Y-148975059D01*
X283579819Y-148975059D02*
X283579819Y-148736964D01*
X282579819Y-150213154D02*
X282579819Y-149736964D01*
X282579819Y-149736964D02*
X283056009Y-149689345D01*
X283056009Y-149689345D02*
X283008390Y-149736964D01*
X283008390Y-149736964D02*
X282960771Y-149832202D01*
X282960771Y-149832202D02*
X282960771Y-150070297D01*
X282960771Y-150070297D02*
X283008390Y-150165535D01*
X283008390Y-150165535D02*
X283056009Y-150213154D01*
X283056009Y-150213154D02*
X283151247Y-150260773D01*
X283151247Y-150260773D02*
X283389342Y-150260773D01*
X283389342Y-150260773D02*
X283484580Y-150213154D01*
X283484580Y-150213154D02*
X283532200Y-150165535D01*
X283532200Y-150165535D02*
X283579819Y-150070297D01*
X283579819Y-150070297D02*
X283579819Y-149832202D01*
X283579819Y-149832202D02*
X283532200Y-149736964D01*
X283532200Y-149736964D02*
X283484580Y-149689345D01*
X283579819Y-151213154D02*
X283579819Y-150641726D01*
X283579819Y-150927440D02*
X282579819Y-150927440D01*
X282579819Y-150927440D02*
X282722676Y-150832202D01*
X282722676Y-150832202D02*
X282817914Y-150736964D01*
X282817914Y-150736964D02*
X282865533Y-150641726D01*
X283259819Y-153499345D02*
X282259819Y-153499345D01*
X283259819Y-154070773D02*
X282688390Y-153642202D01*
X282259819Y-154070773D02*
X282831247Y-153499345D01*
X259767319Y-91586964D02*
X258767319Y-91586964D01*
X258767319Y-91586964D02*
X258767319Y-91825059D01*
X258767319Y-91825059D02*
X258814938Y-91967916D01*
X258814938Y-91967916D02*
X258910176Y-92063154D01*
X258910176Y-92063154D02*
X259005414Y-92110773D01*
X259005414Y-92110773D02*
X259195890Y-92158392D01*
X259195890Y-92158392D02*
X259338747Y-92158392D01*
X259338747Y-92158392D02*
X259529223Y-92110773D01*
X259529223Y-92110773D02*
X259624461Y-92063154D01*
X259624461Y-92063154D02*
X259719700Y-91967916D01*
X259719700Y-91967916D02*
X259767319Y-91825059D01*
X259767319Y-91825059D02*
X259767319Y-91586964D01*
X259767319Y-93110773D02*
X259767319Y-92539345D01*
X259767319Y-92825059D02*
X258767319Y-92825059D01*
X258767319Y-92825059D02*
X258910176Y-92729821D01*
X258910176Y-92729821D02*
X259005414Y-92634583D01*
X259005414Y-92634583D02*
X259053033Y-92539345D01*
X259767319Y-94063154D02*
X259767319Y-93491726D01*
X259767319Y-93777440D02*
X258767319Y-93777440D01*
X258767319Y-93777440D02*
X258910176Y-93682202D01*
X258910176Y-93682202D02*
X259005414Y-93586964D01*
X259005414Y-93586964D02*
X259053033Y-93491726D01*
X259447319Y-96349345D02*
X258447319Y-96349345D01*
X259447319Y-96920773D02*
X258875890Y-96492202D01*
X258447319Y-96920773D02*
X259018747Y-96349345D01*
X345492319Y-92063155D02*
X344492319Y-92063155D01*
X344492319Y-92063155D02*
X344492319Y-92301250D01*
X344492319Y-92301250D02*
X344539938Y-92444107D01*
X344539938Y-92444107D02*
X344635176Y-92539345D01*
X344635176Y-92539345D02*
X344730414Y-92586964D01*
X344730414Y-92586964D02*
X344920890Y-92634583D01*
X344920890Y-92634583D02*
X345063747Y-92634583D01*
X345063747Y-92634583D02*
X345254223Y-92586964D01*
X345254223Y-92586964D02*
X345349461Y-92539345D01*
X345349461Y-92539345D02*
X345444700Y-92444107D01*
X345444700Y-92444107D02*
X345492319Y-92301250D01*
X345492319Y-92301250D02*
X345492319Y-92063155D01*
X344492319Y-93539345D02*
X344492319Y-93063155D01*
X344492319Y-93063155D02*
X344968509Y-93015536D01*
X344968509Y-93015536D02*
X344920890Y-93063155D01*
X344920890Y-93063155D02*
X344873271Y-93158393D01*
X344873271Y-93158393D02*
X344873271Y-93396488D01*
X344873271Y-93396488D02*
X344920890Y-93491726D01*
X344920890Y-93491726D02*
X344968509Y-93539345D01*
X344968509Y-93539345D02*
X345063747Y-93586964D01*
X345063747Y-93586964D02*
X345301842Y-93586964D01*
X345301842Y-93586964D02*
X345397080Y-93539345D01*
X345397080Y-93539345D02*
X345444700Y-93491726D01*
X345444700Y-93491726D02*
X345492319Y-93396488D01*
X345492319Y-93396488D02*
X345492319Y-93158393D01*
X345492319Y-93158393D02*
X345444700Y-93063155D01*
X345444700Y-93063155D02*
X345397080Y-93015536D01*
X345172319Y-96349345D02*
X344172319Y-96349345D01*
X345172319Y-96920773D02*
X344600890Y-96492202D01*
X344172319Y-96920773D02*
X344743747Y-96349345D01*
X131179819Y-148736964D02*
X130179819Y-148736964D01*
X130179819Y-148736964D02*
X130179819Y-148975059D01*
X130179819Y-148975059D02*
X130227438Y-149117916D01*
X130227438Y-149117916D02*
X130322676Y-149213154D01*
X130322676Y-149213154D02*
X130417914Y-149260773D01*
X130417914Y-149260773D02*
X130608390Y-149308392D01*
X130608390Y-149308392D02*
X130751247Y-149308392D01*
X130751247Y-149308392D02*
X130941723Y-149260773D01*
X130941723Y-149260773D02*
X131036961Y-149213154D01*
X131036961Y-149213154D02*
X131132200Y-149117916D01*
X131132200Y-149117916D02*
X131179819Y-148975059D01*
X131179819Y-148975059D02*
X131179819Y-148736964D01*
X130513152Y-150165535D02*
X131179819Y-150165535D01*
X130132200Y-149927440D02*
X130846485Y-149689345D01*
X130846485Y-149689345D02*
X130846485Y-150308392D01*
X130179819Y-150594107D02*
X130179819Y-151213154D01*
X130179819Y-151213154D02*
X130560771Y-150879821D01*
X130560771Y-150879821D02*
X130560771Y-151022678D01*
X130560771Y-151022678D02*
X130608390Y-151117916D01*
X130608390Y-151117916D02*
X130656009Y-151165535D01*
X130656009Y-151165535D02*
X130751247Y-151213154D01*
X130751247Y-151213154D02*
X130989342Y-151213154D01*
X130989342Y-151213154D02*
X131084580Y-151165535D01*
X131084580Y-151165535D02*
X131132200Y-151117916D01*
X131132200Y-151117916D02*
X131179819Y-151022678D01*
X131179819Y-151022678D02*
X131179819Y-150736964D01*
X131179819Y-150736964D02*
X131132200Y-150641726D01*
X131132200Y-150641726D02*
X131084580Y-150594107D01*
X130859819Y-153499345D02*
X129859819Y-153499345D01*
X130859819Y-154070773D02*
X130288390Y-153642202D01*
X129859819Y-154070773D02*
X130431247Y-153499345D01*
X169279819Y-148736964D02*
X168279819Y-148736964D01*
X168279819Y-148736964D02*
X168279819Y-148975059D01*
X168279819Y-148975059D02*
X168327438Y-149117916D01*
X168327438Y-149117916D02*
X168422676Y-149213154D01*
X168422676Y-149213154D02*
X168517914Y-149260773D01*
X168517914Y-149260773D02*
X168708390Y-149308392D01*
X168708390Y-149308392D02*
X168851247Y-149308392D01*
X168851247Y-149308392D02*
X169041723Y-149260773D01*
X169041723Y-149260773D02*
X169136961Y-149213154D01*
X169136961Y-149213154D02*
X169232200Y-149117916D01*
X169232200Y-149117916D02*
X169279819Y-148975059D01*
X169279819Y-148975059D02*
X169279819Y-148736964D01*
X168613152Y-150165535D02*
X169279819Y-150165535D01*
X168232200Y-149927440D02*
X168946485Y-149689345D01*
X168946485Y-149689345D02*
X168946485Y-150308392D01*
X168279819Y-151165535D02*
X168279819Y-150689345D01*
X168279819Y-150689345D02*
X168756009Y-150641726D01*
X168756009Y-150641726D02*
X168708390Y-150689345D01*
X168708390Y-150689345D02*
X168660771Y-150784583D01*
X168660771Y-150784583D02*
X168660771Y-151022678D01*
X168660771Y-151022678D02*
X168708390Y-151117916D01*
X168708390Y-151117916D02*
X168756009Y-151165535D01*
X168756009Y-151165535D02*
X168851247Y-151213154D01*
X168851247Y-151213154D02*
X169089342Y-151213154D01*
X169089342Y-151213154D02*
X169184580Y-151165535D01*
X169184580Y-151165535D02*
X169232200Y-151117916D01*
X169232200Y-151117916D02*
X169279819Y-151022678D01*
X169279819Y-151022678D02*
X169279819Y-150784583D01*
X169279819Y-150784583D02*
X169232200Y-150689345D01*
X169232200Y-150689345D02*
X169184580Y-150641726D01*
X168959819Y-153499345D02*
X167959819Y-153499345D01*
X168959819Y-154070773D02*
X168388390Y-153642202D01*
X167959819Y-154070773D02*
X168531247Y-153499345D01*
X114511069Y-167786964D02*
X113511069Y-167786964D01*
X113511069Y-167786964D02*
X113511069Y-168025059D01*
X113511069Y-168025059D02*
X113558688Y-168167916D01*
X113558688Y-168167916D02*
X113653926Y-168263154D01*
X113653926Y-168263154D02*
X113749164Y-168310773D01*
X113749164Y-168310773D02*
X113939640Y-168358392D01*
X113939640Y-168358392D02*
X114082497Y-168358392D01*
X114082497Y-168358392D02*
X114272973Y-168310773D01*
X114272973Y-168310773D02*
X114368211Y-168263154D01*
X114368211Y-168263154D02*
X114463450Y-168167916D01*
X114463450Y-168167916D02*
X114511069Y-168025059D01*
X114511069Y-168025059D02*
X114511069Y-167786964D01*
X113511069Y-169263154D02*
X113511069Y-168786964D01*
X113511069Y-168786964D02*
X113987259Y-168739345D01*
X113987259Y-168739345D02*
X113939640Y-168786964D01*
X113939640Y-168786964D02*
X113892021Y-168882202D01*
X113892021Y-168882202D02*
X113892021Y-169120297D01*
X113892021Y-169120297D02*
X113939640Y-169215535D01*
X113939640Y-169215535D02*
X113987259Y-169263154D01*
X113987259Y-169263154D02*
X114082497Y-169310773D01*
X114082497Y-169310773D02*
X114320592Y-169310773D01*
X114320592Y-169310773D02*
X114415830Y-169263154D01*
X114415830Y-169263154D02*
X114463450Y-169215535D01*
X114463450Y-169215535D02*
X114511069Y-169120297D01*
X114511069Y-169120297D02*
X114511069Y-168882202D01*
X114511069Y-168882202D02*
X114463450Y-168786964D01*
X114463450Y-168786964D02*
X114415830Y-168739345D01*
X113511069Y-170215535D02*
X113511069Y-169739345D01*
X113511069Y-169739345D02*
X113987259Y-169691726D01*
X113987259Y-169691726D02*
X113939640Y-169739345D01*
X113939640Y-169739345D02*
X113892021Y-169834583D01*
X113892021Y-169834583D02*
X113892021Y-170072678D01*
X113892021Y-170072678D02*
X113939640Y-170167916D01*
X113939640Y-170167916D02*
X113987259Y-170215535D01*
X113987259Y-170215535D02*
X114082497Y-170263154D01*
X114082497Y-170263154D02*
X114320592Y-170263154D01*
X114320592Y-170263154D02*
X114415830Y-170215535D01*
X114415830Y-170215535D02*
X114463450Y-170167916D01*
X114463450Y-170167916D02*
X114511069Y-170072678D01*
X114511069Y-170072678D02*
X114511069Y-169834583D01*
X114511069Y-169834583D02*
X114463450Y-169739345D01*
X114463450Y-169739345D02*
X114415830Y-169691726D01*
X114191069Y-172549345D02*
X113191069Y-172549345D01*
X114191069Y-173120773D02*
X113619640Y-172692202D01*
X113191069Y-173120773D02*
X113762497Y-172549345D01*
X107367319Y-92063155D02*
X106367319Y-92063155D01*
X106367319Y-92063155D02*
X106367319Y-92301250D01*
X106367319Y-92301250D02*
X106414938Y-92444107D01*
X106414938Y-92444107D02*
X106510176Y-92539345D01*
X106510176Y-92539345D02*
X106605414Y-92586964D01*
X106605414Y-92586964D02*
X106795890Y-92634583D01*
X106795890Y-92634583D02*
X106938747Y-92634583D01*
X106938747Y-92634583D02*
X107129223Y-92586964D01*
X107129223Y-92586964D02*
X107224461Y-92539345D01*
X107224461Y-92539345D02*
X107319700Y-92444107D01*
X107319700Y-92444107D02*
X107367319Y-92301250D01*
X107367319Y-92301250D02*
X107367319Y-92063155D01*
X106462557Y-93015536D02*
X106414938Y-93063155D01*
X106414938Y-93063155D02*
X106367319Y-93158393D01*
X106367319Y-93158393D02*
X106367319Y-93396488D01*
X106367319Y-93396488D02*
X106414938Y-93491726D01*
X106414938Y-93491726D02*
X106462557Y-93539345D01*
X106462557Y-93539345D02*
X106557795Y-93586964D01*
X106557795Y-93586964D02*
X106653033Y-93586964D01*
X106653033Y-93586964D02*
X106795890Y-93539345D01*
X106795890Y-93539345D02*
X107367319Y-92967917D01*
X107367319Y-92967917D02*
X107367319Y-93586964D01*
X107047319Y-96349345D02*
X106047319Y-96349345D01*
X107047319Y-96920773D02*
X106475890Y-96492202D01*
X106047319Y-96920773D02*
X106618747Y-96349345D01*
X93079819Y-110636964D02*
X92079819Y-110636964D01*
X92079819Y-110636964D02*
X92079819Y-110875059D01*
X92079819Y-110875059D02*
X92127438Y-111017916D01*
X92127438Y-111017916D02*
X92222676Y-111113154D01*
X92222676Y-111113154D02*
X92317914Y-111160773D01*
X92317914Y-111160773D02*
X92508390Y-111208392D01*
X92508390Y-111208392D02*
X92651247Y-111208392D01*
X92651247Y-111208392D02*
X92841723Y-111160773D01*
X92841723Y-111160773D02*
X92936961Y-111113154D01*
X92936961Y-111113154D02*
X93032200Y-111017916D01*
X93032200Y-111017916D02*
X93079819Y-110875059D01*
X93079819Y-110875059D02*
X93079819Y-110636964D01*
X93079819Y-112160773D02*
X93079819Y-111589345D01*
X93079819Y-111875059D02*
X92079819Y-111875059D01*
X92079819Y-111875059D02*
X92222676Y-111779821D01*
X92222676Y-111779821D02*
X92317914Y-111684583D01*
X92317914Y-111684583D02*
X92365533Y-111589345D01*
X92079819Y-113065535D02*
X92079819Y-112589345D01*
X92079819Y-112589345D02*
X92556009Y-112541726D01*
X92556009Y-112541726D02*
X92508390Y-112589345D01*
X92508390Y-112589345D02*
X92460771Y-112684583D01*
X92460771Y-112684583D02*
X92460771Y-112922678D01*
X92460771Y-112922678D02*
X92508390Y-113017916D01*
X92508390Y-113017916D02*
X92556009Y-113065535D01*
X92556009Y-113065535D02*
X92651247Y-113113154D01*
X92651247Y-113113154D02*
X92889342Y-113113154D01*
X92889342Y-113113154D02*
X92984580Y-113065535D01*
X92984580Y-113065535D02*
X93032200Y-113017916D01*
X93032200Y-113017916D02*
X93079819Y-112922678D01*
X93079819Y-112922678D02*
X93079819Y-112684583D01*
X93079819Y-112684583D02*
X93032200Y-112589345D01*
X93032200Y-112589345D02*
X92984580Y-112541726D01*
X92759819Y-115399345D02*
X91759819Y-115399345D01*
X92759819Y-115970773D02*
X92188390Y-115542202D01*
X91759819Y-115970773D02*
X92331247Y-115399345D01*
X216904819Y-129686964D02*
X215904819Y-129686964D01*
X215904819Y-129686964D02*
X215904819Y-129925059D01*
X215904819Y-129925059D02*
X215952438Y-130067916D01*
X215952438Y-130067916D02*
X216047676Y-130163154D01*
X216047676Y-130163154D02*
X216142914Y-130210773D01*
X216142914Y-130210773D02*
X216333390Y-130258392D01*
X216333390Y-130258392D02*
X216476247Y-130258392D01*
X216476247Y-130258392D02*
X216666723Y-130210773D01*
X216666723Y-130210773D02*
X216761961Y-130163154D01*
X216761961Y-130163154D02*
X216857200Y-130067916D01*
X216857200Y-130067916D02*
X216904819Y-129925059D01*
X216904819Y-129925059D02*
X216904819Y-129686964D01*
X215904819Y-130591726D02*
X215904819Y-131210773D01*
X215904819Y-131210773D02*
X216285771Y-130877440D01*
X216285771Y-130877440D02*
X216285771Y-131020297D01*
X216285771Y-131020297D02*
X216333390Y-131115535D01*
X216333390Y-131115535D02*
X216381009Y-131163154D01*
X216381009Y-131163154D02*
X216476247Y-131210773D01*
X216476247Y-131210773D02*
X216714342Y-131210773D01*
X216714342Y-131210773D02*
X216809580Y-131163154D01*
X216809580Y-131163154D02*
X216857200Y-131115535D01*
X216857200Y-131115535D02*
X216904819Y-131020297D01*
X216904819Y-131020297D02*
X216904819Y-130734583D01*
X216904819Y-130734583D02*
X216857200Y-130639345D01*
X216857200Y-130639345D02*
X216809580Y-130591726D01*
X215904819Y-132115535D02*
X215904819Y-131639345D01*
X215904819Y-131639345D02*
X216381009Y-131591726D01*
X216381009Y-131591726D02*
X216333390Y-131639345D01*
X216333390Y-131639345D02*
X216285771Y-131734583D01*
X216285771Y-131734583D02*
X216285771Y-131972678D01*
X216285771Y-131972678D02*
X216333390Y-132067916D01*
X216333390Y-132067916D02*
X216381009Y-132115535D01*
X216381009Y-132115535D02*
X216476247Y-132163154D01*
X216476247Y-132163154D02*
X216714342Y-132163154D01*
X216714342Y-132163154D02*
X216809580Y-132115535D01*
X216809580Y-132115535D02*
X216857200Y-132067916D01*
X216857200Y-132067916D02*
X216904819Y-131972678D01*
X216904819Y-131972678D02*
X216904819Y-131734583D01*
X216904819Y-131734583D02*
X216857200Y-131639345D01*
X216857200Y-131639345D02*
X216809580Y-131591726D01*
X216584819Y-134449345D02*
X215584819Y-134449345D01*
X216584819Y-135020773D02*
X216013390Y-134592202D01*
X215584819Y-135020773D02*
X216156247Y-134449345D01*
D11*
%TO.C,D30*%
X119080000Y-128131250D02*
X119080000Y-128781250D01*
X119080000Y-133671250D02*
X119080000Y-133021250D01*
X120200000Y-132181250D02*
X117960000Y-132181250D01*
X120200000Y-132301250D02*
X117960000Y-132301250D01*
X120200000Y-132421250D02*
X117960000Y-132421250D01*
X120200000Y-133021250D02*
X117960000Y-133021250D01*
X117960000Y-128781250D01*
X120200000Y-128781250D01*
X120200000Y-133021250D01*
%TO.C,D8*%
X200042500Y-90031250D02*
X200042500Y-90681250D01*
X200042500Y-95571250D02*
X200042500Y-94921250D01*
X201162500Y-94081250D02*
X198922500Y-94081250D01*
X201162500Y-94201250D02*
X198922500Y-94201250D01*
X201162500Y-94321250D02*
X198922500Y-94321250D01*
X201162500Y-94921250D02*
X198922500Y-94921250D01*
X198922500Y-90681250D01*
X201162500Y-90681250D01*
X201162500Y-94921250D01*
%TO.C,D24*%
X266717500Y-109081250D02*
X266717500Y-109731250D01*
X266717500Y-114621250D02*
X266717500Y-113971250D01*
X267837500Y-113131250D02*
X265597500Y-113131250D01*
X267837500Y-113251250D02*
X265597500Y-113251250D01*
X267837500Y-113371250D02*
X265597500Y-113371250D01*
X267837500Y-113971250D02*
X265597500Y-113971250D01*
X265597500Y-109731250D01*
X267837500Y-109731250D01*
X267837500Y-113971250D01*
%TO.C,D25*%
X285767500Y-109081250D02*
X285767500Y-109731250D01*
X285767500Y-114621250D02*
X285767500Y-113971250D01*
X286887500Y-113131250D02*
X284647500Y-113131250D01*
X286887500Y-113251250D02*
X284647500Y-113251250D01*
X286887500Y-113371250D02*
X284647500Y-113371250D01*
X286887500Y-113971250D02*
X284647500Y-113971250D01*
X284647500Y-109731250D01*
X286887500Y-109731250D01*
X286887500Y-113971250D01*
%TO.C,D41*%
X340536250Y-128131250D02*
X340536250Y-128781250D01*
X340536250Y-133671250D02*
X340536250Y-133021250D01*
X341656250Y-132181250D02*
X339416250Y-132181250D01*
X341656250Y-132301250D02*
X339416250Y-132301250D01*
X341656250Y-132421250D02*
X339416250Y-132421250D01*
X341656250Y-133021250D02*
X339416250Y-133021250D01*
X339416250Y-128781250D01*
X341656250Y-128781250D01*
X341656250Y-133021250D01*
%TO.C,D12*%
X276242500Y-90031250D02*
X276242500Y-90681250D01*
X276242500Y-95571250D02*
X276242500Y-94921250D01*
X277362500Y-94081250D02*
X275122500Y-94081250D01*
X277362500Y-94201250D02*
X275122500Y-94201250D01*
X277362500Y-94321250D02*
X275122500Y-94321250D01*
X277362500Y-94921250D02*
X275122500Y-94921250D01*
X275122500Y-90681250D01*
X277362500Y-90681250D01*
X277362500Y-94921250D01*
%TO.C,D31*%
X138130000Y-128131250D02*
X138130000Y-128781250D01*
X138130000Y-133671250D02*
X138130000Y-133021250D01*
X139250000Y-132181250D02*
X137010000Y-132181250D01*
X139250000Y-132301250D02*
X137010000Y-132301250D01*
X139250000Y-132421250D02*
X137010000Y-132421250D01*
X139250000Y-133021250D02*
X137010000Y-133021250D01*
X137010000Y-128781250D01*
X139250000Y-128781250D01*
X139250000Y-133021250D01*
%TO.C,D61*%
X350061250Y-166231250D02*
X350061250Y-166881250D01*
X350061250Y-171771250D02*
X350061250Y-171121250D01*
X351181250Y-170281250D02*
X348941250Y-170281250D01*
X351181250Y-170401250D02*
X348941250Y-170401250D01*
X351181250Y-170521250D02*
X348941250Y-170521250D01*
X351181250Y-171121250D02*
X348941250Y-171121250D01*
X348941250Y-166881250D01*
X351181250Y-166881250D01*
X351181250Y-171121250D01*
%TO.C,D32*%
X157180000Y-128131250D02*
X157180000Y-128781250D01*
X157180000Y-133671250D02*
X157180000Y-133021250D01*
X158300000Y-132181250D02*
X156060000Y-132181250D01*
X158300000Y-132301250D02*
X156060000Y-132301250D01*
X158300000Y-132421250D02*
X156060000Y-132421250D01*
X158300000Y-133021250D02*
X156060000Y-133021250D01*
X156060000Y-128781250D01*
X158300000Y-128781250D01*
X158300000Y-133021250D01*
%TO.C,D53*%
X335773750Y-147181250D02*
X335773750Y-147831250D01*
X335773750Y-152721250D02*
X335773750Y-152071250D01*
X336893750Y-151231250D02*
X334653750Y-151231250D01*
X336893750Y-151351250D02*
X334653750Y-151351250D01*
X336893750Y-151471250D02*
X334653750Y-151471250D01*
X336893750Y-152071250D02*
X334653750Y-152071250D01*
X334653750Y-147831250D01*
X336893750Y-147831250D01*
X336893750Y-152071250D01*
%TO.C,D14*%
X314342500Y-90031250D02*
X314342500Y-90681250D01*
X314342500Y-95571250D02*
X314342500Y-94921250D01*
X315462500Y-94081250D02*
X313222500Y-94081250D01*
X315462500Y-94201250D02*
X313222500Y-94201250D01*
X315462500Y-94321250D02*
X313222500Y-94321250D01*
X315462500Y-94921250D02*
X313222500Y-94921250D01*
X313222500Y-90681250D01*
X315462500Y-90681250D01*
X315462500Y-94921250D01*
%TO.C,D38*%
X271480000Y-128131250D02*
X271480000Y-128781250D01*
X271480000Y-133671250D02*
X271480000Y-133021250D01*
X272600000Y-132181250D02*
X270360000Y-132181250D01*
X272600000Y-132301250D02*
X270360000Y-132301250D01*
X272600000Y-132421250D02*
X270360000Y-132421250D01*
X272600000Y-133021250D02*
X270360000Y-133021250D01*
X270360000Y-128781250D01*
X272600000Y-128781250D01*
X272600000Y-133021250D01*
%TO.C,D47*%
X204805000Y-147181250D02*
X204805000Y-147831250D01*
X204805000Y-152721250D02*
X204805000Y-152071250D01*
X205925000Y-151231250D02*
X203685000Y-151231250D01*
X205925000Y-151351250D02*
X203685000Y-151351250D01*
X205925000Y-151471250D02*
X203685000Y-151471250D01*
X205925000Y-152071250D02*
X203685000Y-152071250D01*
X203685000Y-147831250D01*
X205925000Y-147831250D01*
X205925000Y-152071250D01*
%TO.C,D57*%
X207186250Y-166231250D02*
X207186250Y-166881250D01*
X207186250Y-171771250D02*
X207186250Y-171121250D01*
X208306250Y-170281250D02*
X206066250Y-170281250D01*
X208306250Y-170401250D02*
X206066250Y-170401250D01*
X208306250Y-170521250D02*
X206066250Y-170521250D01*
X208306250Y-171121250D02*
X206066250Y-171121250D01*
X206066250Y-166881250D01*
X208306250Y-166881250D01*
X208306250Y-171121250D01*
%TO.C,D59*%
X302436250Y-166231250D02*
X302436250Y-166881250D01*
X302436250Y-171771250D02*
X302436250Y-171121250D01*
X303556250Y-170281250D02*
X301316250Y-170281250D01*
X303556250Y-170401250D02*
X301316250Y-170401250D01*
X303556250Y-170521250D02*
X301316250Y-170521250D01*
X303556250Y-171121250D02*
X301316250Y-171121250D01*
X301316250Y-166881250D01*
X303556250Y-166881250D01*
X303556250Y-171121250D01*
%TO.C,D16*%
X114317500Y-109081250D02*
X114317500Y-109731250D01*
X114317500Y-114621250D02*
X114317500Y-113971250D01*
X115437500Y-113131250D02*
X113197500Y-113131250D01*
X115437500Y-113251250D02*
X113197500Y-113251250D01*
X115437500Y-113371250D02*
X113197500Y-113371250D01*
X115437500Y-113971250D02*
X113197500Y-113971250D01*
X113197500Y-109731250D01*
X115437500Y-109731250D01*
X115437500Y-113971250D01*
%TO.C,D22*%
X228617500Y-109081250D02*
X228617500Y-109731250D01*
X228617500Y-114621250D02*
X228617500Y-113971250D01*
X229737500Y-113131250D02*
X227497500Y-113131250D01*
X229737500Y-113251250D02*
X227497500Y-113251250D01*
X229737500Y-113371250D02*
X227497500Y-113371250D01*
X229737500Y-113971250D02*
X227497500Y-113971250D01*
X227497500Y-109731250D01*
X229737500Y-109731250D01*
X229737500Y-113971250D01*
%TO.C,D10*%
X238142500Y-90031250D02*
X238142500Y-90681250D01*
X238142500Y-95571250D02*
X238142500Y-94921250D01*
X239262500Y-94081250D02*
X237022500Y-94081250D01*
X239262500Y-94201250D02*
X237022500Y-94201250D01*
X239262500Y-94321250D02*
X237022500Y-94321250D01*
X239262500Y-94921250D02*
X237022500Y-94921250D01*
X237022500Y-90681250D01*
X239262500Y-90681250D01*
X239262500Y-94921250D01*
%TO.C,D13*%
X295292500Y-90031250D02*
X295292500Y-90681250D01*
X295292500Y-95571250D02*
X295292500Y-94921250D01*
X296412500Y-94081250D02*
X294172500Y-94081250D01*
X296412500Y-94201250D02*
X294172500Y-94201250D01*
X296412500Y-94321250D02*
X294172500Y-94321250D01*
X296412500Y-94921250D02*
X294172500Y-94921250D01*
X294172500Y-90681250D01*
X296412500Y-90681250D01*
X296412500Y-94921250D01*
%TO.C,D23*%
X247667500Y-109081250D02*
X247667500Y-109731250D01*
X247667500Y-114621250D02*
X247667500Y-113971250D01*
X248787500Y-113131250D02*
X246547500Y-113131250D01*
X248787500Y-113251250D02*
X246547500Y-113251250D01*
X248787500Y-113371250D02*
X246547500Y-113371250D01*
X248787500Y-113971250D02*
X246547500Y-113971250D01*
X246547500Y-109731250D01*
X248787500Y-109731250D01*
X248787500Y-113971250D01*
%TO.C,D34*%
X195280000Y-128131250D02*
X195280000Y-128781250D01*
X195280000Y-133671250D02*
X195280000Y-133021250D01*
X196400000Y-132181250D02*
X194160000Y-132181250D01*
X196400000Y-132301250D02*
X194160000Y-132301250D01*
X196400000Y-132421250D02*
X194160000Y-132421250D01*
X196400000Y-133021250D02*
X194160000Y-133021250D01*
X194160000Y-128781250D01*
X196400000Y-128781250D01*
X196400000Y-133021250D01*
%TO.C,D37*%
X252430000Y-128131250D02*
X252430000Y-128781250D01*
X252430000Y-133671250D02*
X252430000Y-133021250D01*
X253550000Y-132181250D02*
X251310000Y-132181250D01*
X253550000Y-132301250D02*
X251310000Y-132301250D01*
X253550000Y-132421250D02*
X251310000Y-132421250D01*
X253550000Y-133021250D02*
X251310000Y-133021250D01*
X251310000Y-128781250D01*
X253550000Y-128781250D01*
X253550000Y-133021250D01*
%TO.C,D3*%
X123842500Y-90031250D02*
X123842500Y-90681250D01*
X123842500Y-95571250D02*
X123842500Y-94921250D01*
X124962500Y-94081250D02*
X122722500Y-94081250D01*
X124962500Y-94201250D02*
X122722500Y-94201250D01*
X124962500Y-94321250D02*
X122722500Y-94321250D01*
X124962500Y-94921250D02*
X122722500Y-94921250D01*
X122722500Y-90681250D01*
X124962500Y-90681250D01*
X124962500Y-94921250D01*
%TO.C,D9*%
X219092500Y-90031250D02*
X219092500Y-90681250D01*
X219092500Y-95571250D02*
X219092500Y-94921250D01*
X220212500Y-94081250D02*
X217972500Y-94081250D01*
X220212500Y-94201250D02*
X217972500Y-94201250D01*
X220212500Y-94321250D02*
X217972500Y-94321250D01*
X220212500Y-94921250D02*
X217972500Y-94921250D01*
X217972500Y-90681250D01*
X220212500Y-90681250D01*
X220212500Y-94921250D01*
%TO.C,D7*%
X180992500Y-90031250D02*
X180992500Y-90681250D01*
X180992500Y-95571250D02*
X180992500Y-94921250D01*
X182112500Y-94081250D02*
X179872500Y-94081250D01*
X182112500Y-94201250D02*
X179872500Y-94201250D01*
X182112500Y-94321250D02*
X179872500Y-94321250D01*
X182112500Y-94921250D02*
X179872500Y-94921250D01*
X179872500Y-90681250D01*
X182112500Y-90681250D01*
X182112500Y-94921250D01*
%TO.C,D56*%
X135748750Y-166231250D02*
X135748750Y-166881250D01*
X135748750Y-171771250D02*
X135748750Y-171121250D01*
X136868750Y-170281250D02*
X134628750Y-170281250D01*
X136868750Y-170401250D02*
X134628750Y-170401250D01*
X136868750Y-170521250D02*
X134628750Y-170521250D01*
X136868750Y-171121250D02*
X134628750Y-171121250D01*
X134628750Y-166881250D01*
X136868750Y-166881250D01*
X136868750Y-171121250D01*
%TO.C,D50*%
X261955000Y-147181250D02*
X261955000Y-147831250D01*
X261955000Y-152721250D02*
X261955000Y-152071250D01*
X263075000Y-151231250D02*
X260835000Y-151231250D01*
X263075000Y-151351250D02*
X260835000Y-151351250D01*
X263075000Y-151471250D02*
X260835000Y-151471250D01*
X263075000Y-152071250D02*
X260835000Y-152071250D01*
X260835000Y-147831250D01*
X263075000Y-147831250D01*
X263075000Y-152071250D01*
%TO.C,D1*%
X85742500Y-90031250D02*
X85742500Y-90681250D01*
X85742500Y-95571250D02*
X85742500Y-94921250D01*
X86862500Y-94081250D02*
X84622500Y-94081250D01*
X86862500Y-94201250D02*
X84622500Y-94201250D01*
X86862500Y-94321250D02*
X84622500Y-94321250D01*
X86862500Y-94921250D02*
X84622500Y-94921250D01*
X84622500Y-90681250D01*
X86862500Y-90681250D01*
X86862500Y-94921250D01*
%TO.C,D36*%
X233380000Y-128131250D02*
X233380000Y-128781250D01*
X233380000Y-133671250D02*
X233380000Y-133021250D01*
X234500000Y-132181250D02*
X232260000Y-132181250D01*
X234500000Y-132301250D02*
X232260000Y-132301250D01*
X234500000Y-132421250D02*
X232260000Y-132421250D01*
X234500000Y-133021250D02*
X232260000Y-133021250D01*
X232260000Y-128781250D01*
X234500000Y-128781250D01*
X234500000Y-133021250D01*
%TO.C,D18*%
X152417500Y-109081250D02*
X152417500Y-109731250D01*
X152417500Y-114621250D02*
X152417500Y-113971250D01*
X153537500Y-113131250D02*
X151297500Y-113131250D01*
X153537500Y-113251250D02*
X151297500Y-113251250D01*
X153537500Y-113371250D02*
X151297500Y-113371250D01*
X153537500Y-113971250D02*
X151297500Y-113971250D01*
X151297500Y-109731250D01*
X153537500Y-109731250D01*
X153537500Y-113971250D01*
%TO.C,D4*%
X142892500Y-90031250D02*
X142892500Y-90681250D01*
X142892500Y-95571250D02*
X142892500Y-94921250D01*
X144012500Y-94081250D02*
X141772500Y-94081250D01*
X144012500Y-94201250D02*
X141772500Y-94201250D01*
X144012500Y-94321250D02*
X141772500Y-94321250D01*
X144012500Y-94921250D02*
X141772500Y-94921250D01*
X141772500Y-90681250D01*
X144012500Y-90681250D01*
X144012500Y-94921250D01*
%TO.C,D40*%
X309580000Y-128131250D02*
X309580000Y-128781250D01*
X309580000Y-133671250D02*
X309580000Y-133021250D01*
X310700000Y-132181250D02*
X308460000Y-132181250D01*
X310700000Y-132301250D02*
X308460000Y-132301250D01*
X310700000Y-132421250D02*
X308460000Y-132421250D01*
X310700000Y-133021250D02*
X308460000Y-133021250D01*
X308460000Y-128781250D01*
X310700000Y-128781250D01*
X310700000Y-133021250D01*
%TO.C,D44*%
X147655000Y-147181250D02*
X147655000Y-147831250D01*
X147655000Y-152721250D02*
X147655000Y-152071250D01*
X148775000Y-151231250D02*
X146535000Y-151231250D01*
X148775000Y-151351250D02*
X146535000Y-151351250D01*
X148775000Y-151471250D02*
X146535000Y-151471250D01*
X148775000Y-152071250D02*
X146535000Y-152071250D01*
X146535000Y-147831250D01*
X148775000Y-147831250D01*
X148775000Y-152071250D01*
%TO.C,D49*%
X242905000Y-147181250D02*
X242905000Y-147831250D01*
X242905000Y-152721250D02*
X242905000Y-152071250D01*
X244025000Y-151231250D02*
X241785000Y-151231250D01*
X244025000Y-151351250D02*
X241785000Y-151351250D01*
X244025000Y-151471250D02*
X241785000Y-151471250D01*
X244025000Y-152071250D02*
X241785000Y-152071250D01*
X241785000Y-147831250D01*
X244025000Y-147831250D01*
X244025000Y-152071250D01*
%TO.C,D21*%
X209567500Y-109081250D02*
X209567500Y-109731250D01*
X209567500Y-114621250D02*
X209567500Y-113971250D01*
X210687500Y-113131250D02*
X208447500Y-113131250D01*
X210687500Y-113251250D02*
X208447500Y-113251250D01*
X210687500Y-113371250D02*
X208447500Y-113371250D01*
X210687500Y-113971250D02*
X208447500Y-113971250D01*
X208447500Y-109731250D01*
X210687500Y-109731250D01*
X210687500Y-113971250D01*
%TO.C,D60*%
X326248750Y-166231250D02*
X326248750Y-166881250D01*
X326248750Y-171771250D02*
X326248750Y-171121250D01*
X327368750Y-170281250D02*
X325128750Y-170281250D01*
X327368750Y-170401250D02*
X325128750Y-170401250D01*
X327368750Y-170521250D02*
X325128750Y-170521250D01*
X327368750Y-171121250D02*
X325128750Y-171121250D01*
X325128750Y-166881250D01*
X327368750Y-166881250D01*
X327368750Y-171121250D01*
%TO.C,D29*%
X92886250Y-128131250D02*
X92886250Y-128781250D01*
X92886250Y-133671250D02*
X92886250Y-133021250D01*
X94006250Y-132181250D02*
X91766250Y-132181250D01*
X94006250Y-132301250D02*
X91766250Y-132301250D01*
X94006250Y-132421250D02*
X91766250Y-132421250D01*
X94006250Y-133021250D02*
X91766250Y-133021250D01*
X91766250Y-128781250D01*
X94006250Y-128781250D01*
X94006250Y-133021250D01*
%TO.C,D19*%
X171467500Y-109081250D02*
X171467500Y-109731250D01*
X171467500Y-114621250D02*
X171467500Y-113971250D01*
X172587500Y-113131250D02*
X170347500Y-113131250D01*
X172587500Y-113251250D02*
X170347500Y-113251250D01*
X172587500Y-113371250D02*
X170347500Y-113371250D01*
X172587500Y-113971250D02*
X170347500Y-113971250D01*
X170347500Y-109731250D01*
X172587500Y-109731250D01*
X172587500Y-113971250D01*
%TO.C,D28*%
X347680000Y-109081250D02*
X347680000Y-109731250D01*
X347680000Y-114621250D02*
X347680000Y-113971250D01*
X348800000Y-113131250D02*
X346560000Y-113131250D01*
X348800000Y-113251250D02*
X346560000Y-113251250D01*
X348800000Y-113371250D02*
X346560000Y-113371250D01*
X348800000Y-113971250D02*
X346560000Y-113971250D01*
X346560000Y-109731250D01*
X348800000Y-109731250D01*
X348800000Y-113971250D01*
%TO.C,D42*%
X98962500Y-152311250D02*
X98962500Y-152961250D01*
X98962500Y-157851250D02*
X98962500Y-157201250D01*
X100082500Y-156361250D02*
X97842500Y-156361250D01*
X100082500Y-156481250D02*
X97842500Y-156481250D01*
X100082500Y-156601250D02*
X97842500Y-156601250D01*
X100082500Y-157201250D02*
X97842500Y-157201250D01*
X97842500Y-152961250D01*
X100082500Y-152961250D01*
X100082500Y-157201250D01*
%TO.C,D52*%
X300055000Y-147181250D02*
X300055000Y-147831250D01*
X300055000Y-152721250D02*
X300055000Y-152071250D01*
X301175000Y-151231250D02*
X298935000Y-151231250D01*
X301175000Y-151351250D02*
X298935000Y-151351250D01*
X301175000Y-151471250D02*
X298935000Y-151471250D01*
X301175000Y-152071250D02*
X298935000Y-152071250D01*
X298935000Y-147831250D01*
X301175000Y-147831250D01*
X301175000Y-152071250D01*
%TO.C,D26*%
X304817500Y-109081250D02*
X304817500Y-109731250D01*
X304817500Y-114621250D02*
X304817500Y-113971250D01*
X305937500Y-113131250D02*
X303697500Y-113131250D01*
X305937500Y-113251250D02*
X303697500Y-113251250D01*
X305937500Y-113371250D02*
X303697500Y-113371250D01*
X305937500Y-113971250D02*
X303697500Y-113971250D01*
X303697500Y-109731250D01*
X305937500Y-109731250D01*
X305937500Y-113971250D01*
%TO.C,D54*%
X88123750Y-166231250D02*
X88123750Y-166881250D01*
X88123750Y-171771250D02*
X88123750Y-171121250D01*
X89243750Y-170281250D02*
X87003750Y-170281250D01*
X89243750Y-170401250D02*
X87003750Y-170401250D01*
X89243750Y-170521250D02*
X87003750Y-170521250D01*
X89243750Y-171121250D02*
X87003750Y-171121250D01*
X87003750Y-166881250D01*
X89243750Y-166881250D01*
X89243750Y-171121250D01*
%TO.C,D39*%
X290530000Y-128131250D02*
X290530000Y-128781250D01*
X290530000Y-133671250D02*
X290530000Y-133021250D01*
X291650000Y-132181250D02*
X289410000Y-132181250D01*
X291650000Y-132301250D02*
X289410000Y-132301250D01*
X291650000Y-132421250D02*
X289410000Y-132421250D01*
X291650000Y-133021250D02*
X289410000Y-133021250D01*
X289410000Y-128781250D01*
X291650000Y-128781250D01*
X291650000Y-133021250D01*
%TO.C,D20*%
X190517500Y-109081250D02*
X190517500Y-109731250D01*
X190517500Y-114621250D02*
X190517500Y-113971250D01*
X191637500Y-113131250D02*
X189397500Y-113131250D01*
X191637500Y-113251250D02*
X189397500Y-113251250D01*
X191637500Y-113371250D02*
X189397500Y-113371250D01*
X191637500Y-113971250D02*
X189397500Y-113971250D01*
X189397500Y-109731250D01*
X191637500Y-109731250D01*
X191637500Y-113971250D01*
%TO.C,D33*%
X176230000Y-128131250D02*
X176230000Y-128781250D01*
X176230000Y-133671250D02*
X176230000Y-133021250D01*
X177350000Y-132181250D02*
X175110000Y-132181250D01*
X177350000Y-132301250D02*
X175110000Y-132301250D01*
X177350000Y-132421250D02*
X175110000Y-132421250D01*
X177350000Y-133021250D02*
X175110000Y-133021250D01*
X175110000Y-128781250D01*
X177350000Y-128781250D01*
X177350000Y-133021250D01*
%TO.C,D6*%
X161942500Y-90031250D02*
X161942500Y-90681250D01*
X161942500Y-95571250D02*
X161942500Y-94921250D01*
X163062500Y-94081250D02*
X160822500Y-94081250D01*
X163062500Y-94201250D02*
X160822500Y-94201250D01*
X163062500Y-94321250D02*
X160822500Y-94321250D01*
X163062500Y-94921250D02*
X160822500Y-94921250D01*
X160822500Y-90681250D01*
X163062500Y-90681250D01*
X163062500Y-94921250D01*
%TO.C,D48*%
X223855000Y-147181250D02*
X223855000Y-147831250D01*
X223855000Y-152721250D02*
X223855000Y-152071250D01*
X224975000Y-151231250D02*
X222735000Y-151231250D01*
X224975000Y-151351250D02*
X222735000Y-151351250D01*
X224975000Y-151471250D02*
X222735000Y-151471250D01*
X224975000Y-152071250D02*
X222735000Y-152071250D01*
X222735000Y-147831250D01*
X224975000Y-147831250D01*
X224975000Y-152071250D01*
%TO.C,D62*%
X361820000Y-89970000D02*
X361820000Y-90620000D01*
X361820000Y-95510000D02*
X361820000Y-94860000D01*
X362940000Y-94020000D02*
X360700000Y-94020000D01*
X362940000Y-94140000D02*
X360700000Y-94140000D01*
X362940000Y-94260000D02*
X360700000Y-94260000D01*
X362940000Y-94860000D02*
X360700000Y-94860000D01*
X360700000Y-90620000D01*
X362940000Y-90620000D01*
X362940000Y-94860000D01*
%TO.C,D17*%
X133367500Y-109081250D02*
X133367500Y-109731250D01*
X133367500Y-114621250D02*
X133367500Y-113971250D01*
X134487500Y-113131250D02*
X132247500Y-113131250D01*
X134487500Y-113251250D02*
X132247500Y-113251250D01*
X134487500Y-113371250D02*
X132247500Y-113371250D01*
X134487500Y-113971250D02*
X132247500Y-113971250D01*
X132247500Y-109731250D01*
X134487500Y-109731250D01*
X134487500Y-113971250D01*
%TO.C,D46*%
X185755000Y-147181250D02*
X185755000Y-147831250D01*
X185755000Y-152721250D02*
X185755000Y-152071250D01*
X186875000Y-151231250D02*
X184635000Y-151231250D01*
X186875000Y-151351250D02*
X184635000Y-151351250D01*
X186875000Y-151471250D02*
X184635000Y-151471250D01*
X186875000Y-152071250D02*
X184635000Y-152071250D01*
X184635000Y-147831250D01*
X186875000Y-147831250D01*
X186875000Y-152071250D01*
%TO.C,D58*%
X278623750Y-166231250D02*
X278623750Y-166881250D01*
X278623750Y-171771250D02*
X278623750Y-171121250D01*
X279743750Y-170281250D02*
X277503750Y-170281250D01*
X279743750Y-170401250D02*
X277503750Y-170401250D01*
X279743750Y-170521250D02*
X277503750Y-170521250D01*
X279743750Y-171121250D02*
X277503750Y-171121250D01*
X277503750Y-166881250D01*
X279743750Y-166881250D01*
X279743750Y-171121250D01*
%TO.C,D27*%
X323867500Y-109081250D02*
X323867500Y-109731250D01*
X323867500Y-114621250D02*
X323867500Y-113971250D01*
X324987500Y-113131250D02*
X322747500Y-113131250D01*
X324987500Y-113251250D02*
X322747500Y-113251250D01*
X324987500Y-113371250D02*
X322747500Y-113371250D01*
X324987500Y-113971250D02*
X322747500Y-113971250D01*
X322747500Y-109731250D01*
X324987500Y-109731250D01*
X324987500Y-113971250D01*
%TO.C,D51*%
X281005000Y-147181250D02*
X281005000Y-147831250D01*
X281005000Y-152721250D02*
X281005000Y-152071250D01*
X282125000Y-151231250D02*
X279885000Y-151231250D01*
X282125000Y-151351250D02*
X279885000Y-151351250D01*
X282125000Y-151471250D02*
X279885000Y-151471250D01*
X282125000Y-152071250D02*
X279885000Y-152071250D01*
X279885000Y-147831250D01*
X282125000Y-147831250D01*
X282125000Y-152071250D01*
%TO.C,D11*%
X257192500Y-90031250D02*
X257192500Y-90681250D01*
X257192500Y-95571250D02*
X257192500Y-94921250D01*
X258312500Y-94081250D02*
X256072500Y-94081250D01*
X258312500Y-94201250D02*
X256072500Y-94201250D01*
X258312500Y-94321250D02*
X256072500Y-94321250D01*
X258312500Y-94921250D02*
X256072500Y-94921250D01*
X256072500Y-90681250D01*
X258312500Y-90681250D01*
X258312500Y-94921250D01*
%TO.C,D5*%
X342917500Y-90031250D02*
X342917500Y-90681250D01*
X342917500Y-95571250D02*
X342917500Y-94921250D01*
X344037500Y-94081250D02*
X341797500Y-94081250D01*
X344037500Y-94201250D02*
X341797500Y-94201250D01*
X344037500Y-94321250D02*
X341797500Y-94321250D01*
X344037500Y-94921250D02*
X341797500Y-94921250D01*
X341797500Y-90681250D01*
X344037500Y-90681250D01*
X344037500Y-94921250D01*
%TO.C,D43*%
X128605000Y-147181250D02*
X128605000Y-147831250D01*
X128605000Y-152721250D02*
X128605000Y-152071250D01*
X129725000Y-151231250D02*
X127485000Y-151231250D01*
X129725000Y-151351250D02*
X127485000Y-151351250D01*
X129725000Y-151471250D02*
X127485000Y-151471250D01*
X129725000Y-152071250D02*
X127485000Y-152071250D01*
X127485000Y-147831250D01*
X129725000Y-147831250D01*
X129725000Y-152071250D01*
%TO.C,D45*%
X166705000Y-147181250D02*
X166705000Y-147831250D01*
X166705000Y-152721250D02*
X166705000Y-152071250D01*
X167825000Y-151231250D02*
X165585000Y-151231250D01*
X167825000Y-151351250D02*
X165585000Y-151351250D01*
X167825000Y-151471250D02*
X165585000Y-151471250D01*
X167825000Y-152071250D02*
X165585000Y-152071250D01*
X165585000Y-147831250D01*
X167825000Y-147831250D01*
X167825000Y-152071250D01*
%TO.C,D55*%
X111936250Y-166231250D02*
X111936250Y-166881250D01*
X111936250Y-171771250D02*
X111936250Y-171121250D01*
X113056250Y-170281250D02*
X110816250Y-170281250D01*
X113056250Y-170401250D02*
X110816250Y-170401250D01*
X113056250Y-170521250D02*
X110816250Y-170521250D01*
X113056250Y-171121250D02*
X110816250Y-171121250D01*
X110816250Y-166881250D01*
X113056250Y-166881250D01*
X113056250Y-171121250D01*
%TO.C,D2*%
X104792500Y-90031250D02*
X104792500Y-90681250D01*
X104792500Y-95571250D02*
X104792500Y-94921250D01*
X105912500Y-94081250D02*
X103672500Y-94081250D01*
X105912500Y-94201250D02*
X103672500Y-94201250D01*
X105912500Y-94321250D02*
X103672500Y-94321250D01*
X105912500Y-94921250D02*
X103672500Y-94921250D01*
X103672500Y-90681250D01*
X105912500Y-90681250D01*
X105912500Y-94921250D01*
%TO.C,D15*%
X90505000Y-109081250D02*
X90505000Y-109731250D01*
X90505000Y-114621250D02*
X90505000Y-113971250D01*
X91625000Y-113131250D02*
X89385000Y-113131250D01*
X91625000Y-113251250D02*
X89385000Y-113251250D01*
X91625000Y-113371250D02*
X89385000Y-113371250D01*
X91625000Y-113971250D02*
X89385000Y-113971250D01*
X89385000Y-109731250D01*
X91625000Y-109731250D01*
X91625000Y-113971250D01*
%TO.C,D35*%
X214330000Y-128131250D02*
X214330000Y-128781250D01*
X214330000Y-133671250D02*
X214330000Y-133021250D01*
X215450000Y-132181250D02*
X213210000Y-132181250D01*
X215450000Y-132301250D02*
X213210000Y-132301250D01*
X215450000Y-132421250D02*
X213210000Y-132421250D01*
X215450000Y-133021250D02*
X213210000Y-133021250D01*
X213210000Y-128781250D01*
X215450000Y-128781250D01*
X215450000Y-133021250D01*
%TD*%
M02*
