M48
; DRILL file {KiCad 9.0.6} date 2026-04-09T15:02:48+0530
; FORMAT={-:-/ absolute / metric / decimal}
; #@! TF.CreationDate,2026-04-09T15:02:48+05:30
; #@! TF.GenerationSoftware,Kicad,Pcbnew,9.0.6
; #@! TF.FileFunction,Plated,1,2,PTH
FMAT,2
METRIC
; #@! TA.AperFunction,Plated,PTH,ViaDrill
T1C0.300
; #@! TA.AperFunction,Plated,PTH,ComponentDrill
T2C0.800
; #@! TA.AperFunction,Plated,PTH,ComponentDrill
T3C1.000
; #@! TA.AperFunction,Plated,PTH,ComponentDrill
T4C1.500
%
G90
G05
T1
X41.4Y-65.6
X43.4Y-63.8
X45.4Y-105.6
X52.0Y-110.6
X56.0Y-114.6
X61.6Y-56.6
X61.6Y-64.2
X61.6Y-84.8
X61.8Y-45.6
X62.2Y-87.6
X62.4Y-61.2
X63.4Y-44.4
X63.6Y-86.0
X63.8Y-53.4
X64.6Y-40.2
X65.2Y-75.4
X65.4Y-78.2
X66.0Y-63.8
X66.4Y-84.4
X66.8Y-113.0
X67.2Y-76.0
X67.4Y-79.6
X74.0Y-44.4
X74.2Y-75.6
X76.4Y-69.2
X79.2Y-87.6
X80.8Y-70.0
X81.6Y-84.4
X86.4Y-68.0
X87.0Y-65.6
X93.0Y-84.0
X96.0Y-66.2
X100.6Y-64.4
X101.4Y-68.8
X107.4Y-123.2
X110.6Y-103.0
X114.8Y-65.8
X117.6Y-68.6
X121.0Y-65.4
X122.8Y-120.8
X133.6Y-65.6
X139.0Y-69.6
X139.4Y-64.2
X153.8Y-65.8
X181.8Y-86.4
X198.2Y-44.0
X200.8Y-49.6
X201.0Y-47.4
X258.4Y-46.0
X262.2Y-47.4
X282.8Y-52.8
T2
X80.703Y-51.83
X80.703Y-59.45
X83.084Y-128.03
X83.084Y-135.65
X85.465Y-70.88
X85.465Y-78.5
X87.846Y-89.93
X87.846Y-97.55
X92.609Y-108.98
X92.609Y-116.6
X99.752Y-51.83
X99.752Y-59.45
X106.896Y-128.03
X106.896Y-135.65
X109.277Y-70.88
X109.277Y-78.5
X114.04Y-89.93
X114.04Y-97.55
X118.802Y-51.83
X118.802Y-59.45
X123.565Y-108.98
X123.565Y-116.6
X128.327Y-70.88
X128.327Y-78.5
X130.709Y-128.03
X130.709Y-135.65
X133.09Y-89.93
X133.09Y-97.55
X137.852Y-51.83
X137.852Y-59.45
X142.615Y-108.98
X142.615Y-116.6
X147.377Y-70.88
X147.377Y-78.5
X152.14Y-89.93
X152.14Y-97.55
X156.903Y-51.83
X156.903Y-59.45
X161.665Y-108.98
X161.665Y-116.6
X166.427Y-70.88
X166.427Y-78.5
X171.19Y-89.93
X171.19Y-97.55
X175.952Y-51.83
X175.952Y-59.45
X180.715Y-108.98
X180.715Y-116.6
X185.477Y-70.88
X185.477Y-78.5
X190.24Y-89.93
X190.24Y-97.55
X195.002Y-51.83
X195.002Y-59.45
X199.765Y-108.98
X199.765Y-116.6
X202.146Y-128.03
X202.146Y-135.65
X204.528Y-70.88
X204.528Y-78.5
X209.29Y-89.93
X209.29Y-97.55
X214.052Y-51.83
X214.052Y-59.45
X218.815Y-108.98
X218.815Y-116.6
X223.577Y-70.88
X223.577Y-78.5
X228.34Y-89.93
X228.34Y-97.55
X233.102Y-51.83
X233.102Y-59.45
X237.865Y-108.98
X237.865Y-116.6
X242.627Y-70.88
X242.627Y-78.5
X247.39Y-89.93
X247.39Y-97.55
X252.152Y-51.83
X252.152Y-59.45
X256.915Y-108.98
X256.915Y-116.6
X261.678Y-70.88
X261.678Y-78.5
X266.44Y-89.93
X266.44Y-97.55
X271.202Y-51.83
X271.202Y-59.45
X273.584Y-128.03
X273.584Y-135.65
X275.965Y-108.98
X275.965Y-116.6
X280.727Y-70.88
X280.727Y-78.5
X285.49Y-89.93
X285.49Y-97.55
X290.252Y-51.83
X290.252Y-59.45
X295.015Y-108.98
X295.015Y-116.6
X297.396Y-128.03
X297.396Y-135.65
X299.777Y-70.88
X299.777Y-78.5
X304.54Y-89.93
X304.54Y-97.55
X309.303Y-51.83
X309.303Y-59.45
X318.827Y-70.88
X318.827Y-78.5
X321.209Y-128.03
X321.209Y-135.65
X330.734Y-108.98
X330.734Y-116.6
X335.496Y-89.93
X335.496Y-97.55
X337.877Y-51.83
X337.877Y-59.45
X342.64Y-70.88
X342.64Y-78.5
X345.021Y-128.03
X345.021Y-135.65
T3
X39.51Y-42.67
X39.51Y-45.21
X39.51Y-47.75
X39.51Y-50.29
X39.51Y-52.83
X39.51Y-55.37
X39.51Y-57.91
X39.51Y-60.45
X39.51Y-62.99
X39.51Y-65.53
X39.51Y-68.07
X39.51Y-70.61
X39.51Y-73.15
X39.51Y-75.69
X39.51Y-78.23
X39.51Y-80.77
X39.51Y-83.31
X39.51Y-85.85
X39.51Y-88.39
X39.51Y-90.93
X57.29Y-42.67
X57.29Y-45.21
X57.29Y-47.75
X57.29Y-50.29
X57.29Y-52.83
X57.29Y-55.37
X57.29Y-57.91
X57.29Y-60.45
X57.29Y-62.99
X57.29Y-65.53
X57.29Y-68.07
X57.29Y-70.61
X57.29Y-73.15
X57.29Y-75.69
X57.29Y-78.23
X57.29Y-80.77
X57.29Y-83.31
X57.29Y-85.85
X57.29Y-88.39
X57.29Y-90.93
T4
X69.272Y-58.96
X71.654Y-135.16
X74.035Y-78.01
X75.623Y-56.42
X76.416Y-97.06
X78.004Y-132.62
X80.385Y-75.47
X81.179Y-116.11
X82.766Y-94.52
X87.529Y-113.57
X88.322Y-58.96
X94.672Y-56.42
X95.466Y-135.16
X97.847Y-78.01
X101.816Y-132.62
X102.61Y-97.06
X104.197Y-75.47
X107.372Y-58.96
X108.96Y-94.52
X112.135Y-116.11
X113.722Y-56.42
X116.897Y-78.01
X118.485Y-113.57
X119.279Y-135.16
X121.66Y-97.06
X123.247Y-75.47
X125.629Y-132.62
X126.422Y-58.96
X128.01Y-94.52
X131.185Y-116.11
X132.773Y-56.42
X135.947Y-78.01
X137.535Y-113.57
X140.71Y-97.06
X142.297Y-75.47
X145.472Y-58.96
X147.06Y-94.52
X150.235Y-116.11
X151.822Y-56.42
X154.998Y-78.01
X156.585Y-113.57
X159.76Y-97.06
X161.347Y-75.47
X164.522Y-58.96
X166.11Y-94.52
X169.285Y-116.11
X170.873Y-56.42
X174.047Y-78.01
X175.635Y-113.57
X178.81Y-97.06
X180.397Y-75.47
X183.572Y-58.96
X185.16Y-94.52
X188.335Y-116.11
X189.922Y-56.42
X190.716Y-135.16
X193.097Y-78.01
X194.685Y-113.57
X197.066Y-132.62
X197.86Y-97.06
X199.447Y-75.47
X202.623Y-58.96
X204.21Y-94.52
X207.385Y-116.11
X208.972Y-56.42
X212.147Y-78.01
X213.735Y-113.57
X216.91Y-97.06
X218.498Y-75.47
X221.672Y-58.96
X223.26Y-94.52
X226.435Y-116.11
X228.022Y-56.42
X231.197Y-78.01
X232.785Y-113.57
X235.96Y-97.06
X237.547Y-75.47
X240.722Y-58.96
X242.31Y-94.52
X245.485Y-116.11
X247.072Y-56.42
X250.248Y-78.01
X251.835Y-113.57
X255.01Y-97.06
X256.597Y-75.47
X259.772Y-58.96
X261.36Y-94.52
X262.154Y-135.16
X264.535Y-116.11
X266.123Y-56.42
X268.504Y-132.62
X269.298Y-78.01
X270.885Y-113.57
X274.06Y-97.06
X275.647Y-75.47
X278.822Y-58.96
X280.41Y-94.52
X283.585Y-116.11
X285.173Y-56.42
X285.966Y-135.16
X288.347Y-78.01
X289.935Y-113.57
X292.316Y-132.62
X293.11Y-97.06
X294.697Y-75.47
X297.873Y-58.96
X299.46Y-94.52
X304.222Y-56.42
X307.397Y-78.01
X309.779Y-135.16
X313.748Y-75.47
X316.129Y-132.62
X319.304Y-116.11
X324.066Y-97.06
X325.654Y-113.57
X326.447Y-58.96
X330.416Y-94.52
X331.21Y-78.01
X332.797Y-56.42
X333.591Y-135.16
X337.56Y-75.47
X339.941Y-132.62
M30
