M48
; DRILL file {KiCad 9.0.6} date 2026-03-15T00:02:27+0530
; FORMAT={-:-/ absolute / metric / decimal}
; #@! TF.CreationDate,2026-03-15T00:02:27+05:30
; #@! TF.GenerationSoftware,Kicad,Pcbnew,9.0.6
; #@! TF.FileFunction,Plated,1,2,PTH
FMAT,2
METRIC
; #@! TA.AperFunction,Plated,PTH,ViaDrill
T1C0.300
; #@! TA.AperFunction,Plated,PTH,ComponentDrill
T2C0.800
; #@! TA.AperFunction,Plated,PTH,ComponentDrill
T3C1.000
; #@! TA.AperFunction,Plated,PTH,ComponentDrill
T4C1.500
%
G90
G05
T1
X68.4Y-100.8
X71.6Y-100.2
X72.2Y-90.4
X72.8Y-93.8
X73.0Y-90.8
X78.0Y-85.2
X80.2Y-69.0
X80.2Y-80.2
X80.6Y-67.0
X83.2Y-84.8
X83.8Y-124.6
X84.6Y-80.4
X85.742Y-99.061
X86.8Y-133.8
X90.941Y-118.259
X91.4Y-134.8
X93.962Y-107.281
X95.362Y-139.881
X97.0Y-162.8
X97.762Y-125.081
X99.2Y-74.4
X100.4Y-73.4
X101.2Y-170.0
X101.4Y-76.4
X102.6Y-77.8
X102.6Y-79.4
X104.0Y-80.2
X104.762Y-156.881
X106.562Y-157.881
X107.6Y-59.8
X108.562Y-106.081
X109.2Y-61.8
X109.2Y-157.881
X110.6Y-89.4
X110.8Y-62.6
X111.0Y-85.6
X111.0Y-88.6
X111.976Y-88.176
X113.2Y-87.0
X114.6Y-86.2
X117.562Y-125.081
X117.8Y-95.6
X118.0Y-91.8
X119.8Y-88.2
X123.0Y-139.881
X124.776Y-81.576
X125.8Y-65.6
X125.8Y-89.4
X126.4Y-80.8
X128.963Y-106.081
X131.4Y-87.6
X131.4Y-88.6
X132.4Y-93.0
X136.362Y-161.681
X137.162Y-125.081
X138.4Y-177.681
X140.4Y-88.2
X143.0Y-139.881
X149.362Y-106.081
X150.362Y-161.681
X150.4Y-88.0
X151.6Y-81.8
X154.562Y-125.081
X155.6Y-95.8
X160.562Y-139.881
X166.162Y-106.081
X169.762Y-161.681
X172.963Y-125.081
X174.0Y-90.0
X174.4Y-87.2
X175.8Y-87.4
X178.8Y-81.4
X181.4Y-81.4
X181.762Y-139.881
X182.8Y-84.0
X184.963Y-106.081
X187.2Y-86.8
X188.162Y-161.681
X193.8Y-86.2
X193.962Y-125.081
X197.562Y-139.881
X203.562Y-106.081
X206.762Y-161.681
X209.668Y-176.481
X212.0Y-90.6
X212.562Y-125.081
X219.162Y-139.881
X222.962Y-106.081
X229.962Y-159.281
X230.362Y-125.081
X231.0Y-90.8
X234.762Y-138.281
X242.362Y-106.081
X244.6Y-86.6
X249.4Y-89.6
X250.562Y-158.481
X250.762Y-125.081
X256.6Y-153.4
X258.962Y-139.881
X261.562Y-106.081
X265.962Y-159.081
X268.762Y-125.081
X269.2Y-90.4
X273.562Y-139.881
X280.762Y-106.081
X283.363Y-159.081
X287.962Y-125.081
X292.363Y-139.881
X299.562Y-106.081
X302.562Y-159.081
X306.0Y-91.6
X307.162Y-125.081
X311.762Y-139.881
X313.0Y-162.6
X316.562Y-106.081
X328.2Y-160.6
X328.562Y-124.681
X335.4Y-163.4
X340.162Y-139.481
X341.363Y-179.081
X342.562Y-102.681
X345.8Y-159.0
X347.762Y-122.881
X350.562Y-176.281
X355.4Y-106.8
T2
X85.742Y-88.991
X85.742Y-96.611
X88.124Y-165.191
X88.124Y-172.811
X90.505Y-108.041
X90.505Y-115.661
X92.886Y-127.091
X92.886Y-134.711
X98.962Y-151.271
X98.962Y-158.891
X104.792Y-88.991
X104.792Y-96.611
X111.936Y-165.191
X111.936Y-172.811
X114.317Y-108.041
X114.317Y-115.661
X119.08Y-127.091
X119.08Y-134.711
X123.843Y-88.991
X123.843Y-96.611
X128.605Y-146.141
X128.605Y-153.761
X133.368Y-108.041
X133.368Y-115.661
X135.749Y-165.191
X135.749Y-172.811
X138.13Y-127.091
X138.13Y-134.711
X142.892Y-88.991
X142.892Y-96.611
X147.655Y-146.141
X147.655Y-153.761
X152.417Y-108.041
X152.417Y-115.661
X157.18Y-127.091
X157.18Y-134.711
X161.942Y-88.991
X161.942Y-96.611
X166.705Y-146.141
X166.705Y-153.761
X171.468Y-108.041
X171.468Y-115.661
X176.23Y-127.091
X176.23Y-134.711
X180.992Y-88.991
X180.992Y-96.611
X185.755Y-146.141
X185.755Y-153.761
X190.517Y-108.041
X190.517Y-115.661
X195.28Y-127.091
X195.28Y-134.711
X200.042Y-88.991
X200.042Y-96.611
X204.805Y-146.141
X204.805Y-153.761
X207.186Y-165.191
X207.186Y-172.811
X209.567Y-108.041
X209.567Y-115.661
X214.33Y-127.091
X214.33Y-134.711
X219.093Y-88.991
X219.093Y-96.611
X223.855Y-146.141
X223.855Y-153.761
X228.617Y-108.041
X228.617Y-115.661
X233.38Y-127.091
X233.38Y-134.711
X238.142Y-88.991
X238.142Y-96.611
X242.905Y-146.141
X242.905Y-153.761
X247.667Y-108.041
X247.667Y-115.661
X252.43Y-127.091
X252.43Y-134.711
X257.192Y-88.991
X257.192Y-96.611
X261.955Y-146.141
X261.955Y-153.761
X266.717Y-108.041
X266.717Y-115.661
X271.48Y-127.091
X271.48Y-134.711
X276.243Y-88.991
X276.243Y-96.611
X278.624Y-165.191
X278.624Y-172.811
X281.005Y-146.141
X281.005Y-153.761
X285.767Y-108.041
X285.767Y-115.661
X290.53Y-127.091
X290.53Y-134.711
X295.292Y-88.991
X295.292Y-96.611
X300.055Y-146.141
X300.055Y-153.761
X302.436Y-165.191
X302.436Y-172.811
X304.817Y-108.041
X304.817Y-115.661
X309.58Y-127.091
X309.58Y-134.711
X314.342Y-88.991
X314.342Y-96.611
X323.868Y-108.041
X323.868Y-115.661
X326.249Y-165.191
X326.249Y-172.811
X335.774Y-146.141
X335.774Y-153.761
X340.536Y-127.091
X340.536Y-134.711
X342.917Y-88.991
X342.917Y-96.611
X347.68Y-108.041
X347.68Y-115.661
X350.061Y-165.191
X350.061Y-172.811
X361.82Y-88.93
X361.82Y-96.55
T3
X74.27Y-64.91
X74.27Y-82.69
X76.81Y-64.91
X76.81Y-82.69
X79.35Y-64.91
X79.35Y-82.69
X81.89Y-64.91
X81.89Y-82.69
X84.43Y-64.91
X84.43Y-82.69
X86.97Y-64.91
X86.97Y-82.69
X89.51Y-64.91
X89.51Y-82.69
X92.05Y-64.91
X92.05Y-82.69
X94.59Y-64.91
X94.59Y-82.69
X97.13Y-64.91
X97.13Y-82.69
X99.67Y-64.91
X99.67Y-82.69
X102.21Y-64.91
X102.21Y-82.69
X104.75Y-64.91
X104.75Y-82.69
X107.29Y-64.91
X107.29Y-82.69
X109.83Y-64.91
X109.83Y-82.69
X112.37Y-64.91
X112.37Y-82.69
X114.91Y-64.91
X114.91Y-82.69
X117.45Y-64.91
X117.45Y-82.69
X119.99Y-64.91
X119.99Y-82.69
X122.53Y-64.91
X122.53Y-82.69
T4
X74.312Y-96.121
X76.694Y-172.321
X79.075Y-115.171
X80.662Y-93.581
X81.456Y-134.221
X83.044Y-169.781
X85.425Y-112.631
X86.219Y-153.271
X87.806Y-131.681
X92.569Y-150.731
X93.362Y-96.121
X99.712Y-93.581
X100.506Y-172.321
X102.887Y-115.171
X106.856Y-169.781
X107.65Y-134.221
X109.237Y-112.631
X112.412Y-96.121
X114.0Y-131.681
X117.175Y-153.271
X118.762Y-93.581
X121.938Y-115.171
X123.525Y-150.731
X124.319Y-172.321
X126.7Y-134.221
X128.287Y-112.631
X130.669Y-169.781
X131.463Y-96.121
X133.05Y-131.681
X136.225Y-153.271
X137.812Y-93.581
X140.987Y-115.171
X142.575Y-150.731
X145.75Y-134.221
X147.338Y-112.631
X150.512Y-96.121
X152.1Y-131.681
X155.275Y-153.271
X156.862Y-93.581
X160.037Y-115.171
X161.625Y-150.731
X164.8Y-134.221
X166.387Y-112.631
X169.562Y-96.121
X171.15Y-131.681
X174.325Y-153.271
X175.912Y-93.581
X179.088Y-115.171
X180.675Y-150.731
X183.85Y-134.221
X185.438Y-112.631
X188.612Y-96.121
X190.2Y-131.681
X193.375Y-153.271
X194.962Y-93.581
X195.756Y-172.321
X198.137Y-115.171
X199.725Y-150.731
X202.106Y-169.781
X202.9Y-134.221
X204.487Y-112.631
X207.662Y-96.121
X209.25Y-131.681
X212.425Y-153.271
X214.012Y-93.581
X217.188Y-115.171
X218.775Y-150.731
X221.95Y-134.221
X223.537Y-112.631
X226.712Y-96.121
X228.3Y-131.681
X231.475Y-153.271
X233.062Y-93.581
X236.237Y-115.171
X237.825Y-150.731
X241.0Y-134.221
X242.587Y-112.631
X245.762Y-96.121
X247.35Y-131.681
X250.525Y-153.271
X252.112Y-93.581
X255.287Y-115.171
X256.875Y-150.731
X260.05Y-134.221
X261.637Y-112.631
X264.812Y-96.121
X266.4Y-131.681
X267.194Y-172.321
X269.575Y-153.271
X271.162Y-93.581
X273.544Y-169.781
X274.337Y-115.171
X275.925Y-150.731
X279.1Y-134.221
X280.688Y-112.631
X283.863Y-96.121
X285.45Y-131.681
X288.625Y-153.271
X290.212Y-93.581
X291.006Y-172.321
X293.387Y-115.171
X294.975Y-150.731
X297.356Y-169.781
X298.15Y-134.221
X299.738Y-112.631
X302.912Y-96.121
X304.5Y-131.681
X309.262Y-93.581
X312.438Y-115.171
X314.819Y-172.321
X318.787Y-112.631
X321.169Y-169.781
X324.344Y-153.271
X329.106Y-134.221
X330.694Y-150.731
X331.488Y-96.121
X335.456Y-131.681
X336.25Y-115.171
X337.837Y-93.581
X338.631Y-172.321
X342.6Y-112.631
X344.981Y-169.781
X350.39Y-96.06
X356.74Y-93.52
M30
