%TF.GenerationSoftware,KiCad,Pcbnew,9.0.6*%
%TF.CreationDate,2026-04-09T15:02:45+05:30*%
%TF.ProjectId,PCB,5043422e-6b69-4636-9164-5f7063625858,rev?*%
%TF.SameCoordinates,Original*%
%TF.FileFunction,Legend,Bot*%
%TF.FilePolarity,Positive*%
%FSLAX46Y46*%
G04 Gerber Fmt 4.6, Leading zero omitted, Abs format (unit mm)*
G04 Created by KiCad (PCBNEW 9.0.6) date 2026-04-09 15:02:45*
%MOMM*%
%LPD*%
G01*
G04 APERTURE LIST*
%ADD10C,0.150000*%
%ADD11C,0.120000*%
G04 APERTURE END LIST*
D10*
X333308569Y-111575714D02*
X332308569Y-111575714D01*
X332308569Y-111575714D02*
X332308569Y-111813809D01*
X332308569Y-111813809D02*
X332356188Y-111956666D01*
X332356188Y-111956666D02*
X332451426Y-112051904D01*
X332451426Y-112051904D02*
X332546664Y-112099523D01*
X332546664Y-112099523D02*
X332737140Y-112147142D01*
X332737140Y-112147142D02*
X332879997Y-112147142D01*
X332879997Y-112147142D02*
X333070473Y-112099523D01*
X333070473Y-112099523D02*
X333165711Y-112051904D01*
X333165711Y-112051904D02*
X333260950Y-111956666D01*
X333260950Y-111956666D02*
X333308569Y-111813809D01*
X333308569Y-111813809D02*
X333308569Y-111575714D01*
X332308569Y-113051904D02*
X332308569Y-112575714D01*
X332308569Y-112575714D02*
X332784759Y-112528095D01*
X332784759Y-112528095D02*
X332737140Y-112575714D01*
X332737140Y-112575714D02*
X332689521Y-112670952D01*
X332689521Y-112670952D02*
X332689521Y-112909047D01*
X332689521Y-112909047D02*
X332737140Y-113004285D01*
X332737140Y-113004285D02*
X332784759Y-113051904D01*
X332784759Y-113051904D02*
X332879997Y-113099523D01*
X332879997Y-113099523D02*
X333118092Y-113099523D01*
X333118092Y-113099523D02*
X333213330Y-113051904D01*
X333213330Y-113051904D02*
X333260950Y-113004285D01*
X333260950Y-113004285D02*
X333308569Y-112909047D01*
X333308569Y-112909047D02*
X333308569Y-112670952D01*
X333308569Y-112670952D02*
X333260950Y-112575714D01*
X333260950Y-112575714D02*
X333213330Y-112528095D01*
X332308569Y-113432857D02*
X332308569Y-114051904D01*
X332308569Y-114051904D02*
X332689521Y-113718571D01*
X332689521Y-113718571D02*
X332689521Y-113861428D01*
X332689521Y-113861428D02*
X332737140Y-113956666D01*
X332737140Y-113956666D02*
X332784759Y-114004285D01*
X332784759Y-114004285D02*
X332879997Y-114051904D01*
X332879997Y-114051904D02*
X333118092Y-114051904D01*
X333118092Y-114051904D02*
X333213330Y-114004285D01*
X333213330Y-114004285D02*
X333260950Y-113956666D01*
X333260950Y-113956666D02*
X333308569Y-113861428D01*
X333308569Y-113861428D02*
X333308569Y-113575714D01*
X333308569Y-113575714D02*
X333260950Y-113480476D01*
X333260950Y-113480476D02*
X333213330Y-113432857D01*
X332988569Y-116338095D02*
X331988569Y-116338095D01*
X332988569Y-116909523D02*
X332417140Y-116480952D01*
X331988569Y-116909523D02*
X332559997Y-116338095D01*
X283302319Y-73475714D02*
X282302319Y-73475714D01*
X282302319Y-73475714D02*
X282302319Y-73713809D01*
X282302319Y-73713809D02*
X282349938Y-73856666D01*
X282349938Y-73856666D02*
X282445176Y-73951904D01*
X282445176Y-73951904D02*
X282540414Y-73999523D01*
X282540414Y-73999523D02*
X282730890Y-74047142D01*
X282730890Y-74047142D02*
X282873747Y-74047142D01*
X282873747Y-74047142D02*
X283064223Y-73999523D01*
X283064223Y-73999523D02*
X283159461Y-73951904D01*
X283159461Y-73951904D02*
X283254700Y-73856666D01*
X283254700Y-73856666D02*
X283302319Y-73713809D01*
X283302319Y-73713809D02*
X283302319Y-73475714D01*
X282397557Y-74428095D02*
X282349938Y-74475714D01*
X282349938Y-74475714D02*
X282302319Y-74570952D01*
X282302319Y-74570952D02*
X282302319Y-74809047D01*
X282302319Y-74809047D02*
X282349938Y-74904285D01*
X282349938Y-74904285D02*
X282397557Y-74951904D01*
X282397557Y-74951904D02*
X282492795Y-74999523D01*
X282492795Y-74999523D02*
X282588033Y-74999523D01*
X282588033Y-74999523D02*
X282730890Y-74951904D01*
X282730890Y-74951904D02*
X283302319Y-74380476D01*
X283302319Y-74380476D02*
X283302319Y-74999523D01*
X282302319Y-75904285D02*
X282302319Y-75428095D01*
X282302319Y-75428095D02*
X282778509Y-75380476D01*
X282778509Y-75380476D02*
X282730890Y-75428095D01*
X282730890Y-75428095D02*
X282683271Y-75523333D01*
X282683271Y-75523333D02*
X282683271Y-75761428D01*
X282683271Y-75761428D02*
X282730890Y-75856666D01*
X282730890Y-75856666D02*
X282778509Y-75904285D01*
X282778509Y-75904285D02*
X282873747Y-75951904D01*
X282873747Y-75951904D02*
X283111842Y-75951904D01*
X283111842Y-75951904D02*
X283207080Y-75904285D01*
X283207080Y-75904285D02*
X283254700Y-75856666D01*
X283254700Y-75856666D02*
X283302319Y-75761428D01*
X283302319Y-75761428D02*
X283302319Y-75523333D01*
X283302319Y-75523333D02*
X283254700Y-75428095D01*
X283254700Y-75428095D02*
X283207080Y-75380476D01*
X282982319Y-78238095D02*
X281982319Y-78238095D01*
X282982319Y-78809523D02*
X282410890Y-78380952D01*
X281982319Y-78809523D02*
X282553747Y-78238095D01*
X235677319Y-54425714D02*
X234677319Y-54425714D01*
X234677319Y-54425714D02*
X234677319Y-54663809D01*
X234677319Y-54663809D02*
X234724938Y-54806666D01*
X234724938Y-54806666D02*
X234820176Y-54901904D01*
X234820176Y-54901904D02*
X234915414Y-54949523D01*
X234915414Y-54949523D02*
X235105890Y-54997142D01*
X235105890Y-54997142D02*
X235248747Y-54997142D01*
X235248747Y-54997142D02*
X235439223Y-54949523D01*
X235439223Y-54949523D02*
X235534461Y-54901904D01*
X235534461Y-54901904D02*
X235629700Y-54806666D01*
X235629700Y-54806666D02*
X235677319Y-54663809D01*
X235677319Y-54663809D02*
X235677319Y-54425714D01*
X235677319Y-55949523D02*
X235677319Y-55378095D01*
X235677319Y-55663809D02*
X234677319Y-55663809D01*
X234677319Y-55663809D02*
X234820176Y-55568571D01*
X234820176Y-55568571D02*
X234915414Y-55473333D01*
X234915414Y-55473333D02*
X234963033Y-55378095D01*
X234677319Y-56568571D02*
X234677319Y-56663809D01*
X234677319Y-56663809D02*
X234724938Y-56759047D01*
X234724938Y-56759047D02*
X234772557Y-56806666D01*
X234772557Y-56806666D02*
X234867795Y-56854285D01*
X234867795Y-56854285D02*
X235058271Y-56901904D01*
X235058271Y-56901904D02*
X235296366Y-56901904D01*
X235296366Y-56901904D02*
X235486842Y-56854285D01*
X235486842Y-56854285D02*
X235582080Y-56806666D01*
X235582080Y-56806666D02*
X235629700Y-56759047D01*
X235629700Y-56759047D02*
X235677319Y-56663809D01*
X235677319Y-56663809D02*
X235677319Y-56568571D01*
X235677319Y-56568571D02*
X235629700Y-56473333D01*
X235629700Y-56473333D02*
X235582080Y-56425714D01*
X235582080Y-56425714D02*
X235486842Y-56378095D01*
X235486842Y-56378095D02*
X235296366Y-56330476D01*
X235296366Y-56330476D02*
X235058271Y-56330476D01*
X235058271Y-56330476D02*
X234867795Y-56378095D01*
X234867795Y-56378095D02*
X234772557Y-56425714D01*
X234772557Y-56425714D02*
X234724938Y-56473333D01*
X234724938Y-56473333D02*
X234677319Y-56568571D01*
X235357319Y-59188095D02*
X234357319Y-59188095D01*
X235357319Y-59759523D02*
X234785890Y-59330952D01*
X234357319Y-59759523D02*
X234928747Y-59188095D01*
X133283569Y-130625714D02*
X132283569Y-130625714D01*
X132283569Y-130625714D02*
X132283569Y-130863809D01*
X132283569Y-130863809D02*
X132331188Y-131006666D01*
X132331188Y-131006666D02*
X132426426Y-131101904D01*
X132426426Y-131101904D02*
X132521664Y-131149523D01*
X132521664Y-131149523D02*
X132712140Y-131197142D01*
X132712140Y-131197142D02*
X132854997Y-131197142D01*
X132854997Y-131197142D02*
X133045473Y-131149523D01*
X133045473Y-131149523D02*
X133140711Y-131101904D01*
X133140711Y-131101904D02*
X133235950Y-131006666D01*
X133235950Y-131006666D02*
X133283569Y-130863809D01*
X133283569Y-130863809D02*
X133283569Y-130625714D01*
X132283569Y-132101904D02*
X132283569Y-131625714D01*
X132283569Y-131625714D02*
X132759759Y-131578095D01*
X132759759Y-131578095D02*
X132712140Y-131625714D01*
X132712140Y-131625714D02*
X132664521Y-131720952D01*
X132664521Y-131720952D02*
X132664521Y-131959047D01*
X132664521Y-131959047D02*
X132712140Y-132054285D01*
X132712140Y-132054285D02*
X132759759Y-132101904D01*
X132759759Y-132101904D02*
X132854997Y-132149523D01*
X132854997Y-132149523D02*
X133093092Y-132149523D01*
X133093092Y-132149523D02*
X133188330Y-132101904D01*
X133188330Y-132101904D02*
X133235950Y-132054285D01*
X133235950Y-132054285D02*
X133283569Y-131959047D01*
X133283569Y-131959047D02*
X133283569Y-131720952D01*
X133283569Y-131720952D02*
X133235950Y-131625714D01*
X133235950Y-131625714D02*
X133188330Y-131578095D01*
X132283569Y-133006666D02*
X132283569Y-132816190D01*
X132283569Y-132816190D02*
X132331188Y-132720952D01*
X132331188Y-132720952D02*
X132378807Y-132673333D01*
X132378807Y-132673333D02*
X132521664Y-132578095D01*
X132521664Y-132578095D02*
X132712140Y-132530476D01*
X132712140Y-132530476D02*
X133093092Y-132530476D01*
X133093092Y-132530476D02*
X133188330Y-132578095D01*
X133188330Y-132578095D02*
X133235950Y-132625714D01*
X133235950Y-132625714D02*
X133283569Y-132720952D01*
X133283569Y-132720952D02*
X133283569Y-132911428D01*
X133283569Y-132911428D02*
X133235950Y-133006666D01*
X133235950Y-133006666D02*
X133188330Y-133054285D01*
X133188330Y-133054285D02*
X133093092Y-133101904D01*
X133093092Y-133101904D02*
X132854997Y-133101904D01*
X132854997Y-133101904D02*
X132759759Y-133054285D01*
X132759759Y-133054285D02*
X132712140Y-133006666D01*
X132712140Y-133006666D02*
X132664521Y-132911428D01*
X132664521Y-132911428D02*
X132664521Y-132720952D01*
X132664521Y-132720952D02*
X132712140Y-132625714D01*
X132712140Y-132625714D02*
X132759759Y-132578095D01*
X132759759Y-132578095D02*
X132854997Y-132530476D01*
X132963569Y-135388095D02*
X131963569Y-135388095D01*
X132963569Y-135959523D02*
X132392140Y-135530952D01*
X131963569Y-135959523D02*
X132534997Y-135388095D01*
X202339819Y-111575714D02*
X201339819Y-111575714D01*
X201339819Y-111575714D02*
X201339819Y-111813809D01*
X201339819Y-111813809D02*
X201387438Y-111956666D01*
X201387438Y-111956666D02*
X201482676Y-112051904D01*
X201482676Y-112051904D02*
X201577914Y-112099523D01*
X201577914Y-112099523D02*
X201768390Y-112147142D01*
X201768390Y-112147142D02*
X201911247Y-112147142D01*
X201911247Y-112147142D02*
X202101723Y-112099523D01*
X202101723Y-112099523D02*
X202196961Y-112051904D01*
X202196961Y-112051904D02*
X202292200Y-111956666D01*
X202292200Y-111956666D02*
X202339819Y-111813809D01*
X202339819Y-111813809D02*
X202339819Y-111575714D01*
X201673152Y-113004285D02*
X202339819Y-113004285D01*
X201292200Y-112766190D02*
X202006485Y-112528095D01*
X202006485Y-112528095D02*
X202006485Y-113147142D01*
X201339819Y-113432857D02*
X201339819Y-114099523D01*
X201339819Y-114099523D02*
X202339819Y-113670952D01*
X202019819Y-116338095D02*
X201019819Y-116338095D01*
X202019819Y-116909523D02*
X201448390Y-116480952D01*
X201019819Y-116909523D02*
X201591247Y-116338095D01*
X321402319Y-73475714D02*
X320402319Y-73475714D01*
X320402319Y-73475714D02*
X320402319Y-73713809D01*
X320402319Y-73713809D02*
X320449938Y-73856666D01*
X320449938Y-73856666D02*
X320545176Y-73951904D01*
X320545176Y-73951904D02*
X320640414Y-73999523D01*
X320640414Y-73999523D02*
X320830890Y-74047142D01*
X320830890Y-74047142D02*
X320973747Y-74047142D01*
X320973747Y-74047142D02*
X321164223Y-73999523D01*
X321164223Y-73999523D02*
X321259461Y-73951904D01*
X321259461Y-73951904D02*
X321354700Y-73856666D01*
X321354700Y-73856666D02*
X321402319Y-73713809D01*
X321402319Y-73713809D02*
X321402319Y-73475714D01*
X320497557Y-74428095D02*
X320449938Y-74475714D01*
X320449938Y-74475714D02*
X320402319Y-74570952D01*
X320402319Y-74570952D02*
X320402319Y-74809047D01*
X320402319Y-74809047D02*
X320449938Y-74904285D01*
X320449938Y-74904285D02*
X320497557Y-74951904D01*
X320497557Y-74951904D02*
X320592795Y-74999523D01*
X320592795Y-74999523D02*
X320688033Y-74999523D01*
X320688033Y-74999523D02*
X320830890Y-74951904D01*
X320830890Y-74951904D02*
X321402319Y-74380476D01*
X321402319Y-74380476D02*
X321402319Y-74999523D01*
X320402319Y-75332857D02*
X320402319Y-75999523D01*
X320402319Y-75999523D02*
X321402319Y-75570952D01*
X321082319Y-78238095D02*
X320082319Y-78238095D01*
X321082319Y-78809523D02*
X320510890Y-78380952D01*
X320082319Y-78809523D02*
X320653747Y-78238095D01*
X197577319Y-54901905D02*
X196577319Y-54901905D01*
X196577319Y-54901905D02*
X196577319Y-55140000D01*
X196577319Y-55140000D02*
X196624938Y-55282857D01*
X196624938Y-55282857D02*
X196720176Y-55378095D01*
X196720176Y-55378095D02*
X196815414Y-55425714D01*
X196815414Y-55425714D02*
X197005890Y-55473333D01*
X197005890Y-55473333D02*
X197148747Y-55473333D01*
X197148747Y-55473333D02*
X197339223Y-55425714D01*
X197339223Y-55425714D02*
X197434461Y-55378095D01*
X197434461Y-55378095D02*
X197529700Y-55282857D01*
X197529700Y-55282857D02*
X197577319Y-55140000D01*
X197577319Y-55140000D02*
X197577319Y-54901905D01*
X197005890Y-56044762D02*
X196958271Y-55949524D01*
X196958271Y-55949524D02*
X196910652Y-55901905D01*
X196910652Y-55901905D02*
X196815414Y-55854286D01*
X196815414Y-55854286D02*
X196767795Y-55854286D01*
X196767795Y-55854286D02*
X196672557Y-55901905D01*
X196672557Y-55901905D02*
X196624938Y-55949524D01*
X196624938Y-55949524D02*
X196577319Y-56044762D01*
X196577319Y-56044762D02*
X196577319Y-56235238D01*
X196577319Y-56235238D02*
X196624938Y-56330476D01*
X196624938Y-56330476D02*
X196672557Y-56378095D01*
X196672557Y-56378095D02*
X196767795Y-56425714D01*
X196767795Y-56425714D02*
X196815414Y-56425714D01*
X196815414Y-56425714D02*
X196910652Y-56378095D01*
X196910652Y-56378095D02*
X196958271Y-56330476D01*
X196958271Y-56330476D02*
X197005890Y-56235238D01*
X197005890Y-56235238D02*
X197005890Y-56044762D01*
X197005890Y-56044762D02*
X197053509Y-55949524D01*
X197053509Y-55949524D02*
X197101128Y-55901905D01*
X197101128Y-55901905D02*
X197196366Y-55854286D01*
X197196366Y-55854286D02*
X197386842Y-55854286D01*
X197386842Y-55854286D02*
X197482080Y-55901905D01*
X197482080Y-55901905D02*
X197529700Y-55949524D01*
X197529700Y-55949524D02*
X197577319Y-56044762D01*
X197577319Y-56044762D02*
X197577319Y-56235238D01*
X197577319Y-56235238D02*
X197529700Y-56330476D01*
X197529700Y-56330476D02*
X197482080Y-56378095D01*
X197482080Y-56378095D02*
X197386842Y-56425714D01*
X197386842Y-56425714D02*
X197196366Y-56425714D01*
X197196366Y-56425714D02*
X197101128Y-56378095D01*
X197101128Y-56378095D02*
X197053509Y-56330476D01*
X197053509Y-56330476D02*
X197005890Y-56235238D01*
X197257319Y-59188095D02*
X196257319Y-59188095D01*
X197257319Y-59759523D02*
X196685890Y-59330952D01*
X196257319Y-59759523D02*
X196828747Y-59188095D01*
X254727319Y-54425714D02*
X253727319Y-54425714D01*
X253727319Y-54425714D02*
X253727319Y-54663809D01*
X253727319Y-54663809D02*
X253774938Y-54806666D01*
X253774938Y-54806666D02*
X253870176Y-54901904D01*
X253870176Y-54901904D02*
X253965414Y-54949523D01*
X253965414Y-54949523D02*
X254155890Y-54997142D01*
X254155890Y-54997142D02*
X254298747Y-54997142D01*
X254298747Y-54997142D02*
X254489223Y-54949523D01*
X254489223Y-54949523D02*
X254584461Y-54901904D01*
X254584461Y-54901904D02*
X254679700Y-54806666D01*
X254679700Y-54806666D02*
X254727319Y-54663809D01*
X254727319Y-54663809D02*
X254727319Y-54425714D01*
X254727319Y-55949523D02*
X254727319Y-55378095D01*
X254727319Y-55663809D02*
X253727319Y-55663809D01*
X253727319Y-55663809D02*
X253870176Y-55568571D01*
X253870176Y-55568571D02*
X253965414Y-55473333D01*
X253965414Y-55473333D02*
X254013033Y-55378095D01*
X254727319Y-56901904D02*
X254727319Y-56330476D01*
X254727319Y-56616190D02*
X253727319Y-56616190D01*
X253727319Y-56616190D02*
X253870176Y-56520952D01*
X253870176Y-56520952D02*
X253965414Y-56425714D01*
X253965414Y-56425714D02*
X254013033Y-56330476D01*
X254407319Y-59188095D02*
X253407319Y-59188095D01*
X254407319Y-59759523D02*
X253835890Y-59330952D01*
X253407319Y-59759523D02*
X253978747Y-59188095D01*
X192814819Y-92525714D02*
X191814819Y-92525714D01*
X191814819Y-92525714D02*
X191814819Y-92763809D01*
X191814819Y-92763809D02*
X191862438Y-92906666D01*
X191862438Y-92906666D02*
X191957676Y-93001904D01*
X191957676Y-93001904D02*
X192052914Y-93049523D01*
X192052914Y-93049523D02*
X192243390Y-93097142D01*
X192243390Y-93097142D02*
X192386247Y-93097142D01*
X192386247Y-93097142D02*
X192576723Y-93049523D01*
X192576723Y-93049523D02*
X192671961Y-93001904D01*
X192671961Y-93001904D02*
X192767200Y-92906666D01*
X192767200Y-92906666D02*
X192814819Y-92763809D01*
X192814819Y-92763809D02*
X192814819Y-92525714D01*
X191814819Y-93430476D02*
X191814819Y-94049523D01*
X191814819Y-94049523D02*
X192195771Y-93716190D01*
X192195771Y-93716190D02*
X192195771Y-93859047D01*
X192195771Y-93859047D02*
X192243390Y-93954285D01*
X192243390Y-93954285D02*
X192291009Y-94001904D01*
X192291009Y-94001904D02*
X192386247Y-94049523D01*
X192386247Y-94049523D02*
X192624342Y-94049523D01*
X192624342Y-94049523D02*
X192719580Y-94001904D01*
X192719580Y-94001904D02*
X192767200Y-93954285D01*
X192767200Y-93954285D02*
X192814819Y-93859047D01*
X192814819Y-93859047D02*
X192814819Y-93573333D01*
X192814819Y-93573333D02*
X192767200Y-93478095D01*
X192767200Y-93478095D02*
X192719580Y-93430476D01*
X192148152Y-94906666D02*
X192814819Y-94906666D01*
X191767200Y-94668571D02*
X192481485Y-94430476D01*
X192481485Y-94430476D02*
X192481485Y-95049523D01*
X192494819Y-97288095D02*
X191494819Y-97288095D01*
X192494819Y-97859523D02*
X191923390Y-97430952D01*
X191494819Y-97859523D02*
X192066247Y-97288095D01*
X116614819Y-92525714D02*
X115614819Y-92525714D01*
X115614819Y-92525714D02*
X115614819Y-92763809D01*
X115614819Y-92763809D02*
X115662438Y-92906666D01*
X115662438Y-92906666D02*
X115757676Y-93001904D01*
X115757676Y-93001904D02*
X115852914Y-93049523D01*
X115852914Y-93049523D02*
X116043390Y-93097142D01*
X116043390Y-93097142D02*
X116186247Y-93097142D01*
X116186247Y-93097142D02*
X116376723Y-93049523D01*
X116376723Y-93049523D02*
X116471961Y-93001904D01*
X116471961Y-93001904D02*
X116567200Y-92906666D01*
X116567200Y-92906666D02*
X116614819Y-92763809D01*
X116614819Y-92763809D02*
X116614819Y-92525714D01*
X115614819Y-93430476D02*
X115614819Y-94049523D01*
X115614819Y-94049523D02*
X115995771Y-93716190D01*
X115995771Y-93716190D02*
X115995771Y-93859047D01*
X115995771Y-93859047D02*
X116043390Y-93954285D01*
X116043390Y-93954285D02*
X116091009Y-94001904D01*
X116091009Y-94001904D02*
X116186247Y-94049523D01*
X116186247Y-94049523D02*
X116424342Y-94049523D01*
X116424342Y-94049523D02*
X116519580Y-94001904D01*
X116519580Y-94001904D02*
X116567200Y-93954285D01*
X116567200Y-93954285D02*
X116614819Y-93859047D01*
X116614819Y-93859047D02*
X116614819Y-93573333D01*
X116614819Y-93573333D02*
X116567200Y-93478095D01*
X116567200Y-93478095D02*
X116519580Y-93430476D01*
X115614819Y-94668571D02*
X115614819Y-94763809D01*
X115614819Y-94763809D02*
X115662438Y-94859047D01*
X115662438Y-94859047D02*
X115710057Y-94906666D01*
X115710057Y-94906666D02*
X115805295Y-94954285D01*
X115805295Y-94954285D02*
X115995771Y-95001904D01*
X115995771Y-95001904D02*
X116233866Y-95001904D01*
X116233866Y-95001904D02*
X116424342Y-94954285D01*
X116424342Y-94954285D02*
X116519580Y-94906666D01*
X116519580Y-94906666D02*
X116567200Y-94859047D01*
X116567200Y-94859047D02*
X116614819Y-94763809D01*
X116614819Y-94763809D02*
X116614819Y-94668571D01*
X116614819Y-94668571D02*
X116567200Y-94573333D01*
X116567200Y-94573333D02*
X116519580Y-94525714D01*
X116519580Y-94525714D02*
X116424342Y-94478095D01*
X116424342Y-94478095D02*
X116233866Y-94430476D01*
X116233866Y-94430476D02*
X115995771Y-94430476D01*
X115995771Y-94430476D02*
X115805295Y-94478095D01*
X115805295Y-94478095D02*
X115710057Y-94525714D01*
X115710057Y-94525714D02*
X115662438Y-94573333D01*
X115662438Y-94573333D02*
X115614819Y-94668571D01*
X116294819Y-97288095D02*
X115294819Y-97288095D01*
X116294819Y-97859523D02*
X115723390Y-97430952D01*
X115294819Y-97859523D02*
X115866247Y-97288095D01*
X307114819Y-92525714D02*
X306114819Y-92525714D01*
X306114819Y-92525714D02*
X306114819Y-92763809D01*
X306114819Y-92763809D02*
X306162438Y-92906666D01*
X306162438Y-92906666D02*
X306257676Y-93001904D01*
X306257676Y-93001904D02*
X306352914Y-93049523D01*
X306352914Y-93049523D02*
X306543390Y-93097142D01*
X306543390Y-93097142D02*
X306686247Y-93097142D01*
X306686247Y-93097142D02*
X306876723Y-93049523D01*
X306876723Y-93049523D02*
X306971961Y-93001904D01*
X306971961Y-93001904D02*
X307067200Y-92906666D01*
X307067200Y-92906666D02*
X307114819Y-92763809D01*
X307114819Y-92763809D02*
X307114819Y-92525714D01*
X306448152Y-93954285D02*
X307114819Y-93954285D01*
X306067200Y-93716190D02*
X306781485Y-93478095D01*
X306781485Y-93478095D02*
X306781485Y-94097142D01*
X306114819Y-94668571D02*
X306114819Y-94763809D01*
X306114819Y-94763809D02*
X306162438Y-94859047D01*
X306162438Y-94859047D02*
X306210057Y-94906666D01*
X306210057Y-94906666D02*
X306305295Y-94954285D01*
X306305295Y-94954285D02*
X306495771Y-95001904D01*
X306495771Y-95001904D02*
X306733866Y-95001904D01*
X306733866Y-95001904D02*
X306924342Y-94954285D01*
X306924342Y-94954285D02*
X307019580Y-94906666D01*
X307019580Y-94906666D02*
X307067200Y-94859047D01*
X307067200Y-94859047D02*
X307114819Y-94763809D01*
X307114819Y-94763809D02*
X307114819Y-94668571D01*
X307114819Y-94668571D02*
X307067200Y-94573333D01*
X307067200Y-94573333D02*
X307019580Y-94525714D01*
X307019580Y-94525714D02*
X306924342Y-94478095D01*
X306924342Y-94478095D02*
X306733866Y-94430476D01*
X306733866Y-94430476D02*
X306495771Y-94430476D01*
X306495771Y-94430476D02*
X306305295Y-94478095D01*
X306305295Y-94478095D02*
X306210057Y-94525714D01*
X306210057Y-94525714D02*
X306162438Y-94573333D01*
X306162438Y-94573333D02*
X306114819Y-94668571D01*
X306794819Y-97288095D02*
X305794819Y-97288095D01*
X306794819Y-97859523D02*
X306223390Y-97430952D01*
X305794819Y-97859523D02*
X306366247Y-97288095D01*
X276158569Y-130625714D02*
X275158569Y-130625714D01*
X275158569Y-130625714D02*
X275158569Y-130863809D01*
X275158569Y-130863809D02*
X275206188Y-131006666D01*
X275206188Y-131006666D02*
X275301426Y-131101904D01*
X275301426Y-131101904D02*
X275396664Y-131149523D01*
X275396664Y-131149523D02*
X275587140Y-131197142D01*
X275587140Y-131197142D02*
X275729997Y-131197142D01*
X275729997Y-131197142D02*
X275920473Y-131149523D01*
X275920473Y-131149523D02*
X276015711Y-131101904D01*
X276015711Y-131101904D02*
X276110950Y-131006666D01*
X276110950Y-131006666D02*
X276158569Y-130863809D01*
X276158569Y-130863809D02*
X276158569Y-130625714D01*
X275158569Y-132101904D02*
X275158569Y-131625714D01*
X275158569Y-131625714D02*
X275634759Y-131578095D01*
X275634759Y-131578095D02*
X275587140Y-131625714D01*
X275587140Y-131625714D02*
X275539521Y-131720952D01*
X275539521Y-131720952D02*
X275539521Y-131959047D01*
X275539521Y-131959047D02*
X275587140Y-132054285D01*
X275587140Y-132054285D02*
X275634759Y-132101904D01*
X275634759Y-132101904D02*
X275729997Y-132149523D01*
X275729997Y-132149523D02*
X275968092Y-132149523D01*
X275968092Y-132149523D02*
X276063330Y-132101904D01*
X276063330Y-132101904D02*
X276110950Y-132054285D01*
X276110950Y-132054285D02*
X276158569Y-131959047D01*
X276158569Y-131959047D02*
X276158569Y-131720952D01*
X276158569Y-131720952D02*
X276110950Y-131625714D01*
X276110950Y-131625714D02*
X276063330Y-131578095D01*
X275587140Y-132720952D02*
X275539521Y-132625714D01*
X275539521Y-132625714D02*
X275491902Y-132578095D01*
X275491902Y-132578095D02*
X275396664Y-132530476D01*
X275396664Y-132530476D02*
X275349045Y-132530476D01*
X275349045Y-132530476D02*
X275253807Y-132578095D01*
X275253807Y-132578095D02*
X275206188Y-132625714D01*
X275206188Y-132625714D02*
X275158569Y-132720952D01*
X275158569Y-132720952D02*
X275158569Y-132911428D01*
X275158569Y-132911428D02*
X275206188Y-133006666D01*
X275206188Y-133006666D02*
X275253807Y-133054285D01*
X275253807Y-133054285D02*
X275349045Y-133101904D01*
X275349045Y-133101904D02*
X275396664Y-133101904D01*
X275396664Y-133101904D02*
X275491902Y-133054285D01*
X275491902Y-133054285D02*
X275539521Y-133006666D01*
X275539521Y-133006666D02*
X275587140Y-132911428D01*
X275587140Y-132911428D02*
X275587140Y-132720952D01*
X275587140Y-132720952D02*
X275634759Y-132625714D01*
X275634759Y-132625714D02*
X275682378Y-132578095D01*
X275682378Y-132578095D02*
X275777616Y-132530476D01*
X275777616Y-132530476D02*
X275968092Y-132530476D01*
X275968092Y-132530476D02*
X276063330Y-132578095D01*
X276063330Y-132578095D02*
X276110950Y-132625714D01*
X276110950Y-132625714D02*
X276158569Y-132720952D01*
X276158569Y-132720952D02*
X276158569Y-132911428D01*
X276158569Y-132911428D02*
X276110950Y-133006666D01*
X276110950Y-133006666D02*
X276063330Y-133054285D01*
X276063330Y-133054285D02*
X275968092Y-133101904D01*
X275968092Y-133101904D02*
X275777616Y-133101904D01*
X275777616Y-133101904D02*
X275682378Y-133054285D01*
X275682378Y-133054285D02*
X275634759Y-133006666D01*
X275634759Y-133006666D02*
X275587140Y-132911428D01*
X275838569Y-135388095D02*
X274838569Y-135388095D01*
X275838569Y-135959523D02*
X275267140Y-135530952D01*
X274838569Y-135959523D02*
X275409997Y-135388095D01*
X230914819Y-92525714D02*
X229914819Y-92525714D01*
X229914819Y-92525714D02*
X229914819Y-92763809D01*
X229914819Y-92763809D02*
X229962438Y-92906666D01*
X229962438Y-92906666D02*
X230057676Y-93001904D01*
X230057676Y-93001904D02*
X230152914Y-93049523D01*
X230152914Y-93049523D02*
X230343390Y-93097142D01*
X230343390Y-93097142D02*
X230486247Y-93097142D01*
X230486247Y-93097142D02*
X230676723Y-93049523D01*
X230676723Y-93049523D02*
X230771961Y-93001904D01*
X230771961Y-93001904D02*
X230867200Y-92906666D01*
X230867200Y-92906666D02*
X230914819Y-92763809D01*
X230914819Y-92763809D02*
X230914819Y-92525714D01*
X229914819Y-93430476D02*
X229914819Y-94049523D01*
X229914819Y-94049523D02*
X230295771Y-93716190D01*
X230295771Y-93716190D02*
X230295771Y-93859047D01*
X230295771Y-93859047D02*
X230343390Y-93954285D01*
X230343390Y-93954285D02*
X230391009Y-94001904D01*
X230391009Y-94001904D02*
X230486247Y-94049523D01*
X230486247Y-94049523D02*
X230724342Y-94049523D01*
X230724342Y-94049523D02*
X230819580Y-94001904D01*
X230819580Y-94001904D02*
X230867200Y-93954285D01*
X230867200Y-93954285D02*
X230914819Y-93859047D01*
X230914819Y-93859047D02*
X230914819Y-93573333D01*
X230914819Y-93573333D02*
X230867200Y-93478095D01*
X230867200Y-93478095D02*
X230819580Y-93430476D01*
X229914819Y-94906666D02*
X229914819Y-94716190D01*
X229914819Y-94716190D02*
X229962438Y-94620952D01*
X229962438Y-94620952D02*
X230010057Y-94573333D01*
X230010057Y-94573333D02*
X230152914Y-94478095D01*
X230152914Y-94478095D02*
X230343390Y-94430476D01*
X230343390Y-94430476D02*
X230724342Y-94430476D01*
X230724342Y-94430476D02*
X230819580Y-94478095D01*
X230819580Y-94478095D02*
X230867200Y-94525714D01*
X230867200Y-94525714D02*
X230914819Y-94620952D01*
X230914819Y-94620952D02*
X230914819Y-94811428D01*
X230914819Y-94811428D02*
X230867200Y-94906666D01*
X230867200Y-94906666D02*
X230819580Y-94954285D01*
X230819580Y-94954285D02*
X230724342Y-95001904D01*
X230724342Y-95001904D02*
X230486247Y-95001904D01*
X230486247Y-95001904D02*
X230391009Y-94954285D01*
X230391009Y-94954285D02*
X230343390Y-94906666D01*
X230343390Y-94906666D02*
X230295771Y-94811428D01*
X230295771Y-94811428D02*
X230295771Y-94620952D01*
X230295771Y-94620952D02*
X230343390Y-94525714D01*
X230343390Y-94525714D02*
X230391009Y-94478095D01*
X230391009Y-94478095D02*
X230486247Y-94430476D01*
X230594819Y-97288095D02*
X229594819Y-97288095D01*
X230594819Y-97859523D02*
X230023390Y-97430952D01*
X229594819Y-97859523D02*
X230166247Y-97288095D01*
X149952319Y-73475714D02*
X148952319Y-73475714D01*
X148952319Y-73475714D02*
X148952319Y-73713809D01*
X148952319Y-73713809D02*
X148999938Y-73856666D01*
X148999938Y-73856666D02*
X149095176Y-73951904D01*
X149095176Y-73951904D02*
X149190414Y-73999523D01*
X149190414Y-73999523D02*
X149380890Y-74047142D01*
X149380890Y-74047142D02*
X149523747Y-74047142D01*
X149523747Y-74047142D02*
X149714223Y-73999523D01*
X149714223Y-73999523D02*
X149809461Y-73951904D01*
X149809461Y-73951904D02*
X149904700Y-73856666D01*
X149904700Y-73856666D02*
X149952319Y-73713809D01*
X149952319Y-73713809D02*
X149952319Y-73475714D01*
X149952319Y-74999523D02*
X149952319Y-74428095D01*
X149952319Y-74713809D02*
X148952319Y-74713809D01*
X148952319Y-74713809D02*
X149095176Y-74618571D01*
X149095176Y-74618571D02*
X149190414Y-74523333D01*
X149190414Y-74523333D02*
X149238033Y-74428095D01*
X149380890Y-75570952D02*
X149333271Y-75475714D01*
X149333271Y-75475714D02*
X149285652Y-75428095D01*
X149285652Y-75428095D02*
X149190414Y-75380476D01*
X149190414Y-75380476D02*
X149142795Y-75380476D01*
X149142795Y-75380476D02*
X149047557Y-75428095D01*
X149047557Y-75428095D02*
X148999938Y-75475714D01*
X148999938Y-75475714D02*
X148952319Y-75570952D01*
X148952319Y-75570952D02*
X148952319Y-75761428D01*
X148952319Y-75761428D02*
X148999938Y-75856666D01*
X148999938Y-75856666D02*
X149047557Y-75904285D01*
X149047557Y-75904285D02*
X149142795Y-75951904D01*
X149142795Y-75951904D02*
X149190414Y-75951904D01*
X149190414Y-75951904D02*
X149285652Y-75904285D01*
X149285652Y-75904285D02*
X149333271Y-75856666D01*
X149333271Y-75856666D02*
X149380890Y-75761428D01*
X149380890Y-75761428D02*
X149380890Y-75570952D01*
X149380890Y-75570952D02*
X149428509Y-75475714D01*
X149428509Y-75475714D02*
X149476128Y-75428095D01*
X149476128Y-75428095D02*
X149571366Y-75380476D01*
X149571366Y-75380476D02*
X149761842Y-75380476D01*
X149761842Y-75380476D02*
X149857080Y-75428095D01*
X149857080Y-75428095D02*
X149904700Y-75475714D01*
X149904700Y-75475714D02*
X149952319Y-75570952D01*
X149952319Y-75570952D02*
X149952319Y-75761428D01*
X149952319Y-75761428D02*
X149904700Y-75856666D01*
X149904700Y-75856666D02*
X149857080Y-75904285D01*
X149857080Y-75904285D02*
X149761842Y-75951904D01*
X149761842Y-75951904D02*
X149571366Y-75951904D01*
X149571366Y-75951904D02*
X149476128Y-75904285D01*
X149476128Y-75904285D02*
X149428509Y-75856666D01*
X149428509Y-75856666D02*
X149380890Y-75761428D01*
X149632319Y-78238095D02*
X148632319Y-78238095D01*
X149632319Y-78809523D02*
X149060890Y-78380952D01*
X148632319Y-78809523D02*
X149203747Y-78238095D01*
X297589819Y-111575714D02*
X296589819Y-111575714D01*
X296589819Y-111575714D02*
X296589819Y-111813809D01*
X296589819Y-111813809D02*
X296637438Y-111956666D01*
X296637438Y-111956666D02*
X296732676Y-112051904D01*
X296732676Y-112051904D02*
X296827914Y-112099523D01*
X296827914Y-112099523D02*
X297018390Y-112147142D01*
X297018390Y-112147142D02*
X297161247Y-112147142D01*
X297161247Y-112147142D02*
X297351723Y-112099523D01*
X297351723Y-112099523D02*
X297446961Y-112051904D01*
X297446961Y-112051904D02*
X297542200Y-111956666D01*
X297542200Y-111956666D02*
X297589819Y-111813809D01*
X297589819Y-111813809D02*
X297589819Y-111575714D01*
X296589819Y-113051904D02*
X296589819Y-112575714D01*
X296589819Y-112575714D02*
X297066009Y-112528095D01*
X297066009Y-112528095D02*
X297018390Y-112575714D01*
X297018390Y-112575714D02*
X296970771Y-112670952D01*
X296970771Y-112670952D02*
X296970771Y-112909047D01*
X296970771Y-112909047D02*
X297018390Y-113004285D01*
X297018390Y-113004285D02*
X297066009Y-113051904D01*
X297066009Y-113051904D02*
X297161247Y-113099523D01*
X297161247Y-113099523D02*
X297399342Y-113099523D01*
X297399342Y-113099523D02*
X297494580Y-113051904D01*
X297494580Y-113051904D02*
X297542200Y-113004285D01*
X297542200Y-113004285D02*
X297589819Y-112909047D01*
X297589819Y-112909047D02*
X297589819Y-112670952D01*
X297589819Y-112670952D02*
X297542200Y-112575714D01*
X297542200Y-112575714D02*
X297494580Y-112528095D01*
X296685057Y-113480476D02*
X296637438Y-113528095D01*
X296637438Y-113528095D02*
X296589819Y-113623333D01*
X296589819Y-113623333D02*
X296589819Y-113861428D01*
X296589819Y-113861428D02*
X296637438Y-113956666D01*
X296637438Y-113956666D02*
X296685057Y-114004285D01*
X296685057Y-114004285D02*
X296780295Y-114051904D01*
X296780295Y-114051904D02*
X296875533Y-114051904D01*
X296875533Y-114051904D02*
X297018390Y-114004285D01*
X297018390Y-114004285D02*
X297589819Y-113432857D01*
X297589819Y-113432857D02*
X297589819Y-114051904D01*
X297269819Y-116338095D02*
X296269819Y-116338095D01*
X297269819Y-116909523D02*
X296698390Y-116480952D01*
X296269819Y-116909523D02*
X296841247Y-116338095D01*
X85658569Y-130625714D02*
X84658569Y-130625714D01*
X84658569Y-130625714D02*
X84658569Y-130863809D01*
X84658569Y-130863809D02*
X84706188Y-131006666D01*
X84706188Y-131006666D02*
X84801426Y-131101904D01*
X84801426Y-131101904D02*
X84896664Y-131149523D01*
X84896664Y-131149523D02*
X85087140Y-131197142D01*
X85087140Y-131197142D02*
X85229997Y-131197142D01*
X85229997Y-131197142D02*
X85420473Y-131149523D01*
X85420473Y-131149523D02*
X85515711Y-131101904D01*
X85515711Y-131101904D02*
X85610950Y-131006666D01*
X85610950Y-131006666D02*
X85658569Y-130863809D01*
X85658569Y-130863809D02*
X85658569Y-130625714D01*
X84658569Y-132101904D02*
X84658569Y-131625714D01*
X84658569Y-131625714D02*
X85134759Y-131578095D01*
X85134759Y-131578095D02*
X85087140Y-131625714D01*
X85087140Y-131625714D02*
X85039521Y-131720952D01*
X85039521Y-131720952D02*
X85039521Y-131959047D01*
X85039521Y-131959047D02*
X85087140Y-132054285D01*
X85087140Y-132054285D02*
X85134759Y-132101904D01*
X85134759Y-132101904D02*
X85229997Y-132149523D01*
X85229997Y-132149523D02*
X85468092Y-132149523D01*
X85468092Y-132149523D02*
X85563330Y-132101904D01*
X85563330Y-132101904D02*
X85610950Y-132054285D01*
X85610950Y-132054285D02*
X85658569Y-131959047D01*
X85658569Y-131959047D02*
X85658569Y-131720952D01*
X85658569Y-131720952D02*
X85610950Y-131625714D01*
X85610950Y-131625714D02*
X85563330Y-131578095D01*
X84991902Y-133006666D02*
X85658569Y-133006666D01*
X84610950Y-132768571D02*
X85325235Y-132530476D01*
X85325235Y-132530476D02*
X85325235Y-133149523D01*
X85338569Y-135388095D02*
X84338569Y-135388095D01*
X85338569Y-135959523D02*
X84767140Y-135530952D01*
X84338569Y-135959523D02*
X84909997Y-135388095D01*
X278539819Y-111575714D02*
X277539819Y-111575714D01*
X277539819Y-111575714D02*
X277539819Y-111813809D01*
X277539819Y-111813809D02*
X277587438Y-111956666D01*
X277587438Y-111956666D02*
X277682676Y-112051904D01*
X277682676Y-112051904D02*
X277777914Y-112099523D01*
X277777914Y-112099523D02*
X277968390Y-112147142D01*
X277968390Y-112147142D02*
X278111247Y-112147142D01*
X278111247Y-112147142D02*
X278301723Y-112099523D01*
X278301723Y-112099523D02*
X278396961Y-112051904D01*
X278396961Y-112051904D02*
X278492200Y-111956666D01*
X278492200Y-111956666D02*
X278539819Y-111813809D01*
X278539819Y-111813809D02*
X278539819Y-111575714D01*
X277539819Y-113051904D02*
X277539819Y-112575714D01*
X277539819Y-112575714D02*
X278016009Y-112528095D01*
X278016009Y-112528095D02*
X277968390Y-112575714D01*
X277968390Y-112575714D02*
X277920771Y-112670952D01*
X277920771Y-112670952D02*
X277920771Y-112909047D01*
X277920771Y-112909047D02*
X277968390Y-113004285D01*
X277968390Y-113004285D02*
X278016009Y-113051904D01*
X278016009Y-113051904D02*
X278111247Y-113099523D01*
X278111247Y-113099523D02*
X278349342Y-113099523D01*
X278349342Y-113099523D02*
X278444580Y-113051904D01*
X278444580Y-113051904D02*
X278492200Y-113004285D01*
X278492200Y-113004285D02*
X278539819Y-112909047D01*
X278539819Y-112909047D02*
X278539819Y-112670952D01*
X278539819Y-112670952D02*
X278492200Y-112575714D01*
X278492200Y-112575714D02*
X278444580Y-112528095D01*
X278539819Y-114051904D02*
X278539819Y-113480476D01*
X278539819Y-113766190D02*
X277539819Y-113766190D01*
X277539819Y-113766190D02*
X277682676Y-113670952D01*
X277682676Y-113670952D02*
X277777914Y-113575714D01*
X277777914Y-113575714D02*
X277825533Y-113480476D01*
X278219819Y-116338095D02*
X277219819Y-116338095D01*
X278219819Y-116909523D02*
X277648390Y-116480952D01*
X277219819Y-116909523D02*
X277791247Y-116338095D01*
X188052319Y-73475714D02*
X187052319Y-73475714D01*
X187052319Y-73475714D02*
X187052319Y-73713809D01*
X187052319Y-73713809D02*
X187099938Y-73856666D01*
X187099938Y-73856666D02*
X187195176Y-73951904D01*
X187195176Y-73951904D02*
X187290414Y-73999523D01*
X187290414Y-73999523D02*
X187480890Y-74047142D01*
X187480890Y-74047142D02*
X187623747Y-74047142D01*
X187623747Y-74047142D02*
X187814223Y-73999523D01*
X187814223Y-73999523D02*
X187909461Y-73951904D01*
X187909461Y-73951904D02*
X188004700Y-73856666D01*
X188004700Y-73856666D02*
X188052319Y-73713809D01*
X188052319Y-73713809D02*
X188052319Y-73475714D01*
X187147557Y-74428095D02*
X187099938Y-74475714D01*
X187099938Y-74475714D02*
X187052319Y-74570952D01*
X187052319Y-74570952D02*
X187052319Y-74809047D01*
X187052319Y-74809047D02*
X187099938Y-74904285D01*
X187099938Y-74904285D02*
X187147557Y-74951904D01*
X187147557Y-74951904D02*
X187242795Y-74999523D01*
X187242795Y-74999523D02*
X187338033Y-74999523D01*
X187338033Y-74999523D02*
X187480890Y-74951904D01*
X187480890Y-74951904D02*
X188052319Y-74380476D01*
X188052319Y-74380476D02*
X188052319Y-74999523D01*
X187052319Y-75618571D02*
X187052319Y-75713809D01*
X187052319Y-75713809D02*
X187099938Y-75809047D01*
X187099938Y-75809047D02*
X187147557Y-75856666D01*
X187147557Y-75856666D02*
X187242795Y-75904285D01*
X187242795Y-75904285D02*
X187433271Y-75951904D01*
X187433271Y-75951904D02*
X187671366Y-75951904D01*
X187671366Y-75951904D02*
X187861842Y-75904285D01*
X187861842Y-75904285D02*
X187957080Y-75856666D01*
X187957080Y-75856666D02*
X188004700Y-75809047D01*
X188004700Y-75809047D02*
X188052319Y-75713809D01*
X188052319Y-75713809D02*
X188052319Y-75618571D01*
X188052319Y-75618571D02*
X188004700Y-75523333D01*
X188004700Y-75523333D02*
X187957080Y-75475714D01*
X187957080Y-75475714D02*
X187861842Y-75428095D01*
X187861842Y-75428095D02*
X187671366Y-75380476D01*
X187671366Y-75380476D02*
X187433271Y-75380476D01*
X187433271Y-75380476D02*
X187242795Y-75428095D01*
X187242795Y-75428095D02*
X187147557Y-75475714D01*
X187147557Y-75475714D02*
X187099938Y-75523333D01*
X187099938Y-75523333D02*
X187052319Y-75618571D01*
X187732319Y-78238095D02*
X186732319Y-78238095D01*
X187732319Y-78809523D02*
X187160890Y-78380952D01*
X186732319Y-78809523D02*
X187303747Y-78238095D01*
X135664819Y-92525714D02*
X134664819Y-92525714D01*
X134664819Y-92525714D02*
X134664819Y-92763809D01*
X134664819Y-92763809D02*
X134712438Y-92906666D01*
X134712438Y-92906666D02*
X134807676Y-93001904D01*
X134807676Y-93001904D02*
X134902914Y-93049523D01*
X134902914Y-93049523D02*
X135093390Y-93097142D01*
X135093390Y-93097142D02*
X135236247Y-93097142D01*
X135236247Y-93097142D02*
X135426723Y-93049523D01*
X135426723Y-93049523D02*
X135521961Y-93001904D01*
X135521961Y-93001904D02*
X135617200Y-92906666D01*
X135617200Y-92906666D02*
X135664819Y-92763809D01*
X135664819Y-92763809D02*
X135664819Y-92525714D01*
X134664819Y-93430476D02*
X134664819Y-94049523D01*
X134664819Y-94049523D02*
X135045771Y-93716190D01*
X135045771Y-93716190D02*
X135045771Y-93859047D01*
X135045771Y-93859047D02*
X135093390Y-93954285D01*
X135093390Y-93954285D02*
X135141009Y-94001904D01*
X135141009Y-94001904D02*
X135236247Y-94049523D01*
X135236247Y-94049523D02*
X135474342Y-94049523D01*
X135474342Y-94049523D02*
X135569580Y-94001904D01*
X135569580Y-94001904D02*
X135617200Y-93954285D01*
X135617200Y-93954285D02*
X135664819Y-93859047D01*
X135664819Y-93859047D02*
X135664819Y-93573333D01*
X135664819Y-93573333D02*
X135617200Y-93478095D01*
X135617200Y-93478095D02*
X135569580Y-93430476D01*
X135664819Y-95001904D02*
X135664819Y-94430476D01*
X135664819Y-94716190D02*
X134664819Y-94716190D01*
X134664819Y-94716190D02*
X134807676Y-94620952D01*
X134807676Y-94620952D02*
X134902914Y-94525714D01*
X134902914Y-94525714D02*
X134950533Y-94430476D01*
X135344819Y-97288095D02*
X134344819Y-97288095D01*
X135344819Y-97859523D02*
X134773390Y-97430952D01*
X134344819Y-97859523D02*
X134916247Y-97288095D01*
X211864819Y-92525714D02*
X210864819Y-92525714D01*
X210864819Y-92525714D02*
X210864819Y-92763809D01*
X210864819Y-92763809D02*
X210912438Y-92906666D01*
X210912438Y-92906666D02*
X211007676Y-93001904D01*
X211007676Y-93001904D02*
X211102914Y-93049523D01*
X211102914Y-93049523D02*
X211293390Y-93097142D01*
X211293390Y-93097142D02*
X211436247Y-93097142D01*
X211436247Y-93097142D02*
X211626723Y-93049523D01*
X211626723Y-93049523D02*
X211721961Y-93001904D01*
X211721961Y-93001904D02*
X211817200Y-92906666D01*
X211817200Y-92906666D02*
X211864819Y-92763809D01*
X211864819Y-92763809D02*
X211864819Y-92525714D01*
X210864819Y-93430476D02*
X210864819Y-94049523D01*
X210864819Y-94049523D02*
X211245771Y-93716190D01*
X211245771Y-93716190D02*
X211245771Y-93859047D01*
X211245771Y-93859047D02*
X211293390Y-93954285D01*
X211293390Y-93954285D02*
X211341009Y-94001904D01*
X211341009Y-94001904D02*
X211436247Y-94049523D01*
X211436247Y-94049523D02*
X211674342Y-94049523D01*
X211674342Y-94049523D02*
X211769580Y-94001904D01*
X211769580Y-94001904D02*
X211817200Y-93954285D01*
X211817200Y-93954285D02*
X211864819Y-93859047D01*
X211864819Y-93859047D02*
X211864819Y-93573333D01*
X211864819Y-93573333D02*
X211817200Y-93478095D01*
X211817200Y-93478095D02*
X211769580Y-93430476D01*
X210864819Y-94954285D02*
X210864819Y-94478095D01*
X210864819Y-94478095D02*
X211341009Y-94430476D01*
X211341009Y-94430476D02*
X211293390Y-94478095D01*
X211293390Y-94478095D02*
X211245771Y-94573333D01*
X211245771Y-94573333D02*
X211245771Y-94811428D01*
X211245771Y-94811428D02*
X211293390Y-94906666D01*
X211293390Y-94906666D02*
X211341009Y-94954285D01*
X211341009Y-94954285D02*
X211436247Y-95001904D01*
X211436247Y-95001904D02*
X211674342Y-95001904D01*
X211674342Y-95001904D02*
X211769580Y-94954285D01*
X211769580Y-94954285D02*
X211817200Y-94906666D01*
X211817200Y-94906666D02*
X211864819Y-94811428D01*
X211864819Y-94811428D02*
X211864819Y-94573333D01*
X211864819Y-94573333D02*
X211817200Y-94478095D01*
X211817200Y-94478095D02*
X211769580Y-94430476D01*
X211544819Y-97288095D02*
X210544819Y-97288095D01*
X211544819Y-97859523D02*
X210973390Y-97430952D01*
X210544819Y-97859523D02*
X211116247Y-97288095D01*
X292827319Y-54425714D02*
X291827319Y-54425714D01*
X291827319Y-54425714D02*
X291827319Y-54663809D01*
X291827319Y-54663809D02*
X291874938Y-54806666D01*
X291874938Y-54806666D02*
X291970176Y-54901904D01*
X291970176Y-54901904D02*
X292065414Y-54949523D01*
X292065414Y-54949523D02*
X292255890Y-54997142D01*
X292255890Y-54997142D02*
X292398747Y-54997142D01*
X292398747Y-54997142D02*
X292589223Y-54949523D01*
X292589223Y-54949523D02*
X292684461Y-54901904D01*
X292684461Y-54901904D02*
X292779700Y-54806666D01*
X292779700Y-54806666D02*
X292827319Y-54663809D01*
X292827319Y-54663809D02*
X292827319Y-54425714D01*
X292827319Y-55949523D02*
X292827319Y-55378095D01*
X292827319Y-55663809D02*
X291827319Y-55663809D01*
X291827319Y-55663809D02*
X291970176Y-55568571D01*
X291970176Y-55568571D02*
X292065414Y-55473333D01*
X292065414Y-55473333D02*
X292113033Y-55378095D01*
X291827319Y-56282857D02*
X291827319Y-56901904D01*
X291827319Y-56901904D02*
X292208271Y-56568571D01*
X292208271Y-56568571D02*
X292208271Y-56711428D01*
X292208271Y-56711428D02*
X292255890Y-56806666D01*
X292255890Y-56806666D02*
X292303509Y-56854285D01*
X292303509Y-56854285D02*
X292398747Y-56901904D01*
X292398747Y-56901904D02*
X292636842Y-56901904D01*
X292636842Y-56901904D02*
X292732080Y-56854285D01*
X292732080Y-56854285D02*
X292779700Y-56806666D01*
X292779700Y-56806666D02*
X292827319Y-56711428D01*
X292827319Y-56711428D02*
X292827319Y-56425714D01*
X292827319Y-56425714D02*
X292779700Y-56330476D01*
X292779700Y-56330476D02*
X292732080Y-56282857D01*
X292507319Y-59188095D02*
X291507319Y-59188095D01*
X292507319Y-59759523D02*
X291935890Y-59330952D01*
X291507319Y-59759523D02*
X292078747Y-59188095D01*
X83277319Y-54901905D02*
X82277319Y-54901905D01*
X82277319Y-54901905D02*
X82277319Y-55140000D01*
X82277319Y-55140000D02*
X82324938Y-55282857D01*
X82324938Y-55282857D02*
X82420176Y-55378095D01*
X82420176Y-55378095D02*
X82515414Y-55425714D01*
X82515414Y-55425714D02*
X82705890Y-55473333D01*
X82705890Y-55473333D02*
X82848747Y-55473333D01*
X82848747Y-55473333D02*
X83039223Y-55425714D01*
X83039223Y-55425714D02*
X83134461Y-55378095D01*
X83134461Y-55378095D02*
X83229700Y-55282857D01*
X83229700Y-55282857D02*
X83277319Y-55140000D01*
X83277319Y-55140000D02*
X83277319Y-54901905D01*
X83277319Y-56425714D02*
X83277319Y-55854286D01*
X83277319Y-56140000D02*
X82277319Y-56140000D01*
X82277319Y-56140000D02*
X82420176Y-56044762D01*
X82420176Y-56044762D02*
X82515414Y-55949524D01*
X82515414Y-55949524D02*
X82563033Y-55854286D01*
X82957319Y-59188095D02*
X81957319Y-59188095D01*
X82957319Y-59759523D02*
X82385890Y-59330952D01*
X81957319Y-59759523D02*
X82528747Y-59188095D01*
X311877319Y-54425714D02*
X310877319Y-54425714D01*
X310877319Y-54425714D02*
X310877319Y-54663809D01*
X310877319Y-54663809D02*
X310924938Y-54806666D01*
X310924938Y-54806666D02*
X311020176Y-54901904D01*
X311020176Y-54901904D02*
X311115414Y-54949523D01*
X311115414Y-54949523D02*
X311305890Y-54997142D01*
X311305890Y-54997142D02*
X311448747Y-54997142D01*
X311448747Y-54997142D02*
X311639223Y-54949523D01*
X311639223Y-54949523D02*
X311734461Y-54901904D01*
X311734461Y-54901904D02*
X311829700Y-54806666D01*
X311829700Y-54806666D02*
X311877319Y-54663809D01*
X311877319Y-54663809D02*
X311877319Y-54425714D01*
X311877319Y-55949523D02*
X311877319Y-55378095D01*
X311877319Y-55663809D02*
X310877319Y-55663809D01*
X310877319Y-55663809D02*
X311020176Y-55568571D01*
X311020176Y-55568571D02*
X311115414Y-55473333D01*
X311115414Y-55473333D02*
X311163033Y-55378095D01*
X311210652Y-56806666D02*
X311877319Y-56806666D01*
X310829700Y-56568571D02*
X311543985Y-56330476D01*
X311543985Y-56330476D02*
X311543985Y-56949523D01*
X311557319Y-59188095D02*
X310557319Y-59188095D01*
X311557319Y-59759523D02*
X310985890Y-59330952D01*
X310557319Y-59759523D02*
X311128747Y-59188095D01*
X159477319Y-54901905D02*
X158477319Y-54901905D01*
X158477319Y-54901905D02*
X158477319Y-55140000D01*
X158477319Y-55140000D02*
X158524938Y-55282857D01*
X158524938Y-55282857D02*
X158620176Y-55378095D01*
X158620176Y-55378095D02*
X158715414Y-55425714D01*
X158715414Y-55425714D02*
X158905890Y-55473333D01*
X158905890Y-55473333D02*
X159048747Y-55473333D01*
X159048747Y-55473333D02*
X159239223Y-55425714D01*
X159239223Y-55425714D02*
X159334461Y-55378095D01*
X159334461Y-55378095D02*
X159429700Y-55282857D01*
X159429700Y-55282857D02*
X159477319Y-55140000D01*
X159477319Y-55140000D02*
X159477319Y-54901905D01*
X158477319Y-56330476D02*
X158477319Y-56140000D01*
X158477319Y-56140000D02*
X158524938Y-56044762D01*
X158524938Y-56044762D02*
X158572557Y-55997143D01*
X158572557Y-55997143D02*
X158715414Y-55901905D01*
X158715414Y-55901905D02*
X158905890Y-55854286D01*
X158905890Y-55854286D02*
X159286842Y-55854286D01*
X159286842Y-55854286D02*
X159382080Y-55901905D01*
X159382080Y-55901905D02*
X159429700Y-55949524D01*
X159429700Y-55949524D02*
X159477319Y-56044762D01*
X159477319Y-56044762D02*
X159477319Y-56235238D01*
X159477319Y-56235238D02*
X159429700Y-56330476D01*
X159429700Y-56330476D02*
X159382080Y-56378095D01*
X159382080Y-56378095D02*
X159286842Y-56425714D01*
X159286842Y-56425714D02*
X159048747Y-56425714D01*
X159048747Y-56425714D02*
X158953509Y-56378095D01*
X158953509Y-56378095D02*
X158905890Y-56330476D01*
X158905890Y-56330476D02*
X158858271Y-56235238D01*
X158858271Y-56235238D02*
X158858271Y-56044762D01*
X158858271Y-56044762D02*
X158905890Y-55949524D01*
X158905890Y-55949524D02*
X158953509Y-55901905D01*
X158953509Y-55901905D02*
X159048747Y-55854286D01*
X159157319Y-59188095D02*
X158157319Y-59188095D01*
X159157319Y-59759523D02*
X158585890Y-59330952D01*
X158157319Y-59759523D02*
X158728747Y-59188095D01*
X288064819Y-92525714D02*
X287064819Y-92525714D01*
X287064819Y-92525714D02*
X287064819Y-92763809D01*
X287064819Y-92763809D02*
X287112438Y-92906666D01*
X287112438Y-92906666D02*
X287207676Y-93001904D01*
X287207676Y-93001904D02*
X287302914Y-93049523D01*
X287302914Y-93049523D02*
X287493390Y-93097142D01*
X287493390Y-93097142D02*
X287636247Y-93097142D01*
X287636247Y-93097142D02*
X287826723Y-93049523D01*
X287826723Y-93049523D02*
X287921961Y-93001904D01*
X287921961Y-93001904D02*
X288017200Y-92906666D01*
X288017200Y-92906666D02*
X288064819Y-92763809D01*
X288064819Y-92763809D02*
X288064819Y-92525714D01*
X287064819Y-93430476D02*
X287064819Y-94049523D01*
X287064819Y-94049523D02*
X287445771Y-93716190D01*
X287445771Y-93716190D02*
X287445771Y-93859047D01*
X287445771Y-93859047D02*
X287493390Y-93954285D01*
X287493390Y-93954285D02*
X287541009Y-94001904D01*
X287541009Y-94001904D02*
X287636247Y-94049523D01*
X287636247Y-94049523D02*
X287874342Y-94049523D01*
X287874342Y-94049523D02*
X287969580Y-94001904D01*
X287969580Y-94001904D02*
X288017200Y-93954285D01*
X288017200Y-93954285D02*
X288064819Y-93859047D01*
X288064819Y-93859047D02*
X288064819Y-93573333D01*
X288064819Y-93573333D02*
X288017200Y-93478095D01*
X288017200Y-93478095D02*
X287969580Y-93430476D01*
X288064819Y-94525714D02*
X288064819Y-94716190D01*
X288064819Y-94716190D02*
X288017200Y-94811428D01*
X288017200Y-94811428D02*
X287969580Y-94859047D01*
X287969580Y-94859047D02*
X287826723Y-94954285D01*
X287826723Y-94954285D02*
X287636247Y-95001904D01*
X287636247Y-95001904D02*
X287255295Y-95001904D01*
X287255295Y-95001904D02*
X287160057Y-94954285D01*
X287160057Y-94954285D02*
X287112438Y-94906666D01*
X287112438Y-94906666D02*
X287064819Y-94811428D01*
X287064819Y-94811428D02*
X287064819Y-94620952D01*
X287064819Y-94620952D02*
X287112438Y-94525714D01*
X287112438Y-94525714D02*
X287160057Y-94478095D01*
X287160057Y-94478095D02*
X287255295Y-94430476D01*
X287255295Y-94430476D02*
X287493390Y-94430476D01*
X287493390Y-94430476D02*
X287588628Y-94478095D01*
X287588628Y-94478095D02*
X287636247Y-94525714D01*
X287636247Y-94525714D02*
X287683866Y-94620952D01*
X287683866Y-94620952D02*
X287683866Y-94811428D01*
X287683866Y-94811428D02*
X287636247Y-94906666D01*
X287636247Y-94906666D02*
X287588628Y-94954285D01*
X287588628Y-94954285D02*
X287493390Y-95001904D01*
X287744819Y-97288095D02*
X286744819Y-97288095D01*
X287744819Y-97859523D02*
X287173390Y-97430952D01*
X286744819Y-97859523D02*
X287316247Y-97288095D01*
X240439819Y-111575714D02*
X239439819Y-111575714D01*
X239439819Y-111575714D02*
X239439819Y-111813809D01*
X239439819Y-111813809D02*
X239487438Y-111956666D01*
X239487438Y-111956666D02*
X239582676Y-112051904D01*
X239582676Y-112051904D02*
X239677914Y-112099523D01*
X239677914Y-112099523D02*
X239868390Y-112147142D01*
X239868390Y-112147142D02*
X240011247Y-112147142D01*
X240011247Y-112147142D02*
X240201723Y-112099523D01*
X240201723Y-112099523D02*
X240296961Y-112051904D01*
X240296961Y-112051904D02*
X240392200Y-111956666D01*
X240392200Y-111956666D02*
X240439819Y-111813809D01*
X240439819Y-111813809D02*
X240439819Y-111575714D01*
X239773152Y-113004285D02*
X240439819Y-113004285D01*
X239392200Y-112766190D02*
X240106485Y-112528095D01*
X240106485Y-112528095D02*
X240106485Y-113147142D01*
X240439819Y-113575714D02*
X240439819Y-113766190D01*
X240439819Y-113766190D02*
X240392200Y-113861428D01*
X240392200Y-113861428D02*
X240344580Y-113909047D01*
X240344580Y-113909047D02*
X240201723Y-114004285D01*
X240201723Y-114004285D02*
X240011247Y-114051904D01*
X240011247Y-114051904D02*
X239630295Y-114051904D01*
X239630295Y-114051904D02*
X239535057Y-114004285D01*
X239535057Y-114004285D02*
X239487438Y-113956666D01*
X239487438Y-113956666D02*
X239439819Y-113861428D01*
X239439819Y-113861428D02*
X239439819Y-113670952D01*
X239439819Y-113670952D02*
X239487438Y-113575714D01*
X239487438Y-113575714D02*
X239535057Y-113528095D01*
X239535057Y-113528095D02*
X239630295Y-113480476D01*
X239630295Y-113480476D02*
X239868390Y-113480476D01*
X239868390Y-113480476D02*
X239963628Y-113528095D01*
X239963628Y-113528095D02*
X240011247Y-113575714D01*
X240011247Y-113575714D02*
X240058866Y-113670952D01*
X240058866Y-113670952D02*
X240058866Y-113861428D01*
X240058866Y-113861428D02*
X240011247Y-113956666D01*
X240011247Y-113956666D02*
X239963628Y-114004285D01*
X239963628Y-114004285D02*
X239868390Y-114051904D01*
X240119819Y-116338095D02*
X239119819Y-116338095D01*
X240119819Y-116909523D02*
X239548390Y-116480952D01*
X239119819Y-116909523D02*
X239691247Y-116338095D01*
X130902319Y-73475714D02*
X129902319Y-73475714D01*
X129902319Y-73475714D02*
X129902319Y-73713809D01*
X129902319Y-73713809D02*
X129949938Y-73856666D01*
X129949938Y-73856666D02*
X130045176Y-73951904D01*
X130045176Y-73951904D02*
X130140414Y-73999523D01*
X130140414Y-73999523D02*
X130330890Y-74047142D01*
X130330890Y-74047142D02*
X130473747Y-74047142D01*
X130473747Y-74047142D02*
X130664223Y-73999523D01*
X130664223Y-73999523D02*
X130759461Y-73951904D01*
X130759461Y-73951904D02*
X130854700Y-73856666D01*
X130854700Y-73856666D02*
X130902319Y-73713809D01*
X130902319Y-73713809D02*
X130902319Y-73475714D01*
X130902319Y-74999523D02*
X130902319Y-74428095D01*
X130902319Y-74713809D02*
X129902319Y-74713809D01*
X129902319Y-74713809D02*
X130045176Y-74618571D01*
X130045176Y-74618571D02*
X130140414Y-74523333D01*
X130140414Y-74523333D02*
X130188033Y-74428095D01*
X129902319Y-75332857D02*
X129902319Y-75999523D01*
X129902319Y-75999523D02*
X130902319Y-75570952D01*
X130582319Y-78238095D02*
X129582319Y-78238095D01*
X130582319Y-78809523D02*
X130010890Y-78380952D01*
X129582319Y-78809523D02*
X130153747Y-78238095D01*
X145189819Y-111575714D02*
X144189819Y-111575714D01*
X144189819Y-111575714D02*
X144189819Y-111813809D01*
X144189819Y-111813809D02*
X144237438Y-111956666D01*
X144237438Y-111956666D02*
X144332676Y-112051904D01*
X144332676Y-112051904D02*
X144427914Y-112099523D01*
X144427914Y-112099523D02*
X144618390Y-112147142D01*
X144618390Y-112147142D02*
X144761247Y-112147142D01*
X144761247Y-112147142D02*
X144951723Y-112099523D01*
X144951723Y-112099523D02*
X145046961Y-112051904D01*
X145046961Y-112051904D02*
X145142200Y-111956666D01*
X145142200Y-111956666D02*
X145189819Y-111813809D01*
X145189819Y-111813809D02*
X145189819Y-111575714D01*
X144523152Y-113004285D02*
X145189819Y-113004285D01*
X144142200Y-112766190D02*
X144856485Y-112528095D01*
X144856485Y-112528095D02*
X144856485Y-113147142D01*
X144523152Y-113956666D02*
X145189819Y-113956666D01*
X144142200Y-113718571D02*
X144856485Y-113480476D01*
X144856485Y-113480476D02*
X144856485Y-114099523D01*
X144869819Y-116338095D02*
X143869819Y-116338095D01*
X144869819Y-116909523D02*
X144298390Y-116480952D01*
X143869819Y-116909523D02*
X144441247Y-116338095D01*
X183289819Y-111575714D02*
X182289819Y-111575714D01*
X182289819Y-111575714D02*
X182289819Y-111813809D01*
X182289819Y-111813809D02*
X182337438Y-111956666D01*
X182337438Y-111956666D02*
X182432676Y-112051904D01*
X182432676Y-112051904D02*
X182527914Y-112099523D01*
X182527914Y-112099523D02*
X182718390Y-112147142D01*
X182718390Y-112147142D02*
X182861247Y-112147142D01*
X182861247Y-112147142D02*
X183051723Y-112099523D01*
X183051723Y-112099523D02*
X183146961Y-112051904D01*
X183146961Y-112051904D02*
X183242200Y-111956666D01*
X183242200Y-111956666D02*
X183289819Y-111813809D01*
X183289819Y-111813809D02*
X183289819Y-111575714D01*
X182623152Y-113004285D02*
X183289819Y-113004285D01*
X182242200Y-112766190D02*
X182956485Y-112528095D01*
X182956485Y-112528095D02*
X182956485Y-113147142D01*
X182289819Y-113956666D02*
X182289819Y-113766190D01*
X182289819Y-113766190D02*
X182337438Y-113670952D01*
X182337438Y-113670952D02*
X182385057Y-113623333D01*
X182385057Y-113623333D02*
X182527914Y-113528095D01*
X182527914Y-113528095D02*
X182718390Y-113480476D01*
X182718390Y-113480476D02*
X183099342Y-113480476D01*
X183099342Y-113480476D02*
X183194580Y-113528095D01*
X183194580Y-113528095D02*
X183242200Y-113575714D01*
X183242200Y-113575714D02*
X183289819Y-113670952D01*
X183289819Y-113670952D02*
X183289819Y-113861428D01*
X183289819Y-113861428D02*
X183242200Y-113956666D01*
X183242200Y-113956666D02*
X183194580Y-114004285D01*
X183194580Y-114004285D02*
X183099342Y-114051904D01*
X183099342Y-114051904D02*
X182861247Y-114051904D01*
X182861247Y-114051904D02*
X182766009Y-114004285D01*
X182766009Y-114004285D02*
X182718390Y-113956666D01*
X182718390Y-113956666D02*
X182670771Y-113861428D01*
X182670771Y-113861428D02*
X182670771Y-113670952D01*
X182670771Y-113670952D02*
X182718390Y-113575714D01*
X182718390Y-113575714D02*
X182766009Y-113528095D01*
X182766009Y-113528095D02*
X182861247Y-113480476D01*
X182969819Y-116338095D02*
X181969819Y-116338095D01*
X182969819Y-116909523D02*
X182398390Y-116480952D01*
X181969819Y-116909523D02*
X182541247Y-116338095D01*
X102327319Y-54901905D02*
X101327319Y-54901905D01*
X101327319Y-54901905D02*
X101327319Y-55140000D01*
X101327319Y-55140000D02*
X101374938Y-55282857D01*
X101374938Y-55282857D02*
X101470176Y-55378095D01*
X101470176Y-55378095D02*
X101565414Y-55425714D01*
X101565414Y-55425714D02*
X101755890Y-55473333D01*
X101755890Y-55473333D02*
X101898747Y-55473333D01*
X101898747Y-55473333D02*
X102089223Y-55425714D01*
X102089223Y-55425714D02*
X102184461Y-55378095D01*
X102184461Y-55378095D02*
X102279700Y-55282857D01*
X102279700Y-55282857D02*
X102327319Y-55140000D01*
X102327319Y-55140000D02*
X102327319Y-54901905D01*
X101422557Y-55854286D02*
X101374938Y-55901905D01*
X101374938Y-55901905D02*
X101327319Y-55997143D01*
X101327319Y-55997143D02*
X101327319Y-56235238D01*
X101327319Y-56235238D02*
X101374938Y-56330476D01*
X101374938Y-56330476D02*
X101422557Y-56378095D01*
X101422557Y-56378095D02*
X101517795Y-56425714D01*
X101517795Y-56425714D02*
X101613033Y-56425714D01*
X101613033Y-56425714D02*
X101755890Y-56378095D01*
X101755890Y-56378095D02*
X102327319Y-55806667D01*
X102327319Y-55806667D02*
X102327319Y-56425714D01*
X102007319Y-59188095D02*
X101007319Y-59188095D01*
X102007319Y-59759523D02*
X101435890Y-59330952D01*
X101007319Y-59759523D02*
X101578747Y-59188095D01*
X204721069Y-130625714D02*
X203721069Y-130625714D01*
X203721069Y-130625714D02*
X203721069Y-130863809D01*
X203721069Y-130863809D02*
X203768688Y-131006666D01*
X203768688Y-131006666D02*
X203863926Y-131101904D01*
X203863926Y-131101904D02*
X203959164Y-131149523D01*
X203959164Y-131149523D02*
X204149640Y-131197142D01*
X204149640Y-131197142D02*
X204292497Y-131197142D01*
X204292497Y-131197142D02*
X204482973Y-131149523D01*
X204482973Y-131149523D02*
X204578211Y-131101904D01*
X204578211Y-131101904D02*
X204673450Y-131006666D01*
X204673450Y-131006666D02*
X204721069Y-130863809D01*
X204721069Y-130863809D02*
X204721069Y-130625714D01*
X203721069Y-132101904D02*
X203721069Y-131625714D01*
X203721069Y-131625714D02*
X204197259Y-131578095D01*
X204197259Y-131578095D02*
X204149640Y-131625714D01*
X204149640Y-131625714D02*
X204102021Y-131720952D01*
X204102021Y-131720952D02*
X204102021Y-131959047D01*
X204102021Y-131959047D02*
X204149640Y-132054285D01*
X204149640Y-132054285D02*
X204197259Y-132101904D01*
X204197259Y-132101904D02*
X204292497Y-132149523D01*
X204292497Y-132149523D02*
X204530592Y-132149523D01*
X204530592Y-132149523D02*
X204625830Y-132101904D01*
X204625830Y-132101904D02*
X204673450Y-132054285D01*
X204673450Y-132054285D02*
X204721069Y-131959047D01*
X204721069Y-131959047D02*
X204721069Y-131720952D01*
X204721069Y-131720952D02*
X204673450Y-131625714D01*
X204673450Y-131625714D02*
X204625830Y-131578095D01*
X203721069Y-132482857D02*
X203721069Y-133149523D01*
X203721069Y-133149523D02*
X204721069Y-132720952D01*
X204401069Y-135388095D02*
X203401069Y-135388095D01*
X204401069Y-135959523D02*
X203829640Y-135530952D01*
X203401069Y-135959523D02*
X203972497Y-135388095D01*
X264252319Y-73475714D02*
X263252319Y-73475714D01*
X263252319Y-73475714D02*
X263252319Y-73713809D01*
X263252319Y-73713809D02*
X263299938Y-73856666D01*
X263299938Y-73856666D02*
X263395176Y-73951904D01*
X263395176Y-73951904D02*
X263490414Y-73999523D01*
X263490414Y-73999523D02*
X263680890Y-74047142D01*
X263680890Y-74047142D02*
X263823747Y-74047142D01*
X263823747Y-74047142D02*
X264014223Y-73999523D01*
X264014223Y-73999523D02*
X264109461Y-73951904D01*
X264109461Y-73951904D02*
X264204700Y-73856666D01*
X264204700Y-73856666D02*
X264252319Y-73713809D01*
X264252319Y-73713809D02*
X264252319Y-73475714D01*
X263347557Y-74428095D02*
X263299938Y-74475714D01*
X263299938Y-74475714D02*
X263252319Y-74570952D01*
X263252319Y-74570952D02*
X263252319Y-74809047D01*
X263252319Y-74809047D02*
X263299938Y-74904285D01*
X263299938Y-74904285D02*
X263347557Y-74951904D01*
X263347557Y-74951904D02*
X263442795Y-74999523D01*
X263442795Y-74999523D02*
X263538033Y-74999523D01*
X263538033Y-74999523D02*
X263680890Y-74951904D01*
X263680890Y-74951904D02*
X264252319Y-74380476D01*
X264252319Y-74380476D02*
X264252319Y-74999523D01*
X263585652Y-75856666D02*
X264252319Y-75856666D01*
X263204700Y-75618571D02*
X263918985Y-75380476D01*
X263918985Y-75380476D02*
X263918985Y-75999523D01*
X263932319Y-78238095D02*
X262932319Y-78238095D01*
X263932319Y-78809523D02*
X263360890Y-78380952D01*
X262932319Y-78809523D02*
X263503747Y-78238095D01*
X226152319Y-73475714D02*
X225152319Y-73475714D01*
X225152319Y-73475714D02*
X225152319Y-73713809D01*
X225152319Y-73713809D02*
X225199938Y-73856666D01*
X225199938Y-73856666D02*
X225295176Y-73951904D01*
X225295176Y-73951904D02*
X225390414Y-73999523D01*
X225390414Y-73999523D02*
X225580890Y-74047142D01*
X225580890Y-74047142D02*
X225723747Y-74047142D01*
X225723747Y-74047142D02*
X225914223Y-73999523D01*
X225914223Y-73999523D02*
X226009461Y-73951904D01*
X226009461Y-73951904D02*
X226104700Y-73856666D01*
X226104700Y-73856666D02*
X226152319Y-73713809D01*
X226152319Y-73713809D02*
X226152319Y-73475714D01*
X225247557Y-74428095D02*
X225199938Y-74475714D01*
X225199938Y-74475714D02*
X225152319Y-74570952D01*
X225152319Y-74570952D02*
X225152319Y-74809047D01*
X225152319Y-74809047D02*
X225199938Y-74904285D01*
X225199938Y-74904285D02*
X225247557Y-74951904D01*
X225247557Y-74951904D02*
X225342795Y-74999523D01*
X225342795Y-74999523D02*
X225438033Y-74999523D01*
X225438033Y-74999523D02*
X225580890Y-74951904D01*
X225580890Y-74951904D02*
X226152319Y-74380476D01*
X226152319Y-74380476D02*
X226152319Y-74999523D01*
X225247557Y-75380476D02*
X225199938Y-75428095D01*
X225199938Y-75428095D02*
X225152319Y-75523333D01*
X225152319Y-75523333D02*
X225152319Y-75761428D01*
X225152319Y-75761428D02*
X225199938Y-75856666D01*
X225199938Y-75856666D02*
X225247557Y-75904285D01*
X225247557Y-75904285D02*
X225342795Y-75951904D01*
X225342795Y-75951904D02*
X225438033Y-75951904D01*
X225438033Y-75951904D02*
X225580890Y-75904285D01*
X225580890Y-75904285D02*
X226152319Y-75332857D01*
X226152319Y-75332857D02*
X226152319Y-75951904D01*
X225832319Y-78238095D02*
X224832319Y-78238095D01*
X225832319Y-78809523D02*
X225260890Y-78380952D01*
X224832319Y-78809523D02*
X225403747Y-78238095D01*
X269014819Y-92525714D02*
X268014819Y-92525714D01*
X268014819Y-92525714D02*
X268014819Y-92763809D01*
X268014819Y-92763809D02*
X268062438Y-92906666D01*
X268062438Y-92906666D02*
X268157676Y-93001904D01*
X268157676Y-93001904D02*
X268252914Y-93049523D01*
X268252914Y-93049523D02*
X268443390Y-93097142D01*
X268443390Y-93097142D02*
X268586247Y-93097142D01*
X268586247Y-93097142D02*
X268776723Y-93049523D01*
X268776723Y-93049523D02*
X268871961Y-93001904D01*
X268871961Y-93001904D02*
X268967200Y-92906666D01*
X268967200Y-92906666D02*
X269014819Y-92763809D01*
X269014819Y-92763809D02*
X269014819Y-92525714D01*
X268014819Y-93430476D02*
X268014819Y-94049523D01*
X268014819Y-94049523D02*
X268395771Y-93716190D01*
X268395771Y-93716190D02*
X268395771Y-93859047D01*
X268395771Y-93859047D02*
X268443390Y-93954285D01*
X268443390Y-93954285D02*
X268491009Y-94001904D01*
X268491009Y-94001904D02*
X268586247Y-94049523D01*
X268586247Y-94049523D02*
X268824342Y-94049523D01*
X268824342Y-94049523D02*
X268919580Y-94001904D01*
X268919580Y-94001904D02*
X268967200Y-93954285D01*
X268967200Y-93954285D02*
X269014819Y-93859047D01*
X269014819Y-93859047D02*
X269014819Y-93573333D01*
X269014819Y-93573333D02*
X268967200Y-93478095D01*
X268967200Y-93478095D02*
X268919580Y-93430476D01*
X268443390Y-94620952D02*
X268395771Y-94525714D01*
X268395771Y-94525714D02*
X268348152Y-94478095D01*
X268348152Y-94478095D02*
X268252914Y-94430476D01*
X268252914Y-94430476D02*
X268205295Y-94430476D01*
X268205295Y-94430476D02*
X268110057Y-94478095D01*
X268110057Y-94478095D02*
X268062438Y-94525714D01*
X268062438Y-94525714D02*
X268014819Y-94620952D01*
X268014819Y-94620952D02*
X268014819Y-94811428D01*
X268014819Y-94811428D02*
X268062438Y-94906666D01*
X268062438Y-94906666D02*
X268110057Y-94954285D01*
X268110057Y-94954285D02*
X268205295Y-95001904D01*
X268205295Y-95001904D02*
X268252914Y-95001904D01*
X268252914Y-95001904D02*
X268348152Y-94954285D01*
X268348152Y-94954285D02*
X268395771Y-94906666D01*
X268395771Y-94906666D02*
X268443390Y-94811428D01*
X268443390Y-94811428D02*
X268443390Y-94620952D01*
X268443390Y-94620952D02*
X268491009Y-94525714D01*
X268491009Y-94525714D02*
X268538628Y-94478095D01*
X268538628Y-94478095D02*
X268633866Y-94430476D01*
X268633866Y-94430476D02*
X268824342Y-94430476D01*
X268824342Y-94430476D02*
X268919580Y-94478095D01*
X268919580Y-94478095D02*
X268967200Y-94525714D01*
X268967200Y-94525714D02*
X269014819Y-94620952D01*
X269014819Y-94620952D02*
X269014819Y-94811428D01*
X269014819Y-94811428D02*
X268967200Y-94906666D01*
X268967200Y-94906666D02*
X268919580Y-94954285D01*
X268919580Y-94954285D02*
X268824342Y-95001904D01*
X268824342Y-95001904D02*
X268633866Y-95001904D01*
X268633866Y-95001904D02*
X268538628Y-94954285D01*
X268538628Y-94954285D02*
X268491009Y-94906666D01*
X268491009Y-94906666D02*
X268443390Y-94811428D01*
X268694819Y-97288095D02*
X267694819Y-97288095D01*
X268694819Y-97859523D02*
X268123390Y-97430952D01*
X267694819Y-97859523D02*
X268266247Y-97288095D01*
X249964819Y-92525714D02*
X248964819Y-92525714D01*
X248964819Y-92525714D02*
X248964819Y-92763809D01*
X248964819Y-92763809D02*
X249012438Y-92906666D01*
X249012438Y-92906666D02*
X249107676Y-93001904D01*
X249107676Y-93001904D02*
X249202914Y-93049523D01*
X249202914Y-93049523D02*
X249393390Y-93097142D01*
X249393390Y-93097142D02*
X249536247Y-93097142D01*
X249536247Y-93097142D02*
X249726723Y-93049523D01*
X249726723Y-93049523D02*
X249821961Y-93001904D01*
X249821961Y-93001904D02*
X249917200Y-92906666D01*
X249917200Y-92906666D02*
X249964819Y-92763809D01*
X249964819Y-92763809D02*
X249964819Y-92525714D01*
X248964819Y-93430476D02*
X248964819Y-94049523D01*
X248964819Y-94049523D02*
X249345771Y-93716190D01*
X249345771Y-93716190D02*
X249345771Y-93859047D01*
X249345771Y-93859047D02*
X249393390Y-93954285D01*
X249393390Y-93954285D02*
X249441009Y-94001904D01*
X249441009Y-94001904D02*
X249536247Y-94049523D01*
X249536247Y-94049523D02*
X249774342Y-94049523D01*
X249774342Y-94049523D02*
X249869580Y-94001904D01*
X249869580Y-94001904D02*
X249917200Y-93954285D01*
X249917200Y-93954285D02*
X249964819Y-93859047D01*
X249964819Y-93859047D02*
X249964819Y-93573333D01*
X249964819Y-93573333D02*
X249917200Y-93478095D01*
X249917200Y-93478095D02*
X249869580Y-93430476D01*
X248964819Y-94382857D02*
X248964819Y-95049523D01*
X248964819Y-95049523D02*
X249964819Y-94620952D01*
X249644819Y-97288095D02*
X248644819Y-97288095D01*
X249644819Y-97859523D02*
X249073390Y-97430952D01*
X248644819Y-97859523D02*
X249216247Y-97288095D01*
X323783569Y-130625714D02*
X322783569Y-130625714D01*
X322783569Y-130625714D02*
X322783569Y-130863809D01*
X322783569Y-130863809D02*
X322831188Y-131006666D01*
X322831188Y-131006666D02*
X322926426Y-131101904D01*
X322926426Y-131101904D02*
X323021664Y-131149523D01*
X323021664Y-131149523D02*
X323212140Y-131197142D01*
X323212140Y-131197142D02*
X323354997Y-131197142D01*
X323354997Y-131197142D02*
X323545473Y-131149523D01*
X323545473Y-131149523D02*
X323640711Y-131101904D01*
X323640711Y-131101904D02*
X323735950Y-131006666D01*
X323735950Y-131006666D02*
X323783569Y-130863809D01*
X323783569Y-130863809D02*
X323783569Y-130625714D01*
X322783569Y-132054285D02*
X322783569Y-131863809D01*
X322783569Y-131863809D02*
X322831188Y-131768571D01*
X322831188Y-131768571D02*
X322878807Y-131720952D01*
X322878807Y-131720952D02*
X323021664Y-131625714D01*
X323021664Y-131625714D02*
X323212140Y-131578095D01*
X323212140Y-131578095D02*
X323593092Y-131578095D01*
X323593092Y-131578095D02*
X323688330Y-131625714D01*
X323688330Y-131625714D02*
X323735950Y-131673333D01*
X323735950Y-131673333D02*
X323783569Y-131768571D01*
X323783569Y-131768571D02*
X323783569Y-131959047D01*
X323783569Y-131959047D02*
X323735950Y-132054285D01*
X323735950Y-132054285D02*
X323688330Y-132101904D01*
X323688330Y-132101904D02*
X323593092Y-132149523D01*
X323593092Y-132149523D02*
X323354997Y-132149523D01*
X323354997Y-132149523D02*
X323259759Y-132101904D01*
X323259759Y-132101904D02*
X323212140Y-132054285D01*
X323212140Y-132054285D02*
X323164521Y-131959047D01*
X323164521Y-131959047D02*
X323164521Y-131768571D01*
X323164521Y-131768571D02*
X323212140Y-131673333D01*
X323212140Y-131673333D02*
X323259759Y-131625714D01*
X323259759Y-131625714D02*
X323354997Y-131578095D01*
X322783569Y-132768571D02*
X322783569Y-132863809D01*
X322783569Y-132863809D02*
X322831188Y-132959047D01*
X322831188Y-132959047D02*
X322878807Y-133006666D01*
X322878807Y-133006666D02*
X322974045Y-133054285D01*
X322974045Y-133054285D02*
X323164521Y-133101904D01*
X323164521Y-133101904D02*
X323402616Y-133101904D01*
X323402616Y-133101904D02*
X323593092Y-133054285D01*
X323593092Y-133054285D02*
X323688330Y-133006666D01*
X323688330Y-133006666D02*
X323735950Y-132959047D01*
X323735950Y-132959047D02*
X323783569Y-132863809D01*
X323783569Y-132863809D02*
X323783569Y-132768571D01*
X323783569Y-132768571D02*
X323735950Y-132673333D01*
X323735950Y-132673333D02*
X323688330Y-132625714D01*
X323688330Y-132625714D02*
X323593092Y-132578095D01*
X323593092Y-132578095D02*
X323402616Y-132530476D01*
X323402616Y-132530476D02*
X323164521Y-132530476D01*
X323164521Y-132530476D02*
X322974045Y-132578095D01*
X322974045Y-132578095D02*
X322878807Y-132625714D01*
X322878807Y-132625714D02*
X322831188Y-132673333D01*
X322831188Y-132673333D02*
X322783569Y-132768571D01*
X323463569Y-135388095D02*
X322463569Y-135388095D01*
X323463569Y-135959523D02*
X322892140Y-135530952D01*
X322463569Y-135959523D02*
X323034997Y-135388095D01*
X173764819Y-92525714D02*
X172764819Y-92525714D01*
X172764819Y-92525714D02*
X172764819Y-92763809D01*
X172764819Y-92763809D02*
X172812438Y-92906666D01*
X172812438Y-92906666D02*
X172907676Y-93001904D01*
X172907676Y-93001904D02*
X173002914Y-93049523D01*
X173002914Y-93049523D02*
X173193390Y-93097142D01*
X173193390Y-93097142D02*
X173336247Y-93097142D01*
X173336247Y-93097142D02*
X173526723Y-93049523D01*
X173526723Y-93049523D02*
X173621961Y-93001904D01*
X173621961Y-93001904D02*
X173717200Y-92906666D01*
X173717200Y-92906666D02*
X173764819Y-92763809D01*
X173764819Y-92763809D02*
X173764819Y-92525714D01*
X172764819Y-93430476D02*
X172764819Y-94049523D01*
X172764819Y-94049523D02*
X173145771Y-93716190D01*
X173145771Y-93716190D02*
X173145771Y-93859047D01*
X173145771Y-93859047D02*
X173193390Y-93954285D01*
X173193390Y-93954285D02*
X173241009Y-94001904D01*
X173241009Y-94001904D02*
X173336247Y-94049523D01*
X173336247Y-94049523D02*
X173574342Y-94049523D01*
X173574342Y-94049523D02*
X173669580Y-94001904D01*
X173669580Y-94001904D02*
X173717200Y-93954285D01*
X173717200Y-93954285D02*
X173764819Y-93859047D01*
X173764819Y-93859047D02*
X173764819Y-93573333D01*
X173764819Y-93573333D02*
X173717200Y-93478095D01*
X173717200Y-93478095D02*
X173669580Y-93430476D01*
X172764819Y-94382857D02*
X172764819Y-95001904D01*
X172764819Y-95001904D02*
X173145771Y-94668571D01*
X173145771Y-94668571D02*
X173145771Y-94811428D01*
X173145771Y-94811428D02*
X173193390Y-94906666D01*
X173193390Y-94906666D02*
X173241009Y-94954285D01*
X173241009Y-94954285D02*
X173336247Y-95001904D01*
X173336247Y-95001904D02*
X173574342Y-95001904D01*
X173574342Y-95001904D02*
X173669580Y-94954285D01*
X173669580Y-94954285D02*
X173717200Y-94906666D01*
X173717200Y-94906666D02*
X173764819Y-94811428D01*
X173764819Y-94811428D02*
X173764819Y-94525714D01*
X173764819Y-94525714D02*
X173717200Y-94430476D01*
X173717200Y-94430476D02*
X173669580Y-94382857D01*
X173444819Y-97288095D02*
X172444819Y-97288095D01*
X173444819Y-97859523D02*
X172873390Y-97430952D01*
X172444819Y-97859523D02*
X173016247Y-97288095D01*
X340452319Y-54901905D02*
X339452319Y-54901905D01*
X339452319Y-54901905D02*
X339452319Y-55140000D01*
X339452319Y-55140000D02*
X339499938Y-55282857D01*
X339499938Y-55282857D02*
X339595176Y-55378095D01*
X339595176Y-55378095D02*
X339690414Y-55425714D01*
X339690414Y-55425714D02*
X339880890Y-55473333D01*
X339880890Y-55473333D02*
X340023747Y-55473333D01*
X340023747Y-55473333D02*
X340214223Y-55425714D01*
X340214223Y-55425714D02*
X340309461Y-55378095D01*
X340309461Y-55378095D02*
X340404700Y-55282857D01*
X340404700Y-55282857D02*
X340452319Y-55140000D01*
X340452319Y-55140000D02*
X340452319Y-54901905D01*
X339452319Y-56378095D02*
X339452319Y-55901905D01*
X339452319Y-55901905D02*
X339928509Y-55854286D01*
X339928509Y-55854286D02*
X339880890Y-55901905D01*
X339880890Y-55901905D02*
X339833271Y-55997143D01*
X339833271Y-55997143D02*
X339833271Y-56235238D01*
X339833271Y-56235238D02*
X339880890Y-56330476D01*
X339880890Y-56330476D02*
X339928509Y-56378095D01*
X339928509Y-56378095D02*
X340023747Y-56425714D01*
X340023747Y-56425714D02*
X340261842Y-56425714D01*
X340261842Y-56425714D02*
X340357080Y-56378095D01*
X340357080Y-56378095D02*
X340404700Y-56330476D01*
X340404700Y-56330476D02*
X340452319Y-56235238D01*
X340452319Y-56235238D02*
X340452319Y-55997143D01*
X340452319Y-55997143D02*
X340404700Y-55901905D01*
X340404700Y-55901905D02*
X340357080Y-55854286D01*
X340132319Y-59188095D02*
X339132319Y-59188095D01*
X340132319Y-59759523D02*
X339560890Y-59330952D01*
X339132319Y-59759523D02*
X339703747Y-59188095D01*
X245202319Y-73475714D02*
X244202319Y-73475714D01*
X244202319Y-73475714D02*
X244202319Y-73713809D01*
X244202319Y-73713809D02*
X244249938Y-73856666D01*
X244249938Y-73856666D02*
X244345176Y-73951904D01*
X244345176Y-73951904D02*
X244440414Y-73999523D01*
X244440414Y-73999523D02*
X244630890Y-74047142D01*
X244630890Y-74047142D02*
X244773747Y-74047142D01*
X244773747Y-74047142D02*
X244964223Y-73999523D01*
X244964223Y-73999523D02*
X245059461Y-73951904D01*
X245059461Y-73951904D02*
X245154700Y-73856666D01*
X245154700Y-73856666D02*
X245202319Y-73713809D01*
X245202319Y-73713809D02*
X245202319Y-73475714D01*
X244297557Y-74428095D02*
X244249938Y-74475714D01*
X244249938Y-74475714D02*
X244202319Y-74570952D01*
X244202319Y-74570952D02*
X244202319Y-74809047D01*
X244202319Y-74809047D02*
X244249938Y-74904285D01*
X244249938Y-74904285D02*
X244297557Y-74951904D01*
X244297557Y-74951904D02*
X244392795Y-74999523D01*
X244392795Y-74999523D02*
X244488033Y-74999523D01*
X244488033Y-74999523D02*
X244630890Y-74951904D01*
X244630890Y-74951904D02*
X245202319Y-74380476D01*
X245202319Y-74380476D02*
X245202319Y-74999523D01*
X244202319Y-75332857D02*
X244202319Y-75951904D01*
X244202319Y-75951904D02*
X244583271Y-75618571D01*
X244583271Y-75618571D02*
X244583271Y-75761428D01*
X244583271Y-75761428D02*
X244630890Y-75856666D01*
X244630890Y-75856666D02*
X244678509Y-75904285D01*
X244678509Y-75904285D02*
X244773747Y-75951904D01*
X244773747Y-75951904D02*
X245011842Y-75951904D01*
X245011842Y-75951904D02*
X245107080Y-75904285D01*
X245107080Y-75904285D02*
X245154700Y-75856666D01*
X245154700Y-75856666D02*
X245202319Y-75761428D01*
X245202319Y-75761428D02*
X245202319Y-75475714D01*
X245202319Y-75475714D02*
X245154700Y-75380476D01*
X245154700Y-75380476D02*
X245107080Y-75332857D01*
X244882319Y-78238095D02*
X243882319Y-78238095D01*
X244882319Y-78809523D02*
X244310890Y-78380952D01*
X243882319Y-78809523D02*
X244453747Y-78238095D01*
X302352319Y-73475714D02*
X301352319Y-73475714D01*
X301352319Y-73475714D02*
X301352319Y-73713809D01*
X301352319Y-73713809D02*
X301399938Y-73856666D01*
X301399938Y-73856666D02*
X301495176Y-73951904D01*
X301495176Y-73951904D02*
X301590414Y-73999523D01*
X301590414Y-73999523D02*
X301780890Y-74047142D01*
X301780890Y-74047142D02*
X301923747Y-74047142D01*
X301923747Y-74047142D02*
X302114223Y-73999523D01*
X302114223Y-73999523D02*
X302209461Y-73951904D01*
X302209461Y-73951904D02*
X302304700Y-73856666D01*
X302304700Y-73856666D02*
X302352319Y-73713809D01*
X302352319Y-73713809D02*
X302352319Y-73475714D01*
X301447557Y-74428095D02*
X301399938Y-74475714D01*
X301399938Y-74475714D02*
X301352319Y-74570952D01*
X301352319Y-74570952D02*
X301352319Y-74809047D01*
X301352319Y-74809047D02*
X301399938Y-74904285D01*
X301399938Y-74904285D02*
X301447557Y-74951904D01*
X301447557Y-74951904D02*
X301542795Y-74999523D01*
X301542795Y-74999523D02*
X301638033Y-74999523D01*
X301638033Y-74999523D02*
X301780890Y-74951904D01*
X301780890Y-74951904D02*
X302352319Y-74380476D01*
X302352319Y-74380476D02*
X302352319Y-74999523D01*
X301352319Y-75856666D02*
X301352319Y-75666190D01*
X301352319Y-75666190D02*
X301399938Y-75570952D01*
X301399938Y-75570952D02*
X301447557Y-75523333D01*
X301447557Y-75523333D02*
X301590414Y-75428095D01*
X301590414Y-75428095D02*
X301780890Y-75380476D01*
X301780890Y-75380476D02*
X302161842Y-75380476D01*
X302161842Y-75380476D02*
X302257080Y-75428095D01*
X302257080Y-75428095D02*
X302304700Y-75475714D01*
X302304700Y-75475714D02*
X302352319Y-75570952D01*
X302352319Y-75570952D02*
X302352319Y-75761428D01*
X302352319Y-75761428D02*
X302304700Y-75856666D01*
X302304700Y-75856666D02*
X302257080Y-75904285D01*
X302257080Y-75904285D02*
X302161842Y-75951904D01*
X302161842Y-75951904D02*
X301923747Y-75951904D01*
X301923747Y-75951904D02*
X301828509Y-75904285D01*
X301828509Y-75904285D02*
X301780890Y-75856666D01*
X301780890Y-75856666D02*
X301733271Y-75761428D01*
X301733271Y-75761428D02*
X301733271Y-75570952D01*
X301733271Y-75570952D02*
X301780890Y-75475714D01*
X301780890Y-75475714D02*
X301828509Y-75428095D01*
X301828509Y-75428095D02*
X301923747Y-75380476D01*
X302032319Y-78238095D02*
X301032319Y-78238095D01*
X302032319Y-78809523D02*
X301460890Y-78380952D01*
X301032319Y-78809523D02*
X301603747Y-78238095D01*
X121377319Y-54901905D02*
X120377319Y-54901905D01*
X120377319Y-54901905D02*
X120377319Y-55140000D01*
X120377319Y-55140000D02*
X120424938Y-55282857D01*
X120424938Y-55282857D02*
X120520176Y-55378095D01*
X120520176Y-55378095D02*
X120615414Y-55425714D01*
X120615414Y-55425714D02*
X120805890Y-55473333D01*
X120805890Y-55473333D02*
X120948747Y-55473333D01*
X120948747Y-55473333D02*
X121139223Y-55425714D01*
X121139223Y-55425714D02*
X121234461Y-55378095D01*
X121234461Y-55378095D02*
X121329700Y-55282857D01*
X121329700Y-55282857D02*
X121377319Y-55140000D01*
X121377319Y-55140000D02*
X121377319Y-54901905D01*
X120377319Y-55806667D02*
X120377319Y-56425714D01*
X120377319Y-56425714D02*
X120758271Y-56092381D01*
X120758271Y-56092381D02*
X120758271Y-56235238D01*
X120758271Y-56235238D02*
X120805890Y-56330476D01*
X120805890Y-56330476D02*
X120853509Y-56378095D01*
X120853509Y-56378095D02*
X120948747Y-56425714D01*
X120948747Y-56425714D02*
X121186842Y-56425714D01*
X121186842Y-56425714D02*
X121282080Y-56378095D01*
X121282080Y-56378095D02*
X121329700Y-56330476D01*
X121329700Y-56330476D02*
X121377319Y-56235238D01*
X121377319Y-56235238D02*
X121377319Y-55949524D01*
X121377319Y-55949524D02*
X121329700Y-55854286D01*
X121329700Y-55854286D02*
X121282080Y-55806667D01*
X121057319Y-59188095D02*
X120057319Y-59188095D01*
X121057319Y-59759523D02*
X120485890Y-59330952D01*
X120057319Y-59759523D02*
X120628747Y-59188095D01*
X109471069Y-130625714D02*
X108471069Y-130625714D01*
X108471069Y-130625714D02*
X108471069Y-130863809D01*
X108471069Y-130863809D02*
X108518688Y-131006666D01*
X108518688Y-131006666D02*
X108613926Y-131101904D01*
X108613926Y-131101904D02*
X108709164Y-131149523D01*
X108709164Y-131149523D02*
X108899640Y-131197142D01*
X108899640Y-131197142D02*
X109042497Y-131197142D01*
X109042497Y-131197142D02*
X109232973Y-131149523D01*
X109232973Y-131149523D02*
X109328211Y-131101904D01*
X109328211Y-131101904D02*
X109423450Y-131006666D01*
X109423450Y-131006666D02*
X109471069Y-130863809D01*
X109471069Y-130863809D02*
X109471069Y-130625714D01*
X108471069Y-132101904D02*
X108471069Y-131625714D01*
X108471069Y-131625714D02*
X108947259Y-131578095D01*
X108947259Y-131578095D02*
X108899640Y-131625714D01*
X108899640Y-131625714D02*
X108852021Y-131720952D01*
X108852021Y-131720952D02*
X108852021Y-131959047D01*
X108852021Y-131959047D02*
X108899640Y-132054285D01*
X108899640Y-132054285D02*
X108947259Y-132101904D01*
X108947259Y-132101904D02*
X109042497Y-132149523D01*
X109042497Y-132149523D02*
X109280592Y-132149523D01*
X109280592Y-132149523D02*
X109375830Y-132101904D01*
X109375830Y-132101904D02*
X109423450Y-132054285D01*
X109423450Y-132054285D02*
X109471069Y-131959047D01*
X109471069Y-131959047D02*
X109471069Y-131720952D01*
X109471069Y-131720952D02*
X109423450Y-131625714D01*
X109423450Y-131625714D02*
X109375830Y-131578095D01*
X108471069Y-133054285D02*
X108471069Y-132578095D01*
X108471069Y-132578095D02*
X108947259Y-132530476D01*
X108947259Y-132530476D02*
X108899640Y-132578095D01*
X108899640Y-132578095D02*
X108852021Y-132673333D01*
X108852021Y-132673333D02*
X108852021Y-132911428D01*
X108852021Y-132911428D02*
X108899640Y-133006666D01*
X108899640Y-133006666D02*
X108947259Y-133054285D01*
X108947259Y-133054285D02*
X109042497Y-133101904D01*
X109042497Y-133101904D02*
X109280592Y-133101904D01*
X109280592Y-133101904D02*
X109375830Y-133054285D01*
X109375830Y-133054285D02*
X109423450Y-133006666D01*
X109423450Y-133006666D02*
X109471069Y-132911428D01*
X109471069Y-132911428D02*
X109471069Y-132673333D01*
X109471069Y-132673333D02*
X109423450Y-132578095D01*
X109423450Y-132578095D02*
X109375830Y-132530476D01*
X109151069Y-135388095D02*
X108151069Y-135388095D01*
X109151069Y-135959523D02*
X108579640Y-135530952D01*
X108151069Y-135959523D02*
X108722497Y-135388095D01*
X164239819Y-111575714D02*
X163239819Y-111575714D01*
X163239819Y-111575714D02*
X163239819Y-111813809D01*
X163239819Y-111813809D02*
X163287438Y-111956666D01*
X163287438Y-111956666D02*
X163382676Y-112051904D01*
X163382676Y-112051904D02*
X163477914Y-112099523D01*
X163477914Y-112099523D02*
X163668390Y-112147142D01*
X163668390Y-112147142D02*
X163811247Y-112147142D01*
X163811247Y-112147142D02*
X164001723Y-112099523D01*
X164001723Y-112099523D02*
X164096961Y-112051904D01*
X164096961Y-112051904D02*
X164192200Y-111956666D01*
X164192200Y-111956666D02*
X164239819Y-111813809D01*
X164239819Y-111813809D02*
X164239819Y-111575714D01*
X163573152Y-113004285D02*
X164239819Y-113004285D01*
X163192200Y-112766190D02*
X163906485Y-112528095D01*
X163906485Y-112528095D02*
X163906485Y-113147142D01*
X163239819Y-114004285D02*
X163239819Y-113528095D01*
X163239819Y-113528095D02*
X163716009Y-113480476D01*
X163716009Y-113480476D02*
X163668390Y-113528095D01*
X163668390Y-113528095D02*
X163620771Y-113623333D01*
X163620771Y-113623333D02*
X163620771Y-113861428D01*
X163620771Y-113861428D02*
X163668390Y-113956666D01*
X163668390Y-113956666D02*
X163716009Y-114004285D01*
X163716009Y-114004285D02*
X163811247Y-114051904D01*
X163811247Y-114051904D02*
X164049342Y-114051904D01*
X164049342Y-114051904D02*
X164144580Y-114004285D01*
X164144580Y-114004285D02*
X164192200Y-113956666D01*
X164192200Y-113956666D02*
X164239819Y-113861428D01*
X164239819Y-113861428D02*
X164239819Y-113623333D01*
X164239819Y-113623333D02*
X164192200Y-113528095D01*
X164192200Y-113528095D02*
X164144580Y-113480476D01*
X163919819Y-116338095D02*
X162919819Y-116338095D01*
X163919819Y-116909523D02*
X163348390Y-116480952D01*
X162919819Y-116909523D02*
X163491247Y-116338095D01*
X338071069Y-92525714D02*
X337071069Y-92525714D01*
X337071069Y-92525714D02*
X337071069Y-92763809D01*
X337071069Y-92763809D02*
X337118688Y-92906666D01*
X337118688Y-92906666D02*
X337213926Y-93001904D01*
X337213926Y-93001904D02*
X337309164Y-93049523D01*
X337309164Y-93049523D02*
X337499640Y-93097142D01*
X337499640Y-93097142D02*
X337642497Y-93097142D01*
X337642497Y-93097142D02*
X337832973Y-93049523D01*
X337832973Y-93049523D02*
X337928211Y-93001904D01*
X337928211Y-93001904D02*
X338023450Y-92906666D01*
X338023450Y-92906666D02*
X338071069Y-92763809D01*
X338071069Y-92763809D02*
X338071069Y-92525714D01*
X337404402Y-93954285D02*
X338071069Y-93954285D01*
X337023450Y-93716190D02*
X337737735Y-93478095D01*
X337737735Y-93478095D02*
X337737735Y-94097142D01*
X338071069Y-95001904D02*
X338071069Y-94430476D01*
X338071069Y-94716190D02*
X337071069Y-94716190D01*
X337071069Y-94716190D02*
X337213926Y-94620952D01*
X337213926Y-94620952D02*
X337309164Y-94525714D01*
X337309164Y-94525714D02*
X337356783Y-94430476D01*
X337751069Y-97288095D02*
X336751069Y-97288095D01*
X337751069Y-97859523D02*
X337179640Y-97430952D01*
X336751069Y-97859523D02*
X337322497Y-97288095D01*
X347596069Y-130625714D02*
X346596069Y-130625714D01*
X346596069Y-130625714D02*
X346596069Y-130863809D01*
X346596069Y-130863809D02*
X346643688Y-131006666D01*
X346643688Y-131006666D02*
X346738926Y-131101904D01*
X346738926Y-131101904D02*
X346834164Y-131149523D01*
X346834164Y-131149523D02*
X347024640Y-131197142D01*
X347024640Y-131197142D02*
X347167497Y-131197142D01*
X347167497Y-131197142D02*
X347357973Y-131149523D01*
X347357973Y-131149523D02*
X347453211Y-131101904D01*
X347453211Y-131101904D02*
X347548450Y-131006666D01*
X347548450Y-131006666D02*
X347596069Y-130863809D01*
X347596069Y-130863809D02*
X347596069Y-130625714D01*
X346596069Y-132054285D02*
X346596069Y-131863809D01*
X346596069Y-131863809D02*
X346643688Y-131768571D01*
X346643688Y-131768571D02*
X346691307Y-131720952D01*
X346691307Y-131720952D02*
X346834164Y-131625714D01*
X346834164Y-131625714D02*
X347024640Y-131578095D01*
X347024640Y-131578095D02*
X347405592Y-131578095D01*
X347405592Y-131578095D02*
X347500830Y-131625714D01*
X347500830Y-131625714D02*
X347548450Y-131673333D01*
X347548450Y-131673333D02*
X347596069Y-131768571D01*
X347596069Y-131768571D02*
X347596069Y-131959047D01*
X347596069Y-131959047D02*
X347548450Y-132054285D01*
X347548450Y-132054285D02*
X347500830Y-132101904D01*
X347500830Y-132101904D02*
X347405592Y-132149523D01*
X347405592Y-132149523D02*
X347167497Y-132149523D01*
X347167497Y-132149523D02*
X347072259Y-132101904D01*
X347072259Y-132101904D02*
X347024640Y-132054285D01*
X347024640Y-132054285D02*
X346977021Y-131959047D01*
X346977021Y-131959047D02*
X346977021Y-131768571D01*
X346977021Y-131768571D02*
X347024640Y-131673333D01*
X347024640Y-131673333D02*
X347072259Y-131625714D01*
X347072259Y-131625714D02*
X347167497Y-131578095D01*
X347596069Y-133101904D02*
X347596069Y-132530476D01*
X347596069Y-132816190D02*
X346596069Y-132816190D01*
X346596069Y-132816190D02*
X346738926Y-132720952D01*
X346738926Y-132720952D02*
X346834164Y-132625714D01*
X346834164Y-132625714D02*
X346881783Y-132530476D01*
X347276069Y-135388095D02*
X346276069Y-135388095D01*
X347276069Y-135959523D02*
X346704640Y-135530952D01*
X346276069Y-135959523D02*
X346847497Y-135388095D01*
X178527319Y-54901905D02*
X177527319Y-54901905D01*
X177527319Y-54901905D02*
X177527319Y-55140000D01*
X177527319Y-55140000D02*
X177574938Y-55282857D01*
X177574938Y-55282857D02*
X177670176Y-55378095D01*
X177670176Y-55378095D02*
X177765414Y-55425714D01*
X177765414Y-55425714D02*
X177955890Y-55473333D01*
X177955890Y-55473333D02*
X178098747Y-55473333D01*
X178098747Y-55473333D02*
X178289223Y-55425714D01*
X178289223Y-55425714D02*
X178384461Y-55378095D01*
X178384461Y-55378095D02*
X178479700Y-55282857D01*
X178479700Y-55282857D02*
X178527319Y-55140000D01*
X178527319Y-55140000D02*
X178527319Y-54901905D01*
X177527319Y-55806667D02*
X177527319Y-56473333D01*
X177527319Y-56473333D02*
X178527319Y-56044762D01*
X178207319Y-59188095D02*
X177207319Y-59188095D01*
X178207319Y-59759523D02*
X177635890Y-59330952D01*
X177207319Y-59759523D02*
X177778747Y-59188095D01*
X140427319Y-54901905D02*
X139427319Y-54901905D01*
X139427319Y-54901905D02*
X139427319Y-55140000D01*
X139427319Y-55140000D02*
X139474938Y-55282857D01*
X139474938Y-55282857D02*
X139570176Y-55378095D01*
X139570176Y-55378095D02*
X139665414Y-55425714D01*
X139665414Y-55425714D02*
X139855890Y-55473333D01*
X139855890Y-55473333D02*
X139998747Y-55473333D01*
X139998747Y-55473333D02*
X140189223Y-55425714D01*
X140189223Y-55425714D02*
X140284461Y-55378095D01*
X140284461Y-55378095D02*
X140379700Y-55282857D01*
X140379700Y-55282857D02*
X140427319Y-55140000D01*
X140427319Y-55140000D02*
X140427319Y-54901905D01*
X139760652Y-56330476D02*
X140427319Y-56330476D01*
X139379700Y-56092381D02*
X140093985Y-55854286D01*
X140093985Y-55854286D02*
X140093985Y-56473333D01*
X140107319Y-59188095D02*
X139107319Y-59188095D01*
X140107319Y-59759523D02*
X139535890Y-59330952D01*
X139107319Y-59759523D02*
X139678747Y-59188095D01*
X95183569Y-111575714D02*
X94183569Y-111575714D01*
X94183569Y-111575714D02*
X94183569Y-111813809D01*
X94183569Y-111813809D02*
X94231188Y-111956666D01*
X94231188Y-111956666D02*
X94326426Y-112051904D01*
X94326426Y-112051904D02*
X94421664Y-112099523D01*
X94421664Y-112099523D02*
X94612140Y-112147142D01*
X94612140Y-112147142D02*
X94754997Y-112147142D01*
X94754997Y-112147142D02*
X94945473Y-112099523D01*
X94945473Y-112099523D02*
X95040711Y-112051904D01*
X95040711Y-112051904D02*
X95135950Y-111956666D01*
X95135950Y-111956666D02*
X95183569Y-111813809D01*
X95183569Y-111813809D02*
X95183569Y-111575714D01*
X94516902Y-113004285D02*
X95183569Y-113004285D01*
X94135950Y-112766190D02*
X94850235Y-112528095D01*
X94850235Y-112528095D02*
X94850235Y-113147142D01*
X94278807Y-113480476D02*
X94231188Y-113528095D01*
X94231188Y-113528095D02*
X94183569Y-113623333D01*
X94183569Y-113623333D02*
X94183569Y-113861428D01*
X94183569Y-113861428D02*
X94231188Y-113956666D01*
X94231188Y-113956666D02*
X94278807Y-114004285D01*
X94278807Y-114004285D02*
X94374045Y-114051904D01*
X94374045Y-114051904D02*
X94469283Y-114051904D01*
X94469283Y-114051904D02*
X94612140Y-114004285D01*
X94612140Y-114004285D02*
X95183569Y-113432857D01*
X95183569Y-113432857D02*
X95183569Y-114051904D01*
X94863569Y-116338095D02*
X93863569Y-116338095D01*
X94863569Y-116909523D02*
X94292140Y-116480952D01*
X93863569Y-116909523D02*
X94434997Y-116338095D01*
X299971069Y-130625714D02*
X298971069Y-130625714D01*
X298971069Y-130625714D02*
X298971069Y-130863809D01*
X298971069Y-130863809D02*
X299018688Y-131006666D01*
X299018688Y-131006666D02*
X299113926Y-131101904D01*
X299113926Y-131101904D02*
X299209164Y-131149523D01*
X299209164Y-131149523D02*
X299399640Y-131197142D01*
X299399640Y-131197142D02*
X299542497Y-131197142D01*
X299542497Y-131197142D02*
X299732973Y-131149523D01*
X299732973Y-131149523D02*
X299828211Y-131101904D01*
X299828211Y-131101904D02*
X299923450Y-131006666D01*
X299923450Y-131006666D02*
X299971069Y-130863809D01*
X299971069Y-130863809D02*
X299971069Y-130625714D01*
X298971069Y-132101904D02*
X298971069Y-131625714D01*
X298971069Y-131625714D02*
X299447259Y-131578095D01*
X299447259Y-131578095D02*
X299399640Y-131625714D01*
X299399640Y-131625714D02*
X299352021Y-131720952D01*
X299352021Y-131720952D02*
X299352021Y-131959047D01*
X299352021Y-131959047D02*
X299399640Y-132054285D01*
X299399640Y-132054285D02*
X299447259Y-132101904D01*
X299447259Y-132101904D02*
X299542497Y-132149523D01*
X299542497Y-132149523D02*
X299780592Y-132149523D01*
X299780592Y-132149523D02*
X299875830Y-132101904D01*
X299875830Y-132101904D02*
X299923450Y-132054285D01*
X299923450Y-132054285D02*
X299971069Y-131959047D01*
X299971069Y-131959047D02*
X299971069Y-131720952D01*
X299971069Y-131720952D02*
X299923450Y-131625714D01*
X299923450Y-131625714D02*
X299875830Y-131578095D01*
X299971069Y-132625714D02*
X299971069Y-132816190D01*
X299971069Y-132816190D02*
X299923450Y-132911428D01*
X299923450Y-132911428D02*
X299875830Y-132959047D01*
X299875830Y-132959047D02*
X299732973Y-133054285D01*
X299732973Y-133054285D02*
X299542497Y-133101904D01*
X299542497Y-133101904D02*
X299161545Y-133101904D01*
X299161545Y-133101904D02*
X299066307Y-133054285D01*
X299066307Y-133054285D02*
X299018688Y-133006666D01*
X299018688Y-133006666D02*
X298971069Y-132911428D01*
X298971069Y-132911428D02*
X298971069Y-132720952D01*
X298971069Y-132720952D02*
X299018688Y-132625714D01*
X299018688Y-132625714D02*
X299066307Y-132578095D01*
X299066307Y-132578095D02*
X299161545Y-132530476D01*
X299161545Y-132530476D02*
X299399640Y-132530476D01*
X299399640Y-132530476D02*
X299494878Y-132578095D01*
X299494878Y-132578095D02*
X299542497Y-132625714D01*
X299542497Y-132625714D02*
X299590116Y-132720952D01*
X299590116Y-132720952D02*
X299590116Y-132911428D01*
X299590116Y-132911428D02*
X299542497Y-133006666D01*
X299542497Y-133006666D02*
X299494878Y-133054285D01*
X299494878Y-133054285D02*
X299399640Y-133101904D01*
X299651069Y-135388095D02*
X298651069Y-135388095D01*
X299651069Y-135959523D02*
X299079640Y-135530952D01*
X298651069Y-135959523D02*
X299222497Y-135388095D01*
X221389819Y-111575714D02*
X220389819Y-111575714D01*
X220389819Y-111575714D02*
X220389819Y-111813809D01*
X220389819Y-111813809D02*
X220437438Y-111956666D01*
X220437438Y-111956666D02*
X220532676Y-112051904D01*
X220532676Y-112051904D02*
X220627914Y-112099523D01*
X220627914Y-112099523D02*
X220818390Y-112147142D01*
X220818390Y-112147142D02*
X220961247Y-112147142D01*
X220961247Y-112147142D02*
X221151723Y-112099523D01*
X221151723Y-112099523D02*
X221246961Y-112051904D01*
X221246961Y-112051904D02*
X221342200Y-111956666D01*
X221342200Y-111956666D02*
X221389819Y-111813809D01*
X221389819Y-111813809D02*
X221389819Y-111575714D01*
X220723152Y-113004285D02*
X221389819Y-113004285D01*
X220342200Y-112766190D02*
X221056485Y-112528095D01*
X221056485Y-112528095D02*
X221056485Y-113147142D01*
X220818390Y-113670952D02*
X220770771Y-113575714D01*
X220770771Y-113575714D02*
X220723152Y-113528095D01*
X220723152Y-113528095D02*
X220627914Y-113480476D01*
X220627914Y-113480476D02*
X220580295Y-113480476D01*
X220580295Y-113480476D02*
X220485057Y-113528095D01*
X220485057Y-113528095D02*
X220437438Y-113575714D01*
X220437438Y-113575714D02*
X220389819Y-113670952D01*
X220389819Y-113670952D02*
X220389819Y-113861428D01*
X220389819Y-113861428D02*
X220437438Y-113956666D01*
X220437438Y-113956666D02*
X220485057Y-114004285D01*
X220485057Y-114004285D02*
X220580295Y-114051904D01*
X220580295Y-114051904D02*
X220627914Y-114051904D01*
X220627914Y-114051904D02*
X220723152Y-114004285D01*
X220723152Y-114004285D02*
X220770771Y-113956666D01*
X220770771Y-113956666D02*
X220818390Y-113861428D01*
X220818390Y-113861428D02*
X220818390Y-113670952D01*
X220818390Y-113670952D02*
X220866009Y-113575714D01*
X220866009Y-113575714D02*
X220913628Y-113528095D01*
X220913628Y-113528095D02*
X221008866Y-113480476D01*
X221008866Y-113480476D02*
X221199342Y-113480476D01*
X221199342Y-113480476D02*
X221294580Y-113528095D01*
X221294580Y-113528095D02*
X221342200Y-113575714D01*
X221342200Y-113575714D02*
X221389819Y-113670952D01*
X221389819Y-113670952D02*
X221389819Y-113861428D01*
X221389819Y-113861428D02*
X221342200Y-113956666D01*
X221342200Y-113956666D02*
X221294580Y-114004285D01*
X221294580Y-114004285D02*
X221199342Y-114051904D01*
X221199342Y-114051904D02*
X221008866Y-114051904D01*
X221008866Y-114051904D02*
X220913628Y-114004285D01*
X220913628Y-114004285D02*
X220866009Y-113956666D01*
X220866009Y-113956666D02*
X220818390Y-113861428D01*
X221069819Y-116338095D02*
X220069819Y-116338095D01*
X221069819Y-116909523D02*
X220498390Y-116480952D01*
X220069819Y-116909523D02*
X220641247Y-116338095D01*
X169002319Y-73475714D02*
X168002319Y-73475714D01*
X168002319Y-73475714D02*
X168002319Y-73713809D01*
X168002319Y-73713809D02*
X168049938Y-73856666D01*
X168049938Y-73856666D02*
X168145176Y-73951904D01*
X168145176Y-73951904D02*
X168240414Y-73999523D01*
X168240414Y-73999523D02*
X168430890Y-74047142D01*
X168430890Y-74047142D02*
X168573747Y-74047142D01*
X168573747Y-74047142D02*
X168764223Y-73999523D01*
X168764223Y-73999523D02*
X168859461Y-73951904D01*
X168859461Y-73951904D02*
X168954700Y-73856666D01*
X168954700Y-73856666D02*
X169002319Y-73713809D01*
X169002319Y-73713809D02*
X169002319Y-73475714D01*
X169002319Y-74999523D02*
X169002319Y-74428095D01*
X169002319Y-74713809D02*
X168002319Y-74713809D01*
X168002319Y-74713809D02*
X168145176Y-74618571D01*
X168145176Y-74618571D02*
X168240414Y-74523333D01*
X168240414Y-74523333D02*
X168288033Y-74428095D01*
X169002319Y-75475714D02*
X169002319Y-75666190D01*
X169002319Y-75666190D02*
X168954700Y-75761428D01*
X168954700Y-75761428D02*
X168907080Y-75809047D01*
X168907080Y-75809047D02*
X168764223Y-75904285D01*
X168764223Y-75904285D02*
X168573747Y-75951904D01*
X168573747Y-75951904D02*
X168192795Y-75951904D01*
X168192795Y-75951904D02*
X168097557Y-75904285D01*
X168097557Y-75904285D02*
X168049938Y-75856666D01*
X168049938Y-75856666D02*
X168002319Y-75761428D01*
X168002319Y-75761428D02*
X168002319Y-75570952D01*
X168002319Y-75570952D02*
X168049938Y-75475714D01*
X168049938Y-75475714D02*
X168097557Y-75428095D01*
X168097557Y-75428095D02*
X168192795Y-75380476D01*
X168192795Y-75380476D02*
X168430890Y-75380476D01*
X168430890Y-75380476D02*
X168526128Y-75428095D01*
X168526128Y-75428095D02*
X168573747Y-75475714D01*
X168573747Y-75475714D02*
X168621366Y-75570952D01*
X168621366Y-75570952D02*
X168621366Y-75761428D01*
X168621366Y-75761428D02*
X168573747Y-75856666D01*
X168573747Y-75856666D02*
X168526128Y-75904285D01*
X168526128Y-75904285D02*
X168430890Y-75951904D01*
X168682319Y-78238095D02*
X167682319Y-78238095D01*
X168682319Y-78809523D02*
X168110890Y-78380952D01*
X167682319Y-78809523D02*
X168253747Y-78238095D01*
X88039819Y-73475714D02*
X87039819Y-73475714D01*
X87039819Y-73475714D02*
X87039819Y-73713809D01*
X87039819Y-73713809D02*
X87087438Y-73856666D01*
X87087438Y-73856666D02*
X87182676Y-73951904D01*
X87182676Y-73951904D02*
X87277914Y-73999523D01*
X87277914Y-73999523D02*
X87468390Y-74047142D01*
X87468390Y-74047142D02*
X87611247Y-74047142D01*
X87611247Y-74047142D02*
X87801723Y-73999523D01*
X87801723Y-73999523D02*
X87896961Y-73951904D01*
X87896961Y-73951904D02*
X87992200Y-73856666D01*
X87992200Y-73856666D02*
X88039819Y-73713809D01*
X88039819Y-73713809D02*
X88039819Y-73475714D01*
X88039819Y-74999523D02*
X88039819Y-74428095D01*
X88039819Y-74713809D02*
X87039819Y-74713809D01*
X87039819Y-74713809D02*
X87182676Y-74618571D01*
X87182676Y-74618571D02*
X87277914Y-74523333D01*
X87277914Y-74523333D02*
X87325533Y-74428095D01*
X87039819Y-75904285D02*
X87039819Y-75428095D01*
X87039819Y-75428095D02*
X87516009Y-75380476D01*
X87516009Y-75380476D02*
X87468390Y-75428095D01*
X87468390Y-75428095D02*
X87420771Y-75523333D01*
X87420771Y-75523333D02*
X87420771Y-75761428D01*
X87420771Y-75761428D02*
X87468390Y-75856666D01*
X87468390Y-75856666D02*
X87516009Y-75904285D01*
X87516009Y-75904285D02*
X87611247Y-75951904D01*
X87611247Y-75951904D02*
X87849342Y-75951904D01*
X87849342Y-75951904D02*
X87944580Y-75904285D01*
X87944580Y-75904285D02*
X87992200Y-75856666D01*
X87992200Y-75856666D02*
X88039819Y-75761428D01*
X88039819Y-75761428D02*
X88039819Y-75523333D01*
X88039819Y-75523333D02*
X87992200Y-75428095D01*
X87992200Y-75428095D02*
X87944580Y-75380476D01*
X87719819Y-78238095D02*
X86719819Y-78238095D01*
X87719819Y-78809523D02*
X87148390Y-78380952D01*
X86719819Y-78809523D02*
X87291247Y-78238095D01*
X126139819Y-111575714D02*
X125139819Y-111575714D01*
X125139819Y-111575714D02*
X125139819Y-111813809D01*
X125139819Y-111813809D02*
X125187438Y-111956666D01*
X125187438Y-111956666D02*
X125282676Y-112051904D01*
X125282676Y-112051904D02*
X125377914Y-112099523D01*
X125377914Y-112099523D02*
X125568390Y-112147142D01*
X125568390Y-112147142D02*
X125711247Y-112147142D01*
X125711247Y-112147142D02*
X125901723Y-112099523D01*
X125901723Y-112099523D02*
X125996961Y-112051904D01*
X125996961Y-112051904D02*
X126092200Y-111956666D01*
X126092200Y-111956666D02*
X126139819Y-111813809D01*
X126139819Y-111813809D02*
X126139819Y-111575714D01*
X125473152Y-113004285D02*
X126139819Y-113004285D01*
X125092200Y-112766190D02*
X125806485Y-112528095D01*
X125806485Y-112528095D02*
X125806485Y-113147142D01*
X125139819Y-113432857D02*
X125139819Y-114051904D01*
X125139819Y-114051904D02*
X125520771Y-113718571D01*
X125520771Y-113718571D02*
X125520771Y-113861428D01*
X125520771Y-113861428D02*
X125568390Y-113956666D01*
X125568390Y-113956666D02*
X125616009Y-114004285D01*
X125616009Y-114004285D02*
X125711247Y-114051904D01*
X125711247Y-114051904D02*
X125949342Y-114051904D01*
X125949342Y-114051904D02*
X126044580Y-114004285D01*
X126044580Y-114004285D02*
X126092200Y-113956666D01*
X126092200Y-113956666D02*
X126139819Y-113861428D01*
X126139819Y-113861428D02*
X126139819Y-113575714D01*
X126139819Y-113575714D02*
X126092200Y-113480476D01*
X126092200Y-113480476D02*
X126044580Y-113432857D01*
X125819819Y-116338095D02*
X124819819Y-116338095D01*
X125819819Y-116909523D02*
X125248390Y-116480952D01*
X124819819Y-116909523D02*
X125391247Y-116338095D01*
X90421069Y-92525714D02*
X89421069Y-92525714D01*
X89421069Y-92525714D02*
X89421069Y-92763809D01*
X89421069Y-92763809D02*
X89468688Y-92906666D01*
X89468688Y-92906666D02*
X89563926Y-93001904D01*
X89563926Y-93001904D02*
X89659164Y-93049523D01*
X89659164Y-93049523D02*
X89849640Y-93097142D01*
X89849640Y-93097142D02*
X89992497Y-93097142D01*
X89992497Y-93097142D02*
X90182973Y-93049523D01*
X90182973Y-93049523D02*
X90278211Y-93001904D01*
X90278211Y-93001904D02*
X90373450Y-92906666D01*
X90373450Y-92906666D02*
X90421069Y-92763809D01*
X90421069Y-92763809D02*
X90421069Y-92525714D01*
X89516307Y-93478095D02*
X89468688Y-93525714D01*
X89468688Y-93525714D02*
X89421069Y-93620952D01*
X89421069Y-93620952D02*
X89421069Y-93859047D01*
X89421069Y-93859047D02*
X89468688Y-93954285D01*
X89468688Y-93954285D02*
X89516307Y-94001904D01*
X89516307Y-94001904D02*
X89611545Y-94049523D01*
X89611545Y-94049523D02*
X89706783Y-94049523D01*
X89706783Y-94049523D02*
X89849640Y-94001904D01*
X89849640Y-94001904D02*
X90421069Y-93430476D01*
X90421069Y-93430476D02*
X90421069Y-94049523D01*
X90421069Y-94525714D02*
X90421069Y-94716190D01*
X90421069Y-94716190D02*
X90373450Y-94811428D01*
X90373450Y-94811428D02*
X90325830Y-94859047D01*
X90325830Y-94859047D02*
X90182973Y-94954285D01*
X90182973Y-94954285D02*
X89992497Y-95001904D01*
X89992497Y-95001904D02*
X89611545Y-95001904D01*
X89611545Y-95001904D02*
X89516307Y-94954285D01*
X89516307Y-94954285D02*
X89468688Y-94906666D01*
X89468688Y-94906666D02*
X89421069Y-94811428D01*
X89421069Y-94811428D02*
X89421069Y-94620952D01*
X89421069Y-94620952D02*
X89468688Y-94525714D01*
X89468688Y-94525714D02*
X89516307Y-94478095D01*
X89516307Y-94478095D02*
X89611545Y-94430476D01*
X89611545Y-94430476D02*
X89849640Y-94430476D01*
X89849640Y-94430476D02*
X89944878Y-94478095D01*
X89944878Y-94478095D02*
X89992497Y-94525714D01*
X89992497Y-94525714D02*
X90040116Y-94620952D01*
X90040116Y-94620952D02*
X90040116Y-94811428D01*
X90040116Y-94811428D02*
X89992497Y-94906666D01*
X89992497Y-94906666D02*
X89944878Y-94954285D01*
X89944878Y-94954285D02*
X89849640Y-95001904D01*
X90101069Y-97288095D02*
X89101069Y-97288095D01*
X90101069Y-97859523D02*
X89529640Y-97430952D01*
X89101069Y-97859523D02*
X89672497Y-97288095D01*
X345214819Y-73475714D02*
X344214819Y-73475714D01*
X344214819Y-73475714D02*
X344214819Y-73713809D01*
X344214819Y-73713809D02*
X344262438Y-73856666D01*
X344262438Y-73856666D02*
X344357676Y-73951904D01*
X344357676Y-73951904D02*
X344452914Y-73999523D01*
X344452914Y-73999523D02*
X344643390Y-74047142D01*
X344643390Y-74047142D02*
X344786247Y-74047142D01*
X344786247Y-74047142D02*
X344976723Y-73999523D01*
X344976723Y-73999523D02*
X345071961Y-73951904D01*
X345071961Y-73951904D02*
X345167200Y-73856666D01*
X345167200Y-73856666D02*
X345214819Y-73713809D01*
X345214819Y-73713809D02*
X345214819Y-73475714D01*
X344310057Y-74428095D02*
X344262438Y-74475714D01*
X344262438Y-74475714D02*
X344214819Y-74570952D01*
X344214819Y-74570952D02*
X344214819Y-74809047D01*
X344214819Y-74809047D02*
X344262438Y-74904285D01*
X344262438Y-74904285D02*
X344310057Y-74951904D01*
X344310057Y-74951904D02*
X344405295Y-74999523D01*
X344405295Y-74999523D02*
X344500533Y-74999523D01*
X344500533Y-74999523D02*
X344643390Y-74951904D01*
X344643390Y-74951904D02*
X345214819Y-74380476D01*
X345214819Y-74380476D02*
X345214819Y-74999523D01*
X344643390Y-75570952D02*
X344595771Y-75475714D01*
X344595771Y-75475714D02*
X344548152Y-75428095D01*
X344548152Y-75428095D02*
X344452914Y-75380476D01*
X344452914Y-75380476D02*
X344405295Y-75380476D01*
X344405295Y-75380476D02*
X344310057Y-75428095D01*
X344310057Y-75428095D02*
X344262438Y-75475714D01*
X344262438Y-75475714D02*
X344214819Y-75570952D01*
X344214819Y-75570952D02*
X344214819Y-75761428D01*
X344214819Y-75761428D02*
X344262438Y-75856666D01*
X344262438Y-75856666D02*
X344310057Y-75904285D01*
X344310057Y-75904285D02*
X344405295Y-75951904D01*
X344405295Y-75951904D02*
X344452914Y-75951904D01*
X344452914Y-75951904D02*
X344548152Y-75904285D01*
X344548152Y-75904285D02*
X344595771Y-75856666D01*
X344595771Y-75856666D02*
X344643390Y-75761428D01*
X344643390Y-75761428D02*
X344643390Y-75570952D01*
X344643390Y-75570952D02*
X344691009Y-75475714D01*
X344691009Y-75475714D02*
X344738628Y-75428095D01*
X344738628Y-75428095D02*
X344833866Y-75380476D01*
X344833866Y-75380476D02*
X345024342Y-75380476D01*
X345024342Y-75380476D02*
X345119580Y-75428095D01*
X345119580Y-75428095D02*
X345167200Y-75475714D01*
X345167200Y-75475714D02*
X345214819Y-75570952D01*
X345214819Y-75570952D02*
X345214819Y-75761428D01*
X345214819Y-75761428D02*
X345167200Y-75856666D01*
X345167200Y-75856666D02*
X345119580Y-75904285D01*
X345119580Y-75904285D02*
X345024342Y-75951904D01*
X345024342Y-75951904D02*
X344833866Y-75951904D01*
X344833866Y-75951904D02*
X344738628Y-75904285D01*
X344738628Y-75904285D02*
X344691009Y-75856666D01*
X344691009Y-75856666D02*
X344643390Y-75761428D01*
X344894819Y-78238095D02*
X343894819Y-78238095D01*
X344894819Y-78809523D02*
X344323390Y-78380952D01*
X343894819Y-78809523D02*
X344466247Y-78238095D01*
X207102319Y-73475714D02*
X206102319Y-73475714D01*
X206102319Y-73475714D02*
X206102319Y-73713809D01*
X206102319Y-73713809D02*
X206149938Y-73856666D01*
X206149938Y-73856666D02*
X206245176Y-73951904D01*
X206245176Y-73951904D02*
X206340414Y-73999523D01*
X206340414Y-73999523D02*
X206530890Y-74047142D01*
X206530890Y-74047142D02*
X206673747Y-74047142D01*
X206673747Y-74047142D02*
X206864223Y-73999523D01*
X206864223Y-73999523D02*
X206959461Y-73951904D01*
X206959461Y-73951904D02*
X207054700Y-73856666D01*
X207054700Y-73856666D02*
X207102319Y-73713809D01*
X207102319Y-73713809D02*
X207102319Y-73475714D01*
X206197557Y-74428095D02*
X206149938Y-74475714D01*
X206149938Y-74475714D02*
X206102319Y-74570952D01*
X206102319Y-74570952D02*
X206102319Y-74809047D01*
X206102319Y-74809047D02*
X206149938Y-74904285D01*
X206149938Y-74904285D02*
X206197557Y-74951904D01*
X206197557Y-74951904D02*
X206292795Y-74999523D01*
X206292795Y-74999523D02*
X206388033Y-74999523D01*
X206388033Y-74999523D02*
X206530890Y-74951904D01*
X206530890Y-74951904D02*
X207102319Y-74380476D01*
X207102319Y-74380476D02*
X207102319Y-74999523D01*
X207102319Y-75951904D02*
X207102319Y-75380476D01*
X207102319Y-75666190D02*
X206102319Y-75666190D01*
X206102319Y-75666190D02*
X206245176Y-75570952D01*
X206245176Y-75570952D02*
X206340414Y-75475714D01*
X206340414Y-75475714D02*
X206388033Y-75380476D01*
X206782319Y-78238095D02*
X205782319Y-78238095D01*
X206782319Y-78809523D02*
X206210890Y-78380952D01*
X205782319Y-78809523D02*
X206353747Y-78238095D01*
X111852319Y-73475714D02*
X110852319Y-73475714D01*
X110852319Y-73475714D02*
X110852319Y-73713809D01*
X110852319Y-73713809D02*
X110899938Y-73856666D01*
X110899938Y-73856666D02*
X110995176Y-73951904D01*
X110995176Y-73951904D02*
X111090414Y-73999523D01*
X111090414Y-73999523D02*
X111280890Y-74047142D01*
X111280890Y-74047142D02*
X111423747Y-74047142D01*
X111423747Y-74047142D02*
X111614223Y-73999523D01*
X111614223Y-73999523D02*
X111709461Y-73951904D01*
X111709461Y-73951904D02*
X111804700Y-73856666D01*
X111804700Y-73856666D02*
X111852319Y-73713809D01*
X111852319Y-73713809D02*
X111852319Y-73475714D01*
X111852319Y-74999523D02*
X111852319Y-74428095D01*
X111852319Y-74713809D02*
X110852319Y-74713809D01*
X110852319Y-74713809D02*
X110995176Y-74618571D01*
X110995176Y-74618571D02*
X111090414Y-74523333D01*
X111090414Y-74523333D02*
X111138033Y-74428095D01*
X110852319Y-75856666D02*
X110852319Y-75666190D01*
X110852319Y-75666190D02*
X110899938Y-75570952D01*
X110899938Y-75570952D02*
X110947557Y-75523333D01*
X110947557Y-75523333D02*
X111090414Y-75428095D01*
X111090414Y-75428095D02*
X111280890Y-75380476D01*
X111280890Y-75380476D02*
X111661842Y-75380476D01*
X111661842Y-75380476D02*
X111757080Y-75428095D01*
X111757080Y-75428095D02*
X111804700Y-75475714D01*
X111804700Y-75475714D02*
X111852319Y-75570952D01*
X111852319Y-75570952D02*
X111852319Y-75761428D01*
X111852319Y-75761428D02*
X111804700Y-75856666D01*
X111804700Y-75856666D02*
X111757080Y-75904285D01*
X111757080Y-75904285D02*
X111661842Y-75951904D01*
X111661842Y-75951904D02*
X111423747Y-75951904D01*
X111423747Y-75951904D02*
X111328509Y-75904285D01*
X111328509Y-75904285D02*
X111280890Y-75856666D01*
X111280890Y-75856666D02*
X111233271Y-75761428D01*
X111233271Y-75761428D02*
X111233271Y-75570952D01*
X111233271Y-75570952D02*
X111280890Y-75475714D01*
X111280890Y-75475714D02*
X111328509Y-75428095D01*
X111328509Y-75428095D02*
X111423747Y-75380476D01*
X111532319Y-78238095D02*
X110532319Y-78238095D01*
X111532319Y-78809523D02*
X110960890Y-78380952D01*
X110532319Y-78809523D02*
X111103747Y-78238095D01*
X259489819Y-111575714D02*
X258489819Y-111575714D01*
X258489819Y-111575714D02*
X258489819Y-111813809D01*
X258489819Y-111813809D02*
X258537438Y-111956666D01*
X258537438Y-111956666D02*
X258632676Y-112051904D01*
X258632676Y-112051904D02*
X258727914Y-112099523D01*
X258727914Y-112099523D02*
X258918390Y-112147142D01*
X258918390Y-112147142D02*
X259061247Y-112147142D01*
X259061247Y-112147142D02*
X259251723Y-112099523D01*
X259251723Y-112099523D02*
X259346961Y-112051904D01*
X259346961Y-112051904D02*
X259442200Y-111956666D01*
X259442200Y-111956666D02*
X259489819Y-111813809D01*
X259489819Y-111813809D02*
X259489819Y-111575714D01*
X258489819Y-113051904D02*
X258489819Y-112575714D01*
X258489819Y-112575714D02*
X258966009Y-112528095D01*
X258966009Y-112528095D02*
X258918390Y-112575714D01*
X258918390Y-112575714D02*
X258870771Y-112670952D01*
X258870771Y-112670952D02*
X258870771Y-112909047D01*
X258870771Y-112909047D02*
X258918390Y-113004285D01*
X258918390Y-113004285D02*
X258966009Y-113051904D01*
X258966009Y-113051904D02*
X259061247Y-113099523D01*
X259061247Y-113099523D02*
X259299342Y-113099523D01*
X259299342Y-113099523D02*
X259394580Y-113051904D01*
X259394580Y-113051904D02*
X259442200Y-113004285D01*
X259442200Y-113004285D02*
X259489819Y-112909047D01*
X259489819Y-112909047D02*
X259489819Y-112670952D01*
X259489819Y-112670952D02*
X259442200Y-112575714D01*
X259442200Y-112575714D02*
X259394580Y-112528095D01*
X258489819Y-113718571D02*
X258489819Y-113813809D01*
X258489819Y-113813809D02*
X258537438Y-113909047D01*
X258537438Y-113909047D02*
X258585057Y-113956666D01*
X258585057Y-113956666D02*
X258680295Y-114004285D01*
X258680295Y-114004285D02*
X258870771Y-114051904D01*
X258870771Y-114051904D02*
X259108866Y-114051904D01*
X259108866Y-114051904D02*
X259299342Y-114004285D01*
X259299342Y-114004285D02*
X259394580Y-113956666D01*
X259394580Y-113956666D02*
X259442200Y-113909047D01*
X259442200Y-113909047D02*
X259489819Y-113813809D01*
X259489819Y-113813809D02*
X259489819Y-113718571D01*
X259489819Y-113718571D02*
X259442200Y-113623333D01*
X259442200Y-113623333D02*
X259394580Y-113575714D01*
X259394580Y-113575714D02*
X259299342Y-113528095D01*
X259299342Y-113528095D02*
X259108866Y-113480476D01*
X259108866Y-113480476D02*
X258870771Y-113480476D01*
X258870771Y-113480476D02*
X258680295Y-113528095D01*
X258680295Y-113528095D02*
X258585057Y-113575714D01*
X258585057Y-113575714D02*
X258537438Y-113623333D01*
X258537438Y-113623333D02*
X258489819Y-113718571D01*
X259169819Y-116338095D02*
X258169819Y-116338095D01*
X259169819Y-116909523D02*
X258598390Y-116480952D01*
X258169819Y-116909523D02*
X258741247Y-116338095D01*
X273777319Y-54425714D02*
X272777319Y-54425714D01*
X272777319Y-54425714D02*
X272777319Y-54663809D01*
X272777319Y-54663809D02*
X272824938Y-54806666D01*
X272824938Y-54806666D02*
X272920176Y-54901904D01*
X272920176Y-54901904D02*
X273015414Y-54949523D01*
X273015414Y-54949523D02*
X273205890Y-54997142D01*
X273205890Y-54997142D02*
X273348747Y-54997142D01*
X273348747Y-54997142D02*
X273539223Y-54949523D01*
X273539223Y-54949523D02*
X273634461Y-54901904D01*
X273634461Y-54901904D02*
X273729700Y-54806666D01*
X273729700Y-54806666D02*
X273777319Y-54663809D01*
X273777319Y-54663809D02*
X273777319Y-54425714D01*
X273777319Y-55949523D02*
X273777319Y-55378095D01*
X273777319Y-55663809D02*
X272777319Y-55663809D01*
X272777319Y-55663809D02*
X272920176Y-55568571D01*
X272920176Y-55568571D02*
X273015414Y-55473333D01*
X273015414Y-55473333D02*
X273063033Y-55378095D01*
X272872557Y-56330476D02*
X272824938Y-56378095D01*
X272824938Y-56378095D02*
X272777319Y-56473333D01*
X272777319Y-56473333D02*
X272777319Y-56711428D01*
X272777319Y-56711428D02*
X272824938Y-56806666D01*
X272824938Y-56806666D02*
X272872557Y-56854285D01*
X272872557Y-56854285D02*
X272967795Y-56901904D01*
X272967795Y-56901904D02*
X273063033Y-56901904D01*
X273063033Y-56901904D02*
X273205890Y-56854285D01*
X273205890Y-56854285D02*
X273777319Y-56282857D01*
X273777319Y-56282857D02*
X273777319Y-56901904D01*
X273457319Y-59188095D02*
X272457319Y-59188095D01*
X273457319Y-59759523D02*
X272885890Y-59330952D01*
X272457319Y-59759523D02*
X273028747Y-59188095D01*
X154714819Y-92525714D02*
X153714819Y-92525714D01*
X153714819Y-92525714D02*
X153714819Y-92763809D01*
X153714819Y-92763809D02*
X153762438Y-92906666D01*
X153762438Y-92906666D02*
X153857676Y-93001904D01*
X153857676Y-93001904D02*
X153952914Y-93049523D01*
X153952914Y-93049523D02*
X154143390Y-93097142D01*
X154143390Y-93097142D02*
X154286247Y-93097142D01*
X154286247Y-93097142D02*
X154476723Y-93049523D01*
X154476723Y-93049523D02*
X154571961Y-93001904D01*
X154571961Y-93001904D02*
X154667200Y-92906666D01*
X154667200Y-92906666D02*
X154714819Y-92763809D01*
X154714819Y-92763809D02*
X154714819Y-92525714D01*
X153714819Y-93430476D02*
X153714819Y-94049523D01*
X153714819Y-94049523D02*
X154095771Y-93716190D01*
X154095771Y-93716190D02*
X154095771Y-93859047D01*
X154095771Y-93859047D02*
X154143390Y-93954285D01*
X154143390Y-93954285D02*
X154191009Y-94001904D01*
X154191009Y-94001904D02*
X154286247Y-94049523D01*
X154286247Y-94049523D02*
X154524342Y-94049523D01*
X154524342Y-94049523D02*
X154619580Y-94001904D01*
X154619580Y-94001904D02*
X154667200Y-93954285D01*
X154667200Y-93954285D02*
X154714819Y-93859047D01*
X154714819Y-93859047D02*
X154714819Y-93573333D01*
X154714819Y-93573333D02*
X154667200Y-93478095D01*
X154667200Y-93478095D02*
X154619580Y-93430476D01*
X153810057Y-94430476D02*
X153762438Y-94478095D01*
X153762438Y-94478095D02*
X153714819Y-94573333D01*
X153714819Y-94573333D02*
X153714819Y-94811428D01*
X153714819Y-94811428D02*
X153762438Y-94906666D01*
X153762438Y-94906666D02*
X153810057Y-94954285D01*
X153810057Y-94954285D02*
X153905295Y-95001904D01*
X153905295Y-95001904D02*
X154000533Y-95001904D01*
X154000533Y-95001904D02*
X154143390Y-94954285D01*
X154143390Y-94954285D02*
X154714819Y-94382857D01*
X154714819Y-94382857D02*
X154714819Y-95001904D01*
X154394819Y-97288095D02*
X153394819Y-97288095D01*
X154394819Y-97859523D02*
X153823390Y-97430952D01*
X153394819Y-97859523D02*
X153966247Y-97288095D01*
X216627319Y-54901905D02*
X215627319Y-54901905D01*
X215627319Y-54901905D02*
X215627319Y-55140000D01*
X215627319Y-55140000D02*
X215674938Y-55282857D01*
X215674938Y-55282857D02*
X215770176Y-55378095D01*
X215770176Y-55378095D02*
X215865414Y-55425714D01*
X215865414Y-55425714D02*
X216055890Y-55473333D01*
X216055890Y-55473333D02*
X216198747Y-55473333D01*
X216198747Y-55473333D02*
X216389223Y-55425714D01*
X216389223Y-55425714D02*
X216484461Y-55378095D01*
X216484461Y-55378095D02*
X216579700Y-55282857D01*
X216579700Y-55282857D02*
X216627319Y-55140000D01*
X216627319Y-55140000D02*
X216627319Y-54901905D01*
X216627319Y-55949524D02*
X216627319Y-56140000D01*
X216627319Y-56140000D02*
X216579700Y-56235238D01*
X216579700Y-56235238D02*
X216532080Y-56282857D01*
X216532080Y-56282857D02*
X216389223Y-56378095D01*
X216389223Y-56378095D02*
X216198747Y-56425714D01*
X216198747Y-56425714D02*
X215817795Y-56425714D01*
X215817795Y-56425714D02*
X215722557Y-56378095D01*
X215722557Y-56378095D02*
X215674938Y-56330476D01*
X215674938Y-56330476D02*
X215627319Y-56235238D01*
X215627319Y-56235238D02*
X215627319Y-56044762D01*
X215627319Y-56044762D02*
X215674938Y-55949524D01*
X215674938Y-55949524D02*
X215722557Y-55901905D01*
X215722557Y-55901905D02*
X215817795Y-55854286D01*
X215817795Y-55854286D02*
X216055890Y-55854286D01*
X216055890Y-55854286D02*
X216151128Y-55901905D01*
X216151128Y-55901905D02*
X216198747Y-55949524D01*
X216198747Y-55949524D02*
X216246366Y-56044762D01*
X216246366Y-56044762D02*
X216246366Y-56235238D01*
X216246366Y-56235238D02*
X216198747Y-56330476D01*
X216198747Y-56330476D02*
X216151128Y-56378095D01*
X216151128Y-56378095D02*
X216055890Y-56425714D01*
X216307319Y-59188095D02*
X215307319Y-59188095D01*
X216307319Y-59759523D02*
X215735890Y-59330952D01*
X215307319Y-59759523D02*
X215878747Y-59188095D01*
D11*
%TO.C,D53*%
X330733750Y-110020000D02*
X330733750Y-110670000D01*
X330733750Y-115560000D02*
X330733750Y-114910000D01*
X331853750Y-114070000D02*
X329613750Y-114070000D01*
X331853750Y-114190000D02*
X329613750Y-114190000D01*
X331853750Y-114310000D02*
X329613750Y-114310000D01*
X331853750Y-114910000D02*
X329613750Y-114910000D01*
X329613750Y-110670000D01*
X331853750Y-110670000D01*
X331853750Y-114910000D01*
%TO.C,D25*%
X280727500Y-71920000D02*
X280727500Y-72570000D01*
X280727500Y-77460000D02*
X280727500Y-76810000D01*
X281847500Y-75970000D02*
X279607500Y-75970000D01*
X281847500Y-76090000D02*
X279607500Y-76090000D01*
X281847500Y-76210000D02*
X279607500Y-76210000D01*
X281847500Y-76810000D02*
X279607500Y-76810000D01*
X279607500Y-72570000D01*
X281847500Y-72570000D01*
X281847500Y-76810000D01*
%TO.C,D10*%
X233102500Y-52870000D02*
X233102500Y-53520000D01*
X233102500Y-58410000D02*
X233102500Y-57760000D01*
X234222500Y-56920000D02*
X231982500Y-56920000D01*
X234222500Y-57040000D02*
X231982500Y-57040000D01*
X234222500Y-57160000D02*
X231982500Y-57160000D01*
X234222500Y-57760000D02*
X231982500Y-57760000D01*
X231982500Y-53520000D01*
X234222500Y-53520000D01*
X234222500Y-57760000D01*
%TO.C,D56*%
X130708750Y-129070000D02*
X130708750Y-129720000D01*
X130708750Y-134610000D02*
X130708750Y-133960000D01*
X131828750Y-133120000D02*
X129588750Y-133120000D01*
X131828750Y-133240000D02*
X129588750Y-133240000D01*
X131828750Y-133360000D02*
X129588750Y-133360000D01*
X131828750Y-133960000D02*
X129588750Y-133960000D01*
X129588750Y-129720000D01*
X131828750Y-129720000D01*
X131828750Y-133960000D01*
%TO.C,D47*%
X199765000Y-110020000D02*
X199765000Y-110670000D01*
X199765000Y-115560000D02*
X199765000Y-114910000D01*
X200885000Y-114070000D02*
X198645000Y-114070000D01*
X200885000Y-114190000D02*
X198645000Y-114190000D01*
X200885000Y-114310000D02*
X198645000Y-114310000D01*
X200885000Y-114910000D02*
X198645000Y-114910000D01*
X198645000Y-110670000D01*
X200885000Y-110670000D01*
X200885000Y-114910000D01*
%TO.C,D27*%
X318827500Y-71920000D02*
X318827500Y-72570000D01*
X318827500Y-77460000D02*
X318827500Y-76810000D01*
X319947500Y-75970000D02*
X317707500Y-75970000D01*
X319947500Y-76090000D02*
X317707500Y-76090000D01*
X319947500Y-76210000D02*
X317707500Y-76210000D01*
X319947500Y-76810000D02*
X317707500Y-76810000D01*
X317707500Y-72570000D01*
X319947500Y-72570000D01*
X319947500Y-76810000D01*
%TO.C,D8*%
X195002500Y-52870000D02*
X195002500Y-53520000D01*
X195002500Y-58410000D02*
X195002500Y-57760000D01*
X196122500Y-56920000D02*
X193882500Y-56920000D01*
X196122500Y-57040000D02*
X193882500Y-57040000D01*
X196122500Y-57160000D02*
X193882500Y-57160000D01*
X196122500Y-57760000D02*
X193882500Y-57760000D01*
X193882500Y-53520000D01*
X196122500Y-53520000D01*
X196122500Y-57760000D01*
%TO.C,D11*%
X252152500Y-52870000D02*
X252152500Y-53520000D01*
X252152500Y-58410000D02*
X252152500Y-57760000D01*
X253272500Y-56920000D02*
X251032500Y-56920000D01*
X253272500Y-57040000D02*
X251032500Y-57040000D01*
X253272500Y-57160000D02*
X251032500Y-57160000D01*
X253272500Y-57760000D02*
X251032500Y-57760000D01*
X251032500Y-53520000D01*
X253272500Y-53520000D01*
X253272500Y-57760000D01*
%TO.C,D34*%
X190240000Y-90970000D02*
X190240000Y-91620000D01*
X190240000Y-96510000D02*
X190240000Y-95860000D01*
X191360000Y-95020000D02*
X189120000Y-95020000D01*
X191360000Y-95140000D02*
X189120000Y-95140000D01*
X191360000Y-95260000D02*
X189120000Y-95260000D01*
X191360000Y-95860000D02*
X189120000Y-95860000D01*
X189120000Y-91620000D01*
X191360000Y-91620000D01*
X191360000Y-95860000D01*
%TO.C,D30*%
X114040000Y-90970000D02*
X114040000Y-91620000D01*
X114040000Y-96510000D02*
X114040000Y-95860000D01*
X115160000Y-95020000D02*
X112920000Y-95020000D01*
X115160000Y-95140000D02*
X112920000Y-95140000D01*
X115160000Y-95260000D02*
X112920000Y-95260000D01*
X115160000Y-95860000D02*
X112920000Y-95860000D01*
X112920000Y-91620000D01*
X115160000Y-91620000D01*
X115160000Y-95860000D01*
%TO.C,D40*%
X304540000Y-90970000D02*
X304540000Y-91620000D01*
X304540000Y-96510000D02*
X304540000Y-95860000D01*
X305660000Y-95020000D02*
X303420000Y-95020000D01*
X305660000Y-95140000D02*
X303420000Y-95140000D01*
X305660000Y-95260000D02*
X303420000Y-95260000D01*
X305660000Y-95860000D02*
X303420000Y-95860000D01*
X303420000Y-91620000D01*
X305660000Y-91620000D01*
X305660000Y-95860000D01*
%TO.C,D58*%
X273583750Y-129070000D02*
X273583750Y-129720000D01*
X273583750Y-134610000D02*
X273583750Y-133960000D01*
X274703750Y-133120000D02*
X272463750Y-133120000D01*
X274703750Y-133240000D02*
X272463750Y-133240000D01*
X274703750Y-133360000D02*
X272463750Y-133360000D01*
X274703750Y-133960000D02*
X272463750Y-133960000D01*
X272463750Y-129720000D01*
X274703750Y-129720000D01*
X274703750Y-133960000D01*
%TO.C,D36*%
X228340000Y-90970000D02*
X228340000Y-91620000D01*
X228340000Y-96510000D02*
X228340000Y-95860000D01*
X229460000Y-95020000D02*
X227220000Y-95020000D01*
X229460000Y-95140000D02*
X227220000Y-95140000D01*
X229460000Y-95260000D02*
X227220000Y-95260000D01*
X229460000Y-95860000D02*
X227220000Y-95860000D01*
X227220000Y-91620000D01*
X229460000Y-91620000D01*
X229460000Y-95860000D01*
%TO.C,D18*%
X147377500Y-71920000D02*
X147377500Y-72570000D01*
X147377500Y-77460000D02*
X147377500Y-76810000D01*
X148497500Y-75970000D02*
X146257500Y-75970000D01*
X148497500Y-76090000D02*
X146257500Y-76090000D01*
X148497500Y-76210000D02*
X146257500Y-76210000D01*
X148497500Y-76810000D02*
X146257500Y-76810000D01*
X146257500Y-72570000D01*
X148497500Y-72570000D01*
X148497500Y-76810000D01*
%TO.C,D52*%
X295015000Y-110020000D02*
X295015000Y-110670000D01*
X295015000Y-115560000D02*
X295015000Y-114910000D01*
X296135000Y-114070000D02*
X293895000Y-114070000D01*
X296135000Y-114190000D02*
X293895000Y-114190000D01*
X296135000Y-114310000D02*
X293895000Y-114310000D01*
X296135000Y-114910000D02*
X293895000Y-114910000D01*
X293895000Y-110670000D01*
X296135000Y-110670000D01*
X296135000Y-114910000D01*
%TO.C,D54*%
X83083750Y-129070000D02*
X83083750Y-129720000D01*
X83083750Y-134610000D02*
X83083750Y-133960000D01*
X84203750Y-133120000D02*
X81963750Y-133120000D01*
X84203750Y-133240000D02*
X81963750Y-133240000D01*
X84203750Y-133360000D02*
X81963750Y-133360000D01*
X84203750Y-133960000D02*
X81963750Y-133960000D01*
X81963750Y-129720000D01*
X84203750Y-129720000D01*
X84203750Y-133960000D01*
%TO.C,D51*%
X275965000Y-110020000D02*
X275965000Y-110670000D01*
X275965000Y-115560000D02*
X275965000Y-114910000D01*
X277085000Y-114070000D02*
X274845000Y-114070000D01*
X277085000Y-114190000D02*
X274845000Y-114190000D01*
X277085000Y-114310000D02*
X274845000Y-114310000D01*
X277085000Y-114910000D02*
X274845000Y-114910000D01*
X274845000Y-110670000D01*
X277085000Y-110670000D01*
X277085000Y-114910000D01*
%TO.C,D20*%
X185477500Y-71920000D02*
X185477500Y-72570000D01*
X185477500Y-77460000D02*
X185477500Y-76810000D01*
X186597500Y-75970000D02*
X184357500Y-75970000D01*
X186597500Y-76090000D02*
X184357500Y-76090000D01*
X186597500Y-76210000D02*
X184357500Y-76210000D01*
X186597500Y-76810000D02*
X184357500Y-76810000D01*
X184357500Y-72570000D01*
X186597500Y-72570000D01*
X186597500Y-76810000D01*
%TO.C,D31*%
X133090000Y-90970000D02*
X133090000Y-91620000D01*
X133090000Y-96510000D02*
X133090000Y-95860000D01*
X134210000Y-95020000D02*
X131970000Y-95020000D01*
X134210000Y-95140000D02*
X131970000Y-95140000D01*
X134210000Y-95260000D02*
X131970000Y-95260000D01*
X134210000Y-95860000D02*
X131970000Y-95860000D01*
X131970000Y-91620000D01*
X134210000Y-91620000D01*
X134210000Y-95860000D01*
%TO.C,D35*%
X209290000Y-90970000D02*
X209290000Y-91620000D01*
X209290000Y-96510000D02*
X209290000Y-95860000D01*
X210410000Y-95020000D02*
X208170000Y-95020000D01*
X210410000Y-95140000D02*
X208170000Y-95140000D01*
X210410000Y-95260000D02*
X208170000Y-95260000D01*
X210410000Y-95860000D02*
X208170000Y-95860000D01*
X208170000Y-91620000D01*
X210410000Y-91620000D01*
X210410000Y-95860000D01*
%TO.C,D13*%
X290252500Y-52870000D02*
X290252500Y-53520000D01*
X290252500Y-58410000D02*
X290252500Y-57760000D01*
X291372500Y-56920000D02*
X289132500Y-56920000D01*
X291372500Y-57040000D02*
X289132500Y-57040000D01*
X291372500Y-57160000D02*
X289132500Y-57160000D01*
X291372500Y-57760000D02*
X289132500Y-57760000D01*
X289132500Y-53520000D01*
X291372500Y-53520000D01*
X291372500Y-57760000D01*
%TO.C,D1*%
X80702500Y-52870000D02*
X80702500Y-53520000D01*
X80702500Y-58410000D02*
X80702500Y-57760000D01*
X81822500Y-56920000D02*
X79582500Y-56920000D01*
X81822500Y-57040000D02*
X79582500Y-57040000D01*
X81822500Y-57160000D02*
X79582500Y-57160000D01*
X81822500Y-57760000D02*
X79582500Y-57760000D01*
X79582500Y-53520000D01*
X81822500Y-53520000D01*
X81822500Y-57760000D01*
%TO.C,D14*%
X309302500Y-52870000D02*
X309302500Y-53520000D01*
X309302500Y-58410000D02*
X309302500Y-57760000D01*
X310422500Y-56920000D02*
X308182500Y-56920000D01*
X310422500Y-57040000D02*
X308182500Y-57040000D01*
X310422500Y-57160000D02*
X308182500Y-57160000D01*
X310422500Y-57760000D02*
X308182500Y-57760000D01*
X308182500Y-53520000D01*
X310422500Y-53520000D01*
X310422500Y-57760000D01*
%TO.C,D6*%
X156902500Y-52870000D02*
X156902500Y-53520000D01*
X156902500Y-58410000D02*
X156902500Y-57760000D01*
X158022500Y-56920000D02*
X155782500Y-56920000D01*
X158022500Y-57040000D02*
X155782500Y-57040000D01*
X158022500Y-57160000D02*
X155782500Y-57160000D01*
X158022500Y-57760000D02*
X155782500Y-57760000D01*
X155782500Y-53520000D01*
X158022500Y-53520000D01*
X158022500Y-57760000D01*
%TO.C,D39*%
X285490000Y-90970000D02*
X285490000Y-91620000D01*
X285490000Y-96510000D02*
X285490000Y-95860000D01*
X286610000Y-95020000D02*
X284370000Y-95020000D01*
X286610000Y-95140000D02*
X284370000Y-95140000D01*
X286610000Y-95260000D02*
X284370000Y-95260000D01*
X286610000Y-95860000D02*
X284370000Y-95860000D01*
X284370000Y-91620000D01*
X286610000Y-91620000D01*
X286610000Y-95860000D01*
%TO.C,D49*%
X237865000Y-110020000D02*
X237865000Y-110670000D01*
X237865000Y-115560000D02*
X237865000Y-114910000D01*
X238985000Y-114070000D02*
X236745000Y-114070000D01*
X238985000Y-114190000D02*
X236745000Y-114190000D01*
X238985000Y-114310000D02*
X236745000Y-114310000D01*
X238985000Y-114910000D02*
X236745000Y-114910000D01*
X236745000Y-110670000D01*
X238985000Y-110670000D01*
X238985000Y-114910000D01*
%TO.C,D17*%
X128327500Y-71920000D02*
X128327500Y-72570000D01*
X128327500Y-77460000D02*
X128327500Y-76810000D01*
X129447500Y-75970000D02*
X127207500Y-75970000D01*
X129447500Y-76090000D02*
X127207500Y-76090000D01*
X129447500Y-76210000D02*
X127207500Y-76210000D01*
X129447500Y-76810000D02*
X127207500Y-76810000D01*
X127207500Y-72570000D01*
X129447500Y-72570000D01*
X129447500Y-76810000D01*
%TO.C,D44*%
X142615000Y-110020000D02*
X142615000Y-110670000D01*
X142615000Y-115560000D02*
X142615000Y-114910000D01*
X143735000Y-114070000D02*
X141495000Y-114070000D01*
X143735000Y-114190000D02*
X141495000Y-114190000D01*
X143735000Y-114310000D02*
X141495000Y-114310000D01*
X143735000Y-114910000D02*
X141495000Y-114910000D01*
X141495000Y-110670000D01*
X143735000Y-110670000D01*
X143735000Y-114910000D01*
%TO.C,D46*%
X180715000Y-110020000D02*
X180715000Y-110670000D01*
X180715000Y-115560000D02*
X180715000Y-114910000D01*
X181835000Y-114070000D02*
X179595000Y-114070000D01*
X181835000Y-114190000D02*
X179595000Y-114190000D01*
X181835000Y-114310000D02*
X179595000Y-114310000D01*
X181835000Y-114910000D02*
X179595000Y-114910000D01*
X179595000Y-110670000D01*
X181835000Y-110670000D01*
X181835000Y-114910000D01*
%TO.C,D2*%
X99752500Y-52870000D02*
X99752500Y-53520000D01*
X99752500Y-58410000D02*
X99752500Y-57760000D01*
X100872500Y-56920000D02*
X98632500Y-56920000D01*
X100872500Y-57040000D02*
X98632500Y-57040000D01*
X100872500Y-57160000D02*
X98632500Y-57160000D01*
X100872500Y-57760000D02*
X98632500Y-57760000D01*
X98632500Y-53520000D01*
X100872500Y-53520000D01*
X100872500Y-57760000D01*
%TO.C,D57*%
X202146250Y-129070000D02*
X202146250Y-129720000D01*
X202146250Y-134610000D02*
X202146250Y-133960000D01*
X203266250Y-133120000D02*
X201026250Y-133120000D01*
X203266250Y-133240000D02*
X201026250Y-133240000D01*
X203266250Y-133360000D02*
X201026250Y-133360000D01*
X203266250Y-133960000D02*
X201026250Y-133960000D01*
X201026250Y-129720000D01*
X203266250Y-129720000D01*
X203266250Y-133960000D01*
%TO.C,D24*%
X261677500Y-71920000D02*
X261677500Y-72570000D01*
X261677500Y-77460000D02*
X261677500Y-76810000D01*
X262797500Y-75970000D02*
X260557500Y-75970000D01*
X262797500Y-76090000D02*
X260557500Y-76090000D01*
X262797500Y-76210000D02*
X260557500Y-76210000D01*
X262797500Y-76810000D02*
X260557500Y-76810000D01*
X260557500Y-72570000D01*
X262797500Y-72570000D01*
X262797500Y-76810000D01*
%TO.C,D22*%
X223577500Y-71920000D02*
X223577500Y-72570000D01*
X223577500Y-77460000D02*
X223577500Y-76810000D01*
X224697500Y-75970000D02*
X222457500Y-75970000D01*
X224697500Y-76090000D02*
X222457500Y-76090000D01*
X224697500Y-76210000D02*
X222457500Y-76210000D01*
X224697500Y-76810000D02*
X222457500Y-76810000D01*
X222457500Y-72570000D01*
X224697500Y-72570000D01*
X224697500Y-76810000D01*
%TO.C,D38*%
X266440000Y-90970000D02*
X266440000Y-91620000D01*
X266440000Y-96510000D02*
X266440000Y-95860000D01*
X267560000Y-95020000D02*
X265320000Y-95020000D01*
X267560000Y-95140000D02*
X265320000Y-95140000D01*
X267560000Y-95260000D02*
X265320000Y-95260000D01*
X267560000Y-95860000D02*
X265320000Y-95860000D01*
X265320000Y-91620000D01*
X267560000Y-91620000D01*
X267560000Y-95860000D01*
%TO.C,D37*%
X247390000Y-90970000D02*
X247390000Y-91620000D01*
X247390000Y-96510000D02*
X247390000Y-95860000D01*
X248510000Y-95020000D02*
X246270000Y-95020000D01*
X248510000Y-95140000D02*
X246270000Y-95140000D01*
X248510000Y-95260000D02*
X246270000Y-95260000D01*
X248510000Y-95860000D02*
X246270000Y-95860000D01*
X246270000Y-91620000D01*
X248510000Y-91620000D01*
X248510000Y-95860000D01*
%TO.C,D60*%
X321208750Y-129070000D02*
X321208750Y-129720000D01*
X321208750Y-134610000D02*
X321208750Y-133960000D01*
X322328750Y-133120000D02*
X320088750Y-133120000D01*
X322328750Y-133240000D02*
X320088750Y-133240000D01*
X322328750Y-133360000D02*
X320088750Y-133360000D01*
X322328750Y-133960000D02*
X320088750Y-133960000D01*
X320088750Y-129720000D01*
X322328750Y-129720000D01*
X322328750Y-133960000D01*
%TO.C,D33*%
X171190000Y-90970000D02*
X171190000Y-91620000D01*
X171190000Y-96510000D02*
X171190000Y-95860000D01*
X172310000Y-95020000D02*
X170070000Y-95020000D01*
X172310000Y-95140000D02*
X170070000Y-95140000D01*
X172310000Y-95260000D02*
X170070000Y-95260000D01*
X172310000Y-95860000D02*
X170070000Y-95860000D01*
X170070000Y-91620000D01*
X172310000Y-91620000D01*
X172310000Y-95860000D01*
%TO.C,D5*%
X337877500Y-52870000D02*
X337877500Y-53520000D01*
X337877500Y-58410000D02*
X337877500Y-57760000D01*
X338997500Y-56920000D02*
X336757500Y-56920000D01*
X338997500Y-57040000D02*
X336757500Y-57040000D01*
X338997500Y-57160000D02*
X336757500Y-57160000D01*
X338997500Y-57760000D02*
X336757500Y-57760000D01*
X336757500Y-53520000D01*
X338997500Y-53520000D01*
X338997500Y-57760000D01*
%TO.C,D23*%
X242627500Y-71920000D02*
X242627500Y-72570000D01*
X242627500Y-77460000D02*
X242627500Y-76810000D01*
X243747500Y-75970000D02*
X241507500Y-75970000D01*
X243747500Y-76090000D02*
X241507500Y-76090000D01*
X243747500Y-76210000D02*
X241507500Y-76210000D01*
X243747500Y-76810000D02*
X241507500Y-76810000D01*
X241507500Y-72570000D01*
X243747500Y-72570000D01*
X243747500Y-76810000D01*
%TO.C,D26*%
X299777500Y-71920000D02*
X299777500Y-72570000D01*
X299777500Y-77460000D02*
X299777500Y-76810000D01*
X300897500Y-75970000D02*
X298657500Y-75970000D01*
X300897500Y-76090000D02*
X298657500Y-76090000D01*
X300897500Y-76210000D02*
X298657500Y-76210000D01*
X300897500Y-76810000D02*
X298657500Y-76810000D01*
X298657500Y-72570000D01*
X300897500Y-72570000D01*
X300897500Y-76810000D01*
%TO.C,D3*%
X118802500Y-52870000D02*
X118802500Y-53520000D01*
X118802500Y-58410000D02*
X118802500Y-57760000D01*
X119922500Y-56920000D02*
X117682500Y-56920000D01*
X119922500Y-57040000D02*
X117682500Y-57040000D01*
X119922500Y-57160000D02*
X117682500Y-57160000D01*
X119922500Y-57760000D02*
X117682500Y-57760000D01*
X117682500Y-53520000D01*
X119922500Y-53520000D01*
X119922500Y-57760000D01*
%TO.C,D55*%
X106896250Y-129070000D02*
X106896250Y-129720000D01*
X106896250Y-134610000D02*
X106896250Y-133960000D01*
X108016250Y-133120000D02*
X105776250Y-133120000D01*
X108016250Y-133240000D02*
X105776250Y-133240000D01*
X108016250Y-133360000D02*
X105776250Y-133360000D01*
X108016250Y-133960000D02*
X105776250Y-133960000D01*
X105776250Y-129720000D01*
X108016250Y-129720000D01*
X108016250Y-133960000D01*
%TO.C,D45*%
X161665000Y-110020000D02*
X161665000Y-110670000D01*
X161665000Y-115560000D02*
X161665000Y-114910000D01*
X162785000Y-114070000D02*
X160545000Y-114070000D01*
X162785000Y-114190000D02*
X160545000Y-114190000D01*
X162785000Y-114310000D02*
X160545000Y-114310000D01*
X162785000Y-114910000D02*
X160545000Y-114910000D01*
X160545000Y-110670000D01*
X162785000Y-110670000D01*
X162785000Y-114910000D01*
%TO.C,D41*%
X335496250Y-90970000D02*
X335496250Y-91620000D01*
X335496250Y-96510000D02*
X335496250Y-95860000D01*
X336616250Y-95020000D02*
X334376250Y-95020000D01*
X336616250Y-95140000D02*
X334376250Y-95140000D01*
X336616250Y-95260000D02*
X334376250Y-95260000D01*
X336616250Y-95860000D02*
X334376250Y-95860000D01*
X334376250Y-91620000D01*
X336616250Y-91620000D01*
X336616250Y-95860000D01*
%TO.C,D61*%
X345021250Y-129070000D02*
X345021250Y-129720000D01*
X345021250Y-134610000D02*
X345021250Y-133960000D01*
X346141250Y-133120000D02*
X343901250Y-133120000D01*
X346141250Y-133240000D02*
X343901250Y-133240000D01*
X346141250Y-133360000D02*
X343901250Y-133360000D01*
X346141250Y-133960000D02*
X343901250Y-133960000D01*
X343901250Y-129720000D01*
X346141250Y-129720000D01*
X346141250Y-133960000D01*
%TO.C,D7*%
X175952500Y-52870000D02*
X175952500Y-53520000D01*
X175952500Y-58410000D02*
X175952500Y-57760000D01*
X177072500Y-56920000D02*
X174832500Y-56920000D01*
X177072500Y-57040000D02*
X174832500Y-57040000D01*
X177072500Y-57160000D02*
X174832500Y-57160000D01*
X177072500Y-57760000D02*
X174832500Y-57760000D01*
X174832500Y-53520000D01*
X177072500Y-53520000D01*
X177072500Y-57760000D01*
%TO.C,D4*%
X137852500Y-52870000D02*
X137852500Y-53520000D01*
X137852500Y-58410000D02*
X137852500Y-57760000D01*
X138972500Y-56920000D02*
X136732500Y-56920000D01*
X138972500Y-57040000D02*
X136732500Y-57040000D01*
X138972500Y-57160000D02*
X136732500Y-57160000D01*
X138972500Y-57760000D02*
X136732500Y-57760000D01*
X136732500Y-53520000D01*
X138972500Y-53520000D01*
X138972500Y-57760000D01*
%TO.C,D42*%
X92608750Y-110020000D02*
X92608750Y-110670000D01*
X92608750Y-115560000D02*
X92608750Y-114910000D01*
X93728750Y-114070000D02*
X91488750Y-114070000D01*
X93728750Y-114190000D02*
X91488750Y-114190000D01*
X93728750Y-114310000D02*
X91488750Y-114310000D01*
X93728750Y-114910000D02*
X91488750Y-114910000D01*
X91488750Y-110670000D01*
X93728750Y-110670000D01*
X93728750Y-114910000D01*
%TO.C,D59*%
X297396250Y-129070000D02*
X297396250Y-129720000D01*
X297396250Y-134610000D02*
X297396250Y-133960000D01*
X298516250Y-133120000D02*
X296276250Y-133120000D01*
X298516250Y-133240000D02*
X296276250Y-133240000D01*
X298516250Y-133360000D02*
X296276250Y-133360000D01*
X298516250Y-133960000D02*
X296276250Y-133960000D01*
X296276250Y-129720000D01*
X298516250Y-129720000D01*
X298516250Y-133960000D01*
%TO.C,D48*%
X218815000Y-110020000D02*
X218815000Y-110670000D01*
X218815000Y-115560000D02*
X218815000Y-114910000D01*
X219935000Y-114070000D02*
X217695000Y-114070000D01*
X219935000Y-114190000D02*
X217695000Y-114190000D01*
X219935000Y-114310000D02*
X217695000Y-114310000D01*
X219935000Y-114910000D02*
X217695000Y-114910000D01*
X217695000Y-110670000D01*
X219935000Y-110670000D01*
X219935000Y-114910000D01*
%TO.C,D19*%
X166427500Y-71920000D02*
X166427500Y-72570000D01*
X166427500Y-77460000D02*
X166427500Y-76810000D01*
X167547500Y-75970000D02*
X165307500Y-75970000D01*
X167547500Y-76090000D02*
X165307500Y-76090000D01*
X167547500Y-76210000D02*
X165307500Y-76210000D01*
X167547500Y-76810000D02*
X165307500Y-76810000D01*
X165307500Y-72570000D01*
X167547500Y-72570000D01*
X167547500Y-76810000D01*
%TO.C,D15*%
X85465000Y-71920000D02*
X85465000Y-72570000D01*
X85465000Y-77460000D02*
X85465000Y-76810000D01*
X86585000Y-75970000D02*
X84345000Y-75970000D01*
X86585000Y-76090000D02*
X84345000Y-76090000D01*
X86585000Y-76210000D02*
X84345000Y-76210000D01*
X86585000Y-76810000D02*
X84345000Y-76810000D01*
X84345000Y-72570000D01*
X86585000Y-72570000D01*
X86585000Y-76810000D01*
%TO.C,D43*%
X123565000Y-110020000D02*
X123565000Y-110670000D01*
X123565000Y-115560000D02*
X123565000Y-114910000D01*
X124685000Y-114070000D02*
X122445000Y-114070000D01*
X124685000Y-114190000D02*
X122445000Y-114190000D01*
X124685000Y-114310000D02*
X122445000Y-114310000D01*
X124685000Y-114910000D02*
X122445000Y-114910000D01*
X122445000Y-110670000D01*
X124685000Y-110670000D01*
X124685000Y-114910000D01*
%TO.C,D29*%
X87846250Y-90970000D02*
X87846250Y-91620000D01*
X87846250Y-96510000D02*
X87846250Y-95860000D01*
X88966250Y-95020000D02*
X86726250Y-95020000D01*
X88966250Y-95140000D02*
X86726250Y-95140000D01*
X88966250Y-95260000D02*
X86726250Y-95260000D01*
X88966250Y-95860000D02*
X86726250Y-95860000D01*
X86726250Y-91620000D01*
X88966250Y-91620000D01*
X88966250Y-95860000D01*
%TO.C,D28*%
X342640000Y-71920000D02*
X342640000Y-72570000D01*
X342640000Y-77460000D02*
X342640000Y-76810000D01*
X343760000Y-75970000D02*
X341520000Y-75970000D01*
X343760000Y-76090000D02*
X341520000Y-76090000D01*
X343760000Y-76210000D02*
X341520000Y-76210000D01*
X343760000Y-76810000D02*
X341520000Y-76810000D01*
X341520000Y-72570000D01*
X343760000Y-72570000D01*
X343760000Y-76810000D01*
%TO.C,D21*%
X204527500Y-71920000D02*
X204527500Y-72570000D01*
X204527500Y-77460000D02*
X204527500Y-76810000D01*
X205647500Y-75970000D02*
X203407500Y-75970000D01*
X205647500Y-76090000D02*
X203407500Y-76090000D01*
X205647500Y-76210000D02*
X203407500Y-76210000D01*
X205647500Y-76810000D02*
X203407500Y-76810000D01*
X203407500Y-72570000D01*
X205647500Y-72570000D01*
X205647500Y-76810000D01*
%TO.C,D16*%
X109277500Y-71920000D02*
X109277500Y-72570000D01*
X109277500Y-77460000D02*
X109277500Y-76810000D01*
X110397500Y-75970000D02*
X108157500Y-75970000D01*
X110397500Y-76090000D02*
X108157500Y-76090000D01*
X110397500Y-76210000D02*
X108157500Y-76210000D01*
X110397500Y-76810000D02*
X108157500Y-76810000D01*
X108157500Y-72570000D01*
X110397500Y-72570000D01*
X110397500Y-76810000D01*
%TO.C,D50*%
X256915000Y-110020000D02*
X256915000Y-110670000D01*
X256915000Y-115560000D02*
X256915000Y-114910000D01*
X258035000Y-114070000D02*
X255795000Y-114070000D01*
X258035000Y-114190000D02*
X255795000Y-114190000D01*
X258035000Y-114310000D02*
X255795000Y-114310000D01*
X258035000Y-114910000D02*
X255795000Y-114910000D01*
X255795000Y-110670000D01*
X258035000Y-110670000D01*
X258035000Y-114910000D01*
%TO.C,D12*%
X271202500Y-52870000D02*
X271202500Y-53520000D01*
X271202500Y-58410000D02*
X271202500Y-57760000D01*
X272322500Y-56920000D02*
X270082500Y-56920000D01*
X272322500Y-57040000D02*
X270082500Y-57040000D01*
X272322500Y-57160000D02*
X270082500Y-57160000D01*
X272322500Y-57760000D02*
X270082500Y-57760000D01*
X270082500Y-53520000D01*
X272322500Y-53520000D01*
X272322500Y-57760000D01*
%TO.C,D32*%
X152140000Y-90970000D02*
X152140000Y-91620000D01*
X152140000Y-96510000D02*
X152140000Y-95860000D01*
X153260000Y-95020000D02*
X151020000Y-95020000D01*
X153260000Y-95140000D02*
X151020000Y-95140000D01*
X153260000Y-95260000D02*
X151020000Y-95260000D01*
X153260000Y-95860000D02*
X151020000Y-95860000D01*
X151020000Y-91620000D01*
X153260000Y-91620000D01*
X153260000Y-95860000D01*
%TO.C,D9*%
X214052500Y-52870000D02*
X214052500Y-53520000D01*
X214052500Y-58410000D02*
X214052500Y-57760000D01*
X215172500Y-56920000D02*
X212932500Y-56920000D01*
X215172500Y-57040000D02*
X212932500Y-57040000D01*
X215172500Y-57160000D02*
X212932500Y-57160000D01*
X215172500Y-57760000D02*
X212932500Y-57760000D01*
X212932500Y-53520000D01*
X215172500Y-53520000D01*
X215172500Y-57760000D01*
%TD*%
M02*
