%TF.GenerationSoftware,KiCad,Pcbnew,9.0.6*%
%TF.CreationDate,2026-03-15T00:02:25+05:30*%
%TF.ProjectId,PCB,5043422e-6b69-4636-9164-5f7063625858,rev?*%
%TF.SameCoordinates,Original*%
%TF.FileFunction,Copper,L1,Top*%
%TF.FilePolarity,Positive*%
%FSLAX46Y46*%
G04 Gerber Fmt 4.6, Leading zero omitted, Abs format (unit mm)*
G04 Created by KiCad (PCBNEW 9.0.6) date 2026-03-15 00:02:25*
%MOMM*%
%LPD*%
G01*
G04 APERTURE LIST*
G04 Aperture macros list*
%AMRoundRect*
0 Rectangle with rounded corners*
0 $1 Rounding radius*
0 $2 $3 $4 $5 $6 $7 $8 $9 X,Y pos of 4 corners*
0 Add a 4 corners polygon primitive as box body*
4,1,4,$2,$3,$4,$5,$6,$7,$8,$9,$2,$3,0*
0 Add four circle primitives for the rounded corners*
1,1,$1+$1,$2,$3*
1,1,$1+$1,$4,$5*
1,1,$1+$1,$6,$7*
1,1,$1+$1,$8,$9*
0 Add four rect primitives between the rounded corners*
20,1,$1+$1,$2,$3,$4,$5,0*
20,1,$1+$1,$4,$5,$6,$7,0*
20,1,$1+$1,$6,$7,$8,$9,0*
20,1,$1+$1,$8,$9,$2,$3,0*%
%AMFreePoly0*
4,1,37,0.800000,0.796148,0.878414,0.796148,1.032228,0.765552,1.177117,0.705537,1.307515,0.618408,1.418408,0.507515,1.505537,0.377117,1.565552,0.232228,1.596148,0.078414,1.596148,-0.078414,1.565552,-0.232228,1.505537,-0.377117,1.418408,-0.507515,1.307515,-0.618408,1.177117,-0.705537,1.032228,-0.765552,0.878414,-0.796148,0.800000,-0.796148,0.800000,-0.800000,-1.400000,-0.800000,
-1.403843,-0.796157,-1.439018,-0.796157,-1.511114,-0.766294,-1.566294,-0.711114,-1.596157,-0.639018,-1.596157,-0.603843,-1.600000,-0.600000,-1.600000,0.600000,-1.596157,0.603843,-1.596157,0.639018,-1.566294,0.711114,-1.511114,0.766294,-1.439018,0.796157,-1.403843,0.796157,-1.400000,0.800000,0.800000,0.800000,0.800000,0.796148,0.800000,0.796148,$1*%
%AMFreePoly1*
4,1,37,1.403843,0.796157,1.439018,0.796157,1.511114,0.766294,1.566294,0.711114,1.596157,0.639018,1.596157,0.603843,1.600000,0.600000,1.600000,-0.600000,1.596157,-0.603843,1.596157,-0.639018,1.566294,-0.711114,1.511114,-0.766294,1.439018,-0.796157,1.403843,-0.796157,1.400000,-0.800000,-0.800000,-0.800000,-0.800000,-0.796148,-0.878414,-0.796148,-1.032228,-0.765552,-1.177117,-0.705537,
-1.307515,-0.618408,-1.418408,-0.507515,-1.505537,-0.377117,-1.565552,-0.232228,-1.596148,-0.078414,-1.596148,0.078414,-1.565552,0.232228,-1.505537,0.377117,-1.418408,0.507515,-1.307515,0.618408,-1.177117,0.705537,-1.032228,0.765552,-0.878414,0.796148,-0.800000,0.796148,-0.800000,0.800000,1.400000,0.800000,1.403843,0.796157,1.403843,0.796157,$1*%
%AMFreePoly2*
4,1,37,0.603843,0.796157,0.639018,0.796157,0.711114,0.766294,0.766294,0.711114,0.796157,0.639018,0.796157,0.603843,0.800000,0.600000,0.800000,-0.600000,0.796157,-0.603843,0.796157,-0.639018,0.766294,-0.711114,0.711114,-0.766294,0.639018,-0.796157,0.603843,-0.796157,0.600000,-0.800000,0.000000,-0.800000,0.000000,-0.796148,-0.078414,-0.796148,-0.232228,-0.765552,-0.377117,-0.705537,
-0.507515,-0.618408,-0.618408,-0.507515,-0.705537,-0.377117,-0.765552,-0.232228,-0.796148,-0.078414,-0.796148,0.078414,-0.765552,0.232228,-0.705537,0.377117,-0.618408,0.507515,-0.507515,0.618408,-0.377117,0.705537,-0.232228,0.765552,-0.078414,0.796148,0.000000,0.796148,0.000000,0.800000,0.600000,0.800000,0.603843,0.796157,0.603843,0.796157,$1*%
%AMFreePoly3*
4,1,37,0.000000,0.796148,0.078414,0.796148,0.232228,0.765552,0.377117,0.705537,0.507515,0.618408,0.618408,0.507515,0.705537,0.377117,0.765552,0.232228,0.796148,0.078414,0.796148,-0.078414,0.765552,-0.232228,0.705537,-0.377117,0.618408,-0.507515,0.507515,-0.618408,0.377117,-0.705537,0.232228,-0.765552,0.078414,-0.796148,0.000000,-0.796148,0.000000,-0.800000,-0.600000,-0.800000,
-0.603843,-0.796157,-0.639018,-0.796157,-0.711114,-0.766294,-0.766294,-0.711114,-0.796157,-0.639018,-0.796157,-0.603843,-0.800000,-0.600000,-0.800000,0.600000,-0.796157,0.603843,-0.796157,0.639018,-0.766294,0.711114,-0.711114,0.766294,-0.639018,0.796157,-0.603843,0.796157,-0.600000,0.800000,0.000000,0.800000,0.000000,0.796148,0.000000,0.796148,$1*%
G04 Aperture macros list end*
%TA.AperFunction,ComponentPad*%
%ADD10C,2.200000*%
%TD*%
%TA.AperFunction,SMDPad,CuDef*%
%ADD11FreePoly0,90.000000*%
%TD*%
%TA.AperFunction,ComponentPad*%
%ADD12RoundRect,0.200000X0.600000X-0.600000X0.600000X0.600000X-0.600000X0.600000X-0.600000X-0.600000X0*%
%TD*%
%TA.AperFunction,SMDPad,CuDef*%
%ADD13RoundRect,0.800000X0.000010X-0.800000X0.000010X0.800000X-0.000010X0.800000X-0.000010X-0.800000X0*%
%TD*%
%TA.AperFunction,ComponentPad*%
%ADD14C,1.600000*%
%TD*%
%TA.AperFunction,SMDPad,CuDef*%
%ADD15FreePoly1,90.000000*%
%TD*%
%TA.AperFunction,ComponentPad*%
%ADD16FreePoly2,90.000000*%
%TD*%
%TA.AperFunction,ComponentPad*%
%ADD17FreePoly3,90.000000*%
%TD*%
%TA.AperFunction,ComponentPad*%
%ADD18RoundRect,0.250000X0.550000X-0.550000X0.550000X0.550000X-0.550000X0.550000X-0.550000X-0.550000X0*%
%TD*%
%TA.AperFunction,ViaPad*%
%ADD19C,0.600000*%
%TD*%
%TA.AperFunction,Conductor*%
%ADD20C,0.200000*%
%TD*%
G04 APERTURE END LIST*
D10*
%TO.P,SW16,1,1*%
%TO.N,COL1*%
X109237500Y-112631250D03*
%TO.P,SW16,2,2*%
%TO.N,Net-(D16-A)*%
X102887500Y-115171250D03*
%TD*%
%TO.P,SW10,1,1*%
%TO.N,COL9*%
X252112500Y-93581250D03*
%TO.P,SW10,2,2*%
%TO.N,Net-(D11-A)*%
X245762500Y-96121250D03*
%TD*%
%TO.P,SW12,1,1*%
%TO.N,COL11*%
X290212500Y-93581250D03*
%TO.P,SW12,2,2*%
%TO.N,Net-(D13-A)*%
X283862500Y-96121250D03*
%TD*%
%TO.P,SW50,1,1*%
%TO.N,COL7*%
X256875000Y-150731250D03*
%TO.P,SW50,2,2*%
%TO.N,Net-(D50-A)*%
X250525000Y-153271250D03*
%TD*%
%TO.P,SW13,1,1*%
%TO.N,COL12*%
X309262500Y-93581250D03*
%TO.P,SW13,2,2*%
%TO.N,Net-(D14-A)*%
X302912500Y-96121250D03*
%TD*%
%TO.P,SW27,1,1*%
%TO.N,COL12*%
X318787500Y-112631250D03*
%TO.P,SW27,2,2*%
%TO.N,Net-(D27-A)*%
X312437500Y-115171250D03*
%TD*%
%TO.P,SW28,1,1*%
%TO.N,COL13*%
X342600000Y-112631250D03*
%TO.P,SW28,2,2*%
%TO.N,Net-(D28-A)*%
X336250000Y-115171250D03*
%TD*%
%TO.P,SW36,1,1*%
%TO.N,COL7*%
X228300000Y-131681250D03*
%TO.P,SW36,2,2*%
%TO.N,Net-(D36-A)*%
X221950000Y-134221250D03*
%TD*%
%TO.P,SW34,1,1*%
%TO.N,COL5*%
X190200000Y-131681250D03*
%TO.P,SW34,2,2*%
%TO.N,Net-(D34-A)*%
X183850000Y-134221250D03*
%TD*%
%TO.P,SW35,1,1*%
%TO.N,COL6*%
X209250000Y-131681250D03*
%TO.P,SW35,2,2*%
%TO.N,Net-(D35-A)*%
X202900000Y-134221250D03*
%TD*%
%TO.P,SW7,1,1*%
%TO.N,COL6*%
X194962500Y-93581250D03*
%TO.P,SW7,2,2*%
%TO.N,Net-(D8-A)*%
X188612500Y-96121250D03*
%TD*%
%TO.P,SW2,1,1*%
%TO.N,COL1*%
X99712500Y-93581250D03*
%TO.P,SW2,2,2*%
%TO.N,Net-(D2-A)*%
X93362500Y-96121250D03*
%TD*%
D11*
%TO.P,A1,1,GPIO0*%
%TO.N,COL7*%
X74270000Y-83490000D03*
D12*
X74270000Y-82690000D03*
D13*
%TO.P,A1,2,GPIO1*%
%TO.N,COL8*%
X76810000Y-83490000D03*
D14*
X76810000Y-82690000D03*
D15*
%TO.P,A1,3,GND*%
%TO.N,Net-(A1-GND-Pad13)*%
X79350000Y-83490000D03*
D16*
X79350000Y-82690000D03*
D13*
%TO.P,A1,4,GPIO2*%
%TO.N,COL9*%
X81890000Y-83490000D03*
D14*
X81890000Y-82690000D03*
D13*
%TO.P,A1,5,GPIO3*%
%TO.N,COL10*%
X84430000Y-83490000D03*
D14*
X84430000Y-82690000D03*
D13*
%TO.P,A1,6,GPIO4*%
%TO.N,COL11*%
X86970000Y-83490000D03*
D14*
X86970000Y-82690000D03*
D13*
%TO.P,A1,7,GPIO5*%
%TO.N,COL12*%
X89510000Y-83490000D03*
D14*
X89510000Y-82690000D03*
D15*
%TO.P,A1,8,GND*%
%TO.N,Net-(A1-GND-Pad13)*%
X92050000Y-83490000D03*
D16*
X92050000Y-82690000D03*
D13*
%TO.P,A1,9,GPIO6*%
%TO.N,COL13*%
X94590000Y-83490000D03*
D14*
X94590000Y-82690000D03*
D13*
%TO.P,A1,10,GPIO7*%
%TO.N,ROW0*%
X97130000Y-83490000D03*
D14*
X97130000Y-82690000D03*
D13*
%TO.P,A1,11,GPIO8*%
%TO.N,ROW1*%
X99670000Y-83490000D03*
D14*
X99670000Y-82690000D03*
D13*
%TO.P,A1,12,GPIO9*%
%TO.N,ROW2*%
X102210000Y-83490000D03*
D14*
X102210000Y-82690000D03*
D15*
%TO.P,A1,13,GND*%
%TO.N,Net-(A1-GND-Pad13)*%
X104750000Y-83490000D03*
D16*
X104750000Y-82690000D03*
D13*
%TO.P,A1,14,GPIO10*%
%TO.N,ROW3*%
X107290000Y-83490000D03*
D14*
X107290000Y-82690000D03*
D13*
%TO.P,A1,15,GPIO11*%
%TO.N,ROW4*%
X109830000Y-83490000D03*
D14*
X109830000Y-82690000D03*
D13*
%TO.P,A1,16,GPIO12*%
%TO.N,unconnected-(A1-GPIO12-Pad16)*%
X112370000Y-83490000D03*
D14*
X112370000Y-82690000D03*
D13*
%TO.P,A1,17,GPIO13*%
%TO.N,unconnected-(A1-GPIO13-Pad17)*%
X114910000Y-83490000D03*
D14*
X114910000Y-82690000D03*
D15*
%TO.P,A1,18,GND*%
%TO.N,Net-(A1-GND-Pad13)*%
X117450000Y-83490000D03*
D16*
X117450000Y-82690000D03*
D13*
%TO.P,A1,19,GPIO14*%
%TO.N,unconnected-(A1-GPIO14-Pad19)*%
X119990000Y-83490000D03*
D14*
X119990000Y-82690000D03*
D13*
%TO.P,A1,20,GPIO15*%
%TO.N,unconnected-(A1-GPIO15-Pad20)*%
X122530000Y-83490000D03*
D14*
X122530000Y-82690000D03*
%TO.P,A1,21,GPIO16*%
%TO.N,COL0*%
X122530000Y-64910000D03*
D13*
X122530000Y-64110000D03*
D14*
%TO.P,A1,22,GPIO17*%
%TO.N,COL1*%
X119990000Y-64910000D03*
D13*
X119990000Y-64110000D03*
D17*
%TO.P,A1,23,GND*%
%TO.N,Net-(A1-GND-Pad13)*%
X117450000Y-64910000D03*
D11*
X117450000Y-64110000D03*
D14*
%TO.P,A1,24,GPIO18*%
%TO.N,COL2*%
X114910000Y-64910000D03*
D13*
X114910000Y-64110000D03*
D14*
%TO.P,A1,25,GPIO19*%
%TO.N,COL3*%
X112370000Y-64910000D03*
D13*
X112370000Y-64110000D03*
D14*
%TO.P,A1,26,GPIO20*%
%TO.N,COL4*%
X109830000Y-64910000D03*
D13*
X109830000Y-64110000D03*
D14*
%TO.P,A1,27,GPIO21*%
%TO.N,COL5*%
X107290000Y-64910000D03*
D13*
X107290000Y-64110000D03*
D17*
%TO.P,A1,28,GND*%
%TO.N,Net-(A1-GND-Pad13)*%
X104750000Y-64910000D03*
D11*
X104750000Y-64110000D03*
D14*
%TO.P,A1,29,GPIO22*%
%TO.N,COL6*%
X102210000Y-64910000D03*
D13*
X102210000Y-64110000D03*
D14*
%TO.P,A1,30,RUN*%
%TO.N,unconnected-(A1-RUN-Pad30)*%
X99670000Y-64910000D03*
D13*
X99670000Y-64110000D03*
D14*
%TO.P,A1,31,GPIO26_ADC0*%
%TO.N,unconnected-(A1-GPIO26_ADC0-Pad31)*%
X97130000Y-64910000D03*
D13*
X97130000Y-64110000D03*
D14*
%TO.P,A1,32,GPIO27_ADC1*%
%TO.N,unconnected-(A1-GPIO27_ADC1-Pad32)*%
X94590000Y-64910000D03*
D13*
X94590000Y-64110000D03*
D17*
%TO.P,A1,33,AGND*%
%TO.N,unconnected-(A1-AGND-Pad33)*%
X92050000Y-64910000D03*
D11*
X92050000Y-64110000D03*
D14*
%TO.P,A1,34,GPIO28_ADC2*%
%TO.N,unconnected-(A1-GPIO28_ADC2-Pad34)*%
X89510000Y-64910000D03*
D13*
X89510000Y-64110000D03*
D14*
%TO.P,A1,35,ADC_VREF*%
%TO.N,unconnected-(A1-ADC_VREF-Pad35)*%
X86970000Y-64910000D03*
D13*
X86970000Y-64110000D03*
D14*
%TO.P,A1,36,3V3*%
%TO.N,unconnected-(A1-3V3-Pad36)*%
X84430000Y-64910000D03*
D13*
X84430000Y-64110000D03*
D14*
%TO.P,A1,37,3V3_EN*%
%TO.N,unconnected-(A1-3V3_EN-Pad37)*%
X81890000Y-64910000D03*
D13*
X81890000Y-64110000D03*
D17*
%TO.P,A1,38,GND*%
%TO.N,Net-(A1-GND-Pad13)*%
X79350000Y-64910000D03*
D11*
X79350000Y-64110000D03*
D14*
%TO.P,A1,39,VSYS*%
%TO.N,unconnected-(A1-VSYS-Pad39)*%
X76810000Y-64910000D03*
D13*
X76810000Y-64110000D03*
D14*
%TO.P,A1,40,VBUS*%
%TO.N,unconnected-(A1-VBUS-Pad40)*%
X74270000Y-64910000D03*
D13*
X74270000Y-64110000D03*
%TD*%
D10*
%TO.P,SW53,1,1*%
%TO.N,COL10*%
X330693750Y-150731250D03*
%TO.P,SW53,2,2*%
%TO.N,Net-(D53-A)*%
X324343750Y-153271250D03*
%TD*%
%TO.P,SW44,1,1*%
%TO.N,COL1*%
X142575000Y-150731250D03*
%TO.P,SW44,2,2*%
%TO.N,Net-(D44-A)*%
X136225000Y-153271250D03*
%TD*%
%TO.P,SW23,1,1*%
%TO.N,COL8*%
X242587500Y-112631250D03*
%TO.P,SW23,2,2*%
%TO.N,Net-(D23-A)*%
X236237500Y-115171250D03*
%TD*%
%TO.P,SW5,1,1*%
%TO.N,COL4*%
X156862500Y-93581250D03*
%TO.P,SW5,2,2*%
%TO.N,Net-(D6-A)*%
X150512500Y-96121250D03*
%TD*%
%TO.P,SW43,1,1*%
%TO.N,COL0*%
X123525000Y-150731250D03*
%TO.P,SW43,2,2*%
%TO.N,Net-(D43-A)*%
X117175000Y-153271250D03*
%TD*%
%TO.P,SW38,1,1*%
%TO.N,COL9*%
X266400000Y-131681250D03*
%TO.P,SW38,2,2*%
%TO.N,Net-(D38-A)*%
X260050000Y-134221250D03*
%TD*%
%TO.P,SW17,1,1*%
%TO.N,COL2*%
X128287500Y-112631250D03*
%TO.P,SW17,2,2*%
%TO.N,Net-(D17-A)*%
X121937500Y-115171250D03*
%TD*%
%TO.P,SW33,1,1*%
%TO.N,COL4*%
X171150000Y-131681250D03*
%TO.P,SW33,2,2*%
%TO.N,Net-(D33-A)*%
X164800000Y-134221250D03*
%TD*%
%TO.P,SW30,1,1*%
%TO.N,COL1*%
X114000000Y-131681250D03*
%TO.P,SW30,2,2*%
%TO.N,Net-(D30-A)*%
X107650000Y-134221250D03*
%TD*%
%TO.P,SW1,1,1*%
%TO.N,COL0*%
X80662500Y-93581250D03*
%TO.P,SW1,2,2*%
%TO.N,Net-(D1-A)*%
X74312500Y-96121250D03*
%TD*%
%TO.P,SW52,1,1*%
%TO.N,COL9*%
X294975000Y-150731250D03*
%TO.P,SW52,2,2*%
%TO.N,Net-(D52-A)*%
X288625000Y-153271250D03*
%TD*%
%TO.P,SW25,1,1*%
%TO.N,COL10*%
X280687500Y-112631250D03*
%TO.P,SW25,2,2*%
%TO.N,Net-(D25-A)*%
X274337500Y-115171250D03*
%TD*%
%TO.P,SW4,1,1*%
%TO.N,COL3*%
X137812500Y-93581250D03*
%TO.P,SW4,2,2*%
%TO.N,Net-(D4-A)*%
X131462500Y-96121250D03*
%TD*%
%TO.P,SW54,1,1*%
%TO.N,COL13*%
X83043750Y-169781250D03*
%TO.P,SW54,2,2*%
%TO.N,Net-(D54-A)*%
X76693750Y-172321250D03*
%TD*%
%TO.P,SW58,1,1*%
%TO.N,COL3*%
X273543750Y-169781250D03*
%TO.P,SW58,2,2*%
%TO.N,Net-(D58-A)*%
X267193750Y-172321250D03*
%TD*%
%TO.P,SW40,1,1*%
%TO.N,COL11*%
X304500000Y-131681250D03*
%TO.P,SW40,2,2*%
%TO.N,Net-(D40-A)*%
X298150000Y-134221250D03*
%TD*%
%TO.P,SW61,1,1*%
%TO.N,COL6*%
X344981250Y-169781250D03*
%TO.P,SW61,2,2*%
%TO.N,Net-(D61-A)*%
X338631250Y-172321250D03*
%TD*%
%TO.P,SW51,1,1*%
%TO.N,COL8*%
X275925000Y-150731250D03*
%TO.P,SW51,2,2*%
%TO.N,Net-(D51-A)*%
X269575000Y-153271250D03*
%TD*%
%TO.P,SW8,1,1*%
%TO.N,COL7*%
X214012500Y-93581250D03*
%TO.P,SW8,2,2*%
%TO.N,Net-(D9-A)*%
X207662500Y-96121250D03*
%TD*%
%TO.P,SW62,1,1*%
%TO.N,COL7*%
X356740000Y-93520000D03*
%TO.P,SW62,2,2*%
%TO.N,Net-(D62-A)*%
X350390000Y-96060000D03*
%TD*%
%TO.P,SW57,1,1*%
%TO.N,COL2*%
X202106250Y-169781250D03*
%TO.P,SW57,2,2*%
%TO.N,Net-(D57-A)*%
X195756250Y-172321250D03*
%TD*%
%TO.P,SW22,1,1*%
%TO.N,COL7*%
X223537500Y-112631250D03*
%TO.P,SW22,2,2*%
%TO.N,Net-(D22-A)*%
X217187500Y-115171250D03*
%TD*%
%TO.P,SW21,1,1*%
%TO.N,COL6*%
X204487500Y-112631250D03*
%TO.P,SW21,2,2*%
%TO.N,Net-(D21-A)*%
X198137500Y-115171250D03*
%TD*%
%TO.P,SW18,1,1*%
%TO.N,COL3*%
X147337500Y-112631250D03*
%TO.P,SW18,2,2*%
%TO.N,Net-(D18-A)*%
X140987500Y-115171250D03*
%TD*%
%TO.P,SW6,1,1*%
%TO.N,COL5*%
X175912500Y-93581250D03*
%TO.P,SW6,2,2*%
%TO.N,Net-(D7-A)*%
X169562500Y-96121250D03*
%TD*%
%TO.P,SW32,1,1*%
%TO.N,COL3*%
X152100000Y-131681250D03*
%TO.P,SW32,2,2*%
%TO.N,Net-(D32-A)*%
X145750000Y-134221250D03*
%TD*%
%TO.P,SW59,1,1*%
%TO.N,COL4*%
X297356250Y-169781250D03*
%TO.P,SW59,2,2*%
%TO.N,Net-(D59-A)*%
X291006250Y-172321250D03*
%TD*%
%TO.P,SW11,1,1*%
%TO.N,COL10*%
X271162500Y-93581250D03*
%TO.P,SW11,2,2*%
%TO.N,Net-(D12-A)*%
X264812500Y-96121250D03*
%TD*%
%TO.P,SW29,1,1*%
%TO.N,COL0*%
X87806250Y-131681250D03*
%TO.P,SW29,2,2*%
%TO.N,Net-(D29-A)*%
X81456250Y-134221250D03*
%TD*%
%TO.P,SW20,1,1*%
%TO.N,COL5*%
X185437500Y-112631250D03*
%TO.P,SW20,2,2*%
%TO.N,Net-(D20-A)*%
X179087500Y-115171250D03*
%TD*%
%TO.P,SW41,1,1*%
%TO.N,COL12*%
X335456250Y-131681250D03*
%TO.P,SW41,2,2*%
%TO.N,Net-(D41-A)*%
X329106250Y-134221250D03*
%TD*%
%TO.P,SW46,1,1*%
%TO.N,COL3*%
X180675000Y-150731250D03*
%TO.P,SW46,2,2*%
%TO.N,Net-(D46-A)*%
X174325000Y-153271250D03*
%TD*%
%TO.P,SW15,1,1*%
%TO.N,COL0*%
X85425000Y-112631250D03*
%TO.P,SW15,2,2*%
%TO.N,Net-(D15-A)*%
X79075000Y-115171250D03*
%TD*%
%TO.P,SW37,1,1*%
%TO.N,COL8*%
X247350000Y-131681250D03*
%TO.P,SW37,2,2*%
%TO.N,Net-(D37-A)*%
X241000000Y-134221250D03*
%TD*%
%TO.P,SW45,1,1*%
%TO.N,COL2*%
X161625000Y-150731250D03*
%TO.P,SW45,2,2*%
%TO.N,Net-(D45-A)*%
X155275000Y-153271250D03*
%TD*%
%TO.P,SW48,1,1*%
%TO.N,COL5*%
X218775000Y-150731250D03*
%TO.P,SW48,2,2*%
%TO.N,Net-(D48-A)*%
X212425000Y-153271250D03*
%TD*%
%TO.P,SW42,1,1*%
%TO.N,COL13*%
X92568750Y-150731250D03*
%TO.P,SW42,2,2*%
%TO.N,Net-(D42-A)*%
X86218750Y-153271250D03*
%TD*%
%TO.P,SW60,1,1*%
%TO.N,COL5*%
X321168750Y-169781250D03*
%TO.P,SW60,2,2*%
%TO.N,Net-(D60-A)*%
X314818750Y-172321250D03*
%TD*%
%TO.P,SW24,1,1*%
%TO.N,COL9*%
X261637500Y-112631250D03*
%TO.P,SW24,2,2*%
%TO.N,Net-(D24-A)*%
X255287500Y-115171250D03*
%TD*%
%TO.P,SW3,1,1*%
%TO.N,COL2*%
X118762500Y-93581250D03*
%TO.P,SW3,2,2*%
%TO.N,Net-(D3-A)*%
X112412500Y-96121250D03*
%TD*%
%TO.P,SW56,1,1*%
%TO.N,COL1*%
X130668750Y-169781250D03*
%TO.P,SW56,2,2*%
%TO.N,Net-(D56-A)*%
X124318750Y-172321250D03*
%TD*%
%TO.P,SW9,1,1*%
%TO.N,COL8*%
X233062500Y-93581250D03*
%TO.P,SW9,2,2*%
%TO.N,Net-(D10-A)*%
X226712500Y-96121250D03*
%TD*%
%TO.P,SW49,1,1*%
%TO.N,COL6*%
X237825000Y-150731250D03*
%TO.P,SW49,2,2*%
%TO.N,Net-(D49-A)*%
X231475000Y-153271250D03*
%TD*%
%TO.P,SW19,1,1*%
%TO.N,COL4*%
X166387500Y-112631250D03*
%TO.P,SW19,2,2*%
%TO.N,Net-(D19-A)*%
X160037500Y-115171250D03*
%TD*%
%TO.P,SW39,1,1*%
%TO.N,COL10*%
X285450000Y-131681250D03*
%TO.P,SW39,2,2*%
%TO.N,Net-(D39-A)*%
X279100000Y-134221250D03*
%TD*%
%TO.P,SW14,1,1*%
%TO.N,COL13*%
X337837500Y-93581250D03*
%TO.P,SW14,2,2*%
%TO.N,Net-(D5-A)*%
X331487500Y-96121250D03*
%TD*%
%TO.P,SW26,1,1*%
%TO.N,COL11*%
X299737500Y-112631250D03*
%TO.P,SW26,2,2*%
%TO.N,Net-(D26-A)*%
X293387500Y-115171250D03*
%TD*%
%TO.P,SW47,1,1*%
%TO.N,COL4*%
X199725000Y-150731250D03*
%TO.P,SW47,2,2*%
%TO.N,Net-(D47-A)*%
X193375000Y-153271250D03*
%TD*%
%TO.P,SW31,1,1*%
%TO.N,COL2*%
X133050000Y-131681250D03*
%TO.P,SW31,2,2*%
%TO.N,Net-(D31-A)*%
X126700000Y-134221250D03*
%TD*%
%TO.P,SW55,1,1*%
%TO.N,COL0*%
X106856250Y-169781250D03*
%TO.P,SW55,2,2*%
%TO.N,Net-(D55-A)*%
X100506250Y-172321250D03*
%TD*%
D18*
%TO.P,D30,1,K*%
%TO.N,ROW2*%
X119080000Y-134711250D03*
D14*
%TO.P,D30,2,A*%
%TO.N,Net-(D30-A)*%
X119080000Y-127091250D03*
%TD*%
D18*
%TO.P,D8,1,K*%
%TO.N,ROW0*%
X200042500Y-96611250D03*
D14*
%TO.P,D8,2,A*%
%TO.N,Net-(D8-A)*%
X200042500Y-88991250D03*
%TD*%
D18*
%TO.P,D24,1,K*%
%TO.N,ROW1*%
X266717500Y-115661250D03*
D14*
%TO.P,D24,2,A*%
%TO.N,Net-(D24-A)*%
X266717500Y-108041250D03*
%TD*%
D18*
%TO.P,D25,1,K*%
%TO.N,ROW1*%
X285767500Y-115661250D03*
D14*
%TO.P,D25,2,A*%
%TO.N,Net-(D25-A)*%
X285767500Y-108041250D03*
%TD*%
D18*
%TO.P,D41,1,K*%
%TO.N,ROW2*%
X340536250Y-134711250D03*
D14*
%TO.P,D41,2,A*%
%TO.N,Net-(D41-A)*%
X340536250Y-127091250D03*
%TD*%
D18*
%TO.P,D12,1,K*%
%TO.N,ROW0*%
X276242500Y-96611250D03*
D14*
%TO.P,D12,2,A*%
%TO.N,Net-(D12-A)*%
X276242500Y-88991250D03*
%TD*%
D18*
%TO.P,D31,1,K*%
%TO.N,ROW2*%
X138130000Y-134711250D03*
D14*
%TO.P,D31,2,A*%
%TO.N,Net-(D31-A)*%
X138130000Y-127091250D03*
%TD*%
D18*
%TO.P,D61,1,K*%
%TO.N,ROW4*%
X350061250Y-172811250D03*
D14*
%TO.P,D61,2,A*%
%TO.N,Net-(D61-A)*%
X350061250Y-165191250D03*
%TD*%
D18*
%TO.P,D32,1,K*%
%TO.N,ROW2*%
X157180000Y-134711250D03*
D14*
%TO.P,D32,2,A*%
%TO.N,Net-(D32-A)*%
X157180000Y-127091250D03*
%TD*%
D18*
%TO.P,D53,1,K*%
%TO.N,ROW3*%
X335773750Y-153761250D03*
D14*
%TO.P,D53,2,A*%
%TO.N,Net-(D53-A)*%
X335773750Y-146141250D03*
%TD*%
D18*
%TO.P,D14,1,K*%
%TO.N,ROW0*%
X314342500Y-96611250D03*
D14*
%TO.P,D14,2,A*%
%TO.N,Net-(D14-A)*%
X314342500Y-88991250D03*
%TD*%
D18*
%TO.P,D38,1,K*%
%TO.N,ROW2*%
X271480000Y-134711250D03*
D14*
%TO.P,D38,2,A*%
%TO.N,Net-(D38-A)*%
X271480000Y-127091250D03*
%TD*%
D18*
%TO.P,D47,1,K*%
%TO.N,ROW3*%
X204805000Y-153761250D03*
D14*
%TO.P,D47,2,A*%
%TO.N,Net-(D47-A)*%
X204805000Y-146141250D03*
%TD*%
D18*
%TO.P,D57,1,K*%
%TO.N,ROW4*%
X207186250Y-172811250D03*
D14*
%TO.P,D57,2,A*%
%TO.N,Net-(D57-A)*%
X207186250Y-165191250D03*
%TD*%
D18*
%TO.P,D59,1,K*%
%TO.N,ROW4*%
X302436250Y-172811250D03*
D14*
%TO.P,D59,2,A*%
%TO.N,Net-(D59-A)*%
X302436250Y-165191250D03*
%TD*%
D18*
%TO.P,D16,1,K*%
%TO.N,ROW1*%
X114317500Y-115661250D03*
D14*
%TO.P,D16,2,A*%
%TO.N,Net-(D16-A)*%
X114317500Y-108041250D03*
%TD*%
D18*
%TO.P,D22,1,K*%
%TO.N,ROW1*%
X228617500Y-115661250D03*
D14*
%TO.P,D22,2,A*%
%TO.N,Net-(D22-A)*%
X228617500Y-108041250D03*
%TD*%
D18*
%TO.P,D10,1,K*%
%TO.N,ROW0*%
X238142500Y-96611250D03*
D14*
%TO.P,D10,2,A*%
%TO.N,Net-(D10-A)*%
X238142500Y-88991250D03*
%TD*%
D18*
%TO.P,D13,1,K*%
%TO.N,ROW0*%
X295292500Y-96611250D03*
D14*
%TO.P,D13,2,A*%
%TO.N,Net-(D13-A)*%
X295292500Y-88991250D03*
%TD*%
D18*
%TO.P,D23,1,K*%
%TO.N,ROW1*%
X247667500Y-115661250D03*
D14*
%TO.P,D23,2,A*%
%TO.N,Net-(D23-A)*%
X247667500Y-108041250D03*
%TD*%
D18*
%TO.P,D34,1,K*%
%TO.N,ROW2*%
X195280000Y-134711250D03*
D14*
%TO.P,D34,2,A*%
%TO.N,Net-(D34-A)*%
X195280000Y-127091250D03*
%TD*%
D18*
%TO.P,D37,1,K*%
%TO.N,ROW2*%
X252430000Y-134711250D03*
D14*
%TO.P,D37,2,A*%
%TO.N,Net-(D37-A)*%
X252430000Y-127091250D03*
%TD*%
D18*
%TO.P,D3,1,K*%
%TO.N,ROW0*%
X123842500Y-96611250D03*
D14*
%TO.P,D3,2,A*%
%TO.N,Net-(D3-A)*%
X123842500Y-88991250D03*
%TD*%
D18*
%TO.P,D9,1,K*%
%TO.N,ROW0*%
X219092500Y-96611250D03*
D14*
%TO.P,D9,2,A*%
%TO.N,Net-(D9-A)*%
X219092500Y-88991250D03*
%TD*%
D18*
%TO.P,D7,1,K*%
%TO.N,ROW0*%
X180992500Y-96611250D03*
D14*
%TO.P,D7,2,A*%
%TO.N,Net-(D7-A)*%
X180992500Y-88991250D03*
%TD*%
D18*
%TO.P,D56,1,K*%
%TO.N,ROW4*%
X135748750Y-172811250D03*
D14*
%TO.P,D56,2,A*%
%TO.N,Net-(D56-A)*%
X135748750Y-165191250D03*
%TD*%
D18*
%TO.P,D50,1,K*%
%TO.N,ROW3*%
X261955000Y-153761250D03*
D14*
%TO.P,D50,2,A*%
%TO.N,Net-(D50-A)*%
X261955000Y-146141250D03*
%TD*%
D18*
%TO.P,D1,1,K*%
%TO.N,ROW0*%
X85742500Y-96611250D03*
D14*
%TO.P,D1,2,A*%
%TO.N,Net-(D1-A)*%
X85742500Y-88991250D03*
%TD*%
D18*
%TO.P,D36,1,K*%
%TO.N,ROW2*%
X233380000Y-134711250D03*
D14*
%TO.P,D36,2,A*%
%TO.N,Net-(D36-A)*%
X233380000Y-127091250D03*
%TD*%
D18*
%TO.P,D18,1,K*%
%TO.N,ROW1*%
X152417500Y-115661250D03*
D14*
%TO.P,D18,2,A*%
%TO.N,Net-(D18-A)*%
X152417500Y-108041250D03*
%TD*%
D18*
%TO.P,D4,1,K*%
%TO.N,ROW0*%
X142892500Y-96611250D03*
D14*
%TO.P,D4,2,A*%
%TO.N,Net-(D4-A)*%
X142892500Y-88991250D03*
%TD*%
D18*
%TO.P,D40,1,K*%
%TO.N,ROW2*%
X309580000Y-134711250D03*
D14*
%TO.P,D40,2,A*%
%TO.N,Net-(D40-A)*%
X309580000Y-127091250D03*
%TD*%
D18*
%TO.P,D44,1,K*%
%TO.N,ROW3*%
X147655000Y-153761250D03*
D14*
%TO.P,D44,2,A*%
%TO.N,Net-(D44-A)*%
X147655000Y-146141250D03*
%TD*%
D18*
%TO.P,D49,1,K*%
%TO.N,ROW3*%
X242905000Y-153761250D03*
D14*
%TO.P,D49,2,A*%
%TO.N,Net-(D49-A)*%
X242905000Y-146141250D03*
%TD*%
D18*
%TO.P,D21,1,K*%
%TO.N,ROW1*%
X209567500Y-115661250D03*
D14*
%TO.P,D21,2,A*%
%TO.N,Net-(D21-A)*%
X209567500Y-108041250D03*
%TD*%
D18*
%TO.P,D60,1,K*%
%TO.N,ROW4*%
X326248750Y-172811250D03*
D14*
%TO.P,D60,2,A*%
%TO.N,Net-(D60-A)*%
X326248750Y-165191250D03*
%TD*%
D18*
%TO.P,D29,1,K*%
%TO.N,ROW2*%
X92886250Y-134711250D03*
D14*
%TO.P,D29,2,A*%
%TO.N,Net-(D29-A)*%
X92886250Y-127091250D03*
%TD*%
D18*
%TO.P,D19,1,K*%
%TO.N,ROW1*%
X171467500Y-115661250D03*
D14*
%TO.P,D19,2,A*%
%TO.N,Net-(D19-A)*%
X171467500Y-108041250D03*
%TD*%
D18*
%TO.P,D28,1,K*%
%TO.N,ROW1*%
X347680000Y-115661250D03*
D14*
%TO.P,D28,2,A*%
%TO.N,Net-(D28-A)*%
X347680000Y-108041250D03*
%TD*%
D18*
%TO.P,D42,1,K*%
%TO.N,ROW2*%
X98962500Y-158891250D03*
D14*
%TO.P,D42,2,A*%
%TO.N,Net-(D42-A)*%
X98962500Y-151271250D03*
%TD*%
D18*
%TO.P,D52,1,K*%
%TO.N,ROW3*%
X300055000Y-153761250D03*
D14*
%TO.P,D52,2,A*%
%TO.N,Net-(D52-A)*%
X300055000Y-146141250D03*
%TD*%
D18*
%TO.P,D26,1,K*%
%TO.N,ROW1*%
X304817500Y-115661250D03*
D14*
%TO.P,D26,2,A*%
%TO.N,Net-(D26-A)*%
X304817500Y-108041250D03*
%TD*%
D18*
%TO.P,D54,1,K*%
%TO.N,ROW3*%
X88123750Y-172811250D03*
D14*
%TO.P,D54,2,A*%
%TO.N,Net-(D54-A)*%
X88123750Y-165191250D03*
%TD*%
D18*
%TO.P,D39,1,K*%
%TO.N,ROW2*%
X290530000Y-134711250D03*
D14*
%TO.P,D39,2,A*%
%TO.N,Net-(D39-A)*%
X290530000Y-127091250D03*
%TD*%
D18*
%TO.P,D20,1,K*%
%TO.N,ROW1*%
X190517500Y-115661250D03*
D14*
%TO.P,D20,2,A*%
%TO.N,Net-(D20-A)*%
X190517500Y-108041250D03*
%TD*%
D18*
%TO.P,D33,1,K*%
%TO.N,ROW2*%
X176230000Y-134711250D03*
D14*
%TO.P,D33,2,A*%
%TO.N,Net-(D33-A)*%
X176230000Y-127091250D03*
%TD*%
D18*
%TO.P,D6,1,K*%
%TO.N,ROW0*%
X161942500Y-96611250D03*
D14*
%TO.P,D6,2,A*%
%TO.N,Net-(D6-A)*%
X161942500Y-88991250D03*
%TD*%
D18*
%TO.P,D48,1,K*%
%TO.N,ROW3*%
X223855000Y-153761250D03*
D14*
%TO.P,D48,2,A*%
%TO.N,Net-(D48-A)*%
X223855000Y-146141250D03*
%TD*%
D18*
%TO.P,D62,1,K*%
%TO.N,ROW4*%
X361820000Y-96550000D03*
D14*
%TO.P,D62,2,A*%
%TO.N,Net-(D62-A)*%
X361820000Y-88930000D03*
%TD*%
D18*
%TO.P,D17,1,K*%
%TO.N,ROW1*%
X133367500Y-115661250D03*
D14*
%TO.P,D17,2,A*%
%TO.N,Net-(D17-A)*%
X133367500Y-108041250D03*
%TD*%
D18*
%TO.P,D46,1,K*%
%TO.N,ROW3*%
X185755000Y-153761250D03*
D14*
%TO.P,D46,2,A*%
%TO.N,Net-(D46-A)*%
X185755000Y-146141250D03*
%TD*%
D18*
%TO.P,D58,1,K*%
%TO.N,ROW4*%
X278623750Y-172811250D03*
D14*
%TO.P,D58,2,A*%
%TO.N,Net-(D58-A)*%
X278623750Y-165191250D03*
%TD*%
D18*
%TO.P,D27,1,K*%
%TO.N,ROW1*%
X323867500Y-115661250D03*
D14*
%TO.P,D27,2,A*%
%TO.N,Net-(D27-A)*%
X323867500Y-108041250D03*
%TD*%
D18*
%TO.P,D51,1,K*%
%TO.N,ROW3*%
X281005000Y-153761250D03*
D14*
%TO.P,D51,2,A*%
%TO.N,Net-(D51-A)*%
X281005000Y-146141250D03*
%TD*%
D18*
%TO.P,D11,1,K*%
%TO.N,ROW0*%
X257192500Y-96611250D03*
D14*
%TO.P,D11,2,A*%
%TO.N,Net-(D11-A)*%
X257192500Y-88991250D03*
%TD*%
D18*
%TO.P,D5,1,K*%
%TO.N,ROW0*%
X342917500Y-96611250D03*
D14*
%TO.P,D5,2,A*%
%TO.N,Net-(D5-A)*%
X342917500Y-88991250D03*
%TD*%
D18*
%TO.P,D43,1,K*%
%TO.N,ROW3*%
X128605000Y-153761250D03*
D14*
%TO.P,D43,2,A*%
%TO.N,Net-(D43-A)*%
X128605000Y-146141250D03*
%TD*%
D18*
%TO.P,D45,1,K*%
%TO.N,ROW3*%
X166705000Y-153761250D03*
D14*
%TO.P,D45,2,A*%
%TO.N,Net-(D45-A)*%
X166705000Y-146141250D03*
%TD*%
D18*
%TO.P,D55,1,K*%
%TO.N,ROW4*%
X111936250Y-172811250D03*
D14*
%TO.P,D55,2,A*%
%TO.N,Net-(D55-A)*%
X111936250Y-165191250D03*
%TD*%
D18*
%TO.P,D2,1,K*%
%TO.N,ROW0*%
X104792500Y-96611250D03*
D14*
%TO.P,D2,2,A*%
%TO.N,Net-(D2-A)*%
X104792500Y-88991250D03*
%TD*%
D18*
%TO.P,D15,1,K*%
%TO.N,ROW1*%
X90505000Y-115661250D03*
D14*
%TO.P,D15,2,A*%
%TO.N,Net-(D15-A)*%
X90505000Y-108041250D03*
%TD*%
D18*
%TO.P,D35,1,K*%
%TO.N,ROW2*%
X214330000Y-134711250D03*
D14*
%TO.P,D35,2,A*%
%TO.N,Net-(D35-A)*%
X214330000Y-127091250D03*
%TD*%
D19*
%TO.N,COL8*%
X174400000Y-87200000D03*
X187200000Y-86800000D03*
X78000000Y-85200000D03*
X140400000Y-88200000D03*
X110600000Y-89400000D03*
X131400000Y-88600000D03*
X117800000Y-95600000D03*
X231000000Y-90800000D03*
%TO.N,COL9*%
X182800000Y-84000000D03*
X155600000Y-95800000D03*
X125800000Y-89400000D03*
X118000000Y-91800000D03*
X249400000Y-89600000D03*
X111000000Y-88600000D03*
X83200000Y-84800000D03*
X174000000Y-90000000D03*
%TO.N,COL0*%
X114600000Y-86200000D03*
X124775735Y-81575735D03*
X125800000Y-65600000D03*
%TO.N,ROW1*%
X268762500Y-125081250D03*
X230362500Y-125081250D03*
X172962500Y-125081250D03*
X117562500Y-125081250D03*
X212562500Y-125081250D03*
X154562500Y-125081250D03*
X97762500Y-125081250D03*
X307162500Y-125081250D03*
X137162500Y-125081250D03*
X347762500Y-122881250D03*
X71600000Y-100200000D03*
X328562500Y-124681250D03*
X83800000Y-124600000D03*
X90940625Y-118259375D03*
X250762500Y-125081250D03*
X287962500Y-125081250D03*
X101400000Y-76400000D03*
X80600000Y-67000000D03*
X193962500Y-125081250D03*
%TO.N,ROW3*%
X104000000Y-80200000D03*
X302562500Y-159081250D03*
X150362500Y-161681250D03*
X265962500Y-159081250D03*
X109200000Y-157881250D03*
X73000000Y-90800000D03*
X188162500Y-161681250D03*
X169762500Y-161681250D03*
X250562500Y-158481250D03*
X283362500Y-159081250D03*
X136362500Y-161681250D03*
X106562500Y-157881250D03*
X229962500Y-159281250D03*
X206762500Y-161681250D03*
X84600000Y-80400000D03*
%TO.N,COL10*%
X269200000Y-90400000D03*
%TO.N,COL3*%
X126400000Y-80800000D03*
X132400000Y-93000000D03*
X113200000Y-87000000D03*
%TO.N,ROW2*%
X258962500Y-139881250D03*
X80200000Y-80200000D03*
X292362500Y-139881250D03*
X181762500Y-139881250D03*
X123000000Y-139881250D03*
X72800000Y-93800000D03*
X340162500Y-139481250D03*
X160562500Y-139881250D03*
X143000000Y-139881250D03*
X311762500Y-139881250D03*
X273562500Y-139881250D03*
X86800000Y-133800000D03*
X102600000Y-79400000D03*
X95362500Y-139881250D03*
X104762500Y-156881250D03*
X197562500Y-139881250D03*
X219162500Y-139881250D03*
X234762500Y-138281250D03*
X91400000Y-134800000D03*
%TO.N,ROW4*%
X97000000Y-162800000D03*
X138400000Y-177681250D03*
X341362500Y-179081250D03*
X80200000Y-69000000D03*
X102600000Y-77800000D03*
X101200000Y-170000000D03*
X350562500Y-176281250D03*
X209668258Y-176481250D03*
X72200000Y-90400000D03*
%TO.N,COL12*%
X178800000Y-81400000D03*
X306000000Y-91600000D03*
X181400000Y-81400000D03*
%TO.N,COL4*%
X151600000Y-81800000D03*
X110800000Y-62600000D03*
%TO.N,COL13*%
X99200000Y-74400000D03*
%TO.N,ROW0*%
X93962500Y-107281250D03*
X316562500Y-106081250D03*
X299562500Y-106081250D03*
X166162500Y-106081250D03*
X184962500Y-106081250D03*
X222962500Y-106081250D03*
X149362500Y-106081250D03*
X68400000Y-100800000D03*
X128962500Y-106081250D03*
X242362500Y-106081250D03*
X100400000Y-73400000D03*
X342562500Y-102681250D03*
X203562500Y-106081250D03*
X108562500Y-106081250D03*
X261562500Y-106081250D03*
X85742500Y-99061250D03*
X280762500Y-106081250D03*
%TO.N,COL5*%
X175800000Y-87400000D03*
X109200000Y-61800000D03*
%TO.N,COL7*%
X256600000Y-153400000D03*
X111000000Y-85600000D03*
X313000000Y-162600000D03*
X212000000Y-90600000D03*
X150400000Y-88000000D03*
X355400000Y-106800000D03*
X345800000Y-159000000D03*
X328200000Y-160600000D03*
X131400000Y-87600000D03*
X119800000Y-88200000D03*
X111975735Y-88175735D03*
X335400000Y-163400000D03*
%TO.N,COL11*%
X107600000Y-59800000D03*
X244600000Y-86600000D03*
X193800000Y-86200000D03*
%TD*%
D20*
%TO.N,COL8*%
X107200000Y-86000000D02*
X110600000Y-89400000D01*
X141400000Y-87200000D02*
X174400000Y-87200000D01*
X140400000Y-88200000D02*
X141400000Y-87200000D01*
X127800000Y-88600000D02*
X131400000Y-88600000D01*
X227000000Y-86800000D02*
X231000000Y-90800000D01*
X117800000Y-95600000D02*
X120800000Y-95600000D01*
X187200000Y-86800000D02*
X227000000Y-86800000D01*
X120800000Y-95600000D02*
X127800000Y-88600000D01*
X78000000Y-85200000D02*
X78800000Y-86000000D01*
X78800000Y-86000000D02*
X107200000Y-86000000D01*
%TO.N,COL9*%
X83796000Y-85396000D02*
X107796000Y-85396000D01*
X243800000Y-84000000D02*
X249400000Y-89600000D01*
X182800000Y-84000000D02*
X243800000Y-84000000D01*
X155600000Y-95800000D02*
X159200000Y-95800000D01*
X165000000Y-90000000D02*
X174000000Y-90000000D01*
X123400000Y-91800000D02*
X125800000Y-89400000D01*
X107796000Y-85396000D02*
X111000000Y-88600000D01*
X83200000Y-84800000D02*
X83796000Y-85396000D01*
X159200000Y-95800000D02*
X163800000Y-91200000D01*
X163800000Y-91200000D02*
X165000000Y-90000000D01*
X118000000Y-91800000D02*
X123400000Y-91800000D01*
%TO.N,COL0*%
X122177050Y-86200000D02*
X114600000Y-86200000D01*
X125110000Y-64910000D02*
X125800000Y-65600000D01*
X122530000Y-64910000D02*
X125110000Y-64910000D01*
X124775735Y-83601315D02*
X122177050Y-86200000D01*
X124775735Y-81575735D02*
X124775735Y-83601315D01*
%TO.N,ROW1*%
X329962500Y-124681250D02*
X330362500Y-125081250D01*
X268762500Y-125081250D02*
X287962500Y-125081250D01*
X84600000Y-124600000D02*
X90940625Y-118259375D01*
X250762500Y-125081250D02*
X268762500Y-125081250D01*
X101400000Y-81760000D02*
X101400000Y-76400000D01*
X345562500Y-125081250D02*
X347762500Y-122881250D01*
X154562500Y-125081250D02*
X172962500Y-125081250D01*
X99670000Y-83490000D02*
X101400000Y-81760000D01*
X330362500Y-125081250D02*
X345562500Y-125081250D01*
X212562500Y-125081250D02*
X230362500Y-125081250D01*
X193962500Y-125081250D02*
X212562500Y-125081250D01*
X97762500Y-125081250D02*
X117562500Y-125081250D01*
X230362500Y-125081250D02*
X250762500Y-125081250D01*
X80600000Y-67000000D02*
X73600000Y-67000000D01*
X172962500Y-125081250D02*
X193962500Y-125081250D01*
X137162500Y-125081250D02*
X154562500Y-125081250D01*
X73600000Y-67000000D02*
X71600000Y-69000000D01*
X328562500Y-124681250D02*
X329962500Y-124681250D01*
X117562500Y-125081250D02*
X137162500Y-125081250D01*
X83800000Y-124600000D02*
X84600000Y-124600000D01*
X287962500Y-125081250D02*
X307162500Y-125081250D01*
X307162500Y-125081250D02*
X330362500Y-125081250D01*
X71600000Y-69000000D02*
X71600000Y-100200000D01*
%TO.N,ROW3*%
X109200000Y-157881250D02*
X117762500Y-157881250D01*
X283762500Y-161681250D02*
X302762500Y-161681250D01*
X250562500Y-160881250D02*
X251362500Y-161681250D01*
X265962500Y-159081250D02*
X266162500Y-159281250D01*
X117762500Y-157881250D02*
X120362500Y-160481250D01*
X188162500Y-161681250D02*
X206762500Y-161681250D01*
X80000000Y-78200000D02*
X77200000Y-78200000D01*
X302562500Y-159081250D02*
X302762500Y-159281250D01*
X80600000Y-78800000D02*
X80000000Y-78200000D01*
X266162500Y-161681250D02*
X283762500Y-161681250D01*
X107290000Y-82690000D02*
X104800000Y-80200000D01*
X120362500Y-160481250D02*
X135162500Y-160481250D01*
X251362500Y-161681250D02*
X266162500Y-161681250D01*
X335773750Y-157070000D02*
X335773750Y-153761250D01*
X266162500Y-159281250D02*
X266162500Y-161681250D01*
X84600000Y-80400000D02*
X82200000Y-80400000D01*
X77200000Y-78200000D02*
X74000000Y-78200000D01*
X136362500Y-161681250D02*
X150362500Y-161681250D01*
X150362500Y-161681250D02*
X169762500Y-161681250D01*
X229962500Y-159281250D02*
X230362500Y-159681250D01*
X82200000Y-80400000D02*
X80600000Y-78800000D01*
X230362500Y-159681250D02*
X230362500Y-161681250D01*
X135162500Y-160481250D02*
X136362500Y-161681250D01*
X206762500Y-161681250D02*
X230362500Y-161681250D01*
X106562500Y-157881250D02*
X109200000Y-157881250D01*
X302762500Y-159281250D02*
X302762500Y-161681250D01*
X283362500Y-159081250D02*
X283762500Y-159481250D01*
X169762500Y-161681250D02*
X188162500Y-161681250D01*
X302762500Y-161681250D02*
X331162500Y-161681250D01*
X73000000Y-79200000D02*
X73000000Y-90800000D01*
X104800000Y-80200000D02*
X104000000Y-80200000D01*
X331162500Y-161681250D02*
X335773750Y-157070000D01*
X74000000Y-78200000D02*
X73000000Y-79200000D01*
X250562500Y-158481250D02*
X250562500Y-160881250D01*
X283762500Y-159481250D02*
X283762500Y-161681250D01*
X230362500Y-161681250D02*
X251362500Y-161681250D01*
%TO.N,COL10*%
X76000000Y-59000000D02*
X139800000Y-59000000D01*
X84430000Y-83490000D02*
X90400000Y-77520000D01*
X90400000Y-74200000D02*
X82600000Y-66400000D01*
X71000000Y-64000000D02*
X76000000Y-59000000D01*
X261600000Y-82800000D02*
X269200000Y-90400000D01*
X71000000Y-65800000D02*
X71000000Y-64000000D01*
X139800000Y-59000000D02*
X157800000Y-59000000D01*
X181600000Y-82800000D02*
X261600000Y-82800000D01*
X157800000Y-59000000D02*
X181600000Y-82800000D01*
X90400000Y-77520000D02*
X90400000Y-74200000D01*
X71600000Y-66400000D02*
X71000000Y-65800000D01*
X82600000Y-66400000D02*
X71600000Y-66400000D01*
%TO.N,COL3*%
X132400000Y-86800000D02*
X132400000Y-93000000D01*
X113471000Y-86729000D02*
X113200000Y-87000000D01*
X126400000Y-80800000D02*
X132400000Y-86800000D01*
X112370000Y-64910000D02*
X113471000Y-66011000D01*
X113471000Y-66011000D02*
X113471000Y-86729000D01*
%TO.N,ROW2*%
X234762500Y-139481250D02*
X235162500Y-139881250D01*
X311762500Y-139881250D02*
X339762500Y-139881250D01*
X86800000Y-133800000D02*
X90400000Y-133800000D01*
X234762500Y-138281250D02*
X234762500Y-139481250D01*
X75709000Y-90891000D02*
X72800000Y-93800000D01*
X104762500Y-141881250D02*
X104762500Y-156881250D01*
X95362500Y-139881250D02*
X102762500Y-139881250D01*
X102762500Y-139881250D02*
X123000000Y-139881250D01*
X75709000Y-82233950D02*
X75709000Y-90891000D01*
X197562500Y-139881250D02*
X219162500Y-139881250D01*
X80200000Y-80200000D02*
X77742950Y-80200000D01*
X160562500Y-139881250D02*
X181762500Y-139881250D01*
X181762500Y-139881250D02*
X197562500Y-139881250D01*
X235162500Y-139881250D02*
X258962500Y-139881250D01*
X123000000Y-139881250D02*
X143000000Y-139881250D01*
X102210000Y-82690000D02*
X102210000Y-79790000D01*
X143000000Y-139881250D02*
X160562500Y-139881250D01*
X339762500Y-139881250D02*
X340162500Y-139481250D01*
X90400000Y-133800000D02*
X91400000Y-134800000D01*
X258962500Y-139881250D02*
X273562500Y-139881250D01*
X77742950Y-80200000D02*
X75709000Y-82233950D01*
X102210000Y-79790000D02*
X102600000Y-79400000D01*
X219162500Y-139881250D02*
X235162500Y-139881250D01*
X102762500Y-139881250D02*
X104762500Y-141881250D01*
X292362500Y-139881250D02*
X311762500Y-139881250D01*
X273562500Y-139881250D02*
X292362500Y-139881250D01*
%TO.N,ROW4*%
X347762500Y-179081250D02*
X350562500Y-176281250D01*
X97000000Y-165800000D02*
X101200000Y-170000000D01*
X135748750Y-175030000D02*
X138400000Y-177681250D01*
X109830000Y-82690000D02*
X104940000Y-77800000D01*
X207186250Y-172811250D02*
X207186250Y-173999242D01*
X74422976Y-69000000D02*
X72400000Y-71022976D01*
X72400000Y-87800000D02*
X72400000Y-90200000D01*
X135748750Y-172811250D02*
X135748750Y-175030000D01*
X72400000Y-71022976D02*
X72400000Y-87800000D01*
X97000000Y-162800000D02*
X97000000Y-165800000D01*
X104940000Y-77800000D02*
X102600000Y-77800000D01*
X207186250Y-173999242D02*
X209668258Y-176481250D01*
X341362500Y-179081250D02*
X347762500Y-179081250D01*
X80200000Y-69000000D02*
X74422976Y-69000000D01*
X72400000Y-90200000D02*
X72200000Y-90400000D01*
%TO.N,COL12*%
X109181957Y-60401000D02*
X110182957Y-59400000D01*
X268600000Y-85600000D02*
X270200000Y-87200000D01*
X106094878Y-60401000D02*
X109181957Y-60401000D01*
X181400000Y-81400000D02*
X264400000Y-81400000D01*
X101109000Y-67568050D02*
X103600000Y-65077050D01*
X156800000Y-59400000D02*
X178800000Y-81400000D01*
X298800000Y-87200000D02*
X301600000Y-87200000D01*
X103600000Y-62895878D02*
X106094878Y-60401000D01*
X101109000Y-71091000D02*
X101109000Y-67568050D01*
X301600000Y-87200000D02*
X306000000Y-91600000D01*
X111800000Y-59400000D02*
X116200000Y-59400000D01*
X103600000Y-65077050D02*
X103600000Y-62895878D01*
X270200000Y-87200000D02*
X298800000Y-87200000D01*
X264400000Y-81400000D02*
X268600000Y-85600000D01*
X116200000Y-59400000D02*
X156800000Y-59400000D01*
X110182957Y-59400000D02*
X111800000Y-59400000D01*
X89510000Y-82690000D02*
X101109000Y-71091000D01*
%TO.N,COL4*%
X110350057Y-59800000D02*
X124400000Y-59800000D01*
X146400000Y-81800000D02*
X151600000Y-81800000D01*
X108599000Y-61551057D02*
X110350057Y-59800000D01*
X110800000Y-62600000D02*
X109150057Y-62600000D01*
X108599000Y-62048943D02*
X108599000Y-61551057D01*
X109150057Y-62600000D02*
X108599000Y-62048943D01*
X124400000Y-59800000D02*
X146400000Y-81800000D01*
%TO.N,COL13*%
X94590000Y-79010000D02*
X99200000Y-74400000D01*
X94590000Y-83490000D02*
X94590000Y-79010000D01*
%TO.N,ROW0*%
X166162500Y-106081250D02*
X184962500Y-106081250D01*
X68400000Y-100800000D02*
X69400000Y-101800000D01*
X280762500Y-106081250D02*
X299562500Y-106081250D01*
X69400000Y-101800000D02*
X83003750Y-101800000D01*
X299562500Y-106081250D02*
X316562500Y-106081250D01*
X108562500Y-106081250D02*
X128962500Y-106081250D01*
X93962500Y-107281250D02*
X106162500Y-107281250D01*
X339162500Y-106081250D02*
X342562500Y-102681250D01*
X184962500Y-106081250D02*
X203562500Y-106081250D01*
X100400000Y-80220000D02*
X100400000Y-73400000D01*
X149362500Y-106081250D02*
X166162500Y-106081250D01*
X261562500Y-106081250D02*
X280762500Y-106081250D01*
X97130000Y-83490000D02*
X100400000Y-80220000D01*
X83003750Y-101800000D02*
X85742500Y-99061250D01*
X316562500Y-106081250D02*
X339162500Y-106081250D01*
X203562500Y-106081250D02*
X222962500Y-106081250D01*
X106162500Y-107281250D02*
X107362500Y-106081250D01*
X242362500Y-106081250D02*
X261562500Y-106081250D01*
X222962500Y-106081250D02*
X242362500Y-106081250D01*
X107362500Y-106081250D02*
X108562500Y-106081250D01*
X128962500Y-106081250D02*
X149362500Y-106081250D01*
%TO.N,COL5*%
X109200000Y-61800000D02*
X125000000Y-61800000D01*
X128200000Y-82000000D02*
X129800000Y-83600000D01*
X125000000Y-61800000D02*
X128200000Y-65000000D01*
X172000000Y-83600000D02*
X175800000Y-87400000D01*
X128200000Y-65000000D02*
X128200000Y-82000000D01*
X129800000Y-83600000D02*
X172000000Y-83600000D01*
%TO.N,COL7*%
X177000000Y-88200000D02*
X177600000Y-87600000D01*
X309800000Y-157600000D02*
X309237750Y-158162250D01*
X257200000Y-156800000D02*
X257200000Y-154000000D01*
X111000000Y-85600000D02*
X111975735Y-86575735D01*
X309237750Y-158162250D02*
X258562250Y-158162250D01*
X150509750Y-87890250D02*
X174290250Y-87890250D01*
X257200000Y-154000000D02*
X256600000Y-153400000D01*
X313000000Y-165600000D02*
X313000000Y-162600000D01*
X353000000Y-154400000D02*
X348400000Y-159000000D01*
X123076700Y-88200000D02*
X123676700Y-87600000D01*
X312800000Y-160600000D02*
X309800000Y-157600000D01*
X355400000Y-106800000D02*
X353000000Y-109200000D01*
X177600000Y-87600000D02*
X206000000Y-87600000D01*
X111975735Y-86575735D02*
X111975735Y-88175735D01*
X353000000Y-109200000D02*
X353000000Y-154400000D01*
X150400000Y-88000000D02*
X150509750Y-87890250D01*
X209000000Y-87600000D02*
X212000000Y-90600000D01*
X328200000Y-160600000D02*
X312800000Y-160600000D01*
X123676700Y-87600000D02*
X131400000Y-87600000D01*
X322400000Y-163400000D02*
X316600000Y-169200000D01*
X206000000Y-87600000D02*
X209000000Y-87600000D01*
X174290250Y-87890250D02*
X175000000Y-88600000D01*
X258562250Y-158162250D02*
X257200000Y-156800000D01*
X316600000Y-169200000D02*
X313000000Y-165600000D01*
X176600000Y-88600000D02*
X177000000Y-88200000D01*
X175000000Y-88600000D02*
X176600000Y-88600000D01*
X335400000Y-163400000D02*
X322400000Y-163400000D01*
X119800000Y-88200000D02*
X123076700Y-88200000D01*
X348400000Y-159000000D02*
X345800000Y-159000000D01*
%TO.N,COL11*%
X86970000Y-82690000D02*
X90801000Y-78859000D01*
X85600000Y-60800000D02*
X86600000Y-59800000D01*
X90801000Y-74033900D02*
X85683550Y-68916450D01*
X85683550Y-68916450D02*
X85600000Y-68832900D01*
X244200000Y-86200000D02*
X244600000Y-86600000D01*
X85600000Y-68832900D02*
X85600000Y-60800000D01*
X193800000Y-86200000D02*
X244200000Y-86200000D01*
X86600000Y-59800000D02*
X107600000Y-59800000D01*
X90801000Y-78859000D02*
X90801000Y-74033900D01*
%TO.N,COL1*%
X125600000Y-84200000D02*
X122200000Y-87600000D01*
X119990000Y-64910000D02*
X121280000Y-66200000D01*
X127600000Y-67200000D02*
X125600000Y-69200000D01*
X107418750Y-93581250D02*
X99712500Y-93581250D01*
X126800000Y-66200000D02*
X127600000Y-67000000D01*
X125600000Y-69200000D02*
X125600000Y-84200000D01*
X113400000Y-87600000D02*
X107418750Y-93581250D01*
X127600000Y-67000000D02*
X127600000Y-67200000D01*
X121280000Y-66200000D02*
X126800000Y-66200000D01*
X122200000Y-87600000D02*
X113400000Y-87600000D01*
%TO.N,Net-(D1-A)*%
X74312500Y-96121250D02*
X81442500Y-88991250D01*
X81442500Y-88991250D02*
X85742500Y-88991250D01*
%TO.N,Net-(D2-A)*%
X100492500Y-88991250D02*
X104792500Y-88991250D01*
X93362500Y-96121250D02*
X100492500Y-88991250D01*
%TO.N,Net-(D3-A)*%
X112412500Y-96121250D02*
X119542500Y-88991250D01*
X119542500Y-88991250D02*
X123842500Y-88991250D01*
%TO.N,Net-(D4-A)*%
X138592500Y-88991250D02*
X142892500Y-88991250D01*
X131462500Y-96121250D02*
X138592500Y-88991250D01*
%TO.N,Net-(D5-A)*%
X338617500Y-88991250D02*
X342917500Y-88991250D01*
X331487500Y-96121250D02*
X338617500Y-88991250D01*
%TO.N,Net-(D6-A)*%
X157642500Y-88991250D02*
X161942500Y-88991250D01*
X150512500Y-96121250D02*
X157642500Y-88991250D01*
%TO.N,Net-(D7-A)*%
X169562500Y-96121250D02*
X176692500Y-88991250D01*
X176692500Y-88991250D02*
X180992500Y-88991250D01*
%TO.N,Net-(D8-A)*%
X188612500Y-96121250D02*
X195742500Y-88991250D01*
X195742500Y-88991250D02*
X200042500Y-88991250D01*
%TO.N,Net-(D9-A)*%
X214792500Y-88991250D02*
X219092500Y-88991250D01*
X207662500Y-96121250D02*
X214792500Y-88991250D01*
%TO.N,Net-(D10-A)*%
X226712500Y-96121250D02*
X233842500Y-88991250D01*
X233842500Y-88991250D02*
X238142500Y-88991250D01*
%TO.N,Net-(D11-A)*%
X252892500Y-88991250D02*
X257192500Y-88991250D01*
X245762500Y-96121250D02*
X252892500Y-88991250D01*
%TO.N,Net-(D12-A)*%
X271942500Y-88991250D02*
X276242500Y-88991250D01*
X264812500Y-96121250D02*
X271942500Y-88991250D01*
%TO.N,Net-(D13-A)*%
X290992500Y-88991250D02*
X295292500Y-88991250D01*
X283862500Y-96121250D02*
X290992500Y-88991250D01*
%TO.N,Net-(D14-A)*%
X302912500Y-96121250D02*
X310042500Y-88991250D01*
X310042500Y-88991250D02*
X314342500Y-88991250D01*
%TO.N,Net-(D15-A)*%
X86205000Y-108041250D02*
X90505000Y-108041250D01*
X79075000Y-115171250D02*
X86205000Y-108041250D01*
%TO.N,Net-(D16-A)*%
X110017500Y-108041250D02*
X114317500Y-108041250D01*
X102887500Y-115171250D02*
X110017500Y-108041250D01*
%TO.N,Net-(D17-A)*%
X121937500Y-115171250D02*
X129067500Y-108041250D01*
X129067500Y-108041250D02*
X133367500Y-108041250D01*
%TO.N,Net-(D18-A)*%
X148117500Y-108041250D02*
X152417500Y-108041250D01*
X140987500Y-115171250D02*
X148117500Y-108041250D01*
%TO.N,Net-(D19-A)*%
X167167500Y-108041250D02*
X171467500Y-108041250D01*
X160037500Y-115171250D02*
X167167500Y-108041250D01*
%TO.N,Net-(D20-A)*%
X179087500Y-115171250D02*
X186217500Y-108041250D01*
X186217500Y-108041250D02*
X190517500Y-108041250D01*
%TO.N,Net-(D21-A)*%
X205267500Y-108041250D02*
X209567500Y-108041250D01*
X198137500Y-115171250D02*
X205267500Y-108041250D01*
%TO.N,Net-(D22-A)*%
X217187500Y-115171250D02*
X224317500Y-108041250D01*
X224317500Y-108041250D02*
X228617500Y-108041250D01*
%TO.N,Net-(D23-A)*%
X243367500Y-108041250D02*
X247667500Y-108041250D01*
X236237500Y-115171250D02*
X243367500Y-108041250D01*
%TO.N,Net-(D24-A)*%
X255287500Y-115171250D02*
X262417500Y-108041250D01*
X262417500Y-108041250D02*
X266717500Y-108041250D01*
%TO.N,Net-(D25-A)*%
X281467500Y-108041250D02*
X285767500Y-108041250D01*
X274337500Y-115171250D02*
X281467500Y-108041250D01*
%TO.N,Net-(D26-A)*%
X300517500Y-108041250D02*
X304817500Y-108041250D01*
X293387500Y-115171250D02*
X300517500Y-108041250D01*
%TO.N,Net-(D27-A)*%
X312437500Y-115171250D02*
X319567500Y-108041250D01*
X319567500Y-108041250D02*
X323867500Y-108041250D01*
%TO.N,Net-(D28-A)*%
X343380000Y-108041250D02*
X347680000Y-108041250D01*
X336250000Y-115171250D02*
X343380000Y-108041250D01*
%TO.N,Net-(D29-A)*%
X88586250Y-127091250D02*
X92886250Y-127091250D01*
X81456250Y-134221250D02*
X88586250Y-127091250D01*
%TO.N,Net-(D30-A)*%
X114780000Y-127091250D02*
X119080000Y-127091250D01*
X107650000Y-134221250D02*
X114780000Y-127091250D01*
%TO.N,Net-(D31-A)*%
X126700000Y-134221250D02*
X133830000Y-127091250D01*
X133830000Y-127091250D02*
X138130000Y-127091250D01*
%TO.N,Net-(D32-A)*%
X145750000Y-134221250D02*
X152880000Y-127091250D01*
X152880000Y-127091250D02*
X157180000Y-127091250D01*
%TO.N,Net-(D33-A)*%
X164800000Y-134221250D02*
X171930000Y-127091250D01*
X171930000Y-127091250D02*
X176230000Y-127091250D01*
%TO.N,Net-(D34-A)*%
X183850000Y-134221250D02*
X190980000Y-127091250D01*
X190980000Y-127091250D02*
X195280000Y-127091250D01*
%TO.N,Net-(D35-A)*%
X210030000Y-127091250D02*
X214330000Y-127091250D01*
X202900000Y-134221250D02*
X210030000Y-127091250D01*
%TO.N,Net-(D36-A)*%
X221950000Y-134221250D02*
X229080000Y-127091250D01*
X229080000Y-127091250D02*
X233380000Y-127091250D01*
%TO.N,Net-(D37-A)*%
X241000000Y-134221250D02*
X248130000Y-127091250D01*
X248130000Y-127091250D02*
X252430000Y-127091250D01*
%TO.N,Net-(D38-A)*%
X260050000Y-134221250D02*
X267180000Y-127091250D01*
X267180000Y-127091250D02*
X271480000Y-127091250D01*
%TO.N,Net-(D39-A)*%
X279100000Y-134221250D02*
X286230000Y-127091250D01*
X286230000Y-127091250D02*
X290530000Y-127091250D01*
%TO.N,Net-(D40-A)*%
X305280000Y-127091250D02*
X309580000Y-127091250D01*
X298150000Y-134221250D02*
X305280000Y-127091250D01*
%TO.N,Net-(D41-A)*%
X336236250Y-127091250D02*
X340536250Y-127091250D01*
X329106250Y-134221250D02*
X336236250Y-127091250D01*
%TO.N,Net-(D42-A)*%
X86218750Y-153271250D02*
X96962500Y-153271250D01*
X96962500Y-153271250D02*
X98962500Y-151271250D01*
%TO.N,Net-(D43-A)*%
X117175000Y-153271250D02*
X124305000Y-146141250D01*
X124305000Y-146141250D02*
X128605000Y-146141250D01*
%TO.N,Net-(D44-A)*%
X143355000Y-146141250D02*
X147655000Y-146141250D01*
X136225000Y-153271250D02*
X143355000Y-146141250D01*
%TO.N,Net-(D45-A)*%
X155275000Y-153271250D02*
X162405000Y-146141250D01*
X162405000Y-146141250D02*
X166705000Y-146141250D01*
%TO.N,Net-(D46-A)*%
X181455000Y-146141250D02*
X185755000Y-146141250D01*
X174325000Y-153271250D02*
X181455000Y-146141250D01*
%TO.N,Net-(D47-A)*%
X193375000Y-153271250D02*
X200505000Y-146141250D01*
X200505000Y-146141250D02*
X204805000Y-146141250D01*
%TO.N,Net-(D48-A)*%
X219555000Y-146141250D02*
X223855000Y-146141250D01*
X212425000Y-153271250D02*
X219555000Y-146141250D01*
%TO.N,Net-(D49-A)*%
X238605000Y-146141250D02*
X242905000Y-146141250D01*
X231475000Y-153271250D02*
X238605000Y-146141250D01*
%TO.N,Net-(D50-A)*%
X257655000Y-146141250D02*
X261955000Y-146141250D01*
X250525000Y-153271250D02*
X257655000Y-146141250D01*
%TO.N,Net-(D51-A)*%
X269575000Y-153271250D02*
X276705000Y-146141250D01*
X276705000Y-146141250D02*
X281005000Y-146141250D01*
%TO.N,Net-(D52-A)*%
X295755000Y-146141250D02*
X300055000Y-146141250D01*
X288625000Y-153271250D02*
X295755000Y-146141250D01*
%TO.N,Net-(D53-A)*%
X331473750Y-146141250D02*
X335773750Y-146141250D01*
X324343750Y-153271250D02*
X331473750Y-146141250D01*
%TO.N,Net-(D54-A)*%
X83823750Y-165191250D02*
X88123750Y-165191250D01*
X76693750Y-172321250D02*
X83823750Y-165191250D01*
%TO.N,Net-(D55-A)*%
X100506250Y-172321250D02*
X107636250Y-165191250D01*
X107636250Y-165191250D02*
X111936250Y-165191250D01*
%TO.N,Net-(D56-A)*%
X124318750Y-172321250D02*
X131448750Y-165191250D01*
X131448750Y-165191250D02*
X135748750Y-165191250D01*
%TO.N,Net-(D57-A)*%
X195756250Y-172321250D02*
X202886250Y-165191250D01*
X202886250Y-165191250D02*
X207186250Y-165191250D01*
%TO.N,Net-(D58-A)*%
X274323750Y-165191250D02*
X278623750Y-165191250D01*
X267193750Y-172321250D02*
X274323750Y-165191250D01*
%TO.N,Net-(D59-A)*%
X298136250Y-165191250D02*
X302436250Y-165191250D01*
X291006250Y-172321250D02*
X298136250Y-165191250D01*
%TO.N,Net-(D60-A)*%
X314818750Y-172321250D02*
X321948750Y-165191250D01*
X321948750Y-165191250D02*
X326248750Y-165191250D01*
%TO.N,Net-(D61-A)*%
X338631250Y-172321250D02*
X345761250Y-165191250D01*
X345761250Y-165191250D02*
X350061250Y-165191250D01*
%TO.N,Net-(D62-A)*%
X357520000Y-88930000D02*
X361820000Y-88930000D01*
X350390000Y-96060000D02*
X357520000Y-88930000D01*
%TD*%
M02*
