M48
; DRILL file {KiCad 9.0.6} date 2026-04-09T15:02:48+0530
; FORMAT={-:-/ absolute / metric / decimal}
; #@! TF.CreationDate,2026-04-09T15:02:48+05:30
; #@! TF.GenerationSoftware,Kicad,Pcbnew,9.0.6
; #@! TF.FileFunction,NonPlated,1,2,NPTH
FMAT,2
METRIC
; #@! TA.AperFunction,NonPlated,NPTH,ComponentDrill
T1C1.700
; #@! TA.AperFunction,NonPlated,NPTH,ComponentDrill
T2C1.850
; #@! TA.AperFunction,NonPlated,NPTH,ComponentDrill
T3C2.200
; #@! TA.AperFunction,NonPlated,NPTH,ComponentDrill
T4C4.000
%
G90
G05
T1
X68.002Y-61.5
X70.384Y-137.7
X72.765Y-80.55
X75.146Y-99.6
X78.162Y-61.5
X79.909Y-118.65
X80.544Y-137.7
X82.925Y-80.55
X85.306Y-99.6
X87.052Y-61.5
X90.069Y-118.65
X94.196Y-137.7
X96.578Y-80.55
X97.212Y-61.5
X101.34Y-99.6
X104.356Y-137.7
X106.102Y-61.5
X106.737Y-80.55
X110.865Y-118.65
X111.5Y-99.6
X115.627Y-80.55
X116.262Y-61.5
X118.009Y-137.7
X120.39Y-99.6
X121.025Y-118.65
X125.152Y-61.5
X125.787Y-80.55
X128.169Y-137.7
X129.915Y-118.65
X130.55Y-99.6
X134.677Y-80.55
X135.312Y-61.5
X139.44Y-99.6
X140.075Y-118.65
X144.202Y-61.5
X144.838Y-80.55
X148.965Y-118.65
X149.6Y-99.6
X153.727Y-80.55
X154.362Y-61.5
X158.49Y-99.6
X159.125Y-118.65
X163.252Y-61.5
X163.887Y-80.55
X168.015Y-118.65
X168.65Y-99.6
X172.778Y-80.55
X173.412Y-61.5
X177.54Y-99.6
X178.175Y-118.65
X182.302Y-61.5
X182.938Y-80.55
X187.065Y-118.65
X187.7Y-99.6
X189.446Y-137.7
X191.827Y-80.55
X192.462Y-61.5
X196.59Y-99.6
X197.225Y-118.65
X199.606Y-137.7
X201.352Y-61.5
X201.987Y-80.55
X206.115Y-118.65
X206.75Y-99.6
X210.877Y-80.55
X211.512Y-61.5
X215.64Y-99.6
X216.275Y-118.65
X220.403Y-61.5
X221.037Y-80.55
X225.165Y-118.65
X225.8Y-99.6
X229.927Y-80.55
X230.562Y-61.5
X234.69Y-99.6
X235.325Y-118.65
X239.452Y-61.5
X240.087Y-80.55
X244.215Y-118.65
X244.85Y-99.6
X248.977Y-80.55
X249.612Y-61.5
X253.74Y-99.6
X254.375Y-118.65
X258.502Y-61.5
X259.137Y-80.55
X260.884Y-137.7
X263.265Y-118.65
X263.9Y-99.6
X268.027Y-80.55
X268.662Y-61.5
X271.044Y-137.7
X272.79Y-99.6
X273.425Y-118.65
X277.553Y-61.5
X278.188Y-80.55
X282.315Y-118.65
X282.95Y-99.6
X284.696Y-137.7
X287.077Y-80.55
X287.712Y-61.5
X291.84Y-99.6
X292.475Y-118.65
X294.856Y-137.7
X296.602Y-61.5
X297.238Y-80.55
X302.0Y-99.6
X306.127Y-80.55
X306.762Y-61.5
X308.509Y-137.7
X316.287Y-80.55
X318.034Y-118.65
X318.669Y-137.7
X322.796Y-99.6
X325.178Y-61.5
X328.194Y-118.65
X329.94Y-80.55
X332.321Y-137.7
X332.956Y-99.6
X335.337Y-61.5
X340.1Y-80.55
X342.481Y-137.7
T2
X45.975Y-45.83
X50.825Y-45.83
T3
X45.675Y-42.8
X51.125Y-42.8
T4
X73.082Y-61.5
X75.464Y-137.7
X77.845Y-80.55
X80.226Y-99.6
X84.989Y-118.65
X92.132Y-61.5
X99.276Y-137.7
X101.657Y-80.55
X106.42Y-99.6
X111.182Y-61.5
X115.945Y-118.65
X120.707Y-80.55
X123.089Y-137.7
X125.47Y-99.6
X130.232Y-61.5
X134.995Y-118.65
X139.757Y-80.55
X144.52Y-99.6
X149.282Y-61.5
X154.045Y-118.65
X158.808Y-80.55
X163.57Y-99.6
X168.332Y-61.5
X173.095Y-118.65
X177.857Y-80.55
X182.62Y-99.6
X187.382Y-61.5
X192.145Y-118.65
X194.526Y-137.7
X196.907Y-80.55
X201.67Y-99.6
X206.433Y-61.5
X211.195Y-118.65
X215.957Y-80.55
X220.72Y-99.6
X225.482Y-61.5
X230.245Y-118.65
X235.007Y-80.55
X239.77Y-99.6
X244.532Y-61.5
X249.295Y-118.65
X254.057Y-80.55
X258.82Y-99.6
X263.582Y-61.5
X265.964Y-137.7
X268.345Y-118.65
X273.108Y-80.55
X277.87Y-99.6
X282.632Y-61.5
X287.395Y-118.65
X289.776Y-137.7
X292.157Y-80.55
X296.92Y-99.6
X301.683Y-61.5
X311.207Y-80.55
X313.589Y-137.7
X323.114Y-118.65
X327.876Y-99.6
X330.257Y-61.5
X335.02Y-80.55
X337.401Y-137.7
M30
