M48
; DRILL file {KiCad 9.0.6} date 2026-03-15T00:02:27+0530
; FORMAT={-:-/ absolute / metric / decimal}
; #@! TF.CreationDate,2026-03-15T00:02:27+05:30
; #@! TF.GenerationSoftware,Kicad,Pcbnew,9.0.6
; #@! TF.FileFunction,NonPlated,1,2,NPTH
FMAT,2
METRIC
; #@! TA.AperFunction,NonPlated,NPTH,ComponentDrill
T1C1.700
; #@! TA.AperFunction,NonPlated,NPTH,ComponentDrill
T2C1.850
; #@! TA.AperFunction,NonPlated,NPTH,ComponentDrill
T3C2.200
; #@! TA.AperFunction,NonPlated,NPTH,ComponentDrill
T4C3.050
; #@! TA.AperFunction,NonPlated,NPTH,ComponentDrill
T5C4.000
%
G90
G05
T1
X73.042Y-98.661
X75.424Y-174.861
X77.805Y-117.711
X80.186Y-136.761
X83.203Y-98.661
X84.949Y-155.811
X85.584Y-174.861
X87.965Y-117.711
X90.346Y-136.761
X92.093Y-98.661
X95.109Y-155.811
X99.236Y-174.861
X101.617Y-117.711
X102.252Y-98.661
X106.38Y-136.761
X109.396Y-174.861
X111.142Y-98.661
X111.777Y-117.711
X115.905Y-155.811
X116.54Y-136.761
X120.667Y-117.711
X121.302Y-98.661
X123.049Y-174.861
X125.43Y-136.761
X126.065Y-155.811
X130.192Y-98.661
X130.827Y-117.711
X133.209Y-174.861
X134.955Y-155.811
X135.59Y-136.761
X139.718Y-117.711
X140.352Y-98.661
X144.48Y-136.761
X145.115Y-155.811
X149.243Y-98.661
X149.877Y-117.711
X154.005Y-155.811
X154.64Y-136.761
X158.767Y-117.711
X159.403Y-98.661
X163.53Y-136.761
X164.165Y-155.811
X168.292Y-98.661
X168.927Y-117.711
X173.055Y-155.811
X173.69Y-136.761
X177.817Y-117.711
X178.452Y-98.661
X182.58Y-136.761
X183.215Y-155.811
X187.343Y-98.661
X187.977Y-117.711
X192.105Y-155.811
X192.74Y-136.761
X194.486Y-174.861
X196.867Y-117.711
X197.502Y-98.661
X201.63Y-136.761
X202.265Y-155.811
X204.646Y-174.861
X206.392Y-98.661
X207.028Y-117.711
X211.155Y-155.811
X211.79Y-136.761
X215.917Y-117.711
X216.552Y-98.661
X220.68Y-136.761
X221.315Y-155.811
X225.442Y-98.661
X226.077Y-117.711
X230.205Y-155.811
X230.84Y-136.761
X234.968Y-117.711
X235.602Y-98.661
X239.73Y-136.761
X240.365Y-155.811
X244.492Y-98.661
X245.127Y-117.711
X249.255Y-155.811
X249.89Y-136.761
X254.017Y-117.711
X254.652Y-98.661
X258.78Y-136.761
X259.415Y-155.811
X263.542Y-98.661
X264.178Y-117.711
X265.924Y-174.861
X268.305Y-155.811
X268.94Y-136.761
X273.067Y-117.711
X273.702Y-98.661
X276.084Y-174.861
X277.83Y-136.761
X278.465Y-155.811
X282.592Y-98.661
X283.227Y-117.711
X287.355Y-155.811
X287.99Y-136.761
X289.736Y-174.861
X292.118Y-117.711
X292.752Y-98.661
X296.88Y-136.761
X297.515Y-155.811
X299.896Y-174.861
X301.642Y-98.661
X302.277Y-117.711
X307.04Y-136.761
X311.167Y-117.711
X311.803Y-98.661
X313.549Y-174.861
X321.327Y-117.711
X323.074Y-155.811
X323.709Y-174.861
X327.836Y-136.761
X330.217Y-98.661
X333.234Y-155.811
X334.98Y-117.711
X337.361Y-174.861
X337.996Y-136.761
X340.377Y-98.661
X345.14Y-117.711
X347.521Y-174.861
X349.12Y-98.6
X359.28Y-98.6
T2
X77.43Y-71.375
X77.43Y-76.225
T3
X74.4Y-71.075
X74.4Y-76.525
T4
X73.366Y-129.761
X78.129Y-148.811
X97.166Y-129.761
X101.929Y-148.811
X149.566Y-167.861
X249.566Y-167.861
X316.254Y-148.811
X321.016Y-129.761
X340.054Y-148.811
X344.816Y-129.761
T5
X73.366Y-145.001
X78.123Y-98.661
X78.129Y-164.051
X80.504Y-174.861
X82.885Y-117.711
X85.266Y-136.761
X90.029Y-155.811
X97.166Y-145.001
X97.172Y-98.661
X101.929Y-164.051
X104.316Y-174.861
X106.697Y-117.711
X111.46Y-136.761
X116.222Y-98.661
X120.985Y-155.811
X125.747Y-117.711
X128.129Y-174.861
X130.51Y-136.761
X135.273Y-98.661
X140.035Y-155.811
X144.797Y-117.711
X149.56Y-136.761
X149.566Y-183.101
X154.322Y-98.661
X159.085Y-155.811
X163.847Y-117.711
X168.61Y-136.761
X173.373Y-98.661
X178.135Y-155.811
X182.897Y-117.711
X187.66Y-136.761
X192.422Y-98.661
X197.185Y-155.811
X199.566Y-174.861
X201.947Y-117.711
X206.71Y-136.761
X211.472Y-98.661
X216.235Y-155.811
X220.998Y-117.711
X225.76Y-136.761
X230.522Y-98.661
X235.285Y-155.811
X240.047Y-117.711
X244.81Y-136.761
X249.566Y-183.101
X249.572Y-98.661
X254.335Y-155.811
X259.097Y-117.711
X263.86Y-136.761
X268.623Y-98.661
X271.004Y-174.861
X273.385Y-155.811
X278.147Y-117.711
X282.91Y-136.761
X287.673Y-98.661
X292.435Y-155.811
X294.816Y-174.861
X297.197Y-117.711
X301.96Y-136.761
X306.722Y-98.661
X316.248Y-117.711
X316.254Y-164.051
X318.629Y-174.861
X321.016Y-145.001
X328.154Y-155.811
X332.916Y-136.761
X335.297Y-98.661
X340.054Y-164.051
X340.06Y-117.711
X342.441Y-174.861
X344.816Y-145.001
X354.2Y-98.6
M30
