%TF.GenerationSoftware,KiCad,Pcbnew,9.0.6*%
%TF.CreationDate,2026-03-15T00:02:25+05:30*%
%TF.ProjectId,PCB,5043422e-6b69-4636-9164-5f7063625858,rev?*%
%TF.SameCoordinates,Original*%
%TF.FileFunction,Soldermask,Top*%
%TF.FilePolarity,Negative*%
%FSLAX46Y46*%
G04 Gerber Fmt 4.6, Leading zero omitted, Abs format (unit mm)*
G04 Created by KiCad (PCBNEW 9.0.6) date 2026-03-15 00:02:25*
%MOMM*%
%LPD*%
G01*
G04 APERTURE LIST*
G04 Aperture macros list*
%AMRoundRect*
0 Rectangle with rounded corners*
0 $1 Rounding radius*
0 $2 $3 $4 $5 $6 $7 $8 $9 X,Y pos of 4 corners*
0 Add a 4 corners polygon primitive as box body*
4,1,4,$2,$3,$4,$5,$6,$7,$8,$9,$2,$3,0*
0 Add four circle primitives for the rounded corners*
1,1,$1+$1,$2,$3*
1,1,$1+$1,$4,$5*
1,1,$1+$1,$6,$7*
1,1,$1+$1,$8,$9*
0 Add four rect primitives between the rounded corners*
20,1,$1+$1,$2,$3,$4,$5,0*
20,1,$1+$1,$4,$5,$6,$7,0*
20,1,$1+$1,$6,$7,$8,$9,0*
20,1,$1+$1,$8,$9,$2,$3,0*%
%AMFreePoly0*
4,1,37,0.800000,0.796148,0.878414,0.796148,1.032228,0.765552,1.177117,0.705537,1.307515,0.618408,1.418408,0.507515,1.505537,0.377117,1.565552,0.232228,1.596148,0.078414,1.596148,-0.078414,1.565552,-0.232228,1.505537,-0.377117,1.418408,-0.507515,1.307515,-0.618408,1.177117,-0.705537,1.032228,-0.765552,0.878414,-0.796148,0.800000,-0.796148,0.800000,-0.800000,-1.400000,-0.800000,
-1.403843,-0.796157,-1.439018,-0.796157,-1.511114,-0.766294,-1.566294,-0.711114,-1.596157,-0.639018,-1.596157,-0.603843,-1.600000,-0.600000,-1.600000,0.600000,-1.596157,0.603843,-1.596157,0.639018,-1.566294,0.711114,-1.511114,0.766294,-1.439018,0.796157,-1.403843,0.796157,-1.400000,0.800000,0.800000,0.800000,0.800000,0.796148,0.800000,0.796148,$1*%
%AMFreePoly1*
4,1,37,1.403843,0.796157,1.439018,0.796157,1.511114,0.766294,1.566294,0.711114,1.596157,0.639018,1.596157,0.603843,1.600000,0.600000,1.600000,-0.600000,1.596157,-0.603843,1.596157,-0.639018,1.566294,-0.711114,1.511114,-0.766294,1.439018,-0.796157,1.403843,-0.796157,1.400000,-0.800000,-0.800000,-0.800000,-0.800000,-0.796148,-0.878414,-0.796148,-1.032228,-0.765552,-1.177117,-0.705537,
-1.307515,-0.618408,-1.418408,-0.507515,-1.505537,-0.377117,-1.565552,-0.232228,-1.596148,-0.078414,-1.596148,0.078414,-1.565552,0.232228,-1.505537,0.377117,-1.418408,0.507515,-1.307515,0.618408,-1.177117,0.705537,-1.032228,0.765552,-0.878414,0.796148,-0.800000,0.796148,-0.800000,0.800000,1.400000,0.800000,1.403843,0.796157,1.403843,0.796157,$1*%
%AMFreePoly2*
4,1,37,0.603843,0.796157,0.639018,0.796157,0.711114,0.766294,0.766294,0.711114,0.796157,0.639018,0.796157,0.603843,0.800000,0.600000,0.800000,-0.600000,0.796157,-0.603843,0.796157,-0.639018,0.766294,-0.711114,0.711114,-0.766294,0.639018,-0.796157,0.603843,-0.796157,0.600000,-0.800000,0.000000,-0.800000,0.000000,-0.796148,-0.078414,-0.796148,-0.232228,-0.765552,-0.377117,-0.705537,
-0.507515,-0.618408,-0.618408,-0.507515,-0.705537,-0.377117,-0.765552,-0.232228,-0.796148,-0.078414,-0.796148,0.078414,-0.765552,0.232228,-0.705537,0.377117,-0.618408,0.507515,-0.507515,0.618408,-0.377117,0.705537,-0.232228,0.765552,-0.078414,0.796148,0.000000,0.796148,0.000000,0.800000,0.600000,0.800000,0.603843,0.796157,0.603843,0.796157,$1*%
%AMFreePoly3*
4,1,37,0.000000,0.796148,0.078414,0.796148,0.232228,0.765552,0.377117,0.705537,0.507515,0.618408,0.618408,0.507515,0.705537,0.377117,0.765552,0.232228,0.796148,0.078414,0.796148,-0.078414,0.765552,-0.232228,0.705537,-0.377117,0.618408,-0.507515,0.507515,-0.618408,0.377117,-0.705537,0.232228,-0.765552,0.078414,-0.796148,0.000000,-0.796148,0.000000,-0.800000,-0.600000,-0.800000,
-0.603843,-0.796157,-0.639018,-0.796157,-0.711114,-0.766294,-0.766294,-0.711114,-0.796157,-0.639018,-0.796157,-0.603843,-0.800000,-0.600000,-0.800000,0.600000,-0.796157,0.603843,-0.796157,0.639018,-0.766294,0.711114,-0.711114,0.766294,-0.639018,0.796157,-0.603843,0.796157,-0.600000,0.800000,0.000000,0.800000,0.000000,0.796148,0.000000,0.796148,$1*%
G04 Aperture macros list end*
%ADD10C,1.700000*%
%ADD11C,4.000000*%
%ADD12C,2.200000*%
%ADD13C,1.850000*%
%ADD14FreePoly0,90.000000*%
%ADD15RoundRect,0.200000X0.600000X-0.600000X0.600000X0.600000X-0.600000X0.600000X-0.600000X-0.600000X0*%
%ADD16RoundRect,0.800000X0.000010X-0.800000X0.000010X0.800000X-0.000010X0.800000X-0.000010X-0.800000X0*%
%ADD17C,1.600000*%
%ADD18FreePoly1,90.000000*%
%ADD19FreePoly2,90.000000*%
%ADD20FreePoly3,90.000000*%
%ADD21C,3.050000*%
%ADD22RoundRect,0.250000X0.550000X-0.550000X0.550000X0.550000X-0.550000X0.550000X-0.550000X-0.550000X0*%
G04 APERTURE END LIST*
D10*
%TO.C,SW16*%
X101617500Y-117711250D03*
D11*
X106697500Y-117711250D03*
D10*
X111777500Y-117711250D03*
D12*
X109237500Y-112631250D03*
X102887500Y-115171250D03*
%TD*%
D10*
%TO.C,SW10*%
X244492500Y-98661250D03*
D11*
X249572500Y-98661250D03*
D10*
X254652500Y-98661250D03*
D12*
X252112500Y-93581250D03*
X245762500Y-96121250D03*
%TD*%
D10*
%TO.C,SW12*%
X282592500Y-98661250D03*
D11*
X287672500Y-98661250D03*
D10*
X292752500Y-98661250D03*
D12*
X290212500Y-93581250D03*
X283862500Y-96121250D03*
%TD*%
D10*
%TO.C,SW50*%
X249255000Y-155811250D03*
D11*
X254335000Y-155811250D03*
D10*
X259415000Y-155811250D03*
D12*
X256875000Y-150731250D03*
X250525000Y-153271250D03*
%TD*%
D10*
%TO.C,SW13*%
X301642500Y-98661250D03*
D11*
X306722500Y-98661250D03*
D10*
X311802500Y-98661250D03*
D12*
X309262500Y-93581250D03*
X302912500Y-96121250D03*
%TD*%
D10*
%TO.C,SW27*%
X311167500Y-117711250D03*
D11*
X316247500Y-117711250D03*
D10*
X321327500Y-117711250D03*
D12*
X318787500Y-112631250D03*
X312437500Y-115171250D03*
%TD*%
D10*
%TO.C,SW28*%
X334980000Y-117711250D03*
D11*
X340060000Y-117711250D03*
D10*
X345140000Y-117711250D03*
D12*
X342600000Y-112631250D03*
X336250000Y-115171250D03*
%TD*%
D10*
%TO.C,SW36*%
X220680000Y-136761250D03*
D11*
X225760000Y-136761250D03*
D10*
X230840000Y-136761250D03*
D12*
X228300000Y-131681250D03*
X221950000Y-134221250D03*
%TD*%
D10*
%TO.C,SW34*%
X182580000Y-136761250D03*
D11*
X187660000Y-136761250D03*
D10*
X192740000Y-136761250D03*
D12*
X190200000Y-131681250D03*
X183850000Y-134221250D03*
%TD*%
D10*
%TO.C,SW35*%
X201630000Y-136761250D03*
D11*
X206710000Y-136761250D03*
D10*
X211790000Y-136761250D03*
D12*
X209250000Y-131681250D03*
X202900000Y-134221250D03*
%TD*%
D10*
%TO.C,SW7*%
X187342500Y-98661250D03*
D11*
X192422500Y-98661250D03*
D10*
X197502500Y-98661250D03*
D12*
X194962500Y-93581250D03*
X188612500Y-96121250D03*
%TD*%
D10*
%TO.C,SW2*%
X92092500Y-98661250D03*
D11*
X97172500Y-98661250D03*
D10*
X102252500Y-98661250D03*
D12*
X99712500Y-93581250D03*
X93362500Y-96121250D03*
%TD*%
%TO.C,A1*%
X74400000Y-76525000D03*
D13*
X77430000Y-76225000D03*
X77430000Y-71375000D03*
D12*
X74400000Y-71075000D03*
D14*
X74270000Y-83490000D03*
D15*
X74270000Y-82690000D03*
D16*
X76810000Y-83490000D03*
D17*
X76810000Y-82690000D03*
D18*
X79350000Y-83490000D03*
D19*
X79350000Y-82690000D03*
D16*
X81890000Y-83490000D03*
D17*
X81890000Y-82690000D03*
D16*
X84430000Y-83490000D03*
D17*
X84430000Y-82690000D03*
D16*
X86970000Y-83490000D03*
D17*
X86970000Y-82690000D03*
D16*
X89510000Y-83490000D03*
D17*
X89510000Y-82690000D03*
D18*
X92050000Y-83490000D03*
D19*
X92050000Y-82690000D03*
D16*
X94590000Y-83490000D03*
D17*
X94590000Y-82690000D03*
D16*
X97130000Y-83490000D03*
D17*
X97130000Y-82690000D03*
D16*
X99670000Y-83490000D03*
D17*
X99670000Y-82690000D03*
D16*
X102210000Y-83490000D03*
D17*
X102210000Y-82690000D03*
D18*
X104750000Y-83490000D03*
D19*
X104750000Y-82690000D03*
D16*
X107290000Y-83490000D03*
D17*
X107290000Y-82690000D03*
D16*
X109830000Y-83490000D03*
D17*
X109830000Y-82690000D03*
D16*
X112370000Y-83490000D03*
D17*
X112370000Y-82690000D03*
D16*
X114910000Y-83490000D03*
D17*
X114910000Y-82690000D03*
D18*
X117450000Y-83490000D03*
D19*
X117450000Y-82690000D03*
D16*
X119990000Y-83490000D03*
D17*
X119990000Y-82690000D03*
D16*
X122530000Y-83490000D03*
D17*
X122530000Y-82690000D03*
X122530000Y-64910000D03*
D16*
X122530000Y-64110000D03*
D17*
X119990000Y-64910000D03*
D16*
X119990000Y-64110000D03*
D20*
X117450000Y-64910000D03*
D14*
X117450000Y-64110000D03*
D17*
X114910000Y-64910000D03*
D16*
X114910000Y-64110000D03*
D17*
X112370000Y-64910000D03*
D16*
X112370000Y-64110000D03*
D17*
X109830000Y-64910000D03*
D16*
X109830000Y-64110000D03*
D17*
X107290000Y-64910000D03*
D16*
X107290000Y-64110000D03*
D20*
X104750000Y-64910000D03*
D14*
X104750000Y-64110000D03*
D17*
X102210000Y-64910000D03*
D16*
X102210000Y-64110000D03*
D17*
X99670000Y-64910000D03*
D16*
X99670000Y-64110000D03*
D17*
X97130000Y-64910000D03*
D16*
X97130000Y-64110000D03*
D17*
X94590000Y-64910000D03*
D16*
X94590000Y-64110000D03*
D20*
X92050000Y-64910000D03*
D14*
X92050000Y-64110000D03*
D17*
X89510000Y-64910000D03*
D16*
X89510000Y-64110000D03*
D17*
X86970000Y-64910000D03*
D16*
X86970000Y-64110000D03*
D17*
X84430000Y-64910000D03*
D16*
X84430000Y-64110000D03*
D17*
X81890000Y-64910000D03*
D16*
X81890000Y-64110000D03*
D20*
X79350000Y-64910000D03*
D14*
X79350000Y-64110000D03*
D17*
X76810000Y-64910000D03*
D16*
X76810000Y-64110000D03*
D17*
X74270000Y-64910000D03*
D16*
X74270000Y-64110000D03*
%TD*%
D21*
%TO.C,SW53*%
X316253750Y-148811250D03*
D11*
X316253750Y-164051250D03*
D10*
X323073750Y-155811250D03*
D11*
X328153750Y-155811250D03*
D10*
X333233750Y-155811250D03*
D21*
X340053750Y-148811250D03*
D11*
X340053750Y-164051250D03*
D12*
X330693750Y-150731250D03*
X324343750Y-153271250D03*
%TD*%
D10*
%TO.C,SW44*%
X134955000Y-155811250D03*
D11*
X140035000Y-155811250D03*
D10*
X145115000Y-155811250D03*
D12*
X142575000Y-150731250D03*
X136225000Y-153271250D03*
%TD*%
D10*
%TO.C,SW23*%
X234967500Y-117711250D03*
D11*
X240047500Y-117711250D03*
D10*
X245127500Y-117711250D03*
D12*
X242587500Y-112631250D03*
X236237500Y-115171250D03*
%TD*%
D10*
%TO.C,SW5*%
X149242500Y-98661250D03*
D11*
X154322500Y-98661250D03*
D10*
X159402500Y-98661250D03*
D12*
X156862500Y-93581250D03*
X150512500Y-96121250D03*
%TD*%
D10*
%TO.C,SW43*%
X115905000Y-155811250D03*
D11*
X120985000Y-155811250D03*
D10*
X126065000Y-155811250D03*
D12*
X123525000Y-150731250D03*
X117175000Y-153271250D03*
%TD*%
D10*
%TO.C,SW38*%
X258780000Y-136761250D03*
D11*
X263860000Y-136761250D03*
D10*
X268940000Y-136761250D03*
D12*
X266400000Y-131681250D03*
X260050000Y-134221250D03*
%TD*%
D10*
%TO.C,SW17*%
X120667500Y-117711250D03*
D11*
X125747500Y-117711250D03*
D10*
X130827500Y-117711250D03*
D12*
X128287500Y-112631250D03*
X121937500Y-115171250D03*
%TD*%
D10*
%TO.C,SW33*%
X163530000Y-136761250D03*
D11*
X168610000Y-136761250D03*
D10*
X173690000Y-136761250D03*
D12*
X171150000Y-131681250D03*
X164800000Y-134221250D03*
%TD*%
D10*
%TO.C,SW30*%
X106380000Y-136761250D03*
D11*
X111460000Y-136761250D03*
D10*
X116540000Y-136761250D03*
D12*
X114000000Y-131681250D03*
X107650000Y-134221250D03*
%TD*%
D10*
%TO.C,SW1*%
X73042500Y-98661250D03*
D11*
X78122500Y-98661250D03*
D10*
X83202500Y-98661250D03*
D12*
X80662500Y-93581250D03*
X74312500Y-96121250D03*
%TD*%
D10*
%TO.C,SW52*%
X287355000Y-155811250D03*
D11*
X292435000Y-155811250D03*
D10*
X297515000Y-155811250D03*
D12*
X294975000Y-150731250D03*
X288625000Y-153271250D03*
%TD*%
D10*
%TO.C,SW25*%
X273067500Y-117711250D03*
D11*
X278147500Y-117711250D03*
D10*
X283227500Y-117711250D03*
D12*
X280687500Y-112631250D03*
X274337500Y-115171250D03*
%TD*%
D10*
%TO.C,SW4*%
X130192500Y-98661250D03*
D11*
X135272500Y-98661250D03*
D10*
X140352500Y-98661250D03*
D12*
X137812500Y-93581250D03*
X131462500Y-96121250D03*
%TD*%
D10*
%TO.C,SW54*%
X75423750Y-174861250D03*
D11*
X80503750Y-174861250D03*
D10*
X85583750Y-174861250D03*
D12*
X83043750Y-169781250D03*
X76693750Y-172321250D03*
%TD*%
D10*
%TO.C,SW58*%
X265923750Y-174861250D03*
D11*
X271003750Y-174861250D03*
D10*
X276083750Y-174861250D03*
D12*
X273543750Y-169781250D03*
X267193750Y-172321250D03*
%TD*%
D10*
%TO.C,SW40*%
X296880000Y-136761250D03*
D11*
X301960000Y-136761250D03*
D10*
X307040000Y-136761250D03*
D12*
X304500000Y-131681250D03*
X298150000Y-134221250D03*
%TD*%
D10*
%TO.C,SW61*%
X337361250Y-174861250D03*
D11*
X342441250Y-174861250D03*
D10*
X347521250Y-174861250D03*
D12*
X344981250Y-169781250D03*
X338631250Y-172321250D03*
%TD*%
D10*
%TO.C,SW51*%
X268305000Y-155811250D03*
D11*
X273385000Y-155811250D03*
D10*
X278465000Y-155811250D03*
D12*
X275925000Y-150731250D03*
X269575000Y-153271250D03*
%TD*%
D10*
%TO.C,SW8*%
X206392500Y-98661250D03*
D11*
X211472500Y-98661250D03*
D10*
X216552500Y-98661250D03*
D12*
X214012500Y-93581250D03*
X207662500Y-96121250D03*
%TD*%
D10*
%TO.C,SW62*%
X349120000Y-98600000D03*
D11*
X354200000Y-98600000D03*
D10*
X359280000Y-98600000D03*
D12*
X356740000Y-93520000D03*
X350390000Y-96060000D03*
%TD*%
D21*
%TO.C,SW57*%
X149566250Y-167861250D03*
D11*
X149566250Y-183101250D03*
D10*
X194486250Y-174861250D03*
D11*
X199566250Y-174861250D03*
D10*
X204646250Y-174861250D03*
D21*
X249566250Y-167861250D03*
D11*
X249566250Y-183101250D03*
D12*
X202106250Y-169781250D03*
X195756250Y-172321250D03*
%TD*%
D10*
%TO.C,SW22*%
X215917500Y-117711250D03*
D11*
X220997500Y-117711250D03*
D10*
X226077500Y-117711250D03*
D12*
X223537500Y-112631250D03*
X217187500Y-115171250D03*
%TD*%
D10*
%TO.C,SW21*%
X196867500Y-117711250D03*
D11*
X201947500Y-117711250D03*
D10*
X207027500Y-117711250D03*
D12*
X204487500Y-112631250D03*
X198137500Y-115171250D03*
%TD*%
D10*
%TO.C,SW18*%
X139717500Y-117711250D03*
D11*
X144797500Y-117711250D03*
D10*
X149877500Y-117711250D03*
D12*
X147337500Y-112631250D03*
X140987500Y-115171250D03*
%TD*%
D10*
%TO.C,SW6*%
X168292500Y-98661250D03*
D11*
X173372500Y-98661250D03*
D10*
X178452500Y-98661250D03*
D12*
X175912500Y-93581250D03*
X169562500Y-96121250D03*
%TD*%
D10*
%TO.C,SW32*%
X144480000Y-136761250D03*
D11*
X149560000Y-136761250D03*
D10*
X154640000Y-136761250D03*
D12*
X152100000Y-131681250D03*
X145750000Y-134221250D03*
%TD*%
D10*
%TO.C,SW59*%
X289736250Y-174861250D03*
D11*
X294816250Y-174861250D03*
D10*
X299896250Y-174861250D03*
D12*
X297356250Y-169781250D03*
X291006250Y-172321250D03*
%TD*%
D10*
%TO.C,SW11*%
X263542500Y-98661250D03*
D11*
X268622500Y-98661250D03*
D10*
X273702500Y-98661250D03*
D12*
X271162500Y-93581250D03*
X264812500Y-96121250D03*
%TD*%
D21*
%TO.C,SW29*%
X73366250Y-129761250D03*
D11*
X73366250Y-145001250D03*
D10*
X80186250Y-136761250D03*
D11*
X85266250Y-136761250D03*
D10*
X90346250Y-136761250D03*
D21*
X97166250Y-129761250D03*
D11*
X97166250Y-145001250D03*
D12*
X87806250Y-131681250D03*
X81456250Y-134221250D03*
%TD*%
D10*
%TO.C,SW20*%
X177817500Y-117711250D03*
D11*
X182897500Y-117711250D03*
D10*
X187977500Y-117711250D03*
D12*
X185437500Y-112631250D03*
X179087500Y-115171250D03*
%TD*%
D21*
%TO.C,SW41*%
X321016250Y-129761250D03*
D11*
X321016250Y-145001250D03*
D10*
X327836250Y-136761250D03*
D11*
X332916250Y-136761250D03*
D10*
X337996250Y-136761250D03*
D21*
X344816250Y-129761250D03*
D11*
X344816250Y-145001250D03*
D12*
X335456250Y-131681250D03*
X329106250Y-134221250D03*
%TD*%
D10*
%TO.C,SW46*%
X173055000Y-155811250D03*
D11*
X178135000Y-155811250D03*
D10*
X183215000Y-155811250D03*
D12*
X180675000Y-150731250D03*
X174325000Y-153271250D03*
%TD*%
D10*
%TO.C,SW15*%
X77805000Y-117711250D03*
D11*
X82885000Y-117711250D03*
D10*
X87965000Y-117711250D03*
D12*
X85425000Y-112631250D03*
X79075000Y-115171250D03*
%TD*%
D10*
%TO.C,SW37*%
X239730000Y-136761250D03*
D11*
X244810000Y-136761250D03*
D10*
X249890000Y-136761250D03*
D12*
X247350000Y-131681250D03*
X241000000Y-134221250D03*
%TD*%
D10*
%TO.C,SW45*%
X154005000Y-155811250D03*
D11*
X159085000Y-155811250D03*
D10*
X164165000Y-155811250D03*
D12*
X161625000Y-150731250D03*
X155275000Y-153271250D03*
%TD*%
D10*
%TO.C,SW48*%
X211155000Y-155811250D03*
D11*
X216235000Y-155811250D03*
D10*
X221315000Y-155811250D03*
D12*
X218775000Y-150731250D03*
X212425000Y-153271250D03*
%TD*%
D21*
%TO.C,SW42*%
X78128750Y-148811250D03*
D11*
X78128750Y-164051250D03*
D10*
X84948750Y-155811250D03*
D11*
X90028750Y-155811250D03*
D10*
X95108750Y-155811250D03*
D21*
X101928750Y-148811250D03*
D11*
X101928750Y-164051250D03*
D12*
X92568750Y-150731250D03*
X86218750Y-153271250D03*
%TD*%
D10*
%TO.C,SW60*%
X313548750Y-174861250D03*
D11*
X318628750Y-174861250D03*
D10*
X323708750Y-174861250D03*
D12*
X321168750Y-169781250D03*
X314818750Y-172321250D03*
%TD*%
D10*
%TO.C,SW24*%
X254017500Y-117711250D03*
D11*
X259097500Y-117711250D03*
D10*
X264177500Y-117711250D03*
D12*
X261637500Y-112631250D03*
X255287500Y-115171250D03*
%TD*%
D10*
%TO.C,SW3*%
X111142500Y-98661250D03*
D11*
X116222500Y-98661250D03*
D10*
X121302500Y-98661250D03*
D12*
X118762500Y-93581250D03*
X112412500Y-96121250D03*
%TD*%
D10*
%TO.C,SW56*%
X123048750Y-174861250D03*
D11*
X128128750Y-174861250D03*
D10*
X133208750Y-174861250D03*
D12*
X130668750Y-169781250D03*
X124318750Y-172321250D03*
%TD*%
D10*
%TO.C,SW9*%
X225442500Y-98661250D03*
D11*
X230522500Y-98661250D03*
D10*
X235602500Y-98661250D03*
D12*
X233062500Y-93581250D03*
X226712500Y-96121250D03*
%TD*%
D10*
%TO.C,SW49*%
X230205000Y-155811250D03*
D11*
X235285000Y-155811250D03*
D10*
X240365000Y-155811250D03*
D12*
X237825000Y-150731250D03*
X231475000Y-153271250D03*
%TD*%
D10*
%TO.C,SW19*%
X158767500Y-117711250D03*
D11*
X163847500Y-117711250D03*
D10*
X168927500Y-117711250D03*
D12*
X166387500Y-112631250D03*
X160037500Y-115171250D03*
%TD*%
D10*
%TO.C,SW39*%
X277830000Y-136761250D03*
D11*
X282910000Y-136761250D03*
D10*
X287990000Y-136761250D03*
D12*
X285450000Y-131681250D03*
X279100000Y-134221250D03*
%TD*%
D10*
%TO.C,SW14*%
X330217500Y-98661250D03*
D11*
X335297500Y-98661250D03*
D10*
X340377500Y-98661250D03*
D12*
X337837500Y-93581250D03*
X331487500Y-96121250D03*
%TD*%
D10*
%TO.C,SW26*%
X292117500Y-117711250D03*
D11*
X297197500Y-117711250D03*
D10*
X302277500Y-117711250D03*
D12*
X299737500Y-112631250D03*
X293387500Y-115171250D03*
%TD*%
D10*
%TO.C,SW47*%
X192105000Y-155811250D03*
D11*
X197185000Y-155811250D03*
D10*
X202265000Y-155811250D03*
D12*
X199725000Y-150731250D03*
X193375000Y-153271250D03*
%TD*%
D10*
%TO.C,SW31*%
X125430000Y-136761250D03*
D11*
X130510000Y-136761250D03*
D10*
X135590000Y-136761250D03*
D12*
X133050000Y-131681250D03*
X126700000Y-134221250D03*
%TD*%
D10*
%TO.C,SW55*%
X99236250Y-174861250D03*
D11*
X104316250Y-174861250D03*
D10*
X109396250Y-174861250D03*
D12*
X106856250Y-169781250D03*
X100506250Y-172321250D03*
%TD*%
D22*
%TO.C,D30*%
X119080000Y-134711250D03*
D17*
X119080000Y-127091250D03*
%TD*%
D22*
%TO.C,D8*%
X200042500Y-96611250D03*
D17*
X200042500Y-88991250D03*
%TD*%
D22*
%TO.C,D24*%
X266717500Y-115661250D03*
D17*
X266717500Y-108041250D03*
%TD*%
D22*
%TO.C,D25*%
X285767500Y-115661250D03*
D17*
X285767500Y-108041250D03*
%TD*%
D22*
%TO.C,D41*%
X340536250Y-134711250D03*
D17*
X340536250Y-127091250D03*
%TD*%
D22*
%TO.C,D12*%
X276242500Y-96611250D03*
D17*
X276242500Y-88991250D03*
%TD*%
D22*
%TO.C,D31*%
X138130000Y-134711250D03*
D17*
X138130000Y-127091250D03*
%TD*%
D22*
%TO.C,D61*%
X350061250Y-172811250D03*
D17*
X350061250Y-165191250D03*
%TD*%
D22*
%TO.C,D32*%
X157180000Y-134711250D03*
D17*
X157180000Y-127091250D03*
%TD*%
D22*
%TO.C,D53*%
X335773750Y-153761250D03*
D17*
X335773750Y-146141250D03*
%TD*%
D22*
%TO.C,D14*%
X314342500Y-96611250D03*
D17*
X314342500Y-88991250D03*
%TD*%
D22*
%TO.C,D38*%
X271480000Y-134711250D03*
D17*
X271480000Y-127091250D03*
%TD*%
D22*
%TO.C,D47*%
X204805000Y-153761250D03*
D17*
X204805000Y-146141250D03*
%TD*%
D22*
%TO.C,D57*%
X207186250Y-172811250D03*
D17*
X207186250Y-165191250D03*
%TD*%
D22*
%TO.C,D59*%
X302436250Y-172811250D03*
D17*
X302436250Y-165191250D03*
%TD*%
D22*
%TO.C,D16*%
X114317500Y-115661250D03*
D17*
X114317500Y-108041250D03*
%TD*%
D22*
%TO.C,D22*%
X228617500Y-115661250D03*
D17*
X228617500Y-108041250D03*
%TD*%
D22*
%TO.C,D10*%
X238142500Y-96611250D03*
D17*
X238142500Y-88991250D03*
%TD*%
D22*
%TO.C,D13*%
X295292500Y-96611250D03*
D17*
X295292500Y-88991250D03*
%TD*%
D22*
%TO.C,D23*%
X247667500Y-115661250D03*
D17*
X247667500Y-108041250D03*
%TD*%
D22*
%TO.C,D34*%
X195280000Y-134711250D03*
D17*
X195280000Y-127091250D03*
%TD*%
D22*
%TO.C,D37*%
X252430000Y-134711250D03*
D17*
X252430000Y-127091250D03*
%TD*%
D22*
%TO.C,D3*%
X123842500Y-96611250D03*
D17*
X123842500Y-88991250D03*
%TD*%
D22*
%TO.C,D9*%
X219092500Y-96611250D03*
D17*
X219092500Y-88991250D03*
%TD*%
D22*
%TO.C,D7*%
X180992500Y-96611250D03*
D17*
X180992500Y-88991250D03*
%TD*%
D22*
%TO.C,D56*%
X135748750Y-172811250D03*
D17*
X135748750Y-165191250D03*
%TD*%
D22*
%TO.C,D50*%
X261955000Y-153761250D03*
D17*
X261955000Y-146141250D03*
%TD*%
D22*
%TO.C,D1*%
X85742500Y-96611250D03*
D17*
X85742500Y-88991250D03*
%TD*%
D22*
%TO.C,D36*%
X233380000Y-134711250D03*
D17*
X233380000Y-127091250D03*
%TD*%
D22*
%TO.C,D18*%
X152417500Y-115661250D03*
D17*
X152417500Y-108041250D03*
%TD*%
D22*
%TO.C,D4*%
X142892500Y-96611250D03*
D17*
X142892500Y-88991250D03*
%TD*%
D22*
%TO.C,D40*%
X309580000Y-134711250D03*
D17*
X309580000Y-127091250D03*
%TD*%
D22*
%TO.C,D44*%
X147655000Y-153761250D03*
D17*
X147655000Y-146141250D03*
%TD*%
D22*
%TO.C,D49*%
X242905000Y-153761250D03*
D17*
X242905000Y-146141250D03*
%TD*%
D22*
%TO.C,D21*%
X209567500Y-115661250D03*
D17*
X209567500Y-108041250D03*
%TD*%
D22*
%TO.C,D60*%
X326248750Y-172811250D03*
D17*
X326248750Y-165191250D03*
%TD*%
D22*
%TO.C,D29*%
X92886250Y-134711250D03*
D17*
X92886250Y-127091250D03*
%TD*%
D22*
%TO.C,D19*%
X171467500Y-115661250D03*
D17*
X171467500Y-108041250D03*
%TD*%
D22*
%TO.C,D28*%
X347680000Y-115661250D03*
D17*
X347680000Y-108041250D03*
%TD*%
D22*
%TO.C,D42*%
X98962500Y-158891250D03*
D17*
X98962500Y-151271250D03*
%TD*%
D22*
%TO.C,D52*%
X300055000Y-153761250D03*
D17*
X300055000Y-146141250D03*
%TD*%
D22*
%TO.C,D26*%
X304817500Y-115661250D03*
D17*
X304817500Y-108041250D03*
%TD*%
D22*
%TO.C,D54*%
X88123750Y-172811250D03*
D17*
X88123750Y-165191250D03*
%TD*%
D22*
%TO.C,D39*%
X290530000Y-134711250D03*
D17*
X290530000Y-127091250D03*
%TD*%
D22*
%TO.C,D20*%
X190517500Y-115661250D03*
D17*
X190517500Y-108041250D03*
%TD*%
D22*
%TO.C,D33*%
X176230000Y-134711250D03*
D17*
X176230000Y-127091250D03*
%TD*%
D22*
%TO.C,D6*%
X161942500Y-96611250D03*
D17*
X161942500Y-88991250D03*
%TD*%
D22*
%TO.C,D48*%
X223855000Y-153761250D03*
D17*
X223855000Y-146141250D03*
%TD*%
D22*
%TO.C,D62*%
X361820000Y-96550000D03*
D17*
X361820000Y-88930000D03*
%TD*%
D22*
%TO.C,D17*%
X133367500Y-115661250D03*
D17*
X133367500Y-108041250D03*
%TD*%
D22*
%TO.C,D46*%
X185755000Y-153761250D03*
D17*
X185755000Y-146141250D03*
%TD*%
D22*
%TO.C,D58*%
X278623750Y-172811250D03*
D17*
X278623750Y-165191250D03*
%TD*%
D22*
%TO.C,D27*%
X323867500Y-115661250D03*
D17*
X323867500Y-108041250D03*
%TD*%
D22*
%TO.C,D51*%
X281005000Y-153761250D03*
D17*
X281005000Y-146141250D03*
%TD*%
D22*
%TO.C,D11*%
X257192500Y-96611250D03*
D17*
X257192500Y-88991250D03*
%TD*%
D22*
%TO.C,D5*%
X342917500Y-96611250D03*
D17*
X342917500Y-88991250D03*
%TD*%
D22*
%TO.C,D43*%
X128605000Y-153761250D03*
D17*
X128605000Y-146141250D03*
%TD*%
D22*
%TO.C,D45*%
X166705000Y-153761250D03*
D17*
X166705000Y-146141250D03*
%TD*%
D22*
%TO.C,D55*%
X111936250Y-172811250D03*
D17*
X111936250Y-165191250D03*
%TD*%
D22*
%TO.C,D2*%
X104792500Y-96611250D03*
D17*
X104792500Y-88991250D03*
%TD*%
D22*
%TO.C,D15*%
X90505000Y-115661250D03*
D17*
X90505000Y-108041250D03*
%TD*%
D22*
%TO.C,D35*%
X214330000Y-134711250D03*
D17*
X214330000Y-127091250D03*
%TD*%
M02*
