%TF.GenerationSoftware,KiCad,Pcbnew,9.0.6*%
%TF.CreationDate,2026-03-15T00:02:25+05:30*%
%TF.ProjectId,PCB,5043422e-6b69-4636-9164-5f7063625858,rev?*%
%TF.SameCoordinates,Original*%
%TF.FileFunction,Copper,L2,Bot*%
%TF.FilePolarity,Positive*%
%FSLAX46Y46*%
G04 Gerber Fmt 4.6, Leading zero omitted, Abs format (unit mm)*
G04 Created by KiCad (PCBNEW 9.0.6) date 2026-03-15 00:02:25*
%MOMM*%
%LPD*%
G01*
G04 APERTURE LIST*
G04 Aperture macros list*
%AMRoundRect*
0 Rectangle with rounded corners*
0 $1 Rounding radius*
0 $2 $3 $4 $5 $6 $7 $8 $9 X,Y pos of 4 corners*
0 Add a 4 corners polygon primitive as box body*
4,1,4,$2,$3,$4,$5,$6,$7,$8,$9,$2,$3,0*
0 Add four circle primitives for the rounded corners*
1,1,$1+$1,$2,$3*
1,1,$1+$1,$4,$5*
1,1,$1+$1,$6,$7*
1,1,$1+$1,$8,$9*
0 Add four rect primitives between the rounded corners*
20,1,$1+$1,$2,$3,$4,$5,0*
20,1,$1+$1,$4,$5,$6,$7,0*
20,1,$1+$1,$6,$7,$8,$9,0*
20,1,$1+$1,$8,$9,$2,$3,0*%
%AMFreePoly0*
4,1,37,0.603843,0.796157,0.639018,0.796157,0.711114,0.766294,0.766294,0.711114,0.796157,0.639018,0.796157,0.603843,0.800000,0.600000,0.800000,-0.600000,0.796157,-0.603843,0.796157,-0.639018,0.766294,-0.711114,0.711114,-0.766294,0.639018,-0.796157,0.603843,-0.796157,0.600000,-0.800000,0.000000,-0.800000,0.000000,-0.796148,-0.078414,-0.796148,-0.232228,-0.765552,-0.377117,-0.705537,
-0.507515,-0.618408,-0.618408,-0.507515,-0.705537,-0.377117,-0.765552,-0.232228,-0.796148,-0.078414,-0.796148,0.078414,-0.765552,0.232228,-0.705537,0.377117,-0.618408,0.507515,-0.507515,0.618408,-0.377117,0.705537,-0.232228,0.765552,-0.078414,0.796148,0.000000,0.796148,0.000000,0.800000,0.600000,0.800000,0.603843,0.796157,0.603843,0.796157,$1*%
%AMFreePoly1*
4,1,37,0.000000,0.796148,0.078414,0.796148,0.232228,0.765552,0.377117,0.705537,0.507515,0.618408,0.618408,0.507515,0.705537,0.377117,0.765552,0.232228,0.796148,0.078414,0.796148,-0.078414,0.765552,-0.232228,0.705537,-0.377117,0.618408,-0.507515,0.507515,-0.618408,0.377117,-0.705537,0.232228,-0.765552,0.078414,-0.796148,0.000000,-0.796148,0.000000,-0.800000,-0.600000,-0.800000,
-0.603843,-0.796157,-0.639018,-0.796157,-0.711114,-0.766294,-0.766294,-0.711114,-0.796157,-0.639018,-0.796157,-0.603843,-0.800000,-0.600000,-0.800000,0.600000,-0.796157,0.603843,-0.796157,0.639018,-0.766294,0.711114,-0.711114,0.766294,-0.639018,0.796157,-0.603843,0.796157,-0.600000,0.800000,0.000000,0.800000,0.000000,0.796148,0.000000,0.796148,$1*%
G04 Aperture macros list end*
%TA.AperFunction,ComponentPad*%
%ADD10C,2.200000*%
%TD*%
%TA.AperFunction,ComponentPad*%
%ADD11RoundRect,0.200000X0.600000X-0.600000X0.600000X0.600000X-0.600000X0.600000X-0.600000X-0.600000X0*%
%TD*%
%TA.AperFunction,ComponentPad*%
%ADD12C,1.600000*%
%TD*%
%TA.AperFunction,ComponentPad*%
%ADD13FreePoly0,90.000000*%
%TD*%
%TA.AperFunction,ComponentPad*%
%ADD14FreePoly1,90.000000*%
%TD*%
%TA.AperFunction,ComponentPad*%
%ADD15RoundRect,0.250000X0.550000X-0.550000X0.550000X0.550000X-0.550000X0.550000X-0.550000X-0.550000X0*%
%TD*%
%TA.AperFunction,ViaPad*%
%ADD16C,0.600000*%
%TD*%
%TA.AperFunction,Conductor*%
%ADD17C,0.200000*%
%TD*%
G04 APERTURE END LIST*
D10*
%TO.P,SW16,1,1*%
%TO.N,COL1*%
X109237500Y-112631250D03*
%TO.P,SW16,2,2*%
%TO.N,Net-(D16-A)*%
X102887500Y-115171250D03*
%TD*%
%TO.P,SW10,1,1*%
%TO.N,COL9*%
X252112500Y-93581250D03*
%TO.P,SW10,2,2*%
%TO.N,Net-(D11-A)*%
X245762500Y-96121250D03*
%TD*%
%TO.P,SW12,1,1*%
%TO.N,COL11*%
X290212500Y-93581250D03*
%TO.P,SW12,2,2*%
%TO.N,Net-(D13-A)*%
X283862500Y-96121250D03*
%TD*%
%TO.P,SW50,1,1*%
%TO.N,COL7*%
X256875000Y-150731250D03*
%TO.P,SW50,2,2*%
%TO.N,Net-(D50-A)*%
X250525000Y-153271250D03*
%TD*%
%TO.P,SW13,1,1*%
%TO.N,COL12*%
X309262500Y-93581250D03*
%TO.P,SW13,2,2*%
%TO.N,Net-(D14-A)*%
X302912500Y-96121250D03*
%TD*%
%TO.P,SW27,1,1*%
%TO.N,COL12*%
X318787500Y-112631250D03*
%TO.P,SW27,2,2*%
%TO.N,Net-(D27-A)*%
X312437500Y-115171250D03*
%TD*%
%TO.P,SW28,1,1*%
%TO.N,COL13*%
X342600000Y-112631250D03*
%TO.P,SW28,2,2*%
%TO.N,Net-(D28-A)*%
X336250000Y-115171250D03*
%TD*%
%TO.P,SW36,1,1*%
%TO.N,COL7*%
X228300000Y-131681250D03*
%TO.P,SW36,2,2*%
%TO.N,Net-(D36-A)*%
X221950000Y-134221250D03*
%TD*%
%TO.P,SW34,1,1*%
%TO.N,COL5*%
X190200000Y-131681250D03*
%TO.P,SW34,2,2*%
%TO.N,Net-(D34-A)*%
X183850000Y-134221250D03*
%TD*%
%TO.P,SW35,1,1*%
%TO.N,COL6*%
X209250000Y-131681250D03*
%TO.P,SW35,2,2*%
%TO.N,Net-(D35-A)*%
X202900000Y-134221250D03*
%TD*%
%TO.P,SW7,1,1*%
%TO.N,COL6*%
X194962500Y-93581250D03*
%TO.P,SW7,2,2*%
%TO.N,Net-(D8-A)*%
X188612500Y-96121250D03*
%TD*%
%TO.P,SW2,1,1*%
%TO.N,COL1*%
X99712500Y-93581250D03*
%TO.P,SW2,2,2*%
%TO.N,Net-(D2-A)*%
X93362500Y-96121250D03*
%TD*%
D11*
%TO.P,A1,1,GPIO0*%
%TO.N,COL7*%
X74270000Y-82690000D03*
D12*
%TO.P,A1,2,GPIO1*%
%TO.N,COL8*%
X76810000Y-82690000D03*
D13*
%TO.P,A1,3,GND*%
%TO.N,Net-(A1-GND-Pad13)*%
X79350000Y-82690000D03*
D12*
%TO.P,A1,4,GPIO2*%
%TO.N,COL9*%
X81890000Y-82690000D03*
%TO.P,A1,5,GPIO3*%
%TO.N,COL10*%
X84430000Y-82690000D03*
%TO.P,A1,6,GPIO4*%
%TO.N,COL11*%
X86970000Y-82690000D03*
%TO.P,A1,7,GPIO5*%
%TO.N,COL12*%
X89510000Y-82690000D03*
D13*
%TO.P,A1,8,GND*%
%TO.N,Net-(A1-GND-Pad13)*%
X92050000Y-82690000D03*
D12*
%TO.P,A1,9,GPIO6*%
%TO.N,COL13*%
X94590000Y-82690000D03*
%TO.P,A1,10,GPIO7*%
%TO.N,ROW0*%
X97130000Y-82690000D03*
%TO.P,A1,11,GPIO8*%
%TO.N,ROW1*%
X99670000Y-82690000D03*
%TO.P,A1,12,GPIO9*%
%TO.N,ROW2*%
X102210000Y-82690000D03*
D13*
%TO.P,A1,13,GND*%
%TO.N,Net-(A1-GND-Pad13)*%
X104750000Y-82690000D03*
D12*
%TO.P,A1,14,GPIO10*%
%TO.N,ROW3*%
X107290000Y-82690000D03*
%TO.P,A1,15,GPIO11*%
%TO.N,ROW4*%
X109830000Y-82690000D03*
%TO.P,A1,16,GPIO12*%
%TO.N,unconnected-(A1-GPIO12-Pad16)*%
X112370000Y-82690000D03*
%TO.P,A1,17,GPIO13*%
%TO.N,unconnected-(A1-GPIO13-Pad17)*%
X114910000Y-82690000D03*
D13*
%TO.P,A1,18,GND*%
%TO.N,Net-(A1-GND-Pad13)*%
X117450000Y-82690000D03*
D12*
%TO.P,A1,19,GPIO14*%
%TO.N,unconnected-(A1-GPIO14-Pad19)*%
X119990000Y-82690000D03*
%TO.P,A1,20,GPIO15*%
%TO.N,unconnected-(A1-GPIO15-Pad20)*%
X122530000Y-82690000D03*
%TO.P,A1,21,GPIO16*%
%TO.N,COL0*%
X122530000Y-64910000D03*
%TO.P,A1,22,GPIO17*%
%TO.N,COL1*%
X119990000Y-64910000D03*
D14*
%TO.P,A1,23,GND*%
%TO.N,Net-(A1-GND-Pad13)*%
X117450000Y-64910000D03*
D12*
%TO.P,A1,24,GPIO18*%
%TO.N,COL2*%
X114910000Y-64910000D03*
%TO.P,A1,25,GPIO19*%
%TO.N,COL3*%
X112370000Y-64910000D03*
%TO.P,A1,26,GPIO20*%
%TO.N,COL4*%
X109830000Y-64910000D03*
%TO.P,A1,27,GPIO21*%
%TO.N,COL5*%
X107290000Y-64910000D03*
D14*
%TO.P,A1,28,GND*%
%TO.N,Net-(A1-GND-Pad13)*%
X104750000Y-64910000D03*
D12*
%TO.P,A1,29,GPIO22*%
%TO.N,COL6*%
X102210000Y-64910000D03*
%TO.P,A1,30,RUN*%
%TO.N,unconnected-(A1-RUN-Pad30)*%
X99670000Y-64910000D03*
%TO.P,A1,31,GPIO26_ADC0*%
%TO.N,unconnected-(A1-GPIO26_ADC0-Pad31)*%
X97130000Y-64910000D03*
%TO.P,A1,32,GPIO27_ADC1*%
%TO.N,unconnected-(A1-GPIO27_ADC1-Pad32)*%
X94590000Y-64910000D03*
D14*
%TO.P,A1,33,AGND*%
%TO.N,unconnected-(A1-AGND-Pad33)*%
X92050000Y-64910000D03*
D12*
%TO.P,A1,34,GPIO28_ADC2*%
%TO.N,unconnected-(A1-GPIO28_ADC2-Pad34)*%
X89510000Y-64910000D03*
%TO.P,A1,35,ADC_VREF*%
%TO.N,unconnected-(A1-ADC_VREF-Pad35)*%
X86970000Y-64910000D03*
%TO.P,A1,36,3V3*%
%TO.N,unconnected-(A1-3V3-Pad36)*%
X84430000Y-64910000D03*
%TO.P,A1,37,3V3_EN*%
%TO.N,unconnected-(A1-3V3_EN-Pad37)*%
X81890000Y-64910000D03*
D14*
%TO.P,A1,38,GND*%
%TO.N,Net-(A1-GND-Pad13)*%
X79350000Y-64910000D03*
D12*
%TO.P,A1,39,VSYS*%
%TO.N,unconnected-(A1-VSYS-Pad39)*%
X76810000Y-64910000D03*
%TO.P,A1,40,VBUS*%
%TO.N,unconnected-(A1-VBUS-Pad40)*%
X74270000Y-64910000D03*
%TD*%
D10*
%TO.P,SW53,1,1*%
%TO.N,COL10*%
X330693750Y-150731250D03*
%TO.P,SW53,2,2*%
%TO.N,Net-(D53-A)*%
X324343750Y-153271250D03*
%TD*%
%TO.P,SW44,1,1*%
%TO.N,COL1*%
X142575000Y-150731250D03*
%TO.P,SW44,2,2*%
%TO.N,Net-(D44-A)*%
X136225000Y-153271250D03*
%TD*%
%TO.P,SW23,1,1*%
%TO.N,COL8*%
X242587500Y-112631250D03*
%TO.P,SW23,2,2*%
%TO.N,Net-(D23-A)*%
X236237500Y-115171250D03*
%TD*%
%TO.P,SW5,1,1*%
%TO.N,COL4*%
X156862500Y-93581250D03*
%TO.P,SW5,2,2*%
%TO.N,Net-(D6-A)*%
X150512500Y-96121250D03*
%TD*%
%TO.P,SW43,1,1*%
%TO.N,COL0*%
X123525000Y-150731250D03*
%TO.P,SW43,2,2*%
%TO.N,Net-(D43-A)*%
X117175000Y-153271250D03*
%TD*%
%TO.P,SW38,1,1*%
%TO.N,COL9*%
X266400000Y-131681250D03*
%TO.P,SW38,2,2*%
%TO.N,Net-(D38-A)*%
X260050000Y-134221250D03*
%TD*%
%TO.P,SW17,1,1*%
%TO.N,COL2*%
X128287500Y-112631250D03*
%TO.P,SW17,2,2*%
%TO.N,Net-(D17-A)*%
X121937500Y-115171250D03*
%TD*%
%TO.P,SW33,1,1*%
%TO.N,COL4*%
X171150000Y-131681250D03*
%TO.P,SW33,2,2*%
%TO.N,Net-(D33-A)*%
X164800000Y-134221250D03*
%TD*%
%TO.P,SW30,1,1*%
%TO.N,COL1*%
X114000000Y-131681250D03*
%TO.P,SW30,2,2*%
%TO.N,Net-(D30-A)*%
X107650000Y-134221250D03*
%TD*%
%TO.P,SW1,1,1*%
%TO.N,COL0*%
X80662500Y-93581250D03*
%TO.P,SW1,2,2*%
%TO.N,Net-(D1-A)*%
X74312500Y-96121250D03*
%TD*%
%TO.P,SW52,1,1*%
%TO.N,COL9*%
X294975000Y-150731250D03*
%TO.P,SW52,2,2*%
%TO.N,Net-(D52-A)*%
X288625000Y-153271250D03*
%TD*%
%TO.P,SW25,1,1*%
%TO.N,COL10*%
X280687500Y-112631250D03*
%TO.P,SW25,2,2*%
%TO.N,Net-(D25-A)*%
X274337500Y-115171250D03*
%TD*%
%TO.P,SW4,1,1*%
%TO.N,COL3*%
X137812500Y-93581250D03*
%TO.P,SW4,2,2*%
%TO.N,Net-(D4-A)*%
X131462500Y-96121250D03*
%TD*%
%TO.P,SW54,1,1*%
%TO.N,COL13*%
X83043750Y-169781250D03*
%TO.P,SW54,2,2*%
%TO.N,Net-(D54-A)*%
X76693750Y-172321250D03*
%TD*%
%TO.P,SW58,1,1*%
%TO.N,COL3*%
X273543750Y-169781250D03*
%TO.P,SW58,2,2*%
%TO.N,Net-(D58-A)*%
X267193750Y-172321250D03*
%TD*%
%TO.P,SW40,1,1*%
%TO.N,COL11*%
X304500000Y-131681250D03*
%TO.P,SW40,2,2*%
%TO.N,Net-(D40-A)*%
X298150000Y-134221250D03*
%TD*%
%TO.P,SW61,1,1*%
%TO.N,COL6*%
X344981250Y-169781250D03*
%TO.P,SW61,2,2*%
%TO.N,Net-(D61-A)*%
X338631250Y-172321250D03*
%TD*%
%TO.P,SW51,1,1*%
%TO.N,COL8*%
X275925000Y-150731250D03*
%TO.P,SW51,2,2*%
%TO.N,Net-(D51-A)*%
X269575000Y-153271250D03*
%TD*%
%TO.P,SW8,1,1*%
%TO.N,COL7*%
X214012500Y-93581250D03*
%TO.P,SW8,2,2*%
%TO.N,Net-(D9-A)*%
X207662500Y-96121250D03*
%TD*%
%TO.P,SW62,1,1*%
%TO.N,COL7*%
X356740000Y-93520000D03*
%TO.P,SW62,2,2*%
%TO.N,Net-(D62-A)*%
X350390000Y-96060000D03*
%TD*%
%TO.P,SW57,1,1*%
%TO.N,COL2*%
X202106250Y-169781250D03*
%TO.P,SW57,2,2*%
%TO.N,Net-(D57-A)*%
X195756250Y-172321250D03*
%TD*%
%TO.P,SW22,1,1*%
%TO.N,COL7*%
X223537500Y-112631250D03*
%TO.P,SW22,2,2*%
%TO.N,Net-(D22-A)*%
X217187500Y-115171250D03*
%TD*%
%TO.P,SW21,1,1*%
%TO.N,COL6*%
X204487500Y-112631250D03*
%TO.P,SW21,2,2*%
%TO.N,Net-(D21-A)*%
X198137500Y-115171250D03*
%TD*%
%TO.P,SW18,1,1*%
%TO.N,COL3*%
X147337500Y-112631250D03*
%TO.P,SW18,2,2*%
%TO.N,Net-(D18-A)*%
X140987500Y-115171250D03*
%TD*%
%TO.P,SW6,1,1*%
%TO.N,COL5*%
X175912500Y-93581250D03*
%TO.P,SW6,2,2*%
%TO.N,Net-(D7-A)*%
X169562500Y-96121250D03*
%TD*%
%TO.P,SW32,1,1*%
%TO.N,COL3*%
X152100000Y-131681250D03*
%TO.P,SW32,2,2*%
%TO.N,Net-(D32-A)*%
X145750000Y-134221250D03*
%TD*%
%TO.P,SW59,1,1*%
%TO.N,COL4*%
X297356250Y-169781250D03*
%TO.P,SW59,2,2*%
%TO.N,Net-(D59-A)*%
X291006250Y-172321250D03*
%TD*%
%TO.P,SW11,1,1*%
%TO.N,COL10*%
X271162500Y-93581250D03*
%TO.P,SW11,2,2*%
%TO.N,Net-(D12-A)*%
X264812500Y-96121250D03*
%TD*%
%TO.P,SW29,1,1*%
%TO.N,COL0*%
X87806250Y-131681250D03*
%TO.P,SW29,2,2*%
%TO.N,Net-(D29-A)*%
X81456250Y-134221250D03*
%TD*%
%TO.P,SW20,1,1*%
%TO.N,COL5*%
X185437500Y-112631250D03*
%TO.P,SW20,2,2*%
%TO.N,Net-(D20-A)*%
X179087500Y-115171250D03*
%TD*%
%TO.P,SW41,1,1*%
%TO.N,COL12*%
X335456250Y-131681250D03*
%TO.P,SW41,2,2*%
%TO.N,Net-(D41-A)*%
X329106250Y-134221250D03*
%TD*%
%TO.P,SW46,1,1*%
%TO.N,COL3*%
X180675000Y-150731250D03*
%TO.P,SW46,2,2*%
%TO.N,Net-(D46-A)*%
X174325000Y-153271250D03*
%TD*%
%TO.P,SW15,1,1*%
%TO.N,COL0*%
X85425000Y-112631250D03*
%TO.P,SW15,2,2*%
%TO.N,Net-(D15-A)*%
X79075000Y-115171250D03*
%TD*%
%TO.P,SW37,1,1*%
%TO.N,COL8*%
X247350000Y-131681250D03*
%TO.P,SW37,2,2*%
%TO.N,Net-(D37-A)*%
X241000000Y-134221250D03*
%TD*%
%TO.P,SW45,1,1*%
%TO.N,COL2*%
X161625000Y-150731250D03*
%TO.P,SW45,2,2*%
%TO.N,Net-(D45-A)*%
X155275000Y-153271250D03*
%TD*%
%TO.P,SW48,1,1*%
%TO.N,COL5*%
X218775000Y-150731250D03*
%TO.P,SW48,2,2*%
%TO.N,Net-(D48-A)*%
X212425000Y-153271250D03*
%TD*%
%TO.P,SW42,1,1*%
%TO.N,COL13*%
X92568750Y-150731250D03*
%TO.P,SW42,2,2*%
%TO.N,Net-(D42-A)*%
X86218750Y-153271250D03*
%TD*%
%TO.P,SW60,1,1*%
%TO.N,COL5*%
X321168750Y-169781250D03*
%TO.P,SW60,2,2*%
%TO.N,Net-(D60-A)*%
X314818750Y-172321250D03*
%TD*%
%TO.P,SW24,1,1*%
%TO.N,COL9*%
X261637500Y-112631250D03*
%TO.P,SW24,2,2*%
%TO.N,Net-(D24-A)*%
X255287500Y-115171250D03*
%TD*%
%TO.P,SW3,1,1*%
%TO.N,COL2*%
X118762500Y-93581250D03*
%TO.P,SW3,2,2*%
%TO.N,Net-(D3-A)*%
X112412500Y-96121250D03*
%TD*%
%TO.P,SW56,1,1*%
%TO.N,COL1*%
X130668750Y-169781250D03*
%TO.P,SW56,2,2*%
%TO.N,Net-(D56-A)*%
X124318750Y-172321250D03*
%TD*%
%TO.P,SW9,1,1*%
%TO.N,COL8*%
X233062500Y-93581250D03*
%TO.P,SW9,2,2*%
%TO.N,Net-(D10-A)*%
X226712500Y-96121250D03*
%TD*%
%TO.P,SW49,1,1*%
%TO.N,COL6*%
X237825000Y-150731250D03*
%TO.P,SW49,2,2*%
%TO.N,Net-(D49-A)*%
X231475000Y-153271250D03*
%TD*%
%TO.P,SW19,1,1*%
%TO.N,COL4*%
X166387500Y-112631250D03*
%TO.P,SW19,2,2*%
%TO.N,Net-(D19-A)*%
X160037500Y-115171250D03*
%TD*%
%TO.P,SW39,1,1*%
%TO.N,COL10*%
X285450000Y-131681250D03*
%TO.P,SW39,2,2*%
%TO.N,Net-(D39-A)*%
X279100000Y-134221250D03*
%TD*%
%TO.P,SW14,1,1*%
%TO.N,COL13*%
X337837500Y-93581250D03*
%TO.P,SW14,2,2*%
%TO.N,Net-(D5-A)*%
X331487500Y-96121250D03*
%TD*%
%TO.P,SW26,1,1*%
%TO.N,COL11*%
X299737500Y-112631250D03*
%TO.P,SW26,2,2*%
%TO.N,Net-(D26-A)*%
X293387500Y-115171250D03*
%TD*%
%TO.P,SW47,1,1*%
%TO.N,COL4*%
X199725000Y-150731250D03*
%TO.P,SW47,2,2*%
%TO.N,Net-(D47-A)*%
X193375000Y-153271250D03*
%TD*%
%TO.P,SW31,1,1*%
%TO.N,COL2*%
X133050000Y-131681250D03*
%TO.P,SW31,2,2*%
%TO.N,Net-(D31-A)*%
X126700000Y-134221250D03*
%TD*%
%TO.P,SW55,1,1*%
%TO.N,COL0*%
X106856250Y-169781250D03*
%TO.P,SW55,2,2*%
%TO.N,Net-(D55-A)*%
X100506250Y-172321250D03*
%TD*%
D15*
%TO.P,D30,1,K*%
%TO.N,ROW2*%
X119080000Y-134711250D03*
D12*
%TO.P,D30,2,A*%
%TO.N,Net-(D30-A)*%
X119080000Y-127091250D03*
%TD*%
D15*
%TO.P,D8,1,K*%
%TO.N,ROW0*%
X200042500Y-96611250D03*
D12*
%TO.P,D8,2,A*%
%TO.N,Net-(D8-A)*%
X200042500Y-88991250D03*
%TD*%
D15*
%TO.P,D24,1,K*%
%TO.N,ROW1*%
X266717500Y-115661250D03*
D12*
%TO.P,D24,2,A*%
%TO.N,Net-(D24-A)*%
X266717500Y-108041250D03*
%TD*%
D15*
%TO.P,D25,1,K*%
%TO.N,ROW1*%
X285767500Y-115661250D03*
D12*
%TO.P,D25,2,A*%
%TO.N,Net-(D25-A)*%
X285767500Y-108041250D03*
%TD*%
D15*
%TO.P,D41,1,K*%
%TO.N,ROW2*%
X340536250Y-134711250D03*
D12*
%TO.P,D41,2,A*%
%TO.N,Net-(D41-A)*%
X340536250Y-127091250D03*
%TD*%
D15*
%TO.P,D12,1,K*%
%TO.N,ROW0*%
X276242500Y-96611250D03*
D12*
%TO.P,D12,2,A*%
%TO.N,Net-(D12-A)*%
X276242500Y-88991250D03*
%TD*%
D15*
%TO.P,D31,1,K*%
%TO.N,ROW2*%
X138130000Y-134711250D03*
D12*
%TO.P,D31,2,A*%
%TO.N,Net-(D31-A)*%
X138130000Y-127091250D03*
%TD*%
D15*
%TO.P,D61,1,K*%
%TO.N,ROW4*%
X350061250Y-172811250D03*
D12*
%TO.P,D61,2,A*%
%TO.N,Net-(D61-A)*%
X350061250Y-165191250D03*
%TD*%
D15*
%TO.P,D32,1,K*%
%TO.N,ROW2*%
X157180000Y-134711250D03*
D12*
%TO.P,D32,2,A*%
%TO.N,Net-(D32-A)*%
X157180000Y-127091250D03*
%TD*%
D15*
%TO.P,D53,1,K*%
%TO.N,ROW3*%
X335773750Y-153761250D03*
D12*
%TO.P,D53,2,A*%
%TO.N,Net-(D53-A)*%
X335773750Y-146141250D03*
%TD*%
D15*
%TO.P,D14,1,K*%
%TO.N,ROW0*%
X314342500Y-96611250D03*
D12*
%TO.P,D14,2,A*%
%TO.N,Net-(D14-A)*%
X314342500Y-88991250D03*
%TD*%
D15*
%TO.P,D38,1,K*%
%TO.N,ROW2*%
X271480000Y-134711250D03*
D12*
%TO.P,D38,2,A*%
%TO.N,Net-(D38-A)*%
X271480000Y-127091250D03*
%TD*%
D15*
%TO.P,D47,1,K*%
%TO.N,ROW3*%
X204805000Y-153761250D03*
D12*
%TO.P,D47,2,A*%
%TO.N,Net-(D47-A)*%
X204805000Y-146141250D03*
%TD*%
D15*
%TO.P,D57,1,K*%
%TO.N,ROW4*%
X207186250Y-172811250D03*
D12*
%TO.P,D57,2,A*%
%TO.N,Net-(D57-A)*%
X207186250Y-165191250D03*
%TD*%
D15*
%TO.P,D59,1,K*%
%TO.N,ROW4*%
X302436250Y-172811250D03*
D12*
%TO.P,D59,2,A*%
%TO.N,Net-(D59-A)*%
X302436250Y-165191250D03*
%TD*%
D15*
%TO.P,D16,1,K*%
%TO.N,ROW1*%
X114317500Y-115661250D03*
D12*
%TO.P,D16,2,A*%
%TO.N,Net-(D16-A)*%
X114317500Y-108041250D03*
%TD*%
D15*
%TO.P,D22,1,K*%
%TO.N,ROW1*%
X228617500Y-115661250D03*
D12*
%TO.P,D22,2,A*%
%TO.N,Net-(D22-A)*%
X228617500Y-108041250D03*
%TD*%
D15*
%TO.P,D10,1,K*%
%TO.N,ROW0*%
X238142500Y-96611250D03*
D12*
%TO.P,D10,2,A*%
%TO.N,Net-(D10-A)*%
X238142500Y-88991250D03*
%TD*%
D15*
%TO.P,D13,1,K*%
%TO.N,ROW0*%
X295292500Y-96611250D03*
D12*
%TO.P,D13,2,A*%
%TO.N,Net-(D13-A)*%
X295292500Y-88991250D03*
%TD*%
D15*
%TO.P,D23,1,K*%
%TO.N,ROW1*%
X247667500Y-115661250D03*
D12*
%TO.P,D23,2,A*%
%TO.N,Net-(D23-A)*%
X247667500Y-108041250D03*
%TD*%
D15*
%TO.P,D34,1,K*%
%TO.N,ROW2*%
X195280000Y-134711250D03*
D12*
%TO.P,D34,2,A*%
%TO.N,Net-(D34-A)*%
X195280000Y-127091250D03*
%TD*%
D15*
%TO.P,D37,1,K*%
%TO.N,ROW2*%
X252430000Y-134711250D03*
D12*
%TO.P,D37,2,A*%
%TO.N,Net-(D37-A)*%
X252430000Y-127091250D03*
%TD*%
D15*
%TO.P,D3,1,K*%
%TO.N,ROW0*%
X123842500Y-96611250D03*
D12*
%TO.P,D3,2,A*%
%TO.N,Net-(D3-A)*%
X123842500Y-88991250D03*
%TD*%
D15*
%TO.P,D9,1,K*%
%TO.N,ROW0*%
X219092500Y-96611250D03*
D12*
%TO.P,D9,2,A*%
%TO.N,Net-(D9-A)*%
X219092500Y-88991250D03*
%TD*%
D15*
%TO.P,D7,1,K*%
%TO.N,ROW0*%
X180992500Y-96611250D03*
D12*
%TO.P,D7,2,A*%
%TO.N,Net-(D7-A)*%
X180992500Y-88991250D03*
%TD*%
D15*
%TO.P,D56,1,K*%
%TO.N,ROW4*%
X135748750Y-172811250D03*
D12*
%TO.P,D56,2,A*%
%TO.N,Net-(D56-A)*%
X135748750Y-165191250D03*
%TD*%
D15*
%TO.P,D50,1,K*%
%TO.N,ROW3*%
X261955000Y-153761250D03*
D12*
%TO.P,D50,2,A*%
%TO.N,Net-(D50-A)*%
X261955000Y-146141250D03*
%TD*%
D15*
%TO.P,D1,1,K*%
%TO.N,ROW0*%
X85742500Y-96611250D03*
D12*
%TO.P,D1,2,A*%
%TO.N,Net-(D1-A)*%
X85742500Y-88991250D03*
%TD*%
D15*
%TO.P,D36,1,K*%
%TO.N,ROW2*%
X233380000Y-134711250D03*
D12*
%TO.P,D36,2,A*%
%TO.N,Net-(D36-A)*%
X233380000Y-127091250D03*
%TD*%
D15*
%TO.P,D18,1,K*%
%TO.N,ROW1*%
X152417500Y-115661250D03*
D12*
%TO.P,D18,2,A*%
%TO.N,Net-(D18-A)*%
X152417500Y-108041250D03*
%TD*%
D15*
%TO.P,D4,1,K*%
%TO.N,ROW0*%
X142892500Y-96611250D03*
D12*
%TO.P,D4,2,A*%
%TO.N,Net-(D4-A)*%
X142892500Y-88991250D03*
%TD*%
D15*
%TO.P,D40,1,K*%
%TO.N,ROW2*%
X309580000Y-134711250D03*
D12*
%TO.P,D40,2,A*%
%TO.N,Net-(D40-A)*%
X309580000Y-127091250D03*
%TD*%
D15*
%TO.P,D44,1,K*%
%TO.N,ROW3*%
X147655000Y-153761250D03*
D12*
%TO.P,D44,2,A*%
%TO.N,Net-(D44-A)*%
X147655000Y-146141250D03*
%TD*%
D15*
%TO.P,D49,1,K*%
%TO.N,ROW3*%
X242905000Y-153761250D03*
D12*
%TO.P,D49,2,A*%
%TO.N,Net-(D49-A)*%
X242905000Y-146141250D03*
%TD*%
D15*
%TO.P,D21,1,K*%
%TO.N,ROW1*%
X209567500Y-115661250D03*
D12*
%TO.P,D21,2,A*%
%TO.N,Net-(D21-A)*%
X209567500Y-108041250D03*
%TD*%
D15*
%TO.P,D60,1,K*%
%TO.N,ROW4*%
X326248750Y-172811250D03*
D12*
%TO.P,D60,2,A*%
%TO.N,Net-(D60-A)*%
X326248750Y-165191250D03*
%TD*%
D15*
%TO.P,D29,1,K*%
%TO.N,ROW2*%
X92886250Y-134711250D03*
D12*
%TO.P,D29,2,A*%
%TO.N,Net-(D29-A)*%
X92886250Y-127091250D03*
%TD*%
D15*
%TO.P,D19,1,K*%
%TO.N,ROW1*%
X171467500Y-115661250D03*
D12*
%TO.P,D19,2,A*%
%TO.N,Net-(D19-A)*%
X171467500Y-108041250D03*
%TD*%
D15*
%TO.P,D28,1,K*%
%TO.N,ROW1*%
X347680000Y-115661250D03*
D12*
%TO.P,D28,2,A*%
%TO.N,Net-(D28-A)*%
X347680000Y-108041250D03*
%TD*%
D15*
%TO.P,D42,1,K*%
%TO.N,ROW2*%
X98962500Y-158891250D03*
D12*
%TO.P,D42,2,A*%
%TO.N,Net-(D42-A)*%
X98962500Y-151271250D03*
%TD*%
D15*
%TO.P,D52,1,K*%
%TO.N,ROW3*%
X300055000Y-153761250D03*
D12*
%TO.P,D52,2,A*%
%TO.N,Net-(D52-A)*%
X300055000Y-146141250D03*
%TD*%
D15*
%TO.P,D26,1,K*%
%TO.N,ROW1*%
X304817500Y-115661250D03*
D12*
%TO.P,D26,2,A*%
%TO.N,Net-(D26-A)*%
X304817500Y-108041250D03*
%TD*%
D15*
%TO.P,D54,1,K*%
%TO.N,ROW3*%
X88123750Y-172811250D03*
D12*
%TO.P,D54,2,A*%
%TO.N,Net-(D54-A)*%
X88123750Y-165191250D03*
%TD*%
D15*
%TO.P,D39,1,K*%
%TO.N,ROW2*%
X290530000Y-134711250D03*
D12*
%TO.P,D39,2,A*%
%TO.N,Net-(D39-A)*%
X290530000Y-127091250D03*
%TD*%
D15*
%TO.P,D20,1,K*%
%TO.N,ROW1*%
X190517500Y-115661250D03*
D12*
%TO.P,D20,2,A*%
%TO.N,Net-(D20-A)*%
X190517500Y-108041250D03*
%TD*%
D15*
%TO.P,D33,1,K*%
%TO.N,ROW2*%
X176230000Y-134711250D03*
D12*
%TO.P,D33,2,A*%
%TO.N,Net-(D33-A)*%
X176230000Y-127091250D03*
%TD*%
D15*
%TO.P,D6,1,K*%
%TO.N,ROW0*%
X161942500Y-96611250D03*
D12*
%TO.P,D6,2,A*%
%TO.N,Net-(D6-A)*%
X161942500Y-88991250D03*
%TD*%
D15*
%TO.P,D48,1,K*%
%TO.N,ROW3*%
X223855000Y-153761250D03*
D12*
%TO.P,D48,2,A*%
%TO.N,Net-(D48-A)*%
X223855000Y-146141250D03*
%TD*%
D15*
%TO.P,D62,1,K*%
%TO.N,ROW4*%
X361820000Y-96550000D03*
D12*
%TO.P,D62,2,A*%
%TO.N,Net-(D62-A)*%
X361820000Y-88930000D03*
%TD*%
D15*
%TO.P,D17,1,K*%
%TO.N,ROW1*%
X133367500Y-115661250D03*
D12*
%TO.P,D17,2,A*%
%TO.N,Net-(D17-A)*%
X133367500Y-108041250D03*
%TD*%
D15*
%TO.P,D46,1,K*%
%TO.N,ROW3*%
X185755000Y-153761250D03*
D12*
%TO.P,D46,2,A*%
%TO.N,Net-(D46-A)*%
X185755000Y-146141250D03*
%TD*%
D15*
%TO.P,D58,1,K*%
%TO.N,ROW4*%
X278623750Y-172811250D03*
D12*
%TO.P,D58,2,A*%
%TO.N,Net-(D58-A)*%
X278623750Y-165191250D03*
%TD*%
D15*
%TO.P,D27,1,K*%
%TO.N,ROW1*%
X323867500Y-115661250D03*
D12*
%TO.P,D27,2,A*%
%TO.N,Net-(D27-A)*%
X323867500Y-108041250D03*
%TD*%
D15*
%TO.P,D51,1,K*%
%TO.N,ROW3*%
X281005000Y-153761250D03*
D12*
%TO.P,D51,2,A*%
%TO.N,Net-(D51-A)*%
X281005000Y-146141250D03*
%TD*%
D15*
%TO.P,D11,1,K*%
%TO.N,ROW0*%
X257192500Y-96611250D03*
D12*
%TO.P,D11,2,A*%
%TO.N,Net-(D11-A)*%
X257192500Y-88991250D03*
%TD*%
D15*
%TO.P,D5,1,K*%
%TO.N,ROW0*%
X342917500Y-96611250D03*
D12*
%TO.P,D5,2,A*%
%TO.N,Net-(D5-A)*%
X342917500Y-88991250D03*
%TD*%
D15*
%TO.P,D43,1,K*%
%TO.N,ROW3*%
X128605000Y-153761250D03*
D12*
%TO.P,D43,2,A*%
%TO.N,Net-(D43-A)*%
X128605000Y-146141250D03*
%TD*%
D15*
%TO.P,D45,1,K*%
%TO.N,ROW3*%
X166705000Y-153761250D03*
D12*
%TO.P,D45,2,A*%
%TO.N,Net-(D45-A)*%
X166705000Y-146141250D03*
%TD*%
D15*
%TO.P,D55,1,K*%
%TO.N,ROW4*%
X111936250Y-172811250D03*
D12*
%TO.P,D55,2,A*%
%TO.N,Net-(D55-A)*%
X111936250Y-165191250D03*
%TD*%
D15*
%TO.P,D2,1,K*%
%TO.N,ROW0*%
X104792500Y-96611250D03*
D12*
%TO.P,D2,2,A*%
%TO.N,Net-(D2-A)*%
X104792500Y-88991250D03*
%TD*%
D15*
%TO.P,D15,1,K*%
%TO.N,ROW1*%
X90505000Y-115661250D03*
D12*
%TO.P,D15,2,A*%
%TO.N,Net-(D15-A)*%
X90505000Y-108041250D03*
%TD*%
D15*
%TO.P,D35,1,K*%
%TO.N,ROW2*%
X214330000Y-134711250D03*
D12*
%TO.P,D35,2,A*%
%TO.N,Net-(D35-A)*%
X214330000Y-127091250D03*
%TD*%
D16*
%TO.N,COL8*%
X174400000Y-87200000D03*
X187200000Y-86800000D03*
X78000000Y-85200000D03*
X140400000Y-88200000D03*
X110600000Y-89400000D03*
X131400000Y-88600000D03*
X117800000Y-95600000D03*
X231000000Y-90800000D03*
%TO.N,COL9*%
X182800000Y-84000000D03*
X155600000Y-95800000D03*
X125800000Y-89400000D03*
X118000000Y-91800000D03*
X249400000Y-89600000D03*
X111000000Y-88600000D03*
X83200000Y-84800000D03*
X174000000Y-90000000D03*
%TO.N,COL0*%
X114600000Y-86200000D03*
X124775735Y-81575735D03*
X125800000Y-65600000D03*
%TO.N,ROW1*%
X268762500Y-125081250D03*
X230362500Y-125081250D03*
X172962500Y-125081250D03*
X117562500Y-125081250D03*
X212562500Y-125081250D03*
X154562500Y-125081250D03*
X97762500Y-125081250D03*
X307162500Y-125081250D03*
X137162500Y-125081250D03*
X347762500Y-122881250D03*
X71600000Y-100200000D03*
X328562500Y-124681250D03*
X83800000Y-124600000D03*
X90940625Y-118259375D03*
X250762500Y-125081250D03*
X287962500Y-125081250D03*
X101400000Y-76400000D03*
X80600000Y-67000000D03*
X193962500Y-125081250D03*
%TO.N,ROW3*%
X104000000Y-80200000D03*
X302562500Y-159081250D03*
X150362500Y-161681250D03*
X265962500Y-159081250D03*
X109200000Y-157881250D03*
X73000000Y-90800000D03*
X188162500Y-161681250D03*
X169762500Y-161681250D03*
X250562500Y-158481250D03*
X283362500Y-159081250D03*
X136362500Y-161681250D03*
X106562500Y-157881250D03*
X229962500Y-159281250D03*
X206762500Y-161681250D03*
X84600000Y-80400000D03*
%TO.N,COL10*%
X269200000Y-90400000D03*
%TO.N,COL3*%
X126400000Y-80800000D03*
X132400000Y-93000000D03*
X113200000Y-87000000D03*
%TO.N,ROW2*%
X258962500Y-139881250D03*
X80200000Y-80200000D03*
X292362500Y-139881250D03*
X181762500Y-139881250D03*
X123000000Y-139881250D03*
X72800000Y-93800000D03*
X340162500Y-139481250D03*
X160562500Y-139881250D03*
X143000000Y-139881250D03*
X311762500Y-139881250D03*
X273562500Y-139881250D03*
X86800000Y-133800000D03*
X102600000Y-79400000D03*
X95362500Y-139881250D03*
X104762500Y-156881250D03*
X197562500Y-139881250D03*
X219162500Y-139881250D03*
X234762500Y-138281250D03*
X91400000Y-134800000D03*
%TO.N,ROW4*%
X97000000Y-162800000D03*
X138400000Y-177681250D03*
X341362500Y-179081250D03*
X80200000Y-69000000D03*
X102600000Y-77800000D03*
X101200000Y-170000000D03*
X350562500Y-176281250D03*
X209668258Y-176481250D03*
X72200000Y-90400000D03*
%TO.N,COL12*%
X178800000Y-81400000D03*
X306000000Y-91600000D03*
X181400000Y-81400000D03*
%TO.N,COL4*%
X151600000Y-81800000D03*
X110800000Y-62600000D03*
%TO.N,COL13*%
X99200000Y-74400000D03*
%TO.N,ROW0*%
X93962500Y-107281250D03*
X316562500Y-106081250D03*
X299562500Y-106081250D03*
X166162500Y-106081250D03*
X184962500Y-106081250D03*
X222962500Y-106081250D03*
X149362500Y-106081250D03*
X68400000Y-100800000D03*
X128962500Y-106081250D03*
X242362500Y-106081250D03*
X100400000Y-73400000D03*
X342562500Y-102681250D03*
X203562500Y-106081250D03*
X108562500Y-106081250D03*
X261562500Y-106081250D03*
X85742500Y-99061250D03*
X280762500Y-106081250D03*
%TO.N,COL5*%
X175800000Y-87400000D03*
X109200000Y-61800000D03*
%TO.N,COL7*%
X256600000Y-153400000D03*
X111000000Y-85600000D03*
X313000000Y-162600000D03*
X212000000Y-90600000D03*
X150400000Y-88000000D03*
X355400000Y-106800000D03*
X345800000Y-159000000D03*
X328200000Y-160600000D03*
X131400000Y-87600000D03*
X119800000Y-88200000D03*
X111975735Y-88175735D03*
X335400000Y-163400000D03*
%TO.N,COL11*%
X107600000Y-59800000D03*
X244600000Y-86600000D03*
X193800000Y-86200000D03*
%TD*%
D17*
%TO.N,*%
X157562500Y-92060564D02*
X157442814Y-92180250D01*
X127400000Y-153400000D02*
X127504000Y-153400000D01*
X157562500Y-91681250D02*
X157562500Y-92060564D01*
X127504000Y-153400000D02*
X127504000Y-153761250D01*
X157442814Y-92180250D02*
X156862500Y-92180250D01*
%TO.N,COL8*%
X174800000Y-86800000D02*
X187200000Y-86800000D01*
X231400000Y-91200000D02*
X231400000Y-91918750D01*
X174400000Y-87200000D02*
X174800000Y-86800000D01*
X233062500Y-93581250D02*
X233062500Y-103106250D01*
X140000000Y-88600000D02*
X140400000Y-88200000D01*
X231000000Y-90800000D02*
X231400000Y-91200000D01*
X231400000Y-91918750D02*
X233062500Y-93581250D01*
X247350000Y-131681250D02*
X260709000Y-145040250D01*
X131400000Y-88600000D02*
X140000000Y-88600000D01*
X233062500Y-103106250D02*
X242587500Y-112631250D01*
X270234000Y-145040250D02*
X275925000Y-150731250D01*
X242587500Y-122306250D02*
X247350000Y-127068750D01*
X260709000Y-145040250D02*
X270234000Y-145040250D01*
X110600000Y-89400000D02*
X111600000Y-89400000D01*
X242587500Y-112631250D02*
X242587500Y-122306250D01*
X76810000Y-82690000D02*
X76810000Y-84010000D01*
X111600000Y-89400000D02*
X117800000Y-95600000D01*
X76810000Y-84010000D02*
X78000000Y-85200000D01*
X247350000Y-127068750D02*
X247350000Y-131681250D01*
%TO.N,COL9*%
X125800000Y-89400000D02*
X137200000Y-89400000D01*
X114567100Y-91800000D02*
X118000000Y-91800000D01*
X249400000Y-89600000D02*
X249400000Y-90868750D01*
X173200000Y-83800000D02*
X182600000Y-83800000D01*
X172200000Y-84800000D02*
X173200000Y-83800000D01*
X261637500Y-126918750D02*
X266400000Y-131681250D01*
X266400000Y-136318750D02*
X274562500Y-144481250D01*
X174000000Y-88200000D02*
X172200000Y-86400000D01*
X261637500Y-112631250D02*
X261637500Y-126918750D01*
X174000000Y-90000000D02*
X174000000Y-88200000D01*
X111367100Y-88600000D02*
X114567100Y-91800000D01*
X81890000Y-82690000D02*
X83200000Y-84000000D01*
X288725000Y-144481250D02*
X294975000Y-150731250D01*
X252112500Y-103106250D02*
X261637500Y-112631250D01*
X111000000Y-88600000D02*
X111367100Y-88600000D01*
X137200000Y-89400000D02*
X139400000Y-91600000D01*
X172200000Y-86400000D02*
X172200000Y-84800000D01*
X139400000Y-91600000D02*
X151400000Y-91600000D01*
X266400000Y-131681250D02*
X266400000Y-136318750D01*
X249400000Y-90868750D02*
X252112500Y-93581250D01*
X274562500Y-144481250D02*
X288725000Y-144481250D01*
X182600000Y-83800000D02*
X182800000Y-84000000D01*
X83200000Y-84000000D02*
X83200000Y-84800000D01*
X151400000Y-91600000D02*
X155600000Y-95800000D01*
X252112500Y-93581250D02*
X252112500Y-103106250D01*
%TO.N,COL0*%
X126400000Y-66200000D02*
X126400000Y-79000000D01*
X113662500Y-169781250D02*
X106856250Y-169781250D01*
X91162500Y-141081250D02*
X99762500Y-141081250D01*
X114600000Y-86200000D02*
X95000000Y-86200000D01*
X80662500Y-93581250D02*
X80662500Y-107868750D01*
X124775735Y-80624265D02*
X124775735Y-81575735D01*
X123525000Y-150731250D02*
X123525000Y-159918750D01*
X87400000Y-93800000D02*
X87181250Y-93581250D01*
X95000000Y-86200000D02*
X87400000Y-93800000D01*
X109562500Y-150881250D02*
X109712500Y-150731250D01*
X87806250Y-131681250D02*
X87806250Y-137725000D01*
X87806250Y-137725000D02*
X91162500Y-141081250D01*
X80662500Y-107868750D02*
X85425000Y-112631250D01*
X125800000Y-65600000D02*
X126400000Y-66200000D01*
X87181250Y-93581250D02*
X80662500Y-93581250D01*
X85425000Y-129300000D02*
X87806250Y-131681250D01*
X109712500Y-150731250D02*
X123525000Y-150731250D01*
X123525000Y-159918750D02*
X113662500Y-169781250D01*
X126400000Y-79000000D02*
X124775735Y-80624265D01*
X85425000Y-112631250D02*
X85425000Y-129300000D01*
X99762500Y-141081250D02*
X109562500Y-150881250D01*
%TO.N,Net-(A1-GND-Pad13)*%
X117450000Y-64910000D02*
X116349000Y-66011000D01*
X115760000Y-81000000D02*
X117450000Y-82690000D01*
X105851000Y-66011000D02*
X104750000Y-64910000D01*
X103649000Y-81589000D02*
X104750000Y-82690000D01*
X92050000Y-82690000D02*
X90760000Y-81400000D01*
X112600000Y-66011000D02*
X105851000Y-66011000D01*
X106440000Y-81000000D02*
X112800000Y-81000000D01*
X112800000Y-81000000D02*
X115760000Y-81000000D01*
X116349000Y-66011000D02*
X112600000Y-66011000D01*
X112800000Y-66211000D02*
X112600000Y-66011000D01*
X93151000Y-81589000D02*
X103649000Y-81589000D01*
X112800000Y-81000000D02*
X112800000Y-66211000D01*
X90760000Y-81400000D02*
X80640000Y-81400000D01*
X92050000Y-82690000D02*
X93151000Y-81589000D01*
X80640000Y-81400000D02*
X79350000Y-82690000D01*
X79350000Y-82690000D02*
X79350000Y-64910000D01*
X104750000Y-82690000D02*
X106440000Y-81000000D01*
%TO.N,ROW1*%
X323867500Y-119986250D02*
X328562500Y-124681250D01*
X75200000Y-122200000D02*
X75200000Y-122960576D01*
X347762500Y-122881250D02*
X347680000Y-122798750D01*
X285767500Y-115661250D02*
X285767500Y-122886250D01*
X152417500Y-115661250D02*
X152417500Y-122936250D01*
X304817500Y-115661250D02*
X304817500Y-122736250D01*
X209567500Y-115661250D02*
X209567500Y-122086250D01*
X77136382Y-124600000D02*
X83800000Y-124600000D01*
X114317500Y-121836250D02*
X117562500Y-125081250D01*
X90940625Y-118259375D02*
X97762500Y-125081250D01*
X285767500Y-122886250D02*
X287962500Y-125081250D01*
X266717500Y-115661250D02*
X266717500Y-123036250D01*
X247667500Y-121986250D02*
X250762500Y-125081250D01*
X114317500Y-115661250D02*
X114317500Y-121836250D01*
X347680000Y-122798750D02*
X347680000Y-115661250D01*
X209567500Y-122086250D02*
X212562500Y-125081250D01*
X171467500Y-123586250D02*
X172962500Y-125081250D01*
X323867500Y-115661250D02*
X323867500Y-119986250D01*
X304817500Y-122736250D02*
X307162500Y-125081250D01*
X152417500Y-122936250D02*
X154562500Y-125081250D01*
X81200000Y-69000000D02*
X81200000Y-67600000D01*
X90505000Y-115661250D02*
X90505000Y-117823750D01*
X75200000Y-103800000D02*
X75200000Y-122200000D01*
X190517500Y-115661250D02*
X190517500Y-121636250D01*
X100000000Y-76400000D02*
X94200000Y-70600000D01*
X133367500Y-121286250D02*
X137162500Y-125081250D01*
X81200000Y-67600000D02*
X80600000Y-67000000D01*
X266717500Y-123036250D02*
X268762500Y-125081250D01*
X133367500Y-115661250D02*
X133367500Y-121286250D01*
X90505000Y-117823750D02*
X90940625Y-118259375D01*
X228617500Y-123336250D02*
X230362500Y-125081250D01*
X171467500Y-115661250D02*
X171467500Y-123586250D01*
X75200000Y-122960576D02*
X76987903Y-124748479D01*
X71600000Y-100200000D02*
X75200000Y-103800000D01*
X247667500Y-115661250D02*
X247667500Y-121986250D01*
X76987903Y-124748479D02*
X77136382Y-124600000D01*
X94200000Y-70600000D02*
X82800000Y-70600000D01*
X82800000Y-70600000D02*
X81200000Y-69000000D01*
X190517500Y-121636250D02*
X193962500Y-125081250D01*
X228617500Y-115661250D02*
X228617500Y-123336250D01*
X101400000Y-76400000D02*
X100000000Y-76400000D01*
%TO.N,ROW3*%
X242905000Y-153761250D02*
X247625000Y-158481250D01*
X136362500Y-161518750D02*
X136362500Y-161681250D01*
X73000000Y-90800000D02*
X70598000Y-93202000D01*
X147655000Y-153761250D02*
X147655000Y-158973750D01*
X109281250Y-157800000D02*
X109200000Y-157881250D01*
X261955000Y-155073750D02*
X265962500Y-159081250D01*
X128605000Y-153761250D02*
X136362500Y-161518750D01*
X224442500Y-153761250D02*
X229962500Y-159281250D01*
X281005000Y-156723750D02*
X283362500Y-159081250D01*
X70598000Y-93202000D02*
X70598000Y-120998000D01*
X261955000Y-153761250D02*
X261955000Y-155073750D01*
X247625000Y-158481250D02*
X250562500Y-158481250D01*
X204805000Y-159723750D02*
X206762500Y-161681250D01*
X223855000Y-153761250D02*
X224442500Y-153761250D01*
X111000000Y-157800000D02*
X109281250Y-157800000D01*
X166705000Y-153761250D02*
X166705000Y-158623750D01*
X70598000Y-120998000D02*
X82915250Y-133315250D01*
X89199600Y-172811250D02*
X104129600Y-157881250D01*
X281005000Y-153761250D02*
X281005000Y-156723750D01*
X204805000Y-153761250D02*
X204805000Y-159723750D01*
X97861500Y-152681316D02*
X105881316Y-152681316D01*
X104129600Y-157881250D02*
X106562500Y-157881250D01*
X82915250Y-133315250D02*
X82915250Y-137735066D01*
X300055000Y-156573750D02*
X302562500Y-159081250D01*
X185755000Y-153761250D02*
X185755000Y-159273750D01*
X147655000Y-158973750D02*
X150362500Y-161681250D01*
X300055000Y-153761250D02*
X300055000Y-156573750D01*
X104000000Y-80200000D02*
X103800000Y-80400000D01*
X88123750Y-172811250D02*
X89199600Y-172811250D01*
X82915250Y-137735066D02*
X97861500Y-152681316D01*
X166705000Y-158623750D02*
X169762500Y-161681250D01*
X185755000Y-159273750D02*
X188162500Y-161681250D01*
X103800000Y-80400000D02*
X84600000Y-80400000D01*
X105881316Y-152681316D02*
X111000000Y-157800000D01*
%TO.N,COL10*%
X287962500Y-142881250D02*
X310162500Y-142881250D01*
X285962500Y-140881250D02*
X287962500Y-142881250D01*
X321271434Y-152881250D02*
X323421434Y-150731250D01*
X278562500Y-109081250D02*
X279362500Y-109081250D01*
X323421434Y-150731250D02*
X330693750Y-150731250D01*
X271162500Y-101681250D02*
X278562500Y-109081250D01*
X269200000Y-91618750D02*
X271162500Y-93581250D01*
X271162500Y-93581250D02*
X271162500Y-101681250D01*
X285450000Y-131681250D02*
X285962500Y-132193750D01*
X280687500Y-126918750D02*
X285450000Y-131681250D01*
X280687500Y-112631250D02*
X280687500Y-126918750D01*
X316362500Y-152881250D02*
X321271434Y-152881250D01*
X280687500Y-110406250D02*
X280687500Y-112631250D01*
X279362500Y-109081250D02*
X280687500Y-110406250D01*
X269200000Y-90400000D02*
X269200000Y-91618750D01*
X285962500Y-132193750D02*
X285962500Y-140881250D01*
X310162500Y-146681250D02*
X316362500Y-152881250D01*
X310162500Y-142881250D02*
X310162500Y-146681250D01*
%TO.N,COL3*%
X152100000Y-131681250D02*
X152100000Y-140618750D01*
X147337500Y-123256250D02*
X152100000Y-128018750D01*
X188200000Y-155400000D02*
X188200000Y-153600000D01*
X113200000Y-87000000D02*
X120200000Y-87000000D01*
X147337500Y-112631250D02*
X147337500Y-123256250D01*
X209000000Y-163400000D02*
X196200000Y-163400000D01*
X188200000Y-153600000D02*
X185200000Y-150600000D01*
X153962500Y-142481250D02*
X172425000Y-142481250D01*
X273543750Y-169781250D02*
X215381250Y-169781250D01*
X185200000Y-150600000D02*
X185068750Y-150731250D01*
X152100000Y-140618750D02*
X153962500Y-142481250D01*
X132981250Y-93581250D02*
X137812500Y-93581250D01*
X147337500Y-110856250D02*
X147337500Y-112631250D01*
X196200000Y-163400000D02*
X188200000Y-155400000D01*
X137812500Y-101331250D02*
X147337500Y-110856250D01*
X132400000Y-93000000D02*
X132981250Y-93581250D01*
X152100000Y-128018750D02*
X152100000Y-131681250D01*
X215381250Y-169781250D02*
X209000000Y-163400000D01*
X185068750Y-150731250D02*
X180675000Y-150731250D01*
X120200000Y-87000000D02*
X126400000Y-80800000D01*
X137812500Y-93581250D02*
X137812500Y-101331250D01*
X172425000Y-142481250D02*
X180675000Y-150731250D01*
%TO.N,ROW2*%
X102552500Y-158891250D02*
X98962500Y-158891250D01*
X195280000Y-137598750D02*
X197562500Y-139881250D01*
X252430000Y-134711250D02*
X253792500Y-134711250D01*
X92886250Y-134711250D02*
X92886250Y-137405000D01*
X85472324Y-133800000D02*
X86800000Y-133800000D01*
X157180000Y-136498750D02*
X160562500Y-139881250D01*
X214330000Y-135048750D02*
X219162500Y-139881250D01*
X119080000Y-134711250D02*
X119080000Y-135961250D01*
X253792500Y-134711250D02*
X258962500Y-139881250D01*
X119080000Y-135961250D02*
X123000000Y-139881250D01*
X70999000Y-95601000D02*
X70999000Y-119326676D01*
X104762500Y-156881250D02*
X104562500Y-156881250D01*
X91400000Y-134800000D02*
X92797500Y-134800000D01*
X176592500Y-134711250D02*
X181762500Y-139881250D01*
X271480000Y-134711250D02*
X271480000Y-137798750D01*
X176230000Y-134711250D02*
X176592500Y-134711250D01*
X92886250Y-137405000D02*
X95362500Y-139881250D01*
X340162500Y-139481250D02*
X340536250Y-139107500D01*
X214330000Y-134711250D02*
X214330000Y-135048750D01*
X309580000Y-137698750D02*
X311762500Y-139881250D01*
X233380000Y-134711250D02*
X233380000Y-136898750D01*
X143000000Y-139581250D02*
X143000000Y-139881250D01*
X70999000Y-119326676D02*
X85472324Y-133800000D01*
X233380000Y-136898750D02*
X234762500Y-138281250D01*
X195280000Y-134711250D02*
X195280000Y-137598750D01*
X81000000Y-79400000D02*
X80200000Y-80200000D01*
X104562500Y-156881250D02*
X102552500Y-158891250D01*
X290530000Y-134711250D02*
X290530000Y-138048750D01*
X309580000Y-134711250D02*
X309580000Y-137698750D01*
X72800000Y-93800000D02*
X70999000Y-95601000D01*
X290530000Y-138048750D02*
X292362500Y-139881250D01*
X102600000Y-79400000D02*
X81000000Y-79400000D01*
X340536250Y-139107500D02*
X340536250Y-134711250D01*
X138130000Y-134711250D02*
X143000000Y-139581250D01*
X157180000Y-134711250D02*
X157180000Y-136498750D01*
X271480000Y-137798750D02*
X273562500Y-139881250D01*
X92797500Y-134800000D02*
X92886250Y-134711250D01*
%TO.N,ROW4*%
X209801000Y-176481250D02*
X210000000Y-176680250D01*
X351562500Y-175281250D02*
X351562500Y-173281250D01*
X282562500Y-179081250D02*
X304762500Y-179081250D01*
X92618814Y-148800000D02*
X96800000Y-152981186D01*
X84200000Y-73000000D02*
X80200000Y-69000000D01*
X91600000Y-77800000D02*
X86800000Y-73000000D01*
X102779816Y-170000000D02*
X105591066Y-172811250D01*
X348200000Y-172200000D02*
X349450000Y-172200000D01*
X326248750Y-172811250D02*
X326248750Y-174567500D01*
X278623750Y-175142500D02*
X282562500Y-179081250D01*
X271898934Y-179081250D02*
X282562500Y-179081250D01*
X361820000Y-96550000D02*
X361820000Y-101580000D01*
X101200000Y-170000000D02*
X102779816Y-170000000D01*
X302436250Y-176755000D02*
X304762500Y-179081250D01*
X70197000Y-135797000D02*
X83200000Y-148800000D01*
X351092500Y-172811250D02*
X350061250Y-172811250D01*
X326248750Y-174567500D02*
X330762500Y-179081250D01*
X83200000Y-148800000D02*
X92618814Y-148800000D01*
X112892500Y-172811250D02*
X117762500Y-177681250D01*
X105591066Y-172811250D02*
X111936250Y-172811250D01*
X208195400Y-177681250D02*
X209196400Y-176680250D01*
X304762500Y-179081250D02*
X330762500Y-179081250D01*
X102600000Y-77800000D02*
X91600000Y-77800000D01*
X348200000Y-163400000D02*
X348200000Y-172200000D01*
X209196400Y-176680250D02*
X210000000Y-176680250D01*
X117762500Y-177681250D02*
X138400000Y-177681250D01*
X86800000Y-73000000D02*
X84200000Y-73000000D01*
X96800000Y-162200000D02*
X96800000Y-162600000D01*
X350200000Y-161400000D02*
X348200000Y-163400000D01*
X269497934Y-176680250D02*
X271898934Y-179081250D01*
X349450000Y-172200000D02*
X350061250Y-172811250D01*
X278623750Y-172811250D02*
X278623750Y-175142500D01*
X361820000Y-101580000D02*
X350200000Y-113200000D01*
X96800000Y-162600000D02*
X97000000Y-162800000D01*
X209668258Y-176481250D02*
X209801000Y-176481250D01*
X72200000Y-90400000D02*
X70197000Y-92403000D01*
X138400000Y-177681250D02*
X208195400Y-177681250D01*
X350200000Y-113200000D02*
X350200000Y-161400000D01*
X70197000Y-92403000D02*
X70197000Y-135797000D01*
X111936250Y-172811250D02*
X112892500Y-172811250D01*
X96800000Y-152981186D02*
X96800000Y-162200000D01*
X330762500Y-179081250D02*
X341362500Y-179081250D01*
X302436250Y-172811250D02*
X302436250Y-176755000D01*
X351562500Y-173281250D02*
X351092500Y-172811250D01*
X350562500Y-176281250D02*
X351562500Y-175281250D01*
X210000000Y-176680250D02*
X269497934Y-176680250D01*
%TO.N,COL2*%
X161625000Y-150731250D02*
X161625000Y-158543750D01*
X125200000Y-61400000D02*
X128600000Y-64800000D01*
X128287500Y-117806250D02*
X133050000Y-122568750D01*
X128287500Y-112631250D02*
X128287500Y-117806250D01*
X116000000Y-61400000D02*
X125200000Y-61400000D01*
X140162500Y-144081250D02*
X156962500Y-144081250D01*
X118762500Y-98481250D02*
X124962500Y-104681250D01*
X128600000Y-80400000D02*
X118762500Y-90237500D01*
X161625000Y-158543750D02*
X172862500Y-169781250D01*
X114910000Y-62490000D02*
X116000000Y-61400000D01*
X156962500Y-144081250D02*
X161625000Y-148743750D01*
X118762500Y-93581250D02*
X118762500Y-98481250D01*
X128600000Y-64800000D02*
X128600000Y-80400000D01*
X118762500Y-90237500D02*
X118762500Y-93581250D01*
X124962500Y-104681250D02*
X124962500Y-109306250D01*
X133050000Y-122568750D02*
X133050000Y-131681250D01*
X161625000Y-148743750D02*
X161625000Y-150731250D01*
X114910000Y-64910000D02*
X114910000Y-62490000D01*
X133050000Y-131681250D02*
X133050000Y-136968750D01*
X124962500Y-109306250D02*
X128287500Y-112631250D01*
X133050000Y-136968750D02*
X140162500Y-144081250D01*
X172862500Y-169781250D02*
X202106250Y-169781250D01*
%TO.N,COL12*%
X306000000Y-91600000D02*
X306400000Y-92000000D01*
X307681250Y-92000000D02*
X309262500Y-93581250D01*
X306400000Y-92000000D02*
X307681250Y-92000000D01*
X309262500Y-93581250D02*
X309262500Y-103106250D01*
X318787500Y-118706250D02*
X331762500Y-131681250D01*
X309262500Y-103106250D02*
X318787500Y-112631250D01*
X178800000Y-81400000D02*
X181400000Y-81400000D01*
X318787500Y-112631250D02*
X318787500Y-118706250D01*
X331762500Y-131681250D02*
X335456250Y-131681250D01*
%TO.N,COL4*%
X171150000Y-131681250D02*
X183550000Y-144081250D01*
X183550000Y-144081250D02*
X194762500Y-144081250D01*
X156862500Y-101981250D02*
X158962500Y-104081250D01*
X166387500Y-126918750D02*
X171150000Y-131681250D01*
X151600000Y-88318750D02*
X156862500Y-93581250D01*
X204562500Y-162681250D02*
X290256250Y-162681250D01*
X151600000Y-81800000D02*
X151600000Y-88318750D01*
X156862500Y-93581250D02*
X156862500Y-101981250D01*
X194762500Y-144081250D02*
X199725000Y-149043750D01*
X199725000Y-149043750D02*
X199725000Y-150731250D01*
X166387500Y-112631250D02*
X166387500Y-126918750D01*
X109830000Y-64910000D02*
X109830000Y-63570000D01*
X199725000Y-150731250D02*
X199725000Y-157843750D01*
X158962500Y-104081250D02*
X158962500Y-105206250D01*
X199725000Y-157843750D02*
X204562500Y-162681250D01*
X290256250Y-162681250D02*
X297356250Y-169781250D01*
X158962500Y-105206250D02*
X166387500Y-112631250D01*
X109830000Y-63570000D02*
X110800000Y-62600000D01*
%TO.N,COL13*%
X82512500Y-150731250D02*
X78562500Y-154681250D01*
X346962500Y-163481250D02*
X346962500Y-172481250D01*
X255962500Y-177081250D02*
X209362500Y-177081250D01*
X98231000Y-73431000D02*
X98231000Y-60831000D01*
X98231000Y-60831000D02*
X98000000Y-60600000D01*
X83400000Y-150731250D02*
X82512500Y-150731250D01*
X83400000Y-61800000D02*
X71400000Y-61800000D01*
X342600000Y-121318750D02*
X349562500Y-128281250D01*
X259562500Y-180681250D02*
X255962500Y-177081250D01*
X92568750Y-150731250D02*
X83400000Y-150731250D01*
X69200000Y-136531250D02*
X83400000Y-150731250D01*
X342162500Y-110481250D02*
X342600000Y-110918750D01*
X99200000Y-74400000D02*
X98231000Y-73431000D01*
X342562500Y-180681250D02*
X259562500Y-180681250D01*
X98000000Y-60600000D02*
X84600000Y-60600000D01*
X71400000Y-61800000D02*
X71400000Y-66800000D01*
X69200000Y-92000000D02*
X69200000Y-136531250D01*
X84600000Y-60600000D02*
X83400000Y-61800000D01*
X337837500Y-93581250D02*
X337837500Y-107156250D01*
X72000000Y-89200000D02*
X69200000Y-92000000D01*
X345162500Y-174281250D02*
X345162500Y-178081250D01*
X349562500Y-160881250D02*
X346962500Y-163481250D01*
X346962500Y-172481250D02*
X345162500Y-174281250D01*
X206962500Y-179481250D02*
X92743750Y-179481250D01*
X337837500Y-107156250D02*
X341162500Y-110481250D01*
X345162500Y-178081250D02*
X342562500Y-180681250D01*
X78562500Y-154681250D02*
X78562500Y-158681250D01*
X342600000Y-112631250D02*
X342600000Y-121318750D01*
X342600000Y-110918750D02*
X342600000Y-112631250D01*
X72000000Y-67400000D02*
X72000000Y-89200000D01*
X71400000Y-66800000D02*
X72000000Y-67400000D01*
X341162500Y-110481250D02*
X342162500Y-110481250D01*
X209362500Y-177081250D02*
X206962500Y-179481250D01*
X78562500Y-158681250D02*
X83043750Y-163162500D01*
X92743750Y-179481250D02*
X83043750Y-169781250D01*
X83043750Y-163162500D02*
X83043750Y-169781250D01*
X349562500Y-128281250D02*
X349562500Y-160881250D01*
%TO.N,ROW0*%
X219092500Y-102211250D02*
X222962500Y-106081250D01*
X123842500Y-96611250D02*
X123842500Y-100961250D01*
X68400000Y-91800000D02*
X68400000Y-100800000D01*
X238142500Y-101861250D02*
X242362500Y-106081250D01*
X200042500Y-96611250D02*
X200042500Y-102561250D01*
X71400000Y-88800000D02*
X68400000Y-91800000D01*
X342562500Y-102681250D02*
X342917500Y-102326250D01*
X180992500Y-102111250D02*
X184962500Y-106081250D01*
X314342500Y-96611250D02*
X314342500Y-103861250D01*
X142892500Y-96611250D02*
X142892500Y-99611250D01*
X276242500Y-96611250D02*
X276242500Y-101561250D01*
X98166100Y-60199000D02*
X72433900Y-60199000D01*
X342917500Y-102326250D02*
X342917500Y-96611250D01*
X257192500Y-96611250D02*
X257192500Y-101711250D01*
X161942500Y-101861250D02*
X166162500Y-106081250D01*
X72433900Y-60199000D02*
X70600000Y-62032900D01*
X100771000Y-73029000D02*
X100771000Y-62803900D01*
X180992500Y-96611250D02*
X180992500Y-102111250D01*
X70600000Y-67200000D02*
X71400000Y-68000000D01*
X161942500Y-96611250D02*
X161942500Y-101861250D01*
X257192500Y-101711250D02*
X261562500Y-106081250D01*
X219092500Y-96611250D02*
X219092500Y-102211250D01*
X295292500Y-96611250D02*
X295292500Y-101811250D01*
X314342500Y-103861250D02*
X316562500Y-106081250D01*
X85742500Y-96611250D02*
X85742500Y-99061250D01*
X104792500Y-96611250D02*
X104792500Y-102311250D01*
X276242500Y-101561250D02*
X280762500Y-106081250D01*
X71400000Y-68000000D02*
X71400000Y-88800000D01*
X123842500Y-100961250D02*
X128962500Y-106081250D01*
X70600000Y-64400000D02*
X70600000Y-67200000D01*
X200042500Y-102561250D02*
X203562500Y-106081250D01*
X70600000Y-62032900D02*
X70600000Y-64400000D01*
X100400000Y-73400000D02*
X100771000Y-73029000D01*
X142892500Y-99611250D02*
X149362500Y-106081250D01*
X85742500Y-99061250D02*
X93962500Y-107281250D01*
X100771000Y-62803900D02*
X98166100Y-60199000D01*
X238142500Y-96611250D02*
X238142500Y-101861250D01*
X104792500Y-102311250D02*
X108562500Y-106081250D01*
X295292500Y-101811250D02*
X299562500Y-106081250D01*
%TO.N,COL5*%
X175912500Y-103106250D02*
X185437500Y-112631250D01*
X315762500Y-170681250D02*
X320268750Y-170681250D01*
X185437500Y-112631250D02*
X185437500Y-126356250D01*
X190200000Y-139918750D02*
X192362500Y-142081250D01*
X107290000Y-63710000D02*
X109200000Y-61800000D01*
X175800000Y-87400000D02*
X175912500Y-87512500D01*
X313762500Y-168681250D02*
X315762500Y-170681250D01*
X107290000Y-64910000D02*
X107290000Y-63710000D01*
X190200000Y-131681250D02*
X190200000Y-139918750D01*
X175912500Y-93581250D02*
X175912500Y-103106250D01*
X218775000Y-150731250D02*
X228325000Y-160281250D01*
X187962500Y-128881250D02*
X187962500Y-129443750D01*
X210125000Y-142081250D02*
X218775000Y-150731250D01*
X185437500Y-126356250D02*
X187962500Y-128881250D01*
X192362500Y-142081250D02*
X210125000Y-142081250D01*
X320268750Y-170681250D02*
X321168750Y-169781250D01*
X309158934Y-160281250D02*
X313762500Y-164884816D01*
X175912500Y-87512500D02*
X175912500Y-93581250D01*
X313762500Y-164884816D02*
X313762500Y-168681250D01*
X187962500Y-129443750D02*
X190200000Y-131681250D01*
X228325000Y-160281250D02*
X309158934Y-160281250D01*
%TO.N,COL7*%
X356740000Y-105460000D02*
X355400000Y-106800000D01*
X315000000Y-160600000D02*
X328200000Y-160600000D01*
X228300000Y-131681250D02*
X229162500Y-132543750D01*
X98200000Y-85800000D02*
X110800000Y-85800000D01*
X229162500Y-132543750D02*
X229162500Y-139281250D01*
X228300000Y-130018750D02*
X228300000Y-131681250D01*
X111975735Y-88175735D02*
X112000000Y-88200000D01*
X253812500Y-150731250D02*
X256875000Y-150731250D01*
X214012500Y-103106250D02*
X223537500Y-112631250D01*
X229162500Y-139281250D02*
X242362500Y-139281250D01*
X77380000Y-85800000D02*
X98200000Y-85800000D01*
X242362500Y-139281250D02*
X253812500Y-150731250D01*
X212000000Y-91568750D02*
X214012500Y-93581250D01*
X110800000Y-85800000D02*
X111000000Y-85600000D01*
X112000000Y-88200000D02*
X119800000Y-88200000D01*
X339800000Y-159000000D02*
X335400000Y-163400000D01*
X256875000Y-153125000D02*
X256875000Y-150731250D01*
X131400000Y-87600000D02*
X150000000Y-87600000D01*
X74270000Y-82690000D02*
X77380000Y-85800000D01*
X256600000Y-153400000D02*
X256875000Y-153125000D01*
X223537500Y-125256250D02*
X228300000Y-130018750D01*
X223537500Y-112631250D02*
X223537500Y-125256250D01*
X313000000Y-162600000D02*
X315000000Y-160600000D01*
X356740000Y-93520000D02*
X356740000Y-105460000D01*
X212000000Y-90600000D02*
X212000000Y-91568750D01*
X345800000Y-159000000D02*
X339800000Y-159000000D01*
X214012500Y-93581250D02*
X214012500Y-103106250D01*
X150000000Y-87600000D02*
X150400000Y-88000000D01*
%TO.N,COL11*%
X107600000Y-59800000D02*
X167400000Y-59800000D01*
X299737500Y-126918750D02*
X304500000Y-131681250D01*
X167400000Y-59800000D02*
X193800000Y-86200000D01*
X283631250Y-87000000D02*
X290212500Y-93581250D01*
X245000000Y-87000000D02*
X283631250Y-87000000D01*
X290212500Y-103106250D02*
X299737500Y-112631250D01*
X290212500Y-93581250D02*
X290212500Y-103106250D01*
X299737500Y-112631250D02*
X299737500Y-126918750D01*
X244600000Y-86600000D02*
X245000000Y-87000000D01*
%TO.N,COL6*%
X102210000Y-62590000D02*
X103800000Y-61000000D01*
X194962500Y-103106250D02*
X204487500Y-112631250D01*
X204487500Y-126918750D02*
X209250000Y-131681250D01*
X246974000Y-159880250D02*
X330161500Y-159880250D01*
X102210000Y-64910000D02*
X102210000Y-62590000D01*
X341562500Y-171281250D02*
X343481250Y-171281250D01*
X237825000Y-150731250D02*
X246974000Y-159880250D01*
X209250000Y-131773300D02*
X220357950Y-142881250D01*
X229975000Y-142881250D02*
X237825000Y-150731250D01*
X343481250Y-171281250D02*
X344981250Y-169781250D01*
X330161500Y-159880250D02*
X341562500Y-171281250D01*
X220357950Y-142881250D02*
X229975000Y-142881250D01*
X204487500Y-112631250D02*
X204487500Y-126918750D01*
X103800000Y-61000000D02*
X162381250Y-61000000D01*
X162381250Y-61000000D02*
X194962500Y-93581250D01*
X209250000Y-131681250D02*
X209250000Y-131773300D01*
X194962500Y-93581250D02*
X194962500Y-103106250D01*
%TO.N,COL1*%
X114000000Y-138318750D02*
X114000000Y-131681250D01*
X142575000Y-150731250D02*
X133325000Y-141481250D01*
X99712500Y-103106250D02*
X99712500Y-93581250D01*
X133325000Y-141481250D02*
X117162500Y-141481250D01*
X114000000Y-125918750D02*
X109237500Y-121156250D01*
X142575000Y-165268750D02*
X142575000Y-150731250D01*
X109237500Y-112631250D02*
X99712500Y-103106250D01*
X114000000Y-131681250D02*
X114000000Y-125918750D01*
X117162500Y-141481250D02*
X114000000Y-138318750D01*
X109237500Y-121156250D02*
X109237500Y-112631250D01*
X130668750Y-169781250D02*
X138062500Y-169781250D01*
X138062500Y-169781250D02*
X142575000Y-165268750D01*
%TD*%
M02*
