%TF.GenerationSoftware,KiCad,Pcbnew,9.0.6*%
%TF.CreationDate,2026-03-22T17:56:39+05:30*%
%TF.ProjectId,PCB,5043422e-6b69-4636-9164-5f7063625858,rev?*%
%TF.SameCoordinates,Original*%
%TF.FileFunction,Copper,L1,Top*%
%TF.FilePolarity,Positive*%
%FSLAX46Y46*%
G04 Gerber Fmt 4.6, Leading zero omitted, Abs format (unit mm)*
G04 Created by KiCad (PCBNEW 9.0.6) date 2026-03-22 17:56:39*
%MOMM*%
%LPD*%
G01*
G04 APERTURE LIST*
G04 Aperture macros list*
%AMRoundRect*
0 Rectangle with rounded corners*
0 $1 Rounding radius*
0 $2 $3 $4 $5 $6 $7 $8 $9 X,Y pos of 4 corners*
0 Add a 4 corners polygon primitive as box body*
4,1,4,$2,$3,$4,$5,$6,$7,$8,$9,$2,$3,0*
0 Add four circle primitives for the rounded corners*
1,1,$1+$1,$2,$3*
1,1,$1+$1,$4,$5*
1,1,$1+$1,$6,$7*
1,1,$1+$1,$8,$9*
0 Add four rect primitives between the rounded corners*
20,1,$1+$1,$2,$3,$4,$5,0*
20,1,$1+$1,$4,$5,$6,$7,0*
20,1,$1+$1,$6,$7,$8,$9,0*
20,1,$1+$1,$8,$9,$2,$3,0*%
%AMFreePoly0*
4,1,37,0.800000,0.796148,0.878414,0.796148,1.032228,0.765552,1.177117,0.705537,1.307515,0.618408,1.418408,0.507515,1.505537,0.377117,1.565552,0.232228,1.596148,0.078414,1.596148,-0.078414,1.565552,-0.232228,1.505537,-0.377117,1.418408,-0.507515,1.307515,-0.618408,1.177117,-0.705537,1.032228,-0.765552,0.878414,-0.796148,0.800000,-0.796148,0.800000,-0.800000,-1.400000,-0.800000,
-1.403843,-0.796157,-1.439018,-0.796157,-1.511114,-0.766294,-1.566294,-0.711114,-1.596157,-0.639018,-1.596157,-0.603843,-1.600000,-0.600000,-1.600000,0.600000,-1.596157,0.603843,-1.596157,0.639018,-1.566294,0.711114,-1.511114,0.766294,-1.439018,0.796157,-1.403843,0.796157,-1.400000,0.800000,0.800000,0.800000,0.800000,0.796148,0.800000,0.796148,$1*%
%AMFreePoly1*
4,1,37,1.403843,0.796157,1.439018,0.796157,1.511114,0.766294,1.566294,0.711114,1.596157,0.639018,1.596157,0.603843,1.600000,0.600000,1.600000,-0.600000,1.596157,-0.603843,1.596157,-0.639018,1.566294,-0.711114,1.511114,-0.766294,1.439018,-0.796157,1.403843,-0.796157,1.400000,-0.800000,-0.800000,-0.800000,-0.800000,-0.796148,-0.878414,-0.796148,-1.032228,-0.765552,-1.177117,-0.705537,
-1.307515,-0.618408,-1.418408,-0.507515,-1.505537,-0.377117,-1.565552,-0.232228,-1.596148,-0.078414,-1.596148,0.078414,-1.565552,0.232228,-1.505537,0.377117,-1.418408,0.507515,-1.307515,0.618408,-1.177117,0.705537,-1.032228,0.765552,-0.878414,0.796148,-0.800000,0.796148,-0.800000,0.800000,1.400000,0.800000,1.403843,0.796157,1.403843,0.796157,$1*%
%AMFreePoly2*
4,1,37,0.603843,0.796157,0.639018,0.796157,0.711114,0.766294,0.766294,0.711114,0.796157,0.639018,0.796157,0.603843,0.800000,0.600000,0.800000,-0.600000,0.796157,-0.603843,0.796157,-0.639018,0.766294,-0.711114,0.711114,-0.766294,0.639018,-0.796157,0.603843,-0.796157,0.600000,-0.800000,0.000000,-0.800000,0.000000,-0.796148,-0.078414,-0.796148,-0.232228,-0.765552,-0.377117,-0.705537,
-0.507515,-0.618408,-0.618408,-0.507515,-0.705537,-0.377117,-0.765552,-0.232228,-0.796148,-0.078414,-0.796148,0.078414,-0.765552,0.232228,-0.705537,0.377117,-0.618408,0.507515,-0.507515,0.618408,-0.377117,0.705537,-0.232228,0.765552,-0.078414,0.796148,0.000000,0.796148,0.000000,0.800000,0.600000,0.800000,0.603843,0.796157,0.603843,0.796157,$1*%
%AMFreePoly3*
4,1,37,0.000000,0.796148,0.078414,0.796148,0.232228,0.765552,0.377117,0.705537,0.507515,0.618408,0.618408,0.507515,0.705537,0.377117,0.765552,0.232228,0.796148,0.078414,0.796148,-0.078414,0.765552,-0.232228,0.705537,-0.377117,0.618408,-0.507515,0.507515,-0.618408,0.377117,-0.705537,0.232228,-0.765552,0.078414,-0.796148,0.000000,-0.796148,0.000000,-0.800000,-0.600000,-0.800000,
-0.603843,-0.796157,-0.639018,-0.796157,-0.711114,-0.766294,-0.766294,-0.711114,-0.796157,-0.639018,-0.796157,-0.603843,-0.800000,-0.600000,-0.800000,0.600000,-0.796157,0.603843,-0.796157,0.639018,-0.766294,0.711114,-0.711114,0.766294,-0.639018,0.796157,-0.603843,0.796157,-0.600000,0.800000,0.000000,0.800000,0.000000,0.796148,0.000000,0.796148,$1*%
G04 Aperture macros list end*
%TA.AperFunction,ComponentPad*%
%ADD10C,2.200000*%
%TD*%
%TA.AperFunction,SMDPad,CuDef*%
%ADD11FreePoly0,0.000000*%
%TD*%
%TA.AperFunction,ComponentPad*%
%ADD12RoundRect,0.200000X-0.600000X-0.600000X0.600000X-0.600000X0.600000X0.600000X-0.600000X0.600000X0*%
%TD*%
%TA.AperFunction,SMDPad,CuDef*%
%ADD13RoundRect,0.800000X-0.800000X-0.000010X0.800000X-0.000010X0.800000X0.000010X-0.800000X0.000010X0*%
%TD*%
%TA.AperFunction,ComponentPad*%
%ADD14C,1.600000*%
%TD*%
%TA.AperFunction,SMDPad,CuDef*%
%ADD15FreePoly1,0.000000*%
%TD*%
%TA.AperFunction,ComponentPad*%
%ADD16FreePoly2,0.000000*%
%TD*%
%TA.AperFunction,ComponentPad*%
%ADD17FreePoly3,0.000000*%
%TD*%
%TA.AperFunction,ComponentPad*%
%ADD18RoundRect,0.250000X0.550000X-0.550000X0.550000X0.550000X-0.550000X0.550000X-0.550000X-0.550000X0*%
%TD*%
%TA.AperFunction,ViaPad*%
%ADD19C,0.600000*%
%TD*%
%TA.AperFunction,Conductor*%
%ADD20C,0.200000*%
%TD*%
G04 APERTURE END LIST*
D10*
%TO.P,SW40,1,1*%
%TO.N,COL11*%
X299460000Y-94520000D03*
%TO.P,SW40,2,2*%
%TO.N,Net-(D40-A)*%
X293110000Y-97060000D03*
%TD*%
%TO.P,SW39,1,1*%
%TO.N,COL10*%
X280410000Y-94520000D03*
%TO.P,SW39,2,2*%
%TO.N,Net-(D39-A)*%
X274060000Y-97060000D03*
%TD*%
%TO.P,SW20,1,1*%
%TO.N,COL5*%
X180397500Y-75470000D03*
%TO.P,SW20,2,2*%
%TO.N,Net-(D20-A)*%
X174047500Y-78010000D03*
%TD*%
%TO.P,SW38,1,1*%
%TO.N,COL9*%
X261360000Y-94520000D03*
%TO.P,SW38,2,2*%
%TO.N,Net-(D38-A)*%
X255010000Y-97060000D03*
%TD*%
%TO.P,SW8,1,1*%
%TO.N,COL7*%
X208972500Y-56420000D03*
%TO.P,SW8,2,2*%
%TO.N,Net-(D9-A)*%
X202622500Y-58960000D03*
%TD*%
%TO.P,SW44,1,1*%
%TO.N,COL2*%
X137535000Y-113570000D03*
%TO.P,SW44,2,2*%
%TO.N,Net-(D44-A)*%
X131185000Y-116110000D03*
%TD*%
%TO.P,SW60,1,1*%
%TO.N,Net-(D60-A)*%
X316128750Y-132620000D03*
%TO.P,SW60,2,2*%
%TO.N,unconnected-(SW60-Pad2)*%
X309778750Y-135160000D03*
%TD*%
%TO.P,SW37,1,1*%
%TO.N,COL8*%
X242310000Y-94520000D03*
%TO.P,SW37,2,2*%
%TO.N,Net-(D37-A)*%
X235960000Y-97060000D03*
%TD*%
%TO.P,SW59,1,1*%
%TO.N,COL10*%
X292316250Y-132620000D03*
%TO.P,SW59,2,2*%
%TO.N,Net-(D59-A)*%
X285966250Y-135160000D03*
%TD*%
%TO.P,SW58,1,1*%
%TO.N,COL9*%
X268503750Y-132620000D03*
%TO.P,SW58,2,2*%
%TO.N,Net-(D58-A)*%
X262153750Y-135160000D03*
%TD*%
%TO.P,SW10,1,1*%
%TO.N,COL9*%
X247072500Y-56420000D03*
%TO.P,SW10,2,2*%
%TO.N,Net-(D11-A)*%
X240722500Y-58960000D03*
%TD*%
%TO.P,SW12,1,1*%
%TO.N,COL11*%
X285172500Y-56420000D03*
%TO.P,SW12,2,2*%
%TO.N,Net-(D13-A)*%
X278822500Y-58960000D03*
%TD*%
%TO.P,SW6,1,1*%
%TO.N,COL5*%
X170872500Y-56420000D03*
%TO.P,SW6,2,2*%
%TO.N,Net-(D7-A)*%
X164522500Y-58960000D03*
%TD*%
%TO.P,SW48,1,1*%
%TO.N,COL6*%
X213735000Y-113570000D03*
%TO.P,SW48,2,2*%
%TO.N,Net-(D48-A)*%
X207385000Y-116110000D03*
%TD*%
%TO.P,SW50,1,1*%
%TO.N,COL8*%
X251835000Y-113570000D03*
%TO.P,SW50,2,2*%
%TO.N,Net-(D50-A)*%
X245485000Y-116110000D03*
%TD*%
%TO.P,SW23,1,1*%
%TO.N,COL8*%
X237547500Y-75470000D03*
%TO.P,SW23,2,2*%
%TO.N,Net-(D23-A)*%
X231197500Y-78010000D03*
%TD*%
%TO.P,SW45,1,1*%
%TO.N,COL3*%
X156585000Y-113570000D03*
%TO.P,SW45,2,2*%
%TO.N,Net-(D45-A)*%
X150235000Y-116110000D03*
%TD*%
%TO.P,SW9,1,1*%
%TO.N,COL8*%
X228022500Y-56420000D03*
%TO.P,SW9,2,2*%
%TO.N,Net-(D10-A)*%
X221672500Y-58960000D03*
%TD*%
%TO.P,SW42,1,1*%
%TO.N,COL0*%
X87528750Y-113570000D03*
%TO.P,SW42,2,2*%
%TO.N,Net-(D42-A)*%
X81178750Y-116110000D03*
%TD*%
%TO.P,SW28,1,1*%
%TO.N,COL13*%
X337560000Y-75470000D03*
%TO.P,SW28,2,2*%
%TO.N,Net-(D28-A)*%
X331210000Y-78010000D03*
%TD*%
%TO.P,SW32,1,1*%
%TO.N,COL3*%
X147060000Y-94520000D03*
%TO.P,SW32,2,2*%
%TO.N,Net-(D32-A)*%
X140710000Y-97060000D03*
%TD*%
%TO.P,SW21,1,1*%
%TO.N,COL6*%
X199447500Y-75470000D03*
%TO.P,SW21,2,2*%
%TO.N,Net-(D21-A)*%
X193097500Y-78010000D03*
%TD*%
%TO.P,SW51,1,1*%
%TO.N,COL9*%
X270885000Y-113570000D03*
%TO.P,SW51,2,2*%
%TO.N,Net-(D51-A)*%
X264535000Y-116110000D03*
%TD*%
%TO.P,SW46,1,1*%
%TO.N,COL4*%
X175635000Y-113570000D03*
%TO.P,SW46,2,2*%
%TO.N,Net-(D46-A)*%
X169285000Y-116110000D03*
%TD*%
%TO.P,SW15,1,1*%
%TO.N,COL0*%
X80385000Y-75470000D03*
%TO.P,SW15,2,2*%
%TO.N,Net-(D15-A)*%
X74035000Y-78010000D03*
%TD*%
%TO.P,SW4,1,1*%
%TO.N,COL3*%
X132772500Y-56420000D03*
%TO.P,SW4,2,2*%
%TO.N,Net-(D4-A)*%
X126422500Y-58960000D03*
%TD*%
%TO.P,SW27,1,1*%
%TO.N,COL12*%
X313747500Y-75470000D03*
%TO.P,SW27,2,2*%
%TO.N,Net-(D27-A)*%
X307397500Y-78010000D03*
%TD*%
%TO.P,SW11,1,1*%
%TO.N,COL10*%
X266122500Y-56420000D03*
%TO.P,SW11,2,2*%
%TO.N,Net-(D12-A)*%
X259772500Y-58960000D03*
%TD*%
%TO.P,SW57,1,1*%
%TO.N,COL4*%
X197066250Y-132620000D03*
%TO.P,SW57,2,2*%
%TO.N,Net-(D57-A)*%
X190716250Y-135160000D03*
%TD*%
%TO.P,SW61,1,1*%
%TO.N,COL12*%
X339941250Y-132620000D03*
%TO.P,SW61,2,2*%
%TO.N,Net-(D61-A)*%
X333591250Y-135160000D03*
%TD*%
%TO.P,SW7,1,1*%
%TO.N,COL6*%
X189922500Y-56420000D03*
%TO.P,SW7,2,2*%
%TO.N,Net-(D8-A)*%
X183572500Y-58960000D03*
%TD*%
%TO.P,SW2,1,1*%
%TO.N,COL1*%
X94672500Y-56420000D03*
%TO.P,SW2,2,2*%
%TO.N,Net-(D2-A)*%
X88322500Y-58960000D03*
%TD*%
%TO.P,SW18,1,1*%
%TO.N,COL3*%
X142297500Y-75470000D03*
%TO.P,SW18,2,2*%
%TO.N,Net-(D18-A)*%
X135947500Y-78010000D03*
%TD*%
%TO.P,SW41,1,1*%
%TO.N,COL12*%
X330416250Y-94520000D03*
%TO.P,SW41,2,2*%
%TO.N,Net-(D41-A)*%
X324066250Y-97060000D03*
%TD*%
%TO.P,SW34,1,1*%
%TO.N,COL5*%
X185160000Y-94520000D03*
%TO.P,SW34,2,2*%
%TO.N,Net-(D34-A)*%
X178810000Y-97060000D03*
%TD*%
%TO.P,SW3,1,1*%
%TO.N,COL2*%
X113722500Y-56420000D03*
%TO.P,SW3,2,2*%
%TO.N,Net-(D3-A)*%
X107372500Y-58960000D03*
%TD*%
%TO.P,SW24,1,1*%
%TO.N,COL9*%
X256597500Y-75470000D03*
%TO.P,SW24,2,2*%
%TO.N,Net-(D24-A)*%
X250247500Y-78010000D03*
%TD*%
%TO.P,SW52,1,1*%
%TO.N,COL10*%
X289935000Y-113570000D03*
%TO.P,SW52,2,2*%
%TO.N,Net-(D52-A)*%
X283585000Y-116110000D03*
%TD*%
D11*
%TO.P,A1,1,GPIO0*%
%TO.N,COL7*%
X38710000Y-42670000D03*
D12*
X39510000Y-42670000D03*
D13*
%TO.P,A1,2,GPIO1*%
%TO.N,COL8*%
X38710000Y-45210000D03*
D14*
X39510000Y-45210000D03*
D15*
%TO.P,A1,3,GND*%
%TO.N,Net-(A1-GND-Pad13)*%
X38710000Y-47750000D03*
D16*
X39510000Y-47750000D03*
D13*
%TO.P,A1,4,GPIO2*%
%TO.N,COL9*%
X38710000Y-50290000D03*
D14*
X39510000Y-50290000D03*
D13*
%TO.P,A1,5,GPIO3*%
%TO.N,COL10*%
X38710000Y-52830000D03*
D14*
X39510000Y-52830000D03*
D13*
%TO.P,A1,6,GPIO4*%
%TO.N,COL11*%
X38710000Y-55370000D03*
D14*
X39510000Y-55370000D03*
D13*
%TO.P,A1,7,GPIO5*%
%TO.N,COL12*%
X38710000Y-57910000D03*
D14*
X39510000Y-57910000D03*
D15*
%TO.P,A1,8,GND*%
%TO.N,Net-(A1-GND-Pad13)*%
X38710000Y-60450000D03*
D16*
X39510000Y-60450000D03*
D13*
%TO.P,A1,9,GPIO6*%
%TO.N,COL13*%
X38710000Y-62990000D03*
D14*
X39510000Y-62990000D03*
D13*
%TO.P,A1,10,GPIO7*%
%TO.N,ROW0*%
X38710000Y-65530000D03*
D14*
X39510000Y-65530000D03*
D13*
%TO.P,A1,11,GPIO8*%
%TO.N,ROW1*%
X38710000Y-68070000D03*
D14*
X39510000Y-68070000D03*
D13*
%TO.P,A1,12,GPIO9*%
%TO.N,ROW2*%
X38710000Y-70610000D03*
D14*
X39510000Y-70610000D03*
D15*
%TO.P,A1,13,GND*%
%TO.N,Net-(A1-GND-Pad13)*%
X38710000Y-73150000D03*
D16*
X39510000Y-73150000D03*
D13*
%TO.P,A1,14,GPIO10*%
%TO.N,ROW3*%
X38710000Y-75690000D03*
D14*
X39510000Y-75690000D03*
D13*
%TO.P,A1,15,GPIO11*%
%TO.N,ROW4*%
X38710000Y-78230000D03*
D14*
X39510000Y-78230000D03*
D13*
%TO.P,A1,16,GPIO12*%
%TO.N,unconnected-(A1-GPIO12-Pad16)*%
X38710000Y-80770000D03*
D14*
X39510000Y-80770000D03*
D13*
%TO.P,A1,17,GPIO13*%
%TO.N,unconnected-(A1-GPIO13-Pad17)*%
X38710000Y-83310000D03*
D14*
X39510000Y-83310000D03*
D15*
%TO.P,A1,18,GND*%
%TO.N,Net-(A1-GND-Pad13)*%
X38710000Y-85850000D03*
D16*
X39510000Y-85850000D03*
D13*
%TO.P,A1,19,GPIO14*%
%TO.N,unconnected-(A1-GPIO14-Pad19)*%
X38710000Y-88390000D03*
D14*
X39510000Y-88390000D03*
D13*
%TO.P,A1,20,GPIO15*%
%TO.N,unconnected-(A1-GPIO15-Pad20)*%
X38710000Y-90930000D03*
D14*
X39510000Y-90930000D03*
%TO.P,A1,21,GPIO16*%
%TO.N,COL0*%
X57290000Y-90930000D03*
D13*
X58090000Y-90930000D03*
D14*
%TO.P,A1,22,GPIO17*%
%TO.N,COL1*%
X57290000Y-88390000D03*
D13*
X58090000Y-88390000D03*
D17*
%TO.P,A1,23,GND*%
%TO.N,Net-(A1-GND-Pad13)*%
X57290000Y-85850000D03*
D11*
X58090000Y-85850000D03*
D14*
%TO.P,A1,24,GPIO18*%
%TO.N,COL2*%
X57290000Y-83310000D03*
D13*
X58090000Y-83310000D03*
D14*
%TO.P,A1,25,GPIO19*%
%TO.N,COL3*%
X57290000Y-80770000D03*
D13*
X58090000Y-80770000D03*
D14*
%TO.P,A1,26,GPIO20*%
%TO.N,COL4*%
X57290000Y-78230000D03*
D13*
X58090000Y-78230000D03*
D14*
%TO.P,A1,27,GPIO21*%
%TO.N,COL5*%
X57290000Y-75690000D03*
D13*
X58090000Y-75690000D03*
D17*
%TO.P,A1,28,GND*%
%TO.N,Net-(A1-GND-Pad13)*%
X57290000Y-73150000D03*
D11*
X58090000Y-73150000D03*
D14*
%TO.P,A1,29,GPIO22*%
%TO.N,COL6*%
X57290000Y-70610000D03*
D13*
X58090000Y-70610000D03*
D14*
%TO.P,A1,30,RUN*%
%TO.N,unconnected-(A1-RUN-Pad30)*%
X57290000Y-68070000D03*
D13*
X58090000Y-68070000D03*
D14*
%TO.P,A1,31,GPIO26_ADC0*%
%TO.N,unconnected-(A1-GPIO26_ADC0-Pad31)*%
X57290000Y-65530000D03*
D13*
X58090000Y-65530000D03*
D14*
%TO.P,A1,32,GPIO27_ADC1*%
%TO.N,unconnected-(A1-GPIO27_ADC1-Pad32)*%
X57290000Y-62990000D03*
D13*
X58090000Y-62990000D03*
D17*
%TO.P,A1,33,AGND*%
%TO.N,unconnected-(A1-AGND-Pad33)*%
X57290000Y-60450000D03*
D11*
X58090000Y-60450000D03*
D14*
%TO.P,A1,34,GPIO28_ADC2*%
%TO.N,unconnected-(A1-GPIO28_ADC2-Pad34)*%
X57290000Y-57910000D03*
D13*
X58090000Y-57910000D03*
D14*
%TO.P,A1,35,ADC_VREF*%
%TO.N,unconnected-(A1-ADC_VREF-Pad35)*%
X57290000Y-55370000D03*
D13*
X58090000Y-55370000D03*
D14*
%TO.P,A1,36,3V3*%
%TO.N,unconnected-(A1-3V3-Pad36)*%
X57290000Y-52830000D03*
D13*
X58090000Y-52830000D03*
D14*
%TO.P,A1,37,3V3_EN*%
%TO.N,unconnected-(A1-3V3_EN-Pad37)*%
X57290000Y-50290000D03*
D13*
X58090000Y-50290000D03*
D17*
%TO.P,A1,38,GND*%
%TO.N,Net-(A1-GND-Pad13)*%
X57290000Y-47750000D03*
D11*
X58090000Y-47750000D03*
D14*
%TO.P,A1,39,VSYS*%
%TO.N,unconnected-(A1-VSYS-Pad39)*%
X57290000Y-45210000D03*
D13*
X58090000Y-45210000D03*
D14*
%TO.P,A1,40,VBUS*%
%TO.N,unconnected-(A1-VBUS-Pad40)*%
X57290000Y-42670000D03*
D13*
X58090000Y-42670000D03*
%TD*%
D10*
%TO.P,SW29,1,1*%
%TO.N,COL0*%
X82766250Y-94520000D03*
%TO.P,SW29,2,2*%
%TO.N,Net-(D29-A)*%
X76416250Y-97060000D03*
%TD*%
%TO.P,SW17,1,1*%
%TO.N,COL2*%
X123247500Y-75470000D03*
%TO.P,SW17,2,2*%
%TO.N,Net-(D17-A)*%
X116897500Y-78010000D03*
%TD*%
%TO.P,SW16,1,1*%
%TO.N,COL1*%
X104197500Y-75470000D03*
%TO.P,SW16,2,2*%
%TO.N,Net-(D16-A)*%
X97847500Y-78010000D03*
%TD*%
%TO.P,SW13,1,1*%
%TO.N,COL12*%
X304222500Y-56420000D03*
%TO.P,SW13,2,2*%
%TO.N,Net-(D14-A)*%
X297872500Y-58960000D03*
%TD*%
%TO.P,SW47,1,1*%
%TO.N,COL5*%
X194685000Y-113570000D03*
%TO.P,SW47,2,2*%
%TO.N,Net-(D47-A)*%
X188335000Y-116110000D03*
%TD*%
%TO.P,SW25,1,1*%
%TO.N,COL10*%
X275647500Y-75470000D03*
%TO.P,SW25,2,2*%
%TO.N,Net-(D25-A)*%
X269297500Y-78010000D03*
%TD*%
%TO.P,SW14,1,1*%
%TO.N,COL13*%
X332797500Y-56420000D03*
%TO.P,SW14,2,2*%
%TO.N,Net-(D5-A)*%
X326447500Y-58960000D03*
%TD*%
%TO.P,SW49,1,1*%
%TO.N,COL7*%
X232785000Y-113570000D03*
%TO.P,SW49,2,2*%
%TO.N,Net-(D49-A)*%
X226435000Y-116110000D03*
%TD*%
%TO.P,SW30,1,1*%
%TO.N,COL1*%
X108960000Y-94520000D03*
%TO.P,SW30,2,2*%
%TO.N,Net-(D30-A)*%
X102610000Y-97060000D03*
%TD*%
%TO.P,SW22,1,1*%
%TO.N,COL7*%
X218497500Y-75470000D03*
%TO.P,SW22,2,2*%
%TO.N,Net-(D22-A)*%
X212147500Y-78010000D03*
%TD*%
%TO.P,SW19,1,1*%
%TO.N,COL4*%
X161347500Y-75470000D03*
%TO.P,SW19,2,2*%
%TO.N,Net-(D19-A)*%
X154997500Y-78010000D03*
%TD*%
%TO.P,SW53,1,1*%
%TO.N,COL11*%
X325653750Y-113570000D03*
%TO.P,SW53,2,2*%
%TO.N,Net-(D53-A)*%
X319303750Y-116110000D03*
%TD*%
%TO.P,SW33,1,1*%
%TO.N,COL4*%
X166110000Y-94520000D03*
%TO.P,SW33,2,2*%
%TO.N,Net-(D33-A)*%
X159760000Y-97060000D03*
%TD*%
%TO.P,SW43,1,1*%
%TO.N,COL1*%
X118485000Y-113570000D03*
%TO.P,SW43,2,2*%
%TO.N,Net-(D43-A)*%
X112135000Y-116110000D03*
%TD*%
%TO.P,SW35,1,1*%
%TO.N,COL6*%
X204210000Y-94520000D03*
%TO.P,SW35,2,2*%
%TO.N,Net-(D35-A)*%
X197860000Y-97060000D03*
%TD*%
%TO.P,SW54,1,1*%
%TO.N,COL0*%
X78003750Y-132620000D03*
%TO.P,SW54,2,2*%
%TO.N,Net-(D54-A)*%
X71653750Y-135160000D03*
%TD*%
%TO.P,SW31,1,1*%
%TO.N,COL2*%
X128010000Y-94520000D03*
%TO.P,SW31,2,2*%
%TO.N,Net-(D31-A)*%
X121660000Y-97060000D03*
%TD*%
%TO.P,SW1,1,1*%
%TO.N,COL0*%
X75622500Y-56420000D03*
%TO.P,SW1,2,2*%
%TO.N,Net-(D1-A)*%
X69272500Y-58960000D03*
%TD*%
%TO.P,SW5,1,1*%
%TO.N,COL4*%
X151822500Y-56420000D03*
%TO.P,SW5,2,2*%
%TO.N,Net-(D6-A)*%
X145472500Y-58960000D03*
%TD*%
%TO.P,SW26,1,1*%
%TO.N,COL11*%
X294697500Y-75470000D03*
%TO.P,SW26,2,2*%
%TO.N,Net-(D26-A)*%
X288347500Y-78010000D03*
%TD*%
%TO.P,SW36,1,1*%
%TO.N,COL7*%
X223260000Y-94520000D03*
%TO.P,SW36,2,2*%
%TO.N,Net-(D36-A)*%
X216910000Y-97060000D03*
%TD*%
%TO.P,SW56,1,1*%
%TO.N,COL2*%
X125628750Y-132620000D03*
%TO.P,SW56,2,2*%
%TO.N,Net-(D56-A)*%
X119278750Y-135160000D03*
%TD*%
%TO.P,SW55,1,1*%
%TO.N,COL1*%
X101816250Y-132620000D03*
%TO.P,SW55,2,2*%
%TO.N,Net-(D55-A)*%
X95466250Y-135160000D03*
%TD*%
D18*
%TO.P,D53,1,K*%
%TO.N,ROW3*%
X330733750Y-116600000D03*
D14*
%TO.P,D53,2,A*%
%TO.N,Net-(D53-A)*%
X330733750Y-108980000D03*
%TD*%
D18*
%TO.P,D25,1,K*%
%TO.N,ROW1*%
X280727500Y-78500000D03*
D14*
%TO.P,D25,2,A*%
%TO.N,Net-(D25-A)*%
X280727500Y-70880000D03*
%TD*%
D18*
%TO.P,D10,1,K*%
%TO.N,ROW0*%
X233102500Y-59450000D03*
D14*
%TO.P,D10,2,A*%
%TO.N,Net-(D10-A)*%
X233102500Y-51830000D03*
%TD*%
D18*
%TO.P,D56,1,K*%
%TO.N,ROW4*%
X130708750Y-135650000D03*
D14*
%TO.P,D56,2,A*%
%TO.N,Net-(D56-A)*%
X130708750Y-128030000D03*
%TD*%
D18*
%TO.P,D47,1,K*%
%TO.N,ROW3*%
X199765000Y-116600000D03*
D14*
%TO.P,D47,2,A*%
%TO.N,Net-(D47-A)*%
X199765000Y-108980000D03*
%TD*%
D18*
%TO.P,D27,1,K*%
%TO.N,ROW1*%
X318827500Y-78500000D03*
D14*
%TO.P,D27,2,A*%
%TO.N,Net-(D27-A)*%
X318827500Y-70880000D03*
%TD*%
D18*
%TO.P,D8,1,K*%
%TO.N,ROW0*%
X195002500Y-59450000D03*
D14*
%TO.P,D8,2,A*%
%TO.N,Net-(D8-A)*%
X195002500Y-51830000D03*
%TD*%
D18*
%TO.P,D11,1,K*%
%TO.N,ROW0*%
X252152500Y-59450000D03*
D14*
%TO.P,D11,2,A*%
%TO.N,Net-(D11-A)*%
X252152500Y-51830000D03*
%TD*%
D18*
%TO.P,D34,1,K*%
%TO.N,ROW2*%
X190240000Y-97550000D03*
D14*
%TO.P,D34,2,A*%
%TO.N,Net-(D34-A)*%
X190240000Y-89930000D03*
%TD*%
D18*
%TO.P,D30,1,K*%
%TO.N,ROW2*%
X114040000Y-97550000D03*
D14*
%TO.P,D30,2,A*%
%TO.N,Net-(D30-A)*%
X114040000Y-89930000D03*
%TD*%
D18*
%TO.P,D40,1,K*%
%TO.N,ROW2*%
X304540000Y-97550000D03*
D14*
%TO.P,D40,2,A*%
%TO.N,Net-(D40-A)*%
X304540000Y-89930000D03*
%TD*%
D18*
%TO.P,D58,1,K*%
%TO.N,ROW4*%
X273583750Y-135650000D03*
D14*
%TO.P,D58,2,A*%
%TO.N,Net-(D58-A)*%
X273583750Y-128030000D03*
%TD*%
D18*
%TO.P,D36,1,K*%
%TO.N,ROW2*%
X228340000Y-97550000D03*
D14*
%TO.P,D36,2,A*%
%TO.N,Net-(D36-A)*%
X228340000Y-89930000D03*
%TD*%
D18*
%TO.P,D18,1,K*%
%TO.N,ROW1*%
X147377500Y-78500000D03*
D14*
%TO.P,D18,2,A*%
%TO.N,Net-(D18-A)*%
X147377500Y-70880000D03*
%TD*%
D18*
%TO.P,D52,1,K*%
%TO.N,ROW3*%
X295015000Y-116600000D03*
D14*
%TO.P,D52,2,A*%
%TO.N,Net-(D52-A)*%
X295015000Y-108980000D03*
%TD*%
D18*
%TO.P,D54,1,K*%
%TO.N,ROW4*%
X83083750Y-135650000D03*
D14*
%TO.P,D54,2,A*%
%TO.N,Net-(D54-A)*%
X83083750Y-128030000D03*
%TD*%
D18*
%TO.P,D51,1,K*%
%TO.N,ROW3*%
X275965000Y-116600000D03*
D14*
%TO.P,D51,2,A*%
%TO.N,Net-(D51-A)*%
X275965000Y-108980000D03*
%TD*%
D18*
%TO.P,D20,1,K*%
%TO.N,ROW1*%
X185477500Y-78500000D03*
D14*
%TO.P,D20,2,A*%
%TO.N,Net-(D20-A)*%
X185477500Y-70880000D03*
%TD*%
D18*
%TO.P,D31,1,K*%
%TO.N,ROW2*%
X133090000Y-97550000D03*
D14*
%TO.P,D31,2,A*%
%TO.N,Net-(D31-A)*%
X133090000Y-89930000D03*
%TD*%
D18*
%TO.P,D35,1,K*%
%TO.N,ROW2*%
X209290000Y-97550000D03*
D14*
%TO.P,D35,2,A*%
%TO.N,Net-(D35-A)*%
X209290000Y-89930000D03*
%TD*%
D18*
%TO.P,D13,1,K*%
%TO.N,ROW0*%
X290252500Y-59450000D03*
D14*
%TO.P,D13,2,A*%
%TO.N,Net-(D13-A)*%
X290252500Y-51830000D03*
%TD*%
D18*
%TO.P,D1,1,K*%
%TO.N,ROW0*%
X80702500Y-59450000D03*
D14*
%TO.P,D1,2,A*%
%TO.N,Net-(D1-A)*%
X80702500Y-51830000D03*
%TD*%
D18*
%TO.P,D14,1,K*%
%TO.N,ROW0*%
X309302500Y-59450000D03*
D14*
%TO.P,D14,2,A*%
%TO.N,Net-(D14-A)*%
X309302500Y-51830000D03*
%TD*%
D18*
%TO.P,D6,1,K*%
%TO.N,ROW0*%
X156902500Y-59450000D03*
D14*
%TO.P,D6,2,A*%
%TO.N,Net-(D6-A)*%
X156902500Y-51830000D03*
%TD*%
D18*
%TO.P,D39,1,K*%
%TO.N,ROW2*%
X285490000Y-97550000D03*
D14*
%TO.P,D39,2,A*%
%TO.N,Net-(D39-A)*%
X285490000Y-89930000D03*
%TD*%
D18*
%TO.P,D49,1,K*%
%TO.N,ROW3*%
X237865000Y-116600000D03*
D14*
%TO.P,D49,2,A*%
%TO.N,Net-(D49-A)*%
X237865000Y-108980000D03*
%TD*%
D18*
%TO.P,D17,1,K*%
%TO.N,ROW1*%
X128327500Y-78500000D03*
D14*
%TO.P,D17,2,A*%
%TO.N,Net-(D17-A)*%
X128327500Y-70880000D03*
%TD*%
D18*
%TO.P,D44,1,K*%
%TO.N,ROW3*%
X142615000Y-116600000D03*
D14*
%TO.P,D44,2,A*%
%TO.N,Net-(D44-A)*%
X142615000Y-108980000D03*
%TD*%
D18*
%TO.P,D46,1,K*%
%TO.N,ROW3*%
X180715000Y-116600000D03*
D14*
%TO.P,D46,2,A*%
%TO.N,Net-(D46-A)*%
X180715000Y-108980000D03*
%TD*%
D18*
%TO.P,D2,1,K*%
%TO.N,ROW0*%
X99752500Y-59450000D03*
D14*
%TO.P,D2,2,A*%
%TO.N,Net-(D2-A)*%
X99752500Y-51830000D03*
%TD*%
D18*
%TO.P,D57,1,K*%
%TO.N,ROW4*%
X202146250Y-135650000D03*
D14*
%TO.P,D57,2,A*%
%TO.N,Net-(D57-A)*%
X202146250Y-128030000D03*
%TD*%
D18*
%TO.P,D24,1,K*%
%TO.N,ROW1*%
X261677500Y-78500000D03*
D14*
%TO.P,D24,2,A*%
%TO.N,Net-(D24-A)*%
X261677500Y-70880000D03*
%TD*%
D18*
%TO.P,D22,1,K*%
%TO.N,ROW1*%
X223577500Y-78500000D03*
D14*
%TO.P,D22,2,A*%
%TO.N,Net-(D22-A)*%
X223577500Y-70880000D03*
%TD*%
D18*
%TO.P,D38,1,K*%
%TO.N,ROW2*%
X266440000Y-97550000D03*
D14*
%TO.P,D38,2,A*%
%TO.N,Net-(D38-A)*%
X266440000Y-89930000D03*
%TD*%
D18*
%TO.P,D37,1,K*%
%TO.N,ROW2*%
X247390000Y-97550000D03*
D14*
%TO.P,D37,2,A*%
%TO.N,Net-(D37-A)*%
X247390000Y-89930000D03*
%TD*%
D18*
%TO.P,D60,1,K*%
%TO.N,ROW4*%
X321208750Y-135650000D03*
D14*
%TO.P,D60,2,A*%
%TO.N,Net-(D60-A)*%
X321208750Y-128030000D03*
%TD*%
D18*
%TO.P,D33,1,K*%
%TO.N,ROW2*%
X171190000Y-97550000D03*
D14*
%TO.P,D33,2,A*%
%TO.N,Net-(D33-A)*%
X171190000Y-89930000D03*
%TD*%
D18*
%TO.P,D5,1,K*%
%TO.N,ROW0*%
X337877500Y-59450000D03*
D14*
%TO.P,D5,2,A*%
%TO.N,Net-(D5-A)*%
X337877500Y-51830000D03*
%TD*%
D18*
%TO.P,D23,1,K*%
%TO.N,ROW1*%
X242627500Y-78500000D03*
D14*
%TO.P,D23,2,A*%
%TO.N,Net-(D23-A)*%
X242627500Y-70880000D03*
%TD*%
D18*
%TO.P,D26,1,K*%
%TO.N,ROW1*%
X299777500Y-78500000D03*
D14*
%TO.P,D26,2,A*%
%TO.N,Net-(D26-A)*%
X299777500Y-70880000D03*
%TD*%
D18*
%TO.P,D3,1,K*%
%TO.N,ROW0*%
X118802500Y-59450000D03*
D14*
%TO.P,D3,2,A*%
%TO.N,Net-(D3-A)*%
X118802500Y-51830000D03*
%TD*%
D18*
%TO.P,D55,1,K*%
%TO.N,ROW4*%
X106896250Y-135650000D03*
D14*
%TO.P,D55,2,A*%
%TO.N,Net-(D55-A)*%
X106896250Y-128030000D03*
%TD*%
D18*
%TO.P,D45,1,K*%
%TO.N,ROW3*%
X161665000Y-116600000D03*
D14*
%TO.P,D45,2,A*%
%TO.N,Net-(D45-A)*%
X161665000Y-108980000D03*
%TD*%
D18*
%TO.P,D41,1,K*%
%TO.N,ROW2*%
X335496250Y-97550000D03*
D14*
%TO.P,D41,2,A*%
%TO.N,Net-(D41-A)*%
X335496250Y-89930000D03*
%TD*%
D18*
%TO.P,D61,1,K*%
%TO.N,ROW4*%
X345021250Y-135650000D03*
D14*
%TO.P,D61,2,A*%
%TO.N,Net-(D61-A)*%
X345021250Y-128030000D03*
%TD*%
D18*
%TO.P,D7,1,K*%
%TO.N,ROW0*%
X175952500Y-59450000D03*
D14*
%TO.P,D7,2,A*%
%TO.N,Net-(D7-A)*%
X175952500Y-51830000D03*
%TD*%
D18*
%TO.P,D4,1,K*%
%TO.N,ROW0*%
X137852500Y-59450000D03*
D14*
%TO.P,D4,2,A*%
%TO.N,Net-(D4-A)*%
X137852500Y-51830000D03*
%TD*%
D18*
%TO.P,D42,1,K*%
%TO.N,ROW3*%
X92608750Y-116600000D03*
D14*
%TO.P,D42,2,A*%
%TO.N,Net-(D42-A)*%
X92608750Y-108980000D03*
%TD*%
D18*
%TO.P,D59,1,K*%
%TO.N,ROW4*%
X297396250Y-135650000D03*
D14*
%TO.P,D59,2,A*%
%TO.N,Net-(D59-A)*%
X297396250Y-128030000D03*
%TD*%
D18*
%TO.P,D48,1,K*%
%TO.N,ROW3*%
X218815000Y-116600000D03*
D14*
%TO.P,D48,2,A*%
%TO.N,Net-(D48-A)*%
X218815000Y-108980000D03*
%TD*%
D18*
%TO.P,D19,1,K*%
%TO.N,ROW1*%
X166427500Y-78500000D03*
D14*
%TO.P,D19,2,A*%
%TO.N,Net-(D19-A)*%
X166427500Y-70880000D03*
%TD*%
D18*
%TO.P,D15,1,K*%
%TO.N,ROW1*%
X85465000Y-78500000D03*
D14*
%TO.P,D15,2,A*%
%TO.N,Net-(D15-A)*%
X85465000Y-70880000D03*
%TD*%
D18*
%TO.P,D43,1,K*%
%TO.N,ROW3*%
X123565000Y-116600000D03*
D14*
%TO.P,D43,2,A*%
%TO.N,Net-(D43-A)*%
X123565000Y-108980000D03*
%TD*%
D18*
%TO.P,D29,1,K*%
%TO.N,ROW2*%
X87846250Y-97550000D03*
D14*
%TO.P,D29,2,A*%
%TO.N,Net-(D29-A)*%
X87846250Y-89930000D03*
%TD*%
D18*
%TO.P,D28,1,K*%
%TO.N,ROW1*%
X342640000Y-78500000D03*
D14*
%TO.P,D28,2,A*%
%TO.N,Net-(D28-A)*%
X342640000Y-70880000D03*
%TD*%
D18*
%TO.P,D21,1,K*%
%TO.N,ROW1*%
X204527500Y-78500000D03*
D14*
%TO.P,D21,2,A*%
%TO.N,Net-(D21-A)*%
X204527500Y-70880000D03*
%TD*%
D18*
%TO.P,D16,1,K*%
%TO.N,ROW1*%
X109277500Y-78500000D03*
D14*
%TO.P,D16,2,A*%
%TO.N,Net-(D16-A)*%
X109277500Y-70880000D03*
%TD*%
D18*
%TO.P,D50,1,K*%
%TO.N,ROW3*%
X256915000Y-116600000D03*
D14*
%TO.P,D50,2,A*%
%TO.N,Net-(D50-A)*%
X256915000Y-108980000D03*
%TD*%
D18*
%TO.P,D12,1,K*%
%TO.N,ROW0*%
X271202500Y-59450000D03*
D14*
%TO.P,D12,2,A*%
%TO.N,Net-(D12-A)*%
X271202500Y-51830000D03*
%TD*%
D18*
%TO.P,D32,1,K*%
%TO.N,ROW2*%
X152140000Y-97550000D03*
D14*
%TO.P,D32,2,A*%
%TO.N,Net-(D32-A)*%
X152140000Y-89930000D03*
%TD*%
D18*
%TO.P,D9,1,K*%
%TO.N,ROW0*%
X214052500Y-59450000D03*
D14*
%TO.P,D9,2,A*%
%TO.N,Net-(D9-A)*%
X214052500Y-51830000D03*
%TD*%
D19*
%TO.N,COL8*%
X201000000Y-47400000D03*
%TO.N,COL9*%
X61800000Y-45600000D03*
X198200000Y-44000000D03*
%TO.N,ROW1*%
X56000000Y-114600000D03*
X66800000Y-113000000D03*
X79200000Y-87600000D03*
%TO.N,ROW3*%
X107400000Y-123200000D03*
X122800000Y-120800000D03*
X45400000Y-105600000D03*
%TO.N,COL10*%
X63400000Y-44400000D03*
X64600000Y-40200000D03*
%TO.N,COL3*%
X117600000Y-68600000D03*
X66400000Y-84400000D03*
X65400000Y-78200000D03*
%TO.N,ROW2*%
X52000000Y-110600000D03*
%TO.N,COL2*%
X76400000Y-69200000D03*
X101400000Y-68800000D03*
X80800000Y-70000000D03*
%TO.N,COL12*%
X74000000Y-44400000D03*
X63800000Y-53400000D03*
X262200000Y-47400000D03*
X61600000Y-56600000D03*
%TO.N,COL4*%
X93000000Y-84000000D03*
X81600000Y-84400000D03*
X139000000Y-69600000D03*
X63600000Y-86000000D03*
%TO.N,COL13*%
X43400000Y-63800000D03*
X61600000Y-64200000D03*
X258400000Y-46000000D03*
%TO.N,ROW0*%
X41400000Y-65600000D03*
X66000000Y-63800000D03*
X86400000Y-68000000D03*
X62400000Y-61200000D03*
%TO.N,COL5*%
X96000000Y-66200000D03*
X139400000Y-64200000D03*
X153800000Y-65800000D03*
X65200000Y-75400000D03*
X121000000Y-65400000D03*
X74200000Y-75600000D03*
X100600000Y-64400000D03*
X114800000Y-65800000D03*
X133600000Y-65600000D03*
%TO.N,COL11*%
X200800000Y-49600000D03*
X282800000Y-52800000D03*
%TO.N,COL6*%
X181800000Y-86400000D03*
X62200000Y-87600000D03*
X61600000Y-84800000D03*
X67400000Y-79600000D03*
X67200000Y-76000000D03*
%TO.N,COL1*%
X87000000Y-65600000D03*
X110600000Y-103000000D03*
%TD*%
D20*
%TO.N,COL8*%
X201000000Y-47400000D02*
X200244000Y-46644000D01*
X41406000Y-47106000D02*
X39510000Y-45210000D01*
X200244000Y-46644000D02*
X56480406Y-46644000D01*
X56018406Y-47106000D02*
X41406000Y-47106000D01*
X56480406Y-46644000D02*
X56018406Y-47106000D01*
%TO.N,COL9*%
X196600000Y-45600000D02*
X61800000Y-45600000D01*
X198200000Y-44000000D02*
X196600000Y-45600000D01*
%TO.N,ROW1*%
X223577500Y-83577500D02*
X225600000Y-85600000D01*
X246000000Y-85600000D02*
X263800000Y-85600000D01*
X204527500Y-83327500D02*
X206800000Y-85600000D01*
X261677500Y-83477500D02*
X263800000Y-85600000D01*
X166427500Y-78500000D02*
X166427500Y-83227500D01*
X318827500Y-84427500D02*
X320000000Y-85600000D01*
X299777500Y-78500000D02*
X299777500Y-85022500D01*
X114400000Y-85600000D02*
X132800000Y-85600000D01*
X185477500Y-78500000D02*
X185477500Y-81677500D01*
X263800000Y-85600000D02*
X284000000Y-85600000D01*
X336800000Y-85600000D02*
X342640000Y-79760000D01*
X85465000Y-78500000D02*
X92565000Y-85600000D01*
X132800000Y-85600000D02*
X153400000Y-85600000D01*
X189400000Y-85600000D02*
X206800000Y-85600000D01*
X206800000Y-85600000D02*
X225600000Y-85600000D01*
X280727500Y-78500000D02*
X280727500Y-82327500D01*
X153400000Y-85600000D02*
X168800000Y-85600000D01*
X320000000Y-85600000D02*
X336800000Y-85600000D01*
X168800000Y-85600000D02*
X189400000Y-85600000D01*
X128327500Y-81127500D02*
X132800000Y-85600000D01*
X79200000Y-87600000D02*
X79400000Y-87600000D01*
X185477500Y-81677500D02*
X189400000Y-85600000D01*
X147377500Y-78500000D02*
X147377500Y-79577500D01*
X318827500Y-78500000D02*
X318827500Y-84427500D01*
X147377500Y-79577500D02*
X153400000Y-85600000D01*
X280727500Y-82327500D02*
X284000000Y-85600000D01*
X223577500Y-78500000D02*
X223577500Y-83577500D01*
X225600000Y-85600000D02*
X246000000Y-85600000D01*
X242627500Y-78500000D02*
X242627500Y-82227500D01*
X65200000Y-114600000D02*
X66800000Y-113000000D01*
X284000000Y-85600000D02*
X299200000Y-85600000D01*
X128327500Y-78500000D02*
X128327500Y-81127500D01*
X299777500Y-85022500D02*
X299200000Y-85600000D01*
X109277500Y-78500000D02*
X109277500Y-80477500D01*
X342640000Y-79760000D02*
X342640000Y-78500000D01*
X166427500Y-83227500D02*
X168800000Y-85600000D01*
X109277500Y-80477500D02*
X114400000Y-85600000D01*
X204527500Y-78500000D02*
X204527500Y-83327500D01*
X85465000Y-81535000D02*
X85465000Y-78500000D01*
X92565000Y-85600000D02*
X114400000Y-85600000D01*
X56000000Y-114600000D02*
X65200000Y-114600000D01*
X242627500Y-82227500D02*
X246000000Y-85600000D01*
X261677500Y-78500000D02*
X261677500Y-83477500D01*
X79400000Y-87600000D02*
X85465000Y-81535000D01*
X299200000Y-85600000D02*
X320000000Y-85600000D01*
%TO.N,ROW3*%
X256915000Y-116600000D02*
X256915000Y-120715000D01*
X242600000Y-123400000D02*
X259600000Y-123400000D01*
X142615000Y-121215000D02*
X144800000Y-123400000D01*
X237865000Y-119465000D02*
X242200000Y-123800000D01*
X295015000Y-119985000D02*
X295015000Y-116600000D01*
X259600000Y-123400000D02*
X279200000Y-123400000D01*
X92608750Y-116600000D02*
X100800000Y-116600000D01*
X309400000Y-123800000D02*
X329200000Y-123800000D01*
X203600000Y-123400000D02*
X224600000Y-123400000D01*
X237865000Y-116600000D02*
X237865000Y-119465000D01*
X180715000Y-116600000D02*
X180715000Y-119715000D01*
X256915000Y-120715000D02*
X259600000Y-123400000D01*
X302200000Y-116600000D02*
X309400000Y-123800000D01*
X123565000Y-120035000D02*
X123565000Y-116600000D01*
X199765000Y-119565000D02*
X203600000Y-123400000D01*
X275965000Y-120165000D02*
X279200000Y-123400000D01*
X184400000Y-123400000D02*
X203600000Y-123400000D01*
X142615000Y-116600000D02*
X142615000Y-121215000D01*
X100800000Y-116600000D02*
X107400000Y-123200000D01*
X144800000Y-123400000D02*
X164000000Y-123400000D01*
X122800000Y-120800000D02*
X123565000Y-120035000D01*
X224600000Y-123400000D02*
X242600000Y-123400000D01*
X295015000Y-116600000D02*
X302200000Y-116600000D01*
X92608750Y-119791250D02*
X92608750Y-116600000D01*
X291600000Y-123400000D02*
X295015000Y-119985000D01*
X130365000Y-123400000D02*
X144800000Y-123400000D01*
X242200000Y-123800000D02*
X242600000Y-123400000D01*
X180715000Y-119715000D02*
X184400000Y-123400000D01*
X329200000Y-123800000D02*
X330733750Y-122266250D01*
X161665000Y-121065000D02*
X164000000Y-123400000D01*
X218815000Y-116600000D02*
X218815000Y-117615000D01*
X161665000Y-116600000D02*
X161665000Y-121065000D01*
X90000000Y-122400000D02*
X92608750Y-119791250D01*
X164000000Y-123400000D02*
X184400000Y-123400000D01*
X62200000Y-122400000D02*
X90000000Y-122400000D01*
X275965000Y-116600000D02*
X275965000Y-120165000D01*
X199765000Y-116600000D02*
X199765000Y-119565000D01*
X330733750Y-122266250D02*
X330733750Y-116600000D01*
X279200000Y-123400000D02*
X291600000Y-123400000D01*
X123565000Y-116600000D02*
X130365000Y-123400000D01*
X45400000Y-105600000D02*
X62200000Y-122400000D01*
X218815000Y-117615000D02*
X224600000Y-123400000D01*
%TO.N,COL10*%
X64600000Y-40200000D02*
X62400000Y-40200000D01*
X61800000Y-40800000D02*
X61800000Y-42800000D01*
X62400000Y-40200000D02*
X61800000Y-40800000D01*
X61800000Y-42800000D02*
X63400000Y-44400000D01*
%TO.N,COL3*%
X81200000Y-83600000D02*
X79600000Y-85200000D01*
X79600000Y-85200000D02*
X79200000Y-85200000D01*
X79200000Y-85200000D02*
X67200000Y-85200000D01*
X97400000Y-76200000D02*
X83600000Y-76200000D01*
X83600000Y-76200000D02*
X81200000Y-78600000D01*
X62830000Y-80770000D02*
X58090000Y-80770000D01*
X117600000Y-68600000D02*
X105000000Y-68600000D01*
X81200000Y-78600000D02*
X81200000Y-83600000D01*
X67200000Y-85200000D02*
X66400000Y-84400000D01*
X65400000Y-78200000D02*
X62830000Y-80770000D01*
X99800000Y-73800000D02*
X97400000Y-76200000D01*
X105000000Y-68600000D02*
X99800000Y-73800000D01*
%TO.N,ROW2*%
X93896250Y-103600000D02*
X117200000Y-103600000D01*
X335496250Y-101303750D02*
X335496250Y-97550000D01*
X307400000Y-103600000D02*
X333200000Y-103600000D01*
X171190000Y-101790000D02*
X173000000Y-103600000D01*
X190240000Y-97550000D02*
X190240000Y-100440000D01*
X85657780Y-97550000D02*
X87846250Y-97550000D01*
X155000000Y-103600000D02*
X173000000Y-103600000D01*
X114040000Y-100440000D02*
X117200000Y-103600000D01*
X152140000Y-97550000D02*
X152140000Y-100740000D01*
X133090000Y-99690000D02*
X137000000Y-103600000D01*
X137000000Y-103600000D02*
X155000000Y-103600000D01*
X247390000Y-100790000D02*
X250200000Y-103600000D01*
X286200000Y-103600000D02*
X307400000Y-103600000D01*
X117200000Y-103600000D02*
X137000000Y-103600000D01*
X52000000Y-110600000D02*
X72607780Y-110600000D01*
X266440000Y-101640000D02*
X268400000Y-103600000D01*
X247390000Y-97550000D02*
X247390000Y-100790000D01*
X133090000Y-97550000D02*
X133090000Y-99690000D01*
X87846250Y-97550000D02*
X93896250Y-103600000D01*
X266440000Y-97550000D02*
X266440000Y-101640000D01*
X268400000Y-103600000D02*
X286200000Y-103600000D01*
X209290000Y-99290000D02*
X213600000Y-103600000D01*
X230800000Y-103600000D02*
X250200000Y-103600000D01*
X285490000Y-97550000D02*
X285490000Y-102890000D01*
X304540000Y-97550000D02*
X304540000Y-100740000D01*
X228340000Y-97550000D02*
X228340000Y-101140000D01*
X250200000Y-103600000D02*
X268400000Y-103600000D01*
X171190000Y-97550000D02*
X171190000Y-101790000D01*
X114040000Y-97550000D02*
X114040000Y-100440000D01*
X173000000Y-103600000D02*
X193400000Y-103600000D01*
X193400000Y-103600000D02*
X213600000Y-103600000D01*
X285490000Y-102890000D02*
X286200000Y-103600000D01*
X72607780Y-110600000D02*
X85657780Y-97550000D01*
X228340000Y-101140000D02*
X230800000Y-103600000D01*
X209290000Y-97550000D02*
X209290000Y-99290000D01*
X304540000Y-100740000D02*
X307400000Y-103600000D01*
X333200000Y-103600000D02*
X335496250Y-101303750D01*
X152140000Y-100740000D02*
X155000000Y-103600000D01*
X213600000Y-103600000D02*
X230800000Y-103600000D01*
X190240000Y-100440000D02*
X193400000Y-103600000D01*
%TO.N,ROW4*%
X202146250Y-135650000D02*
X202146250Y-137946250D01*
X202146250Y-137946250D02*
X205800000Y-141600000D01*
X323800000Y-141600000D02*
X342200000Y-141600000D01*
X83083750Y-135650000D02*
X89033750Y-141600000D01*
X106896250Y-135650000D02*
X106896250Y-137696250D01*
X273583750Y-135650000D02*
X273583750Y-137783750D01*
X110800000Y-141600000D02*
X138200000Y-141600000D01*
X89033750Y-141600000D02*
X110800000Y-141600000D01*
X345021250Y-138778750D02*
X345021250Y-135650000D01*
X297396250Y-138196250D02*
X300800000Y-141600000D01*
X132250000Y-135650000D02*
X138200000Y-141600000D01*
X342200000Y-141600000D02*
X345021250Y-138778750D01*
X277400000Y-141600000D02*
X300800000Y-141600000D01*
X321208750Y-135650000D02*
X321208750Y-139008750D01*
X321208750Y-139008750D02*
X323800000Y-141600000D01*
X297396250Y-135650000D02*
X297396250Y-138196250D01*
X300800000Y-141600000D02*
X323800000Y-141600000D01*
X273583750Y-137783750D02*
X277400000Y-141600000D01*
X106896250Y-137696250D02*
X110800000Y-141600000D01*
X130708750Y-135650000D02*
X132250000Y-135650000D01*
X138200000Y-141600000D02*
X205800000Y-141600000D01*
X205800000Y-141600000D02*
X277400000Y-141600000D01*
%TO.N,COL2*%
X101400000Y-68800000D02*
X82000000Y-68800000D01*
X76400000Y-69200000D02*
X62290000Y-83310000D01*
X62290000Y-83310000D02*
X58090000Y-83310000D01*
X82000000Y-68800000D02*
X80800000Y-70000000D01*
%TO.N,COL12*%
X63800000Y-54400000D02*
X61600000Y-56600000D01*
X75001000Y-43399000D02*
X74000000Y-44400000D01*
X63800000Y-53400000D02*
X63800000Y-54400000D01*
X258199000Y-43399000D02*
X75001000Y-43399000D01*
X262200000Y-47400000D02*
X258199000Y-43399000D01*
%TO.N,COL4*%
X110400000Y-73400000D02*
X105800000Y-78000000D01*
X77400000Y-88400000D02*
X66000000Y-88400000D01*
X115800000Y-73400000D02*
X110400000Y-73400000D01*
X104600000Y-83800000D02*
X104400000Y-84000000D01*
X81400000Y-84400000D02*
X77400000Y-88400000D01*
X66000000Y-88400000D02*
X63600000Y-86000000D01*
X139000000Y-69600000D02*
X119600000Y-69600000D01*
X119600000Y-69600000D02*
X115800000Y-73400000D01*
X105800000Y-78000000D02*
X104600000Y-79200000D01*
X104400000Y-84000000D02*
X93000000Y-84000000D01*
X104600000Y-79200000D02*
X104600000Y-83800000D01*
X81600000Y-84400000D02*
X81400000Y-84400000D01*
%TO.N,COL13*%
X77400000Y-48400000D02*
X61600000Y-64200000D01*
X206000000Y-46000000D02*
X203600000Y-48400000D01*
X42590000Y-62990000D02*
X39510000Y-62990000D01*
X258400000Y-46000000D02*
X206000000Y-46000000D01*
X43400000Y-63800000D02*
X42590000Y-62990000D01*
X203600000Y-48400000D02*
X77400000Y-48400000D01*
%TO.N,ROW0*%
X99752500Y-64752500D02*
X102200000Y-67200000D01*
X56200000Y-61800000D02*
X61800000Y-61800000D01*
X337877500Y-65122500D02*
X337877500Y-59450000D01*
X296000000Y-67200000D02*
X314000000Y-67200000D01*
X121600000Y-67200000D02*
X140200000Y-67200000D01*
X102200000Y-67200000D02*
X121600000Y-67200000D01*
X314000000Y-64147500D02*
X314000000Y-67200000D01*
X137852500Y-64852500D02*
X140200000Y-67200000D01*
X156902500Y-63302500D02*
X160800000Y-67200000D01*
X118802500Y-59450000D02*
X118802500Y-64402500D01*
X259000000Y-67200000D02*
X276000000Y-67200000D01*
X252152500Y-59450000D02*
X252152500Y-60352500D01*
X314000000Y-67200000D02*
X335800000Y-67200000D01*
X335800000Y-67200000D02*
X337877500Y-65122500D01*
X56000000Y-62000000D02*
X56200000Y-61800000D01*
X290252500Y-59450000D02*
X290252500Y-61452500D01*
X271202500Y-59450000D02*
X271202500Y-62402500D01*
X195002500Y-59450000D02*
X195002500Y-64602500D01*
X233102500Y-62702500D02*
X237600000Y-67200000D01*
X197600000Y-67200000D02*
X217800000Y-67200000D01*
X290252500Y-61452500D02*
X296000000Y-67200000D01*
X156902500Y-59450000D02*
X156902500Y-63302500D01*
X66000000Y-63800000D02*
X72000000Y-63800000D01*
X137852500Y-59450000D02*
X137852500Y-64852500D01*
X86400000Y-68000000D02*
X87200000Y-67200000D01*
X271202500Y-62402500D02*
X276000000Y-67200000D01*
X233102500Y-59450000D02*
X233102500Y-62702500D01*
X118802500Y-64402500D02*
X121600000Y-67200000D01*
X252152500Y-60352500D02*
X259000000Y-67200000D01*
X160800000Y-67200000D02*
X179800000Y-67200000D01*
X61800000Y-61800000D02*
X62400000Y-61200000D01*
X309302500Y-59450000D02*
X314000000Y-64147500D01*
X73400000Y-65200000D02*
X76160970Y-65200000D01*
X214052500Y-63452500D02*
X217800000Y-67200000D01*
X72000000Y-63800000D02*
X73400000Y-65200000D01*
X195002500Y-64602500D02*
X197600000Y-67200000D01*
X276000000Y-67200000D02*
X296000000Y-67200000D01*
X76160970Y-65200000D02*
X80702500Y-60658470D01*
X41400000Y-65600000D02*
X52400000Y-65600000D01*
X87200000Y-67200000D02*
X102200000Y-67200000D01*
X175952500Y-63352500D02*
X179800000Y-67200000D01*
X52400000Y-65600000D02*
X56000000Y-62000000D01*
X237600000Y-67200000D02*
X259000000Y-67200000D01*
X175952500Y-59450000D02*
X175952500Y-63352500D01*
X140200000Y-67200000D02*
X160800000Y-67200000D01*
X99752500Y-59450000D02*
X99752500Y-64752500D01*
X179800000Y-67200000D02*
X197600000Y-67200000D01*
X214052500Y-59450000D02*
X214052500Y-63452500D01*
X80702500Y-60658470D02*
X80702500Y-59450000D01*
X217800000Y-67200000D02*
X237600000Y-67200000D01*
%TO.N,COL5*%
X64910000Y-75690000D02*
X58090000Y-75690000D01*
X141000000Y-65800000D02*
X139400000Y-64200000D01*
X114800000Y-65800000D02*
X102000000Y-65800000D01*
X153800000Y-65800000D02*
X141000000Y-65800000D01*
X133600000Y-65600000D02*
X121200000Y-65600000D01*
X65200000Y-75400000D02*
X64910000Y-75690000D01*
X121200000Y-65600000D02*
X121000000Y-65400000D01*
X96000000Y-66200000D02*
X83600000Y-66200000D01*
X83600000Y-66200000D02*
X74200000Y-75600000D01*
X102000000Y-65800000D02*
X100600000Y-64400000D01*
%TO.N,COL11*%
X200800000Y-49600000D02*
X279600000Y-49600000D01*
X279600000Y-49600000D02*
X282800000Y-52800000D01*
%TO.N,COL6*%
X71000000Y-88801000D02*
X63401000Y-88801000D01*
X63401000Y-88801000D02*
X62200000Y-87600000D01*
X66800000Y-79600000D02*
X67400000Y-79600000D01*
X89599000Y-88801000D02*
X71000000Y-88801000D01*
X181800000Y-86400000D02*
X92000000Y-86400000D01*
X61600000Y-84800000D02*
X66800000Y-79600000D01*
X61810000Y-70610000D02*
X58090000Y-70610000D01*
X67200000Y-76000000D02*
X61810000Y-70610000D01*
X92000000Y-86400000D02*
X90800000Y-87600000D01*
X90800000Y-87600000D02*
X89599000Y-88801000D01*
%TO.N,COL1*%
X108980000Y-132620000D02*
X101816250Y-132620000D01*
X59810000Y-88390000D02*
X58090000Y-88390000D01*
X82600000Y-65600000D02*
X59810000Y-88390000D01*
X108960000Y-101360000D02*
X110600000Y-103000000D01*
X118485000Y-113570000D02*
X118485000Y-123115000D01*
X87000000Y-65600000D02*
X82600000Y-65600000D01*
X118485000Y-123115000D02*
X108980000Y-132620000D01*
X108960000Y-94520000D02*
X108960000Y-101360000D01*
%TO.N,Net-(D1-A)*%
X76402500Y-51830000D02*
X80702500Y-51830000D01*
X69272500Y-58960000D02*
X76402500Y-51830000D01*
%TO.N,Net-(D2-A)*%
X95452500Y-51830000D02*
X99752500Y-51830000D01*
X88322500Y-58960000D02*
X95452500Y-51830000D01*
%TO.N,Net-(D3-A)*%
X107372500Y-58960000D02*
X114502500Y-51830000D01*
X114502500Y-51830000D02*
X118802500Y-51830000D01*
%TO.N,Net-(D4-A)*%
X126422500Y-58960000D02*
X133552500Y-51830000D01*
X133552500Y-51830000D02*
X137852500Y-51830000D01*
%TO.N,Net-(D5-A)*%
X333577500Y-51830000D02*
X337877500Y-51830000D01*
X326447500Y-58960000D02*
X333577500Y-51830000D01*
%TO.N,Net-(D6-A)*%
X145472500Y-58960000D02*
X152602500Y-51830000D01*
X152602500Y-51830000D02*
X156902500Y-51830000D01*
%TO.N,Net-(D7-A)*%
X164522500Y-58960000D02*
X171652500Y-51830000D01*
X171652500Y-51830000D02*
X175952500Y-51830000D01*
%TO.N,Net-(D8-A)*%
X190702500Y-51830000D02*
X195002500Y-51830000D01*
X183572500Y-58960000D02*
X190702500Y-51830000D01*
%TO.N,Net-(D9-A)*%
X202622500Y-58960000D02*
X209752500Y-51830000D01*
X209752500Y-51830000D02*
X214052500Y-51830000D01*
%TO.N,Net-(D10-A)*%
X228802500Y-51830000D02*
X233102500Y-51830000D01*
X221672500Y-58960000D02*
X228802500Y-51830000D01*
%TO.N,Net-(D11-A)*%
X247852500Y-51830000D02*
X252152500Y-51830000D01*
X240722500Y-58960000D02*
X247852500Y-51830000D01*
%TO.N,Net-(D12-A)*%
X266902500Y-51830000D02*
X271202500Y-51830000D01*
X259772500Y-58960000D02*
X266902500Y-51830000D01*
%TO.N,Net-(D13-A)*%
X278822500Y-58960000D02*
X285952500Y-51830000D01*
X285952500Y-51830000D02*
X290252500Y-51830000D01*
%TO.N,Net-(D14-A)*%
X297872500Y-58960000D02*
X305002500Y-51830000D01*
X305002500Y-51830000D02*
X309302500Y-51830000D01*
%TO.N,Net-(D15-A)*%
X81165000Y-70880000D02*
X85465000Y-70880000D01*
X74035000Y-78010000D02*
X81165000Y-70880000D01*
%TO.N,Net-(D16-A)*%
X104977500Y-70880000D02*
X109277500Y-70880000D01*
X97847500Y-78010000D02*
X104977500Y-70880000D01*
%TO.N,Net-(D17-A)*%
X124027500Y-70880000D02*
X128327500Y-70880000D01*
X116897500Y-78010000D02*
X124027500Y-70880000D01*
%TO.N,Net-(D18-A)*%
X143077500Y-70880000D02*
X147377500Y-70880000D01*
X135947500Y-78010000D02*
X143077500Y-70880000D01*
%TO.N,Net-(D19-A)*%
X162127500Y-70880000D02*
X166427500Y-70880000D01*
X154997500Y-78010000D02*
X162127500Y-70880000D01*
%TO.N,Net-(D20-A)*%
X181177500Y-70880000D02*
X185477500Y-70880000D01*
X174047500Y-78010000D02*
X181177500Y-70880000D01*
%TO.N,Net-(D21-A)*%
X193097500Y-78010000D02*
X200227500Y-70880000D01*
X200227500Y-70880000D02*
X204527500Y-70880000D01*
%TO.N,Net-(D22-A)*%
X212147500Y-78010000D02*
X219277500Y-70880000D01*
X219277500Y-70880000D02*
X223577500Y-70880000D01*
%TO.N,Net-(D23-A)*%
X238327500Y-70880000D02*
X242627500Y-70880000D01*
X231197500Y-78010000D02*
X238327500Y-70880000D01*
%TO.N,Net-(D24-A)*%
X250247500Y-78010000D02*
X257377500Y-70880000D01*
X257377500Y-70880000D02*
X261677500Y-70880000D01*
%TO.N,Net-(D25-A)*%
X276427500Y-70880000D02*
X280727500Y-70880000D01*
X269297500Y-78010000D02*
X276427500Y-70880000D01*
%TO.N,Net-(D26-A)*%
X288347500Y-78010000D02*
X295477500Y-70880000D01*
X295477500Y-70880000D02*
X299777500Y-70880000D01*
%TO.N,Net-(D27-A)*%
X307397500Y-78010000D02*
X314527500Y-70880000D01*
X314527500Y-70880000D02*
X318827500Y-70880000D01*
%TO.N,Net-(D28-A)*%
X331210000Y-78010000D02*
X338340000Y-70880000D01*
X338340000Y-70880000D02*
X342640000Y-70880000D01*
%TO.N,Net-(D29-A)*%
X76416250Y-97060000D02*
X83546250Y-89930000D01*
X83546250Y-89930000D02*
X87846250Y-89930000D01*
%TO.N,Net-(D30-A)*%
X102610000Y-97060000D02*
X109740000Y-89930000D01*
X109740000Y-89930000D02*
X114040000Y-89930000D01*
%TO.N,Net-(D31-A)*%
X128790000Y-89930000D02*
X133090000Y-89930000D01*
X121660000Y-97060000D02*
X128790000Y-89930000D01*
%TO.N,Net-(D32-A)*%
X147840000Y-89930000D02*
X152140000Y-89930000D01*
X140710000Y-97060000D02*
X147840000Y-89930000D01*
%TO.N,Net-(D33-A)*%
X159760000Y-97060000D02*
X166890000Y-89930000D01*
X166890000Y-89930000D02*
X171190000Y-89930000D01*
%TO.N,Net-(D34-A)*%
X185940000Y-89930000D02*
X190240000Y-89930000D01*
X178810000Y-97060000D02*
X185940000Y-89930000D01*
%TO.N,Net-(D35-A)*%
X204990000Y-89930000D02*
X209290000Y-89930000D01*
X197860000Y-97060000D02*
X204990000Y-89930000D01*
%TO.N,Net-(D36-A)*%
X216910000Y-97060000D02*
X224040000Y-89930000D01*
X224040000Y-89930000D02*
X228340000Y-89930000D01*
%TO.N,Net-(D37-A)*%
X243090000Y-89930000D02*
X247390000Y-89930000D01*
X235960000Y-97060000D02*
X243090000Y-89930000D01*
%TO.N,Net-(D38-A)*%
X255010000Y-97060000D02*
X262140000Y-89930000D01*
X262140000Y-89930000D02*
X266440000Y-89930000D01*
%TO.N,Net-(D39-A)*%
X274060000Y-97060000D02*
X281190000Y-89930000D01*
X281190000Y-89930000D02*
X285490000Y-89930000D01*
%TO.N,Net-(D40-A)*%
X300240000Y-89930000D02*
X304540000Y-89930000D01*
X293110000Y-97060000D02*
X300240000Y-89930000D01*
%TO.N,Net-(D41-A)*%
X324066250Y-97060000D02*
X331196250Y-89930000D01*
X331196250Y-89930000D02*
X335496250Y-89930000D01*
%TO.N,Net-(D42-A)*%
X81178750Y-116110000D02*
X88308750Y-108980000D01*
X88308750Y-108980000D02*
X92608750Y-108980000D01*
%TO.N,Net-(D43-A)*%
X112135000Y-116110000D02*
X119265000Y-108980000D01*
X119265000Y-108980000D02*
X123565000Y-108980000D01*
%TO.N,Net-(D44-A)*%
X131185000Y-116110000D02*
X138315000Y-108980000D01*
X138315000Y-108980000D02*
X142615000Y-108980000D01*
%TO.N,Net-(D45-A)*%
X157365000Y-108980000D02*
X161665000Y-108980000D01*
X150235000Y-116110000D02*
X157365000Y-108980000D01*
%TO.N,Net-(D46-A)*%
X169285000Y-116110000D02*
X176415000Y-108980000D01*
X176415000Y-108980000D02*
X180715000Y-108980000D01*
%TO.N,Net-(D47-A)*%
X188335000Y-116110000D02*
X195465000Y-108980000D01*
X195465000Y-108980000D02*
X199765000Y-108980000D01*
%TO.N,Net-(D48-A)*%
X207385000Y-116110000D02*
X214515000Y-108980000D01*
X214515000Y-108980000D02*
X218815000Y-108980000D01*
%TO.N,Net-(D49-A)*%
X233565000Y-108980000D02*
X237865000Y-108980000D01*
X226435000Y-116110000D02*
X233565000Y-108980000D01*
%TO.N,Net-(D50-A)*%
X252615000Y-108980000D02*
X256915000Y-108980000D01*
X245485000Y-116110000D02*
X252615000Y-108980000D01*
%TO.N,Net-(D51-A)*%
X271665000Y-108980000D02*
X275965000Y-108980000D01*
X264535000Y-116110000D02*
X271665000Y-108980000D01*
%TO.N,Net-(D52-A)*%
X283585000Y-116110000D02*
X290715000Y-108980000D01*
X290715000Y-108980000D02*
X295015000Y-108980000D01*
%TO.N,Net-(D53-A)*%
X319303750Y-116110000D02*
X326433750Y-108980000D01*
X326433750Y-108980000D02*
X330733750Y-108980000D01*
%TO.N,Net-(D54-A)*%
X71653750Y-135160000D02*
X78783750Y-128030000D01*
X78783750Y-128030000D02*
X83083750Y-128030000D01*
%TO.N,Net-(D55-A)*%
X102596250Y-128030000D02*
X106896250Y-128030000D01*
X95466250Y-135160000D02*
X102596250Y-128030000D01*
%TO.N,Net-(D56-A)*%
X126408750Y-128030000D02*
X130708750Y-128030000D01*
X119278750Y-135160000D02*
X126408750Y-128030000D01*
%TO.N,Net-(D57-A)*%
X190716250Y-135160000D02*
X197846250Y-128030000D01*
X197846250Y-128030000D02*
X202146250Y-128030000D01*
%TO.N,Net-(D58-A)*%
X262153750Y-135160000D02*
X269283750Y-128030000D01*
X269283750Y-128030000D02*
X273583750Y-128030000D01*
%TO.N,Net-(D59-A)*%
X285966250Y-135160000D02*
X293096250Y-128030000D01*
X293096250Y-128030000D02*
X297396250Y-128030000D01*
%TO.N,Net-(D60-A)*%
X316128750Y-132620000D02*
X316618750Y-132620000D01*
X316618750Y-132620000D02*
X321208750Y-128030000D01*
%TO.N,Net-(D61-A)*%
X333591250Y-135160000D02*
X340721250Y-128030000D01*
X340721250Y-128030000D02*
X345021250Y-128030000D01*
%TD*%
M02*
